<svg width="275" height="45" viewBox="0 0 275 45" fill="none" xmlns="http://www.w3.org/2000/svg">
<path d="M28.5429 28.72H29.3429V32H21.5029V28.72H22.7029L22.3829 27.12H19.6629L19.3429 28.72H20.5429V32H13.7029V28.72H14.5029L17.8829 16.44H25.1629L28.5429 28.72ZM20.1029 25H21.9429L21.1229 21.02H20.9229L20.1029 25ZM29.9762 32V28.72H30.9762V19.72H29.9762V16.44H37.5762V19.72H36.5762V28.72H37.5762V32H29.9762ZM52.1307 32.28C49.6107 32.28 47.664 31.64 46.2907 30.36C44.9307 29.08 44.2507 27.0333 44.2507 24.22C44.2507 18.8467 46.864 16.16 52.0907 16.16C53.3574 16.16 54.5307 16.3133 55.6107 16.62C56.704 16.9267 57.5174 17.2667 58.0507 17.64V22.64H53.2507V21.2C53.2507 20.6933 53.1374 20.32 52.9107 20.08C52.684 19.84 52.344 19.72 51.8907 19.72C51.4374 19.72 51.0974 19.84 50.8707 20.08C50.644 20.32 50.5307 20.6933 50.5307 21.2V27.24C50.5307 27.7467 50.644 28.12 50.8707 28.36C51.0974 28.6 51.4374 28.72 51.8907 28.72C52.344 28.72 52.684 28.6 52.9107 28.36C53.1374 28.12 53.2507 27.7467 53.2507 27.24V25.62H58.0507V30.8C57.504 31.1733 56.6907 31.5133 55.6107 31.82C54.544 32.1267 53.384 32.28 52.1307 32.28ZM72.0443 28.72V32H65.7243V28.72H66.5643V25.44C66.5643 25 66.471 24.68 66.2843 24.48C66.0976 24.2667 65.8176 24.16 65.4443 24.16C64.6443 24.16 64.2443 24.5867 64.2443 25.44V28.72H65.0843V32H58.7643V28.72H59.6443V19.72H58.7643V16.44H64.2443V22.44C64.7376 21.8267 65.271 21.3667 65.8443 21.06C66.4176 20.7533 67.0843 20.6 67.8443 20.6C68.951 20.6 69.7776 20.9467 70.3243 21.64C70.8843 22.3333 71.1643 23.2867 71.1643 24.5V28.72H72.0443ZM84.3501 28.72V32H79.0701V30.64C78.7767 31.0667 78.3634 31.4467 77.8301 31.78C77.3101 32.1133 76.6701 32.28 75.9101 32.28C74.9101 32.28 74.1234 32.0133 73.5501 31.48C72.9767 30.9467 72.6901 30.1933 72.6901 29.22C72.6901 26.7 74.8301 25.4067 79.1101 25.34C79.0701 24.8867 78.8967 24.58 78.5901 24.42C78.2834 24.2467 77.7634 24.16 77.0301 24.16C76.4301 24.16 75.7834 24.2267 75.0901 24.36C74.4101 24.48 73.7834 24.6467 73.2101 24.86V21.18C73.9167 21.0067 74.6834 20.8667 75.5101 20.76C76.3367 20.6533 77.1434 20.6 77.9301 20.6C79.9167 20.6 81.3367 20.96 82.1901 21.68C83.0434 22.4 83.4701 23.5133 83.4701 25.02V28.72H84.3501ZM79.0701 27.32C78.4701 27.32 78.0034 27.4 77.6701 27.56C77.3501 27.72 77.1901 27.9867 77.1901 28.36C77.1901 28.5867 77.2567 28.7733 77.3901 28.92C77.5367 29.0533 77.7367 29.12 77.9901 29.12C78.3367 29.12 78.6034 28.9733 78.7901 28.68C78.9767 28.3867 79.0701 27.9733 79.0701 27.44V27.32ZM93.5348 20.6C93.8014 20.6 94.0548 20.6267 94.2948 20.68C94.5348 20.7333 94.7348 20.8 94.8948 20.88V24.7C94.3481 24.4733 93.7614 24.36 93.1348 24.36C92.2948 24.36 91.6481 24.58 91.1948 25.02C90.7414 25.46 90.5148 26.1133 90.5148 26.98V28.72H92.3148V32H85.0348V28.72H85.9148V24.16H85.0348V20.88H90.5148V22.34C90.8881 21.78 91.3148 21.3533 91.7948 21.06C92.2748 20.7533 92.8548 20.6 93.5348 20.6ZM107.202 28.72V32H101.922V30.64C101.628 31.0667 101.215 31.4467 100.682 31.78C100.162 32.1133 99.5216 32.28 98.7616 32.28C97.7616 32.28 96.975 32.0133 96.4016 31.48C95.8283 30.9467 95.5416 30.1933 95.5416 29.22C95.5416 26.7 97.6816 25.4067 101.962 25.34C101.922 24.8867 101.748 24.58 101.442 24.42C101.135 24.2467 100.615 24.16 99.8816 24.16C99.2816 24.16 98.635 24.2267 97.9416 24.36C97.2616 24.48 96.635 24.6467 96.0616 24.86V21.18C96.7683 21.0067 97.535 20.8667 98.3616 20.76C99.1883 20.6533 99.995 20.6 100.782 20.6C102.768 20.6 104.188 20.96 105.042 21.68C105.895 22.4 106.322 23.5133 106.322 25.02V28.72H107.202ZM101.922 27.32C101.322 27.32 100.855 27.4 100.522 27.56C100.202 27.72 100.042 27.9867 100.042 28.36C100.042 28.5867 100.108 28.7733 100.242 28.92C100.388 29.0533 100.588 29.12 100.842 29.12C101.188 29.12 101.455 28.9733 101.642 28.68C101.828 28.3867 101.922 27.9733 101.922 27.44V27.32ZM113.826 32.28C111.92 32.28 110.433 31.7867 109.366 30.8C108.3 29.8 107.766 28.3467 107.766 26.44C107.766 24.5333 108.3 23.0867 109.366 22.1C110.433 21.1 111.913 20.6 113.806 20.6C114.726 20.6 115.606 20.7267 116.446 20.98C117.286 21.2333 117.94 21.52 118.406 21.84V25.8H114.966V25.44C114.966 25 114.873 24.68 114.686 24.48C114.5 24.2667 114.206 24.16 113.806 24.16C113.033 24.16 112.646 24.5867 112.646 25.44V27.16C112.646 28.2 113.24 28.72 114.426 28.72C115.533 28.72 116.82 28.6 118.286 28.36V31.5C117.833 31.7 117.193 31.88 116.366 32.04C115.553 32.2 114.706 32.28 113.826 32.28ZM124.017 32.28C122.603 32.28 121.537 31.94 120.817 31.26C120.11 30.5667 119.757 29.4067 119.757 27.78V24.16H118.877V20.88C119.383 20.88 119.763 20.7533 120.017 20.5C120.27 20.2333 120.397 19.8733 120.397 19.42V18.52H124.637V20.88H127.337V24.16H124.637V27.44C124.637 27.88 124.73 28.2067 124.917 28.42C125.117 28.62 125.41 28.72 125.797 28.72C126.303 28.72 126.857 28.66 127.457 28.54V31.68C127.083 31.8267 126.577 31.96 125.937 32.08C125.31 32.2133 124.67 32.28 124.017 32.28ZM134.06 32.28C132.167 32.28 130.687 31.7867 129.62 30.8C128.554 29.8 128.02 28.3467 128.02 26.44C128.02 24.5333 128.554 23.0867 129.62 22.1C130.687 21.1 132.167 20.6 134.06 20.6C135.94 20.6 137.294 21.0933 138.12 22.08C138.96 23.0533 139.38 24.2667 139.38 25.72V27.16H132.9V27.28C132.9 27.7733 133.047 28.14 133.34 28.38C133.634 28.6067 134.12 28.72 134.8 28.72C135.614 28.72 136.387 28.66 137.12 28.54C137.854 28.42 138.494 28.2667 139.04 28.08V31.28C138.574 31.5333 137.887 31.7667 136.98 31.98C136.087 32.18 135.114 32.28 134.06 32.28ZM135.22 24.96V24.72C135.22 24.2667 135.12 23.94 134.92 23.74C134.734 23.54 134.447 23.44 134.06 23.44C133.674 23.44 133.38 23.5467 133.18 23.76C132.994 23.96 132.9 24.28 132.9 24.72V24.96H135.22ZM148.515 20.6C148.782 20.6 149.035 20.6267 149.275 20.68C149.515 20.7333 149.715 20.8 149.875 20.88V24.7C149.329 24.4733 148.742 24.36 148.115 24.36C147.275 24.36 146.629 24.58 146.175 25.02C145.722 25.46 145.495 26.1133 145.495 26.98V28.72H147.295V32H140.015V28.72H140.895V24.16H140.015V20.88H145.495V22.34C145.869 21.78 146.295 21.3533 146.775 21.06C147.255 20.7533 147.835 20.6 148.515 20.6ZM171.638 27H170.638V31C170.052 31.3333 169.192 31.6333 168.058 31.9C166.938 32.1533 165.725 32.28 164.418 32.28C161.925 32.28 159.972 31.6267 158.558 30.32C157.145 29 156.438 26.9667 156.438 24.22C156.438 21.4067 157.138 19.36 158.538 18.08C159.952 16.8 161.965 16.16 164.578 16.16C165.845 16.16 167.032 16.2933 168.138 16.56C169.245 16.8267 170.078 17.1267 170.638 17.46V22.24H165.638V21.3C165.638 20.74 165.518 20.34 165.278 20.1C165.052 19.8467 164.685 19.72 164.178 19.72C163.672 19.72 163.298 19.8467 163.058 20.1C162.832 20.34 162.718 20.74 162.718 21.3V27.14C162.718 27.7 162.832 28.1067 163.058 28.36C163.298 28.6 163.672 28.72 164.178 28.72C164.685 28.72 165.052 28.6 165.278 28.36C165.518 28.1067 165.638 27.7 165.638 27.14V27H164.558V24.02H171.638V27ZM178.123 32.28C176.229 32.28 174.749 31.7867 173.683 30.8C172.616 29.8 172.083 28.3467 172.083 26.44C172.083 24.5333 172.616 23.0867 173.683 22.1C174.749 21.1 176.229 20.6 178.123 20.6C180.003 20.6 181.356 21.0933 182.183 22.08C183.023 23.0533 183.443 24.2667 183.443 25.72V27.16H176.963V27.28C176.963 27.7733 177.109 28.14 177.403 28.38C177.696 28.6067 178.183 28.72 178.863 28.72C179.676 28.72 180.449 28.66 181.183 28.54C181.916 28.42 182.556 28.2667 183.103 28.08V31.28C182.636 31.5333 181.949 31.7667 181.043 31.98C180.149 32.18 179.176 32.28 178.123 32.28ZM179.283 24.96V24.72C179.283 24.2667 179.183 23.94 178.983 23.74C178.796 23.54 178.509 23.44 178.123 23.44C177.736 23.44 177.443 23.5467 177.243 23.76C177.056 23.96 176.963 24.28 176.963 24.72V24.96H179.283ZM197.318 28.72V32H190.998V28.72H191.838V25.44C191.838 25 191.744 24.68 191.558 24.48C191.371 24.2667 191.091 24.16 190.718 24.16C189.918 24.16 189.518 24.5867 189.518 25.44V28.72H190.358V32H184.038V28.72H184.918V24.16H184.038V20.88H189.518V22.44C190.478 21.2133 191.678 20.6 193.118 20.6C194.224 20.6 195.051 20.9467 195.598 21.64C196.158 22.3333 196.438 23.2867 196.438 24.5V28.72H197.318ZM203.924 32.28C202.03 32.28 200.55 31.7867 199.484 30.8C198.417 29.8 197.884 28.3467 197.884 26.44C197.884 24.5333 198.417 23.0867 199.484 22.1C200.55 21.1 202.03 20.6 203.924 20.6C205.804 20.6 207.157 21.0933 207.984 22.08C208.824 23.0533 209.244 24.2667 209.244 25.72V27.16H202.764V27.28C202.764 27.7733 202.91 28.14 203.204 28.38C203.497 28.6067 203.984 28.72 204.664 28.72C205.477 28.72 206.25 28.66 206.984 28.54C207.717 28.42 208.357 28.2667 208.904 28.08V31.28C208.437 31.5333 207.75 31.7667 206.844 31.98C205.95 32.18 204.977 32.28 203.924 32.28ZM205.084 24.96V24.72C205.084 24.2667 204.984 23.94 204.784 23.74C204.597 23.54 204.31 23.44 203.924 23.44C203.537 23.44 203.244 23.5467 203.044 23.76C202.857 23.96 202.764 24.28 202.764 24.72V24.96H205.084ZM218.379 20.6C218.645 20.6 218.899 20.6267 219.139 20.68C219.379 20.7333 219.579 20.8 219.739 20.88V24.7C219.192 24.4733 218.605 24.36 217.979 24.36C217.139 24.36 216.492 24.58 216.039 25.02C215.585 25.46 215.359 26.1133 215.359 26.98V28.72H217.159V32H209.879V28.72H210.759V24.16H209.879V20.88H215.359V22.34C215.732 21.78 216.159 21.3533 216.639 21.06C217.119 20.7533 217.699 20.6 218.379 20.6ZM232.045 28.72V32H226.765V30.64C226.472 31.0667 226.059 31.4467 225.525 31.78C225.005 32.1133 224.365 32.28 223.605 32.28C222.605 32.28 221.819 32.0133 221.245 31.48C220.672 30.9467 220.385 30.1933 220.385 29.22C220.385 26.7 222.525 25.4067 226.805 25.34C226.765 24.8867 226.592 24.58 226.285 24.42C225.979 24.2467 225.459 24.16 224.725 24.16C224.125 24.16 223.479 24.2267 222.785 24.36C222.105 24.48 221.479 24.6467 220.905 24.86V21.18C221.612 21.0067 222.379 20.8667 223.205 20.76C224.032 20.6533 224.839 20.6 225.625 20.6C227.612 20.6 229.032 20.96 229.885 21.68C230.739 22.4 231.165 23.5133 231.165 25.02V28.72H232.045ZM226.765 27.32C226.165 27.32 225.699 27.4 225.365 27.56C225.045 27.72 224.885 27.9867 224.885 28.36C224.885 28.5867 224.952 28.7733 225.085 28.92C225.232 29.0533 225.432 29.12 225.685 29.12C226.032 29.12 226.299 28.9733 226.485 28.68C226.672 28.3867 226.765 27.9733 226.765 27.44V27.32ZM237.63 32.28C236.217 32.28 235.15 31.94 234.43 31.26C233.723 30.5667 233.37 29.4067 233.37 27.78V24.16H232.49V20.88C232.997 20.88 233.377 20.7533 233.63 20.5C233.883 20.2333 234.01 19.8733 234.01 19.42V18.52H238.25V20.88H240.95V24.16H238.25V27.44C238.25 27.88 238.343 28.2067 238.53 28.42C238.73 28.62 239.023 28.72 239.41 28.72C239.917 28.72 240.47 28.66 241.07 28.54V31.68C240.697 31.8267 240.19 31.96 239.55 32.08C238.923 32.2133 238.283 32.28 237.63 32.28ZM247.674 32.28C245.78 32.28 244.3 31.7867 243.234 30.8C242.167 29.8 241.634 28.3467 241.634 26.44C241.634 24.5333 242.167 23.0867 243.234 22.1C244.3 21.1 245.78 20.6 247.674 20.6C249.594 20.6 251.08 21.1067 252.134 22.12C253.187 23.12 253.714 24.56 253.714 26.44C253.714 28.3467 253.18 29.8 252.114 30.8C251.047 31.7867 249.567 32.28 247.674 32.28ZM247.674 28.72C248.06 28.72 248.347 28.62 248.534 28.42C248.734 28.2067 248.834 27.88 248.834 27.44V25.44C248.834 25 248.734 24.68 248.534 24.48C248.347 24.2667 248.06 24.16 247.674 24.16C247.287 24.16 246.994 24.2667 246.794 24.48C246.607 24.68 246.514 25 246.514 25.44V27.44C246.514 27.88 246.607 28.2067 246.794 28.42C246.994 28.62 247.287 28.72 247.674 28.72ZM262.89 20.6C263.157 20.6 263.41 20.6267 263.65 20.68C263.89 20.7333 264.09 20.8 264.25 20.88V24.7C263.704 24.4733 263.117 24.36 262.49 24.36C261.65 24.36 261.004 24.58 260.55 25.02C260.097 25.46 259.87 26.1133 259.87 26.98V28.72H261.67V32H254.39V28.72H255.27V24.16H254.39V20.88H259.87V22.34C260.244 21.78 260.67 21.3533 261.15 21.06C261.63 20.7533 262.21 20.6 262.89 20.6Z" fill="black"/>
<path d="M27.5429 29.72H28.3429V33H20.5029V29.72H21.7029L21.3829 28.12H18.6629L18.3429 29.72H19.5429V33H12.7029V29.72H13.5029L16.8829 17.44H24.1629L27.5429 29.72ZM19.1029 26H20.9429L20.1229 22.02H19.9229L19.1029 26ZM28.9762 33V29.72H29.9762V20.72H28.9762V17.44H36.5762V20.72H35.5762V29.72H36.5762V33H28.9762ZM51.1307 33.28C48.6107 33.28 46.664 32.64 45.2907 31.36C43.9307 30.08 43.2507 28.0333 43.2507 25.22C43.2507 19.8467 45.864 17.16 51.0907 17.16C52.3574 17.16 53.5307 17.3133 54.6107 17.62C55.704 17.9267 56.5174 18.2667 57.0507 18.64V23.64H52.2507V22.2C52.2507 21.6933 52.1374 21.32 51.9107 21.08C51.684 20.84 51.344 20.72 50.8907 20.72C50.4374 20.72 50.0974 20.84 49.8707 21.08C49.644 21.32 49.5307 21.6933 49.5307 22.2V28.24C49.5307 28.7467 49.644 29.12 49.8707 29.36C50.0974 29.6 50.4374 29.72 50.8907 29.72C51.344 29.72 51.684 29.6 51.9107 29.36C52.1374 29.12 52.2507 28.7467 52.2507 28.24V26.62H57.0507V31.8C56.504 32.1733 55.6907 32.5133 54.6107 32.82C53.544 33.1267 52.384 33.28 51.1307 33.28ZM71.0443 29.72V33H64.7243V29.72H65.5643V26.44C65.5643 26 65.471 25.68 65.2843 25.48C65.0976 25.2667 64.8176 25.16 64.4443 25.16C63.6443 25.16 63.2443 25.5867 63.2443 26.44V29.72H64.0843V33H57.7643V29.72H58.6443V20.72H57.7643V17.44H63.2443V23.44C63.7376 22.8267 64.271 22.3667 64.8443 22.06C65.4176 21.7533 66.0843 21.6 66.8443 21.6C67.951 21.6 68.7776 21.9467 69.3243 22.64C69.8843 23.3333 70.1643 24.2867 70.1643 25.5V29.72H71.0443ZM83.3501 29.72V33H78.0701V31.64C77.7767 32.0667 77.3634 32.4467 76.8301 32.78C76.3101 33.1133 75.6701 33.28 74.9101 33.28C73.9101 33.28 73.1234 33.0133 72.5501 32.48C71.9767 31.9467 71.6901 31.1933 71.6901 30.22C71.6901 27.7 73.8301 26.4067 78.1101 26.34C78.0701 25.8867 77.8967 25.58 77.5901 25.42C77.2834 25.2467 76.7634 25.16 76.0301 25.16C75.4301 25.16 74.7834 25.2267 74.0901 25.36C73.4101 25.48 72.7834 25.6467 72.2101 25.86V22.18C72.9167 22.0067 73.6834 21.8667 74.5101 21.76C75.3367 21.6533 76.1434 21.6 76.9301 21.6C78.9167 21.6 80.3367 21.96 81.1901 22.68C82.0434 23.4 82.4701 24.5133 82.4701 26.02V29.72H83.3501ZM78.0701 28.32C77.4701 28.32 77.0034 28.4 76.6701 28.56C76.3501 28.72 76.1901 28.9867 76.1901 29.36C76.1901 29.5867 76.2567 29.7733 76.3901 29.92C76.5367 30.0533 76.7367 30.12 76.9901 30.12C77.3367 30.12 77.6034 29.9733 77.7901 29.68C77.9767 29.3867 78.0701 28.9733 78.0701 28.44V28.32ZM92.5348 21.6C92.8014 21.6 93.0548 21.6267 93.2948 21.68C93.5348 21.7333 93.7348 21.8 93.8948 21.88V25.7C93.3481 25.4733 92.7614 25.36 92.1348 25.36C91.2948 25.36 90.6481 25.58 90.1948 26.02C89.7414 26.46 89.5148 27.1133 89.5148 27.98V29.72H91.3148V33H84.0348V29.72H84.9148V25.16H84.0348V21.88H89.5148V23.34C89.8881 22.78 90.3148 22.3533 90.7948 22.06C91.2748 21.7533 91.8548 21.6 92.5348 21.6ZM106.202 29.72V33H100.922V31.64C100.628 32.0667 100.215 32.4467 99.6816 32.78C99.1616 33.1133 98.5216 33.28 97.7616 33.28C96.7616 33.28 95.975 33.0133 95.4016 32.48C94.8283 31.9467 94.5416 31.1933 94.5416 30.22C94.5416 27.7 96.6816 26.4067 100.962 26.34C100.922 25.8867 100.748 25.58 100.442 25.42C100.135 25.2467 99.615 25.16 98.8816 25.16C98.2816 25.16 97.635 25.2267 96.9416 25.36C96.2616 25.48 95.635 25.6467 95.0616 25.86V22.18C95.7683 22.0067 96.535 21.8667 97.3616 21.76C98.1883 21.6533 98.995 21.6 99.7816 21.6C101.768 21.6 103.188 21.96 104.042 22.68C104.895 23.4 105.322 24.5133 105.322 26.02V29.72H106.202ZM100.922 28.32C100.322 28.32 99.855 28.4 99.5216 28.56C99.2016 28.72 99.0416 28.9867 99.0416 29.36C99.0416 29.5867 99.1083 29.7733 99.2416 29.92C99.3883 30.0533 99.5883 30.12 99.8416 30.12C100.188 30.12 100.455 29.9733 100.642 29.68C100.828 29.3867 100.922 28.9733 100.922 28.44V28.32ZM112.826 33.28C110.92 33.28 109.433 32.7867 108.366 31.8C107.3 30.8 106.766 29.3467 106.766 27.44C106.766 25.5333 107.3 24.0867 108.366 23.1C109.433 22.1 110.913 21.6 112.806 21.6C113.726 21.6 114.606 21.7267 115.446 21.98C116.286 22.2333 116.94 22.52 117.406 22.84V26.8H113.966V26.44C113.966 26 113.873 25.68 113.686 25.48C113.5 25.2667 113.206 25.16 112.806 25.16C112.033 25.16 111.646 25.5867 111.646 26.44V28.16C111.646 29.2 112.24 29.72 113.426 29.72C114.533 29.72 115.82 29.6 117.286 29.36V32.5C116.833 32.7 116.193 32.88 115.366 33.04C114.553 33.2 113.706 33.28 112.826 33.28ZM123.017 33.28C121.603 33.28 120.537 32.94 119.817 32.26C119.11 31.5667 118.757 30.4067 118.757 28.78V25.16H117.877V21.88C118.383 21.88 118.763 21.7533 119.017 21.5C119.27 21.2333 119.397 20.8733 119.397 20.42V19.52H123.637V21.88H126.337V25.16H123.637V28.44C123.637 28.88 123.73 29.2067 123.917 29.42C124.117 29.62 124.41 29.72 124.797 29.72C125.303 29.72 125.857 29.66 126.457 29.54V32.68C126.083 32.8267 125.577 32.96 124.937 33.08C124.31 33.2133 123.67 33.28 123.017 33.28ZM133.06 33.28C131.167 33.28 129.687 32.7867 128.62 31.8C127.554 30.8 127.02 29.3467 127.02 27.44C127.02 25.5333 127.554 24.0867 128.62 23.1C129.687 22.1 131.167 21.6 133.06 21.6C134.94 21.6 136.294 22.0933 137.12 23.08C137.96 24.0533 138.38 25.2667 138.38 26.72V28.16H131.9V28.28C131.9 28.7733 132.047 29.14 132.34 29.38C132.634 29.6067 133.12 29.72 133.8 29.72C134.614 29.72 135.387 29.66 136.12 29.54C136.854 29.42 137.494 29.2667 138.04 29.08V32.28C137.574 32.5333 136.887 32.7667 135.98 32.98C135.087 33.18 134.114 33.28 133.06 33.28ZM134.22 25.96V25.72C134.22 25.2667 134.12 24.94 133.92 24.74C133.734 24.54 133.447 24.44 133.06 24.44C132.674 24.44 132.38 24.5467 132.18 24.76C131.994 24.96 131.9 25.28 131.9 25.72V25.96H134.22ZM147.515 21.6C147.782 21.6 148.035 21.6267 148.275 21.68C148.515 21.7333 148.715 21.8 148.875 21.88V25.7C148.329 25.4733 147.742 25.36 147.115 25.36C146.275 25.36 145.629 25.58 145.175 26.02C144.722 26.46 144.495 27.1133 144.495 27.98V29.72H146.295V33H139.015V29.72H139.895V25.16H139.015V21.88H144.495V23.34C144.869 22.78 145.295 22.3533 145.775 22.06C146.255 21.7533 146.835 21.6 147.515 21.6ZM170.638 28H169.638V32C169.052 32.3333 168.192 32.6333 167.058 32.9C165.938 33.1533 164.725 33.28 163.418 33.28C160.925 33.28 158.972 32.6267 157.558 31.32C156.145 30 155.438 27.9667 155.438 25.22C155.438 22.4067 156.138 20.36 157.538 19.08C158.952 17.8 160.965 17.16 163.578 17.16C164.845 17.16 166.032 17.2933 167.138 17.56C168.245 17.8267 169.078 18.1267 169.638 18.46V23.24H164.638V22.3C164.638 21.74 164.518 21.34 164.278 21.1C164.052 20.8467 163.685 20.72 163.178 20.72C162.672 20.72 162.298 20.8467 162.058 21.1C161.832 21.34 161.718 21.74 161.718 22.3V28.14C161.718 28.7 161.832 29.1067 162.058 29.36C162.298 29.6 162.672 29.72 163.178 29.72C163.685 29.72 164.052 29.6 164.278 29.36C164.518 29.1067 164.638 28.7 164.638 28.14V28H163.558V25.02H170.638V28ZM177.123 33.28C175.229 33.28 173.749 32.7867 172.683 31.8C171.616 30.8 171.083 29.3467 171.083 27.44C171.083 25.5333 171.616 24.0867 172.683 23.1C173.749 22.1 175.229 21.6 177.123 21.6C179.003 21.6 180.356 22.0933 181.183 23.08C182.023 24.0533 182.443 25.2667 182.443 26.72V28.16H175.963V28.28C175.963 28.7733 176.109 29.14 176.403 29.38C176.696 29.6067 177.183 29.72 177.863 29.72C178.676 29.72 179.449 29.66 180.183 29.54C180.916 29.42 181.556 29.2667 182.103 29.08V32.28C181.636 32.5333 180.949 32.7667 180.043 32.98C179.149 33.18 178.176 33.28 177.123 33.28ZM178.283 25.96V25.72C178.283 25.2667 178.183 24.94 177.983 24.74C177.796 24.54 177.509 24.44 177.123 24.44C176.736 24.44 176.443 24.5467 176.243 24.76C176.056 24.96 175.963 25.28 175.963 25.72V25.96H178.283ZM196.318 29.72V33H189.998V29.72H190.838V26.44C190.838 26 190.744 25.68 190.558 25.48C190.371 25.2667 190.091 25.16 189.718 25.16C188.918 25.16 188.518 25.5867 188.518 26.44V29.72H189.358V33H183.038V29.72H183.918V25.16H183.038V21.88H188.518V23.44C189.478 22.2133 190.678 21.6 192.118 21.6C193.224 21.6 194.051 21.9467 194.598 22.64C195.158 23.3333 195.438 24.2867 195.438 25.5V29.72H196.318ZM202.924 33.28C201.03 33.28 199.55 32.7867 198.484 31.8C197.417 30.8 196.884 29.3467 196.884 27.44C196.884 25.5333 197.417 24.0867 198.484 23.1C199.55 22.1 201.03 21.6 202.924 21.6C204.804 21.6 206.157 22.0933 206.984 23.08C207.824 24.0533 208.244 25.2667 208.244 26.72V28.16H201.764V28.28C201.764 28.7733 201.91 29.14 202.204 29.38C202.497 29.6067 202.984 29.72 203.664 29.72C204.477 29.72 205.25 29.66 205.984 29.54C206.717 29.42 207.357 29.2667 207.904 29.08V32.28C207.437 32.5333 206.75 32.7667 205.844 32.98C204.95 33.18 203.977 33.28 202.924 33.28ZM204.084 25.96V25.72C204.084 25.2667 203.984 24.94 203.784 24.74C203.597 24.54 203.31 24.44 202.924 24.44C202.537 24.44 202.244 24.5467 202.044 24.76C201.857 24.96 201.764 25.28 201.764 25.72V25.96H204.084ZM217.379 21.6C217.645 21.6 217.899 21.6267 218.139 21.68C218.379 21.7333 218.579 21.8 218.739 21.88V25.7C218.192 25.4733 217.605 25.36 216.979 25.36C216.139 25.36 215.492 25.58 215.039 26.02C214.585 26.46 214.359 27.1133 214.359 27.98V29.72H216.159V33H208.879V29.72H209.759V25.16H208.879V21.88H214.359V23.34C214.732 22.78 215.159 22.3533 215.639 22.06C216.119 21.7533 216.699 21.6 217.379 21.6ZM231.045 29.72V33H225.765V31.64C225.472 32.0667 225.059 32.4467 224.525 32.78C224.005 33.1133 223.365 33.28 222.605 33.28C221.605 33.28 220.819 33.0133 220.245 32.48C219.672 31.9467 219.385 31.1933 219.385 30.22C219.385 27.7 221.525 26.4067 225.805 26.34C225.765 25.8867 225.592 25.58 225.285 25.42C224.979 25.2467 224.459 25.16 223.725 25.16C223.125 25.16 222.479 25.2267 221.785 25.36C221.105 25.48 220.479 25.6467 219.905 25.86V22.18C220.612 22.0067 221.379 21.8667 222.205 21.76C223.032 21.6533 223.839 21.6 224.625 21.6C226.612 21.6 228.032 21.96 228.885 22.68C229.739 23.4 230.165 24.5133 230.165 26.02V29.72H231.045ZM225.765 28.32C225.165 28.32 224.699 28.4 224.365 28.56C224.045 28.72 223.885 28.9867 223.885 29.36C223.885 29.5867 223.952 29.7733 224.085 29.92C224.232 30.0533 224.432 30.12 224.685 30.12C225.032 30.12 225.299 29.9733 225.485 29.68C225.672 29.3867 225.765 28.9733 225.765 28.44V28.32ZM236.63 33.28C235.217 33.28 234.15 32.94 233.43 32.26C232.723 31.5667 232.37 30.4067 232.37 28.78V25.16H231.49V21.88C231.997 21.88 232.377 21.7533 232.63 21.5C232.883 21.2333 233.01 20.8733 233.01 20.42V19.52H237.25V21.88H239.95V25.16H237.25V28.44C237.25 28.88 237.343 29.2067 237.53 29.42C237.73 29.62 238.023 29.72 238.41 29.72C238.917 29.72 239.47 29.66 240.07 29.54V32.68C239.697 32.8267 239.19 32.96 238.55 33.08C237.923 33.2133 237.283 33.28 236.63 33.28ZM246.674 33.28C244.78 33.28 243.3 32.7867 242.234 31.8C241.167 30.8 240.634 29.3467 240.634 27.44C240.634 25.5333 241.167 24.0867 242.234 23.1C243.3 22.1 244.78 21.6 246.674 21.6C248.594 21.6 250.08 22.1067 251.134 23.12C252.187 24.12 252.714 25.56 252.714 27.44C252.714 29.3467 252.18 30.8 251.114 31.8C250.047 32.7867 248.567 33.28 246.674 33.28ZM246.674 29.72C247.06 29.72 247.347 29.62 247.534 29.42C247.734 29.2067 247.834 28.88 247.834 28.44V26.44C247.834 26 247.734 25.68 247.534 25.48C247.347 25.2667 247.06 25.16 246.674 25.16C246.287 25.16 245.994 25.2667 245.794 25.48C245.607 25.68 245.514 26 245.514 26.44V28.44C245.514 28.88 245.607 29.2067 245.794 29.42C245.994 29.62 246.287 29.72 246.674 29.72ZM261.89 21.6C262.157 21.6 262.41 21.6267 262.65 21.68C262.89 21.7333 263.09 21.8 263.25 21.88V25.7C262.704 25.4733 262.117 25.36 261.49 25.36C260.65 25.36 260.004 25.58 259.55 26.02C259.097 26.46 258.87 27.1133 258.87 27.98V29.72H260.67V33H253.39V29.72H254.27V25.16H253.39V21.88H258.87V23.34C259.244 22.78 259.67 22.3533 260.15 22.06C260.63 21.7533 261.21 21.6 261.89 21.6Z" fill="#FADCD5"/>
</svg>
