<svg width="175" height="45" viewBox="0 0 175 45" fill="none" xmlns="http://www.w3.org/2000/svg">
<path d="M32.9366 19.72H31.9366V28.72H32.9366V32H25.3766V28.72H26.3366V21.72L22.9366 32H19.9766L16.4766 21.82V28.72H17.4366V32H10.8766V28.72H11.8766V19.72H10.8766V16.44H20.0366L22.1166 22.68L24.1166 16.44H32.9366V19.72ZM45.7281 20.88V24.16H44.9681L42.3481 31.1C41.6948 32.8467 40.9481 34.1533 40.1081 35.02C39.2681 35.9 38.1615 36.34 36.7881 36.34C36.2281 36.34 35.6615 36.28 35.0881 36.16C34.5148 36.0533 33.9948 35.9 33.5281 35.7V32.08H36.2881V32.28C36.2881 32.6133 36.4615 32.78 36.8081 32.78C37.1148 32.78 37.3481 32.6333 37.5081 32.34L34.3481 24.16H33.5881V20.88H39.5281V24.16H38.8481L39.8881 27.28L40.8481 24.16H40.1681V20.88H45.7281ZM60.1209 32.28C57.6009 32.28 55.6543 31.64 54.2809 30.36C52.9209 29.08 52.2409 27.0333 52.2409 24.22C52.2409 18.8467 54.8543 16.16 60.0809 16.16C61.3476 16.16 62.5209 16.3133 63.6009 16.62C64.6943 16.9267 65.5076 17.2667 66.0409 17.64V22.64H61.2409V21.2C61.2409 20.6933 61.1276 20.32 60.9009 20.08C60.6743 19.84 60.3343 19.72 59.8809 19.72C59.4276 19.72 59.0876 19.84 58.8609 20.08C58.6343 20.32 58.5209 20.6933 58.5209 21.2V27.24C58.5209 27.7467 58.6343 28.12 58.8609 28.36C59.0876 28.6 59.4276 28.72 59.8809 28.72C60.3343 28.72 60.6743 28.6 60.9009 28.36C61.1276 28.12 61.2409 27.7467 61.2409 27.24V25.62H66.0409V30.8C65.4943 31.1733 64.6809 31.5133 63.6009 31.82C62.5343 32.1267 61.3743 32.28 60.1209 32.28ZM80.0345 28.72V32H73.7145V28.72H74.5545V25.44C74.5545 25 74.4612 24.68 74.2745 24.48C74.0879 24.2667 73.8079 24.16 73.4345 24.16C72.6345 24.16 72.2345 24.5867 72.2345 25.44V28.72H73.0745V32H66.7545V28.72H67.6345V19.72H66.7545V16.44H72.2345V22.44C72.7279 21.8267 73.2612 21.3667 73.8345 21.06C74.4079 20.7533 75.0745 20.6 75.8345 20.6C76.9412 20.6 77.7679 20.9467 78.3145 21.64C78.8745 22.3333 79.1545 23.2867 79.1545 24.5V28.72H80.0345ZM92.3403 28.72V32H87.0603V30.64C86.767 31.0667 86.3536 31.4467 85.8203 31.78C85.3003 32.1133 84.6603 32.28 83.9003 32.28C82.9003 32.28 82.1136 32.0133 81.5403 31.48C80.967 30.9467 80.6803 30.1933 80.6803 29.22C80.6803 26.7 82.8203 25.4067 87.1003 25.34C87.0603 24.8867 86.887 24.58 86.5803 24.42C86.2736 24.2467 85.7536 24.16 85.0203 24.16C84.4203 24.16 83.7736 24.2267 83.0803 24.36C82.4003 24.48 81.7736 24.6467 81.2003 24.86V21.18C81.907 21.0067 82.6736 20.8667 83.5003 20.76C84.327 20.6533 85.1336 20.6 85.9203 20.6C87.907 20.6 89.327 20.96 90.1803 21.68C91.0336 22.4 91.4603 23.5133 91.4603 25.02V28.72H92.3403ZM87.0603 27.32C86.4603 27.32 85.9936 27.4 85.6603 27.56C85.3403 27.72 85.1803 27.9867 85.1803 28.36C85.1803 28.5867 85.247 28.7733 85.3803 28.92C85.527 29.0533 85.727 29.12 85.9803 29.12C86.327 29.12 86.5936 28.9733 86.7803 28.68C86.967 28.3867 87.0603 27.9733 87.0603 27.44V27.32ZM101.525 20.6C101.792 20.6 102.045 20.6267 102.285 20.68C102.525 20.7333 102.725 20.8 102.885 20.88V24.7C102.338 24.4733 101.752 24.36 101.125 24.36C100.285 24.36 99.6383 24.58 99.185 25.02C98.7317 25.46 98.505 26.1133 98.505 26.98V28.72H100.305V32H93.025V28.72H93.905V24.16H93.025V20.88H98.505V22.34C98.8783 21.78 99.305 21.3533 99.785 21.06C100.265 20.7533 100.845 20.6 101.525 20.6ZM115.192 28.72V32H109.912V30.64C109.619 31.0667 109.205 31.4467 108.672 31.78C108.152 32.1133 107.512 32.28 106.752 32.28C105.752 32.28 104.965 32.0133 104.392 31.48C103.819 30.9467 103.532 30.1933 103.532 29.22C103.532 26.7 105.672 25.4067 109.952 25.34C109.912 24.8867 109.739 24.58 109.432 24.42C109.125 24.2467 108.605 24.16 107.872 24.16C107.272 24.16 106.625 24.2267 105.932 24.36C105.252 24.48 104.625 24.6467 104.052 24.86V21.18C104.759 21.0067 105.525 20.8667 106.352 20.76C107.179 20.6533 107.985 20.6 108.772 20.6C110.759 20.6 112.179 20.96 113.032 21.68C113.885 22.4 114.312 23.5133 114.312 25.02V28.72H115.192ZM109.912 27.32C109.312 27.32 108.845 27.4 108.512 27.56C108.192 27.72 108.032 27.9867 108.032 28.36C108.032 28.5867 108.099 28.7733 108.232 28.92C108.379 29.0533 108.579 29.12 108.832 29.12C109.179 29.12 109.445 28.9733 109.632 28.68C109.819 28.3867 109.912 27.9733 109.912 27.44V27.32ZM121.817 32.28C119.91 32.28 118.423 31.7867 117.357 30.8C116.29 29.8 115.757 28.3467 115.757 26.44C115.757 24.5333 116.29 23.0867 117.357 22.1C118.423 21.1 119.903 20.6 121.797 20.6C122.717 20.6 123.597 20.7267 124.437 20.98C125.277 21.2333 125.93 21.52 126.397 21.84V25.8H122.957V25.44C122.957 25 122.863 24.68 122.677 24.48C122.49 24.2667 122.197 24.16 121.797 24.16C121.023 24.16 120.637 24.5867 120.637 25.44V27.16C120.637 28.2 121.23 28.72 122.417 28.72C123.523 28.72 124.81 28.6 126.277 28.36V31.5C125.823 31.7 125.183 31.88 124.357 32.04C123.543 32.2 122.697 32.28 121.817 32.28ZM132.007 32.28C130.594 32.28 129.527 31.94 128.807 31.26C128.1 30.5667 127.747 29.4067 127.747 27.78V24.16H126.867V20.88C127.374 20.88 127.754 20.7533 128.007 20.5C128.26 20.2333 128.387 19.8733 128.387 19.42V18.52H132.627V20.88H135.327V24.16H132.627V27.44C132.627 27.88 132.72 28.2067 132.907 28.42C133.107 28.62 133.4 28.72 133.787 28.72C134.294 28.72 134.847 28.66 135.447 28.54V31.68C135.074 31.8267 134.567 31.96 133.927 32.08C133.3 32.2133 132.66 32.28 132.007 32.28ZM142.05 32.28C140.157 32.28 138.677 31.7867 137.61 30.8C136.544 29.8 136.01 28.3467 136.01 26.44C136.01 24.5333 136.544 23.0867 137.61 22.1C138.677 21.1 140.157 20.6 142.05 20.6C143.93 20.6 145.284 21.0933 146.11 22.08C146.95 23.0533 147.37 24.2667 147.37 25.72V27.16H140.89V27.28C140.89 27.7733 141.037 28.14 141.33 28.38C141.624 28.6067 142.11 28.72 142.79 28.72C143.604 28.72 144.377 28.66 145.11 28.54C145.844 28.42 146.484 28.2667 147.03 28.08V31.28C146.564 31.5333 145.877 31.7667 144.97 31.98C144.077 32.18 143.104 32.28 142.05 32.28ZM143.21 24.96V24.72C143.21 24.2667 143.11 23.94 142.91 23.74C142.724 23.54 142.437 23.44 142.05 23.44C141.664 23.44 141.37 23.5467 141.17 23.76C140.984 23.96 140.89 24.28 140.89 24.72V24.96H143.21ZM156.505 20.6C156.772 20.6 157.025 20.6267 157.265 20.68C157.505 20.7333 157.705 20.8 157.865 20.88V24.7C157.319 24.4733 156.732 24.36 156.105 24.36C155.265 24.36 154.619 24.58 154.165 25.02C153.712 25.46 153.485 26.1133 153.485 26.98V28.72H155.285V32H148.005V28.72H148.885V24.16H148.005V20.88H153.485V22.34C153.859 21.78 154.285 21.3533 154.765 21.06C155.245 20.7533 155.825 20.6 156.505 20.6ZM163.372 32.28C161.692 32.28 160.072 32.0133 158.512 31.48V28.52H161.752V28.72C161.752 29.36 162.159 29.68 162.972 29.68C163.692 29.68 164.052 29.4333 164.052 28.94C164.052 28.6733 163.946 28.4733 163.732 28.34C163.532 28.2067 163.172 28.0933 162.652 28L161.652 27.82C159.559 27.4467 158.512 26.26 158.512 24.26C158.512 23.1 158.952 22.2 159.832 21.56C160.712 20.92 161.899 20.6 163.392 20.6C165.059 20.6 166.466 20.88 167.612 21.44V24.22H164.572V24.02C164.572 23.7533 164.479 23.5533 164.292 23.42C164.119 23.2733 163.859 23.2 163.512 23.2C162.846 23.2 162.512 23.4133 162.512 23.84C162.512 24.0667 162.606 24.24 162.792 24.36C162.979 24.48 163.319 24.5933 163.812 24.7L164.952 24.92C166.139 25.1467 166.986 25.5667 167.492 26.18C167.999 26.7933 168.252 27.58 168.252 28.54C168.252 29.7533 167.826 30.68 166.972 31.32C166.132 31.96 164.932 32.28 163.372 32.28Z" fill="black"/>
<path d="M31.9366 17.72H30.9366V26.72H31.9366V30H24.3766V26.72H25.3366V19.72L21.9366 30H18.9766L15.4766 19.82V26.72H16.4366V30H9.87656V26.72H10.8766V17.72H9.87656V14.44H19.0366L21.1166 20.68L23.1166 14.44H31.9366V17.72ZM44.7281 18.88V22.16H43.9681L41.3481 29.1C40.6948 30.8467 39.9481 32.1533 39.1081 33.02C38.2681 33.9 37.1615 34.34 35.7881 34.34C35.2281 34.34 34.6615 34.28 34.0881 34.16C33.5148 34.0533 32.9948 33.9 32.5281 33.7V30.08H35.2881V30.28C35.2881 30.6133 35.4615 30.78 35.8081 30.78C36.1148 30.78 36.3481 30.6333 36.5081 30.34L33.3481 22.16H32.5881V18.88H38.5281V22.16H37.8481L38.8881 25.28L39.8481 22.16H39.1681V18.88H44.7281ZM59.1209 30.28C56.6009 30.28 54.6543 29.64 53.2809 28.36C51.9209 27.08 51.2409 25.0333 51.2409 22.22C51.2409 16.8467 53.8543 14.16 59.0809 14.16C60.3476 14.16 61.5209 14.3133 62.6009 14.62C63.6943 14.9267 64.5076 15.2667 65.0409 15.64V20.64H60.2409V19.2C60.2409 18.6933 60.1276 18.32 59.9009 18.08C59.6743 17.84 59.3343 17.72 58.8809 17.72C58.4276 17.72 58.0876 17.84 57.8609 18.08C57.6343 18.32 57.5209 18.6933 57.5209 19.2V25.24C57.5209 25.7467 57.6343 26.12 57.8609 26.36C58.0876 26.6 58.4276 26.72 58.8809 26.72C59.3343 26.72 59.6743 26.6 59.9009 26.36C60.1276 26.12 60.2409 25.7467 60.2409 25.24V23.62H65.0409V28.8C64.4943 29.1733 63.6809 29.5133 62.6009 29.82C61.5343 30.1267 60.3743 30.28 59.1209 30.28ZM79.0345 26.72V30H72.7145V26.72H73.5545V23.44C73.5545 23 73.4612 22.68 73.2745 22.48C73.0879 22.2667 72.8079 22.16 72.4345 22.16C71.6345 22.16 71.2345 22.5867 71.2345 23.44V26.72H72.0745V30H65.7545V26.72H66.6345V17.72H65.7545V14.44H71.2345V20.44C71.7279 19.8267 72.2612 19.3667 72.8345 19.06C73.4079 18.7533 74.0745 18.6 74.8345 18.6C75.9412 18.6 76.7679 18.9467 77.3145 19.64C77.8745 20.3333 78.1545 21.2867 78.1545 22.5V26.72H79.0345ZM91.3403 26.72V30H86.0603V28.64C85.767 29.0667 85.3536 29.4467 84.8203 29.78C84.3003 30.1133 83.6603 30.28 82.9003 30.28C81.9003 30.28 81.1136 30.0133 80.5403 29.48C79.967 28.9467 79.6803 28.1933 79.6803 27.22C79.6803 24.7 81.8203 23.4067 86.1003 23.34C86.0603 22.8867 85.887 22.58 85.5803 22.42C85.2736 22.2467 84.7536 22.16 84.0203 22.16C83.4203 22.16 82.7736 22.2267 82.0803 22.36C81.4003 22.48 80.7736 22.6467 80.2003 22.86V19.18C80.907 19.0067 81.6736 18.8667 82.5003 18.76C83.327 18.6533 84.1336 18.6 84.9203 18.6C86.907 18.6 88.327 18.96 89.1803 19.68C90.0336 20.4 90.4603 21.5133 90.4603 23.02V26.72H91.3403ZM86.0603 25.32C85.4603 25.32 84.9936 25.4 84.6603 25.56C84.3403 25.72 84.1803 25.9867 84.1803 26.36C84.1803 26.5867 84.247 26.7733 84.3803 26.92C84.527 27.0533 84.727 27.12 84.9803 27.12C85.327 27.12 85.5936 26.9733 85.7803 26.68C85.967 26.3867 86.0603 25.9733 86.0603 25.44V25.32ZM100.525 18.6C100.792 18.6 101.045 18.6267 101.285 18.68C101.525 18.7333 101.725 18.8 101.885 18.88V22.7C101.338 22.4733 100.752 22.36 100.125 22.36C99.285 22.36 98.6383 22.58 98.185 23.02C97.7317 23.46 97.505 24.1133 97.505 24.98V26.72H99.305V30H92.025V26.72H92.905V22.16H92.025V18.88H97.505V20.34C97.8783 19.78 98.305 19.3533 98.785 19.06C99.265 18.7533 99.845 18.6 100.525 18.6ZM114.192 26.72V30H108.912V28.64C108.619 29.0667 108.205 29.4467 107.672 29.78C107.152 30.1133 106.512 30.28 105.752 30.28C104.752 30.28 103.965 30.0133 103.392 29.48C102.819 28.9467 102.532 28.1933 102.532 27.22C102.532 24.7 104.672 23.4067 108.952 23.34C108.912 22.8867 108.739 22.58 108.432 22.42C108.125 22.2467 107.605 22.16 106.872 22.16C106.272 22.16 105.625 22.2267 104.932 22.36C104.252 22.48 103.625 22.6467 103.052 22.86V19.18C103.759 19.0067 104.525 18.8667 105.352 18.76C106.179 18.6533 106.985 18.6 107.772 18.6C109.759 18.6 111.179 18.96 112.032 19.68C112.885 20.4 113.312 21.5133 113.312 23.02V26.72H114.192ZM108.912 25.32C108.312 25.32 107.845 25.4 107.512 25.56C107.192 25.72 107.032 25.9867 107.032 26.36C107.032 26.5867 107.099 26.7733 107.232 26.92C107.379 27.0533 107.579 27.12 107.832 27.12C108.179 27.12 108.445 26.9733 108.632 26.68C108.819 26.3867 108.912 25.9733 108.912 25.44V25.32ZM120.817 30.28C118.91 30.28 117.423 29.7867 116.357 28.8C115.29 27.8 114.757 26.3467 114.757 24.44C114.757 22.5333 115.29 21.0867 116.357 20.1C117.423 19.1 118.903 18.6 120.797 18.6C121.717 18.6 122.597 18.7267 123.437 18.98C124.277 19.2333 124.93 19.52 125.397 19.84V23.8H121.957V23.44C121.957 23 121.863 22.68 121.677 22.48C121.49 22.2667 121.197 22.16 120.797 22.16C120.023 22.16 119.637 22.5867 119.637 23.44V25.16C119.637 26.2 120.23 26.72 121.417 26.72C122.523 26.72 123.81 26.6 125.277 26.36V29.5C124.823 29.7 124.183 29.88 123.357 30.04C122.543 30.2 121.697 30.28 120.817 30.28ZM131.007 30.28C129.594 30.28 128.527 29.94 127.807 29.26C127.1 28.5667 126.747 27.4067 126.747 25.78V22.16H125.867V18.88C126.374 18.88 126.754 18.7533 127.007 18.5C127.26 18.2333 127.387 17.8733 127.387 17.42V16.52H131.627V18.88H134.327V22.16H131.627V25.44C131.627 25.88 131.72 26.2067 131.907 26.42C132.107 26.62 132.4 26.72 132.787 26.72C133.294 26.72 133.847 26.66 134.447 26.54V29.68C134.074 29.8267 133.567 29.96 132.927 30.08C132.3 30.2133 131.66 30.28 131.007 30.28ZM141.05 30.28C139.157 30.28 137.677 29.7867 136.61 28.8C135.544 27.8 135.01 26.3467 135.01 24.44C135.01 22.5333 135.544 21.0867 136.61 20.1C137.677 19.1 139.157 18.6 141.05 18.6C142.93 18.6 144.284 19.0933 145.11 20.08C145.95 21.0533 146.37 22.2667 146.37 23.72V25.16H139.89V25.28C139.89 25.7733 140.037 26.14 140.33 26.38C140.624 26.6067 141.11 26.72 141.79 26.72C142.604 26.72 143.377 26.66 144.11 26.54C144.844 26.42 145.484 26.2667 146.03 26.08V29.28C145.564 29.5333 144.877 29.7667 143.97 29.98C143.077 30.18 142.104 30.28 141.05 30.28ZM142.21 22.96V22.72C142.21 22.2667 142.11 21.94 141.91 21.74C141.724 21.54 141.437 21.44 141.05 21.44C140.664 21.44 140.37 21.5467 140.17 21.76C139.984 21.96 139.89 22.28 139.89 22.72V22.96H142.21ZM155.505 18.6C155.772 18.6 156.025 18.6267 156.265 18.68C156.505 18.7333 156.705 18.8 156.865 18.88V22.7C156.319 22.4733 155.732 22.36 155.105 22.36C154.265 22.36 153.619 22.58 153.165 23.02C152.712 23.46 152.485 24.1133 152.485 24.98V26.72H154.285V30H147.005V26.72H147.885V22.16H147.005V18.88H152.485V20.34C152.859 19.78 153.285 19.3533 153.765 19.06C154.245 18.7533 154.825 18.6 155.505 18.6ZM162.372 30.28C160.692 30.28 159.072 30.0133 157.512 29.48V26.52H160.752V26.72C160.752 27.36 161.159 27.68 161.972 27.68C162.692 27.68 163.052 27.4333 163.052 26.94C163.052 26.6733 162.946 26.4733 162.732 26.34C162.532 26.2067 162.172 26.0933 161.652 26L160.652 25.82C158.559 25.4467 157.512 24.26 157.512 22.26C157.512 21.1 157.952 20.2 158.832 19.56C159.712 18.92 160.899 18.6 162.392 18.6C164.059 18.6 165.466 18.88 166.612 19.44V22.22H163.572V22.02C163.572 21.7533 163.479 21.5533 163.292 21.42C163.119 21.2733 162.859 21.2 162.512 21.2C161.846 21.2 161.512 21.4133 161.512 21.84C161.512 22.0667 161.606 22.24 161.792 22.36C161.979 22.48 162.319 22.5933 162.812 22.7L163.952 22.92C165.139 23.1467 165.986 23.5667 166.492 24.18C166.999 24.7933 167.252 25.58 167.252 26.54C167.252 27.7533 166.826 28.68 165.972 29.32C165.132 29.96 163.932 30.28 162.372 30.28Z" fill="#FADCD5"/>
</svg>
