<svg width="178" height="47" viewBox="0 0 178 47" fill="none" xmlns="http://www.w3.org/2000/svg">
<rect x="9" y="6" width="163" height="38" rx="5" fill="black"/>
<rect x="8.5" y="5.5" width="161" height="36" rx="4.5" fill="#DEBDBD" stroke="black"/>
<path d="M40.7211 27.66V23.19H43.4511V27.66H40.7211ZM40.7211 23.22C40.7211 22.1 40.9611 21.1 41.4411 20.22C41.9411 19.34 42.6011 18.65 43.4211 18.15C44.2611 17.63 45.2111 17.37 46.2711 17.37V19.74C45.3911 19.74 44.7011 20.04 44.2011 20.64C43.7011 21.24 43.4511 22.1 43.4511 23.22H40.7211ZM49.0611 22.35C48.9611 21.45 48.6411 20.79 48.1011 20.37C47.5811 19.95 46.9611 19.74 46.2411 19.74V17.37C47.1811 17.37 48.0311 17.56 48.7911 17.94C49.5511 18.32 50.1811 18.85 50.6811 19.53C51.1811 20.19 51.4911 20.96 51.6111 21.84L49.0611 22.35ZM40.7211 27.63H43.4511C43.4511 28.73 43.7011 29.59 44.2011 30.21C44.7011 30.81 45.3911 31.11 46.2711 31.11V33.48C45.2111 33.48 44.2611 33.23 43.4211 32.73C42.6011 32.21 41.9411 31.51 41.4411 30.63C40.9611 29.75 40.7211 28.75 40.7211 27.63ZM49.0611 28.5L51.6111 29.01C51.4911 29.87 51.1811 30.64 50.6811 31.32C50.1811 32 49.5511 32.53 48.7911 32.91C48.0311 33.29 47.1811 33.48 46.2411 33.48V31.11C46.9611 31.11 47.5811 30.9 48.1011 30.48C48.6411 30.04 48.9611 29.38 49.0611 28.5ZM61.6831 27.63V23.22H64.4131V27.63H61.6831ZM53.2531 27.63V23.22H55.9831V27.63H53.2531ZM58.7431 19.77V17.4H58.9231V19.77H58.7431ZM58.7431 33.45V31.08H58.9231V33.45H58.7431ZM53.2531 23.25C53.2531 22.13 53.4931 21.13 53.9731 20.25C54.4731 19.37 55.1331 18.68 55.9531 18.18C56.7931 17.66 57.7431 17.4 58.8031 17.4V19.77C57.9231 19.77 57.2331 20.07 56.7331 20.67C56.2331 21.27 55.9831 22.13 55.9831 23.25H53.2531ZM64.4131 23.25H61.6831C61.6831 22.13 61.4331 21.27 60.9331 20.67C60.4531 20.07 59.7631 19.77 58.8631 19.77V17.4C59.9231 17.4 60.8631 17.66 61.6831 18.18C62.5231 18.68 63.1831 19.37 63.6631 20.25C64.1631 21.13 64.4131 22.13 64.4131 23.25ZM53.2531 27.6H55.9831C55.9831 28.7 56.2331 29.56 56.7331 30.18C57.2331 30.78 57.9231 31.08 58.8031 31.08V33.45C57.7431 33.45 56.7931 33.2 55.9531 32.7C55.1331 32.18 54.4731 31.48 53.9731 30.6C53.4931 29.72 53.2531 28.72 53.2531 27.6ZM64.4131 27.6C64.4131 28.72 64.1631 29.72 63.6631 30.6C63.1831 31.48 62.5231 32.18 61.6831 32.7C60.8631 33.2 59.9231 33.45 58.8631 33.45V31.08C59.7631 31.08 60.4531 30.78 60.9331 30.18C61.4331 29.56 61.6831 28.7 61.6831 27.6H64.4131ZM67.1867 33V17.85H69.9167V33H67.1867ZM75.6167 33V22.68H78.3467V33H75.6167ZM75.6167 22.68C75.6167 21.84 75.3567 21.16 74.8367 20.64C74.3167 20.1 73.6467 19.83 72.8267 19.83L73.5167 17.4C74.4367 17.4 75.2567 17.63 75.9767 18.09C76.7167 18.55 77.2967 19.18 77.7167 19.98C78.1367 20.78 78.3467 21.68 78.3467 22.68H75.6167ZM68.7167 22.74C68.7167 21.72 68.9267 20.81 69.3467 20.01C69.7667 19.19 70.3367 18.55 71.0567 18.09C71.7767 17.63 72.5967 17.4 73.5167 17.4L72.8267 19.83C71.9667 19.83 71.2667 20.1 70.7267 20.64C70.1867 21.18 69.9167 21.88 69.9167 22.74H68.7167ZM82.3857 28.41V11.82L85.1157 11.85V28.41H82.3857ZM80.6457 20.1V17.85H88.8957V20.1H80.6457ZM82.3857 28.38H85.1157C85.1157 28.96 85.1957 29.45 85.3557 29.85C85.5157 30.25 85.7457 30.56 86.0457 30.78C86.3457 30.98 86.7057 31.08 87.1257 31.08L86.8857 33.45C85.4857 33.45 84.3857 33.01 83.5857 32.13C82.7857 31.23 82.3857 29.98 82.3857 28.38ZM88.5357 30.57L89.6157 32.52C89.2157 32.82 88.7757 33.05 88.2957 33.21C87.8357 33.37 87.3657 33.45 86.8857 33.45L87.1257 31.08C87.3857 31.08 87.6257 31.04 87.8457 30.96C88.0857 30.86 88.3157 30.73 88.5357 30.57ZM92.1547 33V17.85H94.8847V33H92.1547ZM93.5047 15.84C93.0047 15.84 92.5847 15.67 92.2447 15.33C91.9047 14.99 91.7347 14.57 91.7347 14.07C91.7347 13.57 91.9047 13.15 92.2447 12.81C92.5847 12.45 93.0047 12.27 93.5047 12.27C94.0047 12.27 94.4247 12.45 94.7647 12.81C95.1247 13.15 95.3047 13.57 95.3047 14.07C95.3047 14.57 95.1247 14.99 94.7647 15.33C94.4247 15.67 94.0047 15.84 93.5047 15.84ZM98.798 33V17.85H101.528V33H98.798ZM107.228 33V22.68H109.958V33H107.228ZM107.228 22.68C107.228 21.84 106.968 21.16 106.448 20.64C105.928 20.1 105.258 19.83 104.438 19.83L105.128 17.4C106.048 17.4 106.868 17.63 107.588 18.09C108.328 18.55 108.908 19.18 109.328 19.98C109.748 20.78 109.958 21.68 109.958 22.68H107.228ZM100.328 22.74C100.328 21.72 100.538 20.81 100.958 20.01C101.378 19.19 101.948 18.55 102.668 18.09C103.388 17.63 104.208 17.4 105.128 17.4L104.438 19.83C103.578 19.83 102.878 20.1 102.338 20.64C101.798 21.18 101.528 21.88 101.528 22.74H100.328ZM123.717 17.85V33H120.987V17.85H123.717ZM115.287 17.85V28.17H112.557V17.85H115.287ZM115.287 28.17C115.287 29.01 115.547 29.7 116.067 30.24C116.607 30.76 117.287 31.02 118.107 31.02L117.417 33.45C116.477 33.45 115.637 33.22 114.897 32.76C114.177 32.3 113.607 31.67 113.187 30.87C112.767 30.07 112.557 29.17 112.557 28.17H115.287ZM122.187 28.08C122.187 29.1 121.977 30.02 121.557 30.84C121.157 31.64 120.587 32.28 119.847 32.76C119.127 33.22 118.317 33.45 117.417 33.45L118.107 31.02C118.947 31.02 119.637 30.75 120.177 30.21C120.717 29.67 120.987 28.96 120.987 28.08H122.187ZM127.336 26.25V24.3H137.566V26.25H127.336ZM131.986 33.48V31.11H132.136V33.48H131.986ZM126.466 27.63V23.22H129.196V27.63H126.466ZM134.836 24.3V22.74H137.566V24.3H134.836ZM137.566 22.74H134.836C134.836 21.86 134.566 21.14 134.026 20.58C133.506 20.02 132.826 19.74 131.986 19.74V17.4C133.066 17.4 134.016 17.63 134.836 18.09C135.676 18.55 136.336 19.19 136.816 20.01C137.316 20.81 137.566 21.72 137.566 22.74ZM134.956 28.5L137.506 29.01C137.386 29.87 137.076 30.64 136.576 31.32C136.076 32 135.446 32.53 134.686 32.91C133.926 33.29 133.076 33.48 132.136 33.48V31.11C132.856 31.11 133.476 30.9 133.996 30.48C134.536 30.04 134.856 29.38 134.956 28.5ZM126.466 23.25C126.466 22.11 126.706 21.11 127.186 20.25C127.686 19.37 128.346 18.68 129.166 18.18C130.006 17.66 130.956 17.4 132.016 17.4V19.74C131.136 19.74 130.446 20.05 129.946 20.67C129.446 21.27 129.196 22.13 129.196 23.25H126.466ZM126.466 27.63H129.196C129.196 28.73 129.446 29.59 129.946 30.21C130.446 30.81 131.136 31.11 132.016 31.11V33.48C130.956 33.48 130.006 33.23 129.166 32.73C128.346 32.21 127.686 31.51 127.186 30.63C126.706 29.75 126.466 28.75 126.466 27.63Z" fill="black"/>
</svg>
