<svg width="213" height="49" viewBox="0 0 213 49" fill="none" xmlns="http://www.w3.org/2000/svg">
<rect x="10" y="6" width="196" height="40" rx="5" fill="black"/>
<rect x="9.5" y="5.5" width="194" height="38" rx="4.5" fill="#DEBDBD" stroke="black"/>
<path d="M17.1906 26.264V20.456H18.6466V26.264H17.1906ZM17.1906 20.456C17.1906 19.8693 17.324 19.352 17.5906 18.904C17.8573 18.4453 18.2306 18.0933 18.7106 17.848C19.1906 17.592 19.74 17.464 20.3586 17.464V18.728C19.8253 18.728 19.404 18.8773 19.0946 19.176C18.796 19.4747 18.6466 19.9013 18.6466 20.456H17.1906ZM17.1906 26.248H18.6466C18.6466 26.8027 18.796 27.2347 19.0946 27.544C19.404 27.8427 19.8253 27.992 20.3586 27.992V29.256C19.74 29.256 19.1906 29.128 18.7106 28.872C18.2306 28.616 17.8573 28.264 17.5906 27.816C17.324 27.368 17.1906 26.8453 17.1906 26.248ZM22.2626 20.872C22.1986 20.2 21.996 19.6773 21.6546 19.304C21.324 18.92 20.8866 18.728 20.3426 18.728V17.464C21.2493 17.464 21.9853 17.7413 22.5506 18.296C23.1266 18.8507 23.4733 19.6187 23.5906 20.6L22.2626 20.872ZM22.2626 25.848L23.5906 26.104C23.4733 27.096 23.1266 27.8693 22.5506 28.424C21.9853 28.9787 21.2493 29.256 20.3426 29.256V27.992C20.8866 27.992 21.324 27.8053 21.6546 27.432C21.996 27.048 22.1986 26.52 22.2626 25.848ZM25.0381 29V20.92H26.4941V29H25.0381ZM25.8381 23.592C25.8381 23.048 25.9288 22.5627 26.1101 22.136C26.2915 21.6987 26.5368 21.3573 26.8461 21.112C27.1661 20.8667 27.5181 20.744 27.9021 20.744L27.7741 22.104C27.4008 22.104 27.0915 22.248 26.8461 22.536C26.6115 22.8133 26.4941 23.1653 26.4941 23.592H25.8381ZM28.7341 22.472C28.6061 22.3653 28.4515 22.28 28.2701 22.216C28.0995 22.1413 27.9341 22.104 27.7741 22.104L27.9021 20.744C28.1475 20.744 28.3875 20.792 28.6221 20.888C28.8568 20.9733 29.0595 21.096 29.2301 21.256L28.7341 22.472ZM29.9615 25.4V24.36H35.4175V25.4H29.9615ZM32.4415 29.256V27.992H32.5215V29.256H32.4415ZM29.4975 26.136V23.784H30.9535V26.136H29.4975ZM33.9615 24.36V23.528H35.4175V24.36H33.9615ZM35.4175 23.528H33.9615C33.9615 23.0587 33.8175 22.6747 33.5295 22.376C33.2522 22.0773 32.8895 21.928 32.4415 21.928V20.68C33.0175 20.68 33.5242 20.8027 33.9615 21.048C34.4095 21.2933 34.7615 21.6347 35.0175 22.072C35.2842 22.4987 35.4175 22.984 35.4175 23.528ZM34.0255 26.6L35.3855 26.872C35.3215 27.3307 35.1562 27.7413 34.8895 28.104C34.6228 28.4667 34.2868 28.7493 33.8815 28.952C33.4762 29.1547 33.0228 29.256 32.5215 29.256V27.992C32.9055 27.992 33.2362 27.88 33.5135 27.656C33.8015 27.4213 33.9722 27.0693 34.0255 26.6ZM29.4975 23.8C29.4975 23.192 29.6255 22.6587 29.8815 22.2C30.1482 21.7307 30.5002 21.3627 30.9375 21.096C31.3855 20.8187 31.8922 20.68 32.4575 20.68V21.928C31.9882 21.928 31.6202 22.0933 31.3535 22.424C31.0868 22.744 30.9535 23.2027 30.9535 23.8H29.4975ZM29.4975 26.136H30.9535C30.9535 26.7227 31.0868 27.1813 31.3535 27.512C31.6202 27.832 31.9882 27.992 32.4575 27.992V29.256C31.8922 29.256 31.3855 29.1227 30.9375 28.856C30.5002 28.5787 30.1482 28.2053 29.8815 27.736C29.6255 27.2667 29.4975 26.7333 29.4975 26.136ZM41.2175 29V23.496H42.6735V29H41.2175ZM39.2655 29.24L39.3775 28.04C39.7615 28.04 40.0868 27.944 40.3535 27.752C40.6308 27.56 40.8442 27.2773 40.9935 26.904C41.1428 26.5307 41.2175 26.088 41.2175 25.576L41.9375 25.544C41.9375 26.2693 41.8202 26.9093 41.5855 27.464C41.3508 28.0187 41.0308 28.456 40.6255 28.776C40.2308 29.0853 39.7775 29.24 39.2655 29.24ZM39.2655 29.24C38.7855 29.24 38.3482 29.128 37.9535 28.904C37.5588 28.68 37.2442 28.376 37.0095 27.992C36.7748 27.5973 36.6575 27.16 36.6575 26.68L38.0335 26.632C38.0335 27.0373 38.1668 27.3733 38.4335 27.64C38.7108 27.9067 39.0255 28.04 39.3775 28.04L39.2655 29.24ZM36.6575 26.68C36.6575 26.1787 36.7802 25.7413 37.0255 25.368C37.2815 24.984 37.6228 24.68 38.0495 24.456C38.4762 24.232 38.9615 24.12 39.5055 24.12L39.5855 25.24C39.1375 25.24 38.7642 25.3733 38.4655 25.64C38.1775 25.896 38.0335 26.2267 38.0335 26.632L36.6575 26.68ZM39.5855 25.24L39.5055 24.12H41.9695V25.24H39.5855ZM41.2175 25.576V23.512H41.9375V25.544L41.2175 25.576ZM42.6735 23.528H41.2175C41.2175 23.0587 41.0735 22.6747 40.7855 22.376C40.5082 22.0773 40.1455 21.928 39.6975 21.928V20.68C40.2735 20.68 40.7802 20.8027 41.2175 21.048C41.6655 21.2933 42.0175 21.6347 42.2735 22.072C42.5402 22.4987 42.6735 22.984 42.6735 23.528ZM38.1935 23.336L36.8495 23.064C36.9135 22.584 37.0735 22.168 37.3295 21.816C37.5962 21.464 37.9322 21.1867 38.3375 20.984C38.7535 20.7813 39.2122 20.68 39.7135 20.68V21.928C39.3188 21.928 38.9775 22.0453 38.6895 22.28C38.4122 22.504 38.2468 22.856 38.1935 23.336ZM44.8318 26.552V17.704L46.2878 17.72V26.552H44.8318ZM43.9038 22.12V20.92H48.3038V22.12H43.9038ZM44.8318 26.536H46.2878C46.2878 26.8453 46.3304 27.1067 46.4158 27.32C46.5011 27.5333 46.6238 27.6987 46.7838 27.816C46.9438 27.9227 47.1358 27.976 47.3598 27.976L47.2318 29.24C46.4851 29.24 45.8984 29.0053 45.4718 28.536C45.0451 28.056 44.8318 27.3893 44.8318 26.536ZM48.1118 27.704L48.6878 28.744C48.4744 28.904 48.2398 29.0267 47.9838 29.112C47.7384 29.1973 47.4878 29.24 47.2318 29.24L47.3598 27.976C47.4984 27.976 47.6264 27.9547 47.7438 27.912C47.8718 27.8587 47.9944 27.7893 48.1118 27.704ZM49.7115 25.4V24.36H55.1675V25.4H49.7115ZM52.1915 29.256V27.992H52.2715V29.256H52.1915ZM49.2475 26.136V23.784H50.7035V26.136H49.2475ZM53.7115 24.36V23.528H55.1675V24.36H53.7115ZM55.1675 23.528H53.7115C53.7115 23.0587 53.5675 22.6747 53.2795 22.376C53.0022 22.0773 52.6395 21.928 52.1915 21.928V20.68C52.7675 20.68 53.2742 20.8027 53.7115 21.048C54.1595 21.2933 54.5115 21.6347 54.7675 22.072C55.0342 22.4987 55.1675 22.984 55.1675 23.528ZM53.7755 26.6L55.1355 26.872C55.0715 27.3307 54.9062 27.7413 54.6395 28.104C54.3728 28.4667 54.0368 28.7493 53.6315 28.952C53.2262 29.1547 52.7728 29.256 52.2715 29.256V27.992C52.6555 27.992 52.9862 27.88 53.2635 27.656C53.5515 27.4213 53.7222 27.0693 53.7755 26.6ZM49.2475 23.8C49.2475 23.192 49.3755 22.6587 49.6315 22.2C49.8982 21.7307 50.2502 21.3627 50.6875 21.096C51.1355 20.8187 51.6422 20.68 52.2075 20.68V21.928C51.7382 21.928 51.3702 22.0933 51.1035 22.424C50.8368 22.744 50.7035 23.2027 50.7035 23.8H49.2475ZM49.2475 26.136H50.7035C50.7035 26.7227 50.8368 27.1813 51.1035 27.512C51.3702 27.832 51.7382 27.992 52.2075 27.992V29.256C51.6422 29.256 51.1355 29.1227 50.6875 28.856C50.2502 28.5787 49.8982 28.2053 49.6315 27.736C49.3755 27.2667 49.2475 26.7333 49.2475 26.136ZM64.494 29L59.982 17.72H61.406L65.918 29H64.494ZM59.71 29V17.72H61.166V29H59.71ZM64.878 29V17.72H66.334V29H64.878ZM68.3209 25.4V24.36H73.7769V25.4H68.3209ZM70.8009 29.256V27.992H70.8809V29.256H70.8009ZM67.8569 26.136V23.784H69.3129V26.136H67.8569ZM72.3209 24.36V23.528H73.7769V24.36H72.3209ZM73.7769 23.528H72.3209C72.3209 23.0587 72.1769 22.6747 71.8889 22.376C71.6115 22.0773 71.2489 21.928 70.8009 21.928V20.68C71.3769 20.68 71.8835 20.8027 72.3209 21.048C72.7689 21.2933 73.1209 21.6347 73.3769 22.072C73.6435 22.4987 73.7769 22.984 73.7769 23.528ZM72.3849 26.6L73.7449 26.872C73.6809 27.3307 73.5155 27.7413 73.2489 28.104C72.9822 28.4667 72.6462 28.7493 72.2409 28.952C71.8355 29.1547 71.3822 29.256 70.8809 29.256V27.992C71.2649 27.992 71.5955 27.88 71.8729 27.656C72.1609 27.4213 72.3315 27.0693 72.3849 26.6ZM67.8569 23.8C67.8569 23.192 67.9849 22.6587 68.2409 22.2C68.5075 21.7307 68.8595 21.3627 69.2969 21.096C69.7449 20.8187 70.2515 20.68 70.8169 20.68V21.928C70.3475 21.928 69.9795 22.0933 69.7129 22.424C69.4462 22.744 69.3129 23.2027 69.3129 23.8H67.8569ZM67.8569 26.136H69.3129C69.3129 26.7227 69.4462 27.1813 69.7129 27.512C69.9795 27.832 70.3475 27.992 70.8169 27.992V29.256C70.2515 29.256 69.7449 29.1227 69.2969 28.856C68.8595 28.5787 68.5075 28.2053 68.2409 27.736C67.9849 27.2667 67.8569 26.7333 67.8569 26.136ZM81.5438 29L83.5918 20.92H85.0478L82.8878 29H81.5438ZM76.9838 29L74.8238 20.92H76.2798L78.3278 29H76.9838ZM77.2078 29L79.2878 20.92H80.5678L78.4557 29H77.2078ZM81.4318 29L79.3038 20.92H80.5838L82.6638 29H81.4318ZM89.3469 26.264V20.456H90.8029V26.264H89.3469ZM89.3469 20.456C89.3469 19.8693 89.4802 19.352 89.7469 18.904C90.0135 18.4453 90.3869 18.0933 90.8669 17.848C91.3469 17.592 91.8962 17.464 92.5149 17.464V18.728C91.9815 18.728 91.5602 18.8773 91.2509 19.176C90.9522 19.4747 90.8029 19.9013 90.8029 20.456H89.3469ZM89.3469 26.248H90.8029C90.8029 26.8027 90.9522 27.2347 91.2509 27.544C91.5602 27.8427 91.9815 27.992 92.5149 27.992V29.256C91.8962 29.256 91.3469 29.128 90.8669 28.872C90.3869 28.616 90.0135 28.264 89.7469 27.816C89.4802 27.368 89.3469 26.8453 89.3469 26.248ZM94.4189 20.872C94.3549 20.2 94.1522 19.6773 93.8109 19.304C93.4802 18.92 93.0429 18.728 92.4989 18.728V17.464C93.4055 17.464 94.1415 17.7413 94.7069 18.296C95.2829 18.8507 95.6295 19.6187 95.7469 20.6L94.4189 20.872ZM94.4189 25.848L95.7469 26.104C95.6295 27.096 95.2829 27.8693 94.7069 28.424C94.1415 28.9787 93.4055 29.256 92.4989 29.256V27.992C93.0429 27.992 93.4802 27.8053 93.8109 27.432C94.1522 27.048 94.3549 26.52 94.4189 25.848ZM97.1944 29V20.92H98.6504V29H97.1944ZM101.69 29V23.496H103.146V29H101.69ZM101.69 23.496C101.69 23.048 101.552 22.6853 101.274 22.408C100.997 22.12 100.64 21.976 100.202 21.976L100.57 20.68C101.061 20.68 101.498 20.8027 101.882 21.048C102.277 21.2933 102.586 21.6293 102.81 22.056C103.034 22.4827 103.146 22.9627 103.146 23.496H101.69ZM98.0104 23.528C98.0104 22.984 98.1224 22.4987 98.3464 22.072C98.5704 21.6347 98.8744 21.2933 99.2584 21.048C99.6424 20.8027 100.08 20.68 100.57 20.68L100.202 21.976C99.7437 21.976 99.3704 22.12 99.0824 22.408C98.7944 22.696 98.6504 23.0693 98.6504 23.528H98.0104ZM97.1944 29V17.48H98.6504V29H97.1944ZM109.093 29V23.496H110.549V29H109.093ZM107.141 29.24L107.253 28.04C107.637 28.04 107.962 27.944 108.229 27.752C108.506 27.56 108.719 27.2773 108.869 26.904C109.018 26.5307 109.093 26.088 109.093 25.576L109.813 25.544C109.813 26.2693 109.695 26.9093 109.461 27.464C109.226 28.0187 108.906 28.456 108.501 28.776C108.106 29.0853 107.653 29.24 107.141 29.24ZM107.141 29.24C106.661 29.24 106.223 29.128 105.829 28.904C105.434 28.68 105.119 28.376 104.885 27.992C104.65 27.5973 104.533 27.16 104.533 26.68L105.909 26.632C105.909 27.0373 106.042 27.3733 106.309 27.64C106.586 27.9067 106.901 28.04 107.253 28.04L107.141 29.24ZM104.533 26.68C104.533 26.1787 104.655 25.7413 104.901 25.368C105.157 24.984 105.498 24.68 105.924 24.456C106.351 24.232 106.837 24.12 107.381 24.12L107.461 25.24C107.013 25.24 106.639 25.3733 106.341 25.64C106.053 25.896 105.909 26.2267 105.909 26.632L104.533 26.68ZM107.461 25.24L107.381 24.12H109.845V25.24H107.461ZM109.093 25.576V23.512H109.813V25.544L109.093 25.576ZM110.549 23.528H109.093C109.093 23.0587 108.949 22.6747 108.661 22.376C108.383 22.0773 108.021 21.928 107.573 21.928V20.68C108.149 20.68 108.655 20.8027 109.093 21.048C109.541 21.2933 109.893 21.6347 110.149 22.072C110.415 22.4987 110.549 22.984 110.549 23.528ZM106.069 23.336L104.725 23.064C104.789 22.584 104.949 22.168 105.205 21.816C105.471 21.464 105.807 21.1867 106.213 20.984C106.629 20.7813 107.087 20.68 107.589 20.68V21.928C107.194 21.928 106.853 22.0453 106.565 22.28C106.287 22.504 106.122 22.856 106.069 23.336ZM112.179 29V20.92H113.635V29H112.179ZM112.979 23.592C112.979 23.048 113.069 22.5627 113.251 22.136C113.432 21.6987 113.677 21.3573 113.987 21.112C114.307 20.8667 114.659 20.744 115.043 20.744L114.915 22.104C114.541 22.104 114.232 22.248 113.987 22.536C113.752 22.8133 113.635 23.1653 113.635 23.592H112.979ZM115.875 22.472C115.747 22.3653 115.592 22.28 115.411 22.216C115.24 22.1413 115.075 22.104 114.915 22.104L115.043 20.744C115.288 20.744 115.528 20.792 115.763 20.888C115.997 20.9733 116.2 21.096 116.371 21.256L115.875 22.472ZM121.358 29V23.496H122.814V29H121.358ZM119.406 29.24L119.518 28.04C119.902 28.04 120.227 27.944 120.494 27.752C120.771 27.56 120.985 27.2773 121.134 26.904C121.283 26.5307 121.358 26.088 121.358 25.576L122.078 25.544C122.078 26.2693 121.961 26.9093 121.726 27.464C121.491 28.0187 121.171 28.456 120.766 28.776C120.371 29.0853 119.918 29.24 119.406 29.24ZM119.406 29.24C118.926 29.24 118.489 29.128 118.094 28.904C117.699 28.68 117.385 28.376 117.15 27.992C116.915 27.5973 116.798 27.16 116.798 26.68L118.174 26.632C118.174 27.0373 118.307 27.3733 118.574 27.64C118.851 27.9067 119.166 28.04 119.518 28.04L119.406 29.24ZM116.798 26.68C116.798 26.1787 116.921 25.7413 117.166 25.368C117.422 24.984 117.763 24.68 118.19 24.456C118.617 24.232 119.102 24.12 119.646 24.12L119.726 25.24C119.278 25.24 118.905 25.3733 118.606 25.64C118.318 25.896 118.174 26.2267 118.174 26.632L116.798 26.68ZM119.726 25.24L119.646 24.12H122.11V25.24H119.726ZM121.358 25.576V23.512H122.078V25.544L121.358 25.576ZM122.814 23.528H121.358C121.358 23.0587 121.214 22.6747 120.926 22.376C120.649 22.0773 120.286 21.928 119.838 21.928V20.68C120.414 20.68 120.921 20.8027 121.358 21.048C121.806 21.2933 122.158 21.6347 122.414 22.072C122.681 22.4987 122.814 22.984 122.814 23.528ZM118.334 23.336L116.99 23.064C117.054 22.584 117.214 22.168 117.47 21.816C117.737 21.464 118.073 21.1867 118.478 20.984C118.894 20.7813 119.353 20.68 119.854 20.68V21.928C119.459 21.928 119.118 22.0453 118.83 22.28C118.553 22.504 118.387 22.856 118.334 23.336ZM124.204 26.152V23.768H125.66V26.152H124.204ZM124.204 23.784C124.204 23.1867 124.332 22.6533 124.588 22.184C124.855 21.7147 125.207 21.3467 125.644 21.08C126.092 20.8027 126.599 20.664 127.164 20.664V21.928C126.695 21.928 126.327 22.088 126.06 22.408C125.794 22.728 125.66 23.1867 125.66 23.784H124.204ZM128.652 23.32C128.599 22.84 128.428 22.488 128.14 22.264C127.863 22.04 127.532 21.928 127.148 21.928V20.664C127.65 20.664 128.103 20.7653 128.508 20.968C128.914 21.1707 129.25 21.4533 129.516 21.816C129.783 22.168 129.948 22.5787 130.012 23.048L128.652 23.32ZM124.204 26.136H125.66C125.66 26.7227 125.794 27.1813 126.06 27.512C126.327 27.832 126.695 27.992 127.164 27.992V29.256C126.599 29.256 126.092 29.1227 125.644 28.856C125.207 28.5787 124.855 28.2053 124.588 27.736C124.332 27.2667 124.204 26.7333 124.204 26.136ZM128.652 26.6L130.012 26.872C129.948 27.3307 129.783 27.7413 129.516 28.104C129.25 28.4667 128.914 28.7493 128.508 28.952C128.103 29.1547 127.65 29.256 127.148 29.256V27.992C127.532 27.992 127.863 27.88 128.14 27.656C128.428 27.4213 128.599 27.0693 128.652 26.6ZM131.816 26.552V17.704L133.272 17.72V26.552H131.816ZM130.888 22.12V20.92H135.288V22.12H130.888ZM131.816 26.536H133.272C133.272 26.8453 133.315 27.1067 133.4 27.32C133.485 27.5333 133.608 27.6987 133.768 27.816C133.928 27.9227 134.12 27.976 134.344 27.976L134.216 29.24C133.469 29.24 132.883 29.0053 132.456 28.536C132.029 28.056 131.816 27.3893 131.816 26.536ZM135.096 27.704L135.672 28.744C135.459 28.904 135.224 29.0267 134.968 29.112C134.723 29.1973 134.472 29.24 134.216 29.24L134.344 27.976C134.483 27.976 134.611 27.9547 134.728 27.912C134.856 27.8587 134.979 27.7893 135.096 27.704ZM136.696 25.4V24.36H142.152V25.4H136.696ZM139.176 29.256V27.992H139.256V29.256H139.176ZM136.232 26.136V23.784H137.688V26.136H136.232ZM140.696 24.36V23.528H142.152V24.36H140.696ZM142.152 23.528H140.696C140.696 23.0587 140.552 22.6747 140.264 22.376C139.987 22.0773 139.624 21.928 139.176 21.928V20.68C139.752 20.68 140.259 20.8027 140.696 21.048C141.144 21.2933 141.496 21.6347 141.752 22.072C142.019 22.4987 142.152 22.984 142.152 23.528ZM140.76 26.6L142.12 26.872C142.056 27.3307 141.891 27.7413 141.624 28.104C141.357 28.4667 141.021 28.7493 140.616 28.952C140.211 29.1547 139.757 29.256 139.256 29.256V27.992C139.64 27.992 139.971 27.88 140.248 27.656C140.536 27.4213 140.707 27.0693 140.76 26.6ZM136.232 23.8C136.232 23.192 136.36 22.6587 136.616 22.2C136.883 21.7307 137.235 21.3627 137.672 21.096C138.12 20.8187 138.627 20.68 139.192 20.68V21.928C138.723 21.928 138.355 22.0933 138.088 22.424C137.821 22.744 137.688 23.2027 137.688 23.8H136.232ZM136.232 26.136H137.688C137.688 26.7227 137.821 27.1813 138.088 27.512C138.355 27.832 138.723 27.992 139.192 27.992V29.256C138.627 29.256 138.12 29.1227 137.672 28.856C137.235 28.5787 136.883 28.2053 136.616 27.736C136.36 27.2667 136.232 26.7333 136.232 26.136ZM143.632 29V20.92H145.088V29H143.632ZM144.432 23.592C144.432 23.048 144.523 22.5627 144.704 22.136C144.885 21.6987 145.131 21.3573 145.44 21.112C145.76 20.8667 146.112 20.744 146.496 20.744L146.368 22.104C145.995 22.104 145.685 22.248 145.44 22.536C145.205 22.8133 145.088 23.1653 145.088 23.592H144.432ZM147.328 22.472C147.2 22.3653 147.045 22.28 146.864 22.216C146.693 22.1413 146.528 22.104 146.368 22.104L146.496 20.744C146.741 20.744 146.981 20.792 147.216 20.888C147.451 20.9733 147.653 21.096 147.824 21.256L147.328 22.472ZM161.294 29L163.342 20.92H164.798L162.638 29H161.294ZM156.734 29L154.574 20.92H156.03L158.078 29H156.734ZM156.958 29L159.038 20.92H160.318L158.206 29H156.958ZM161.182 29L159.054 20.92H160.334L162.414 29H161.182ZM166.245 29V20.92H167.701V29H166.245ZM166.965 19.848C166.698 19.848 166.474 19.7573 166.293 19.576C166.112 19.3947 166.021 19.1707 166.021 18.904C166.021 18.6373 166.112 18.4133 166.293 18.232C166.474 18.04 166.698 17.944 166.965 17.944C167.232 17.944 167.456 18.04 167.637 18.232C167.829 18.4133 167.925 18.6373 167.925 18.904C167.925 19.1707 167.829 19.3947 167.637 19.576C167.456 19.7573 167.232 19.848 166.965 19.848ZM170.316 26.552V17.704L171.772 17.72V26.552H170.316ZM169.388 22.12V20.92H173.788V22.12H169.388ZM170.316 26.536H171.772C171.772 26.8453 171.815 27.1067 171.9 27.32C171.985 27.5333 172.108 27.6987 172.268 27.816C172.428 27.9227 172.62 27.976 172.844 27.976L172.716 29.24C171.969 29.24 171.383 29.0053 170.956 28.536C170.529 28.056 170.316 27.3893 170.316 26.536ZM173.596 27.704L174.172 28.744C173.959 28.904 173.724 29.0267 173.468 29.112C173.223 29.1973 172.972 29.24 172.716 29.24L172.844 27.976C172.983 27.976 173.111 27.9547 173.228 27.912C173.356 27.8587 173.479 27.7893 173.596 27.704ZM175.366 29V20.92H176.822V29H175.366ZM179.862 29V23.496H181.318V29H179.862ZM179.862 23.496C179.862 23.048 179.724 22.6853 179.446 22.408C179.169 22.12 178.812 21.976 178.374 21.976L178.742 20.68C179.233 20.68 179.67 20.8027 180.054 21.048C180.449 21.2933 180.758 21.6293 180.982 22.056C181.206 22.4827 181.318 22.9627 181.318 23.496H179.862ZM176.182 23.528C176.182 22.984 176.294 22.4987 176.518 22.072C176.742 21.6347 177.046 21.2933 177.43 21.048C177.814 20.8027 178.252 20.68 178.742 20.68L178.374 21.976C177.916 21.976 177.542 22.12 177.254 22.408C176.966 22.696 176.822 23.0693 176.822 23.528H176.182ZM175.366 29V17.48H176.822V29H175.366ZM187.143 26.744V25.496H191.239V26.744H187.143ZM189.719 17.72L186.967 29H185.527L188.279 17.72H189.719ZM189.751 17.72L192.503 29H191.079L188.311 17.72H189.751ZM194.026 29V17.72H195.482V29H194.026Z" fill="black"/>
</svg>
