<svg width="196" height="96" viewBox="0 0 196 96" fill="none" xmlns="http://www.w3.org/2000/svg">
<rect x="24.5" y="18.5" width="131" height="61" rx="24.5" fill="black" stroke="black"/>
<rect x="22.5" y="16.5" width="130" height="60" rx="24.5" fill="#DEBDBD" stroke="black"/>
<g clip-path="url(#clip0_54_19)">
<path opacity="0.2" d="M106 40.3846C106 49.5605 98.5605 57 89.3846 57C80.2088 57 72.7692 49.5605 72.7692 40.3846C72.7692 31.2088 80.2088 23.7693 89.3846 23.7693C98.5605 23.7693 106 31.2088 106 40.3846Z" fill="black"/>
<path d="M81.077 39.6923C80.8933 39.6923 80.7172 39.6194 80.5874 39.4896C80.4576 39.3597 80.3846 39.1836 80.3846 39C80.3846 38.8164 80.4576 38.6403 80.5874 38.5105C80.7172 38.3806 80.8933 38.3077 81.077 38.3077H94.9231C95.1067 38.3077 95.2828 38.3806 95.4126 38.5105C95.5425 38.6403 95.6154 38.8164 95.6154 39C95.6154 39.1836 95.5425 39.3597 95.4126 39.4896C95.2828 39.6194 95.1067 39.6923 94.9231 39.6923H81.077Z" fill="black"/>
<path d="M87.3077 32.077C87.3077 31.8933 87.3806 31.7172 87.5104 31.5874C87.6403 31.4576 87.8164 31.3846 88 31.3846C88.1836 31.3846 88.3597 31.4576 88.4895 31.5874C88.6194 31.7172 88.6923 31.8933 88.6923 32.077V45.9231C88.6923 46.1067 88.6194 46.2828 88.4895 46.4126C88.3597 46.5425 88.1836 46.6154 88 46.6154C87.8164 46.6154 87.6403 46.5425 87.5104 46.4126C87.3806 46.2828 87.3077 46.1067 87.3077 45.9231V32.077Z" fill="black"/>
<path fill-rule="evenodd" clip-rule="evenodd" d="M88 54.9231C96.7937 54.9231 103.923 47.7937 103.923 39C103.923 30.2063 96.7937 23.0769 88 23.0769C79.2063 23.0769 72.0769 30.2063 72.0769 39C72.0769 47.7937 79.2063 54.9231 88 54.9231ZM88 56.3077C97.5594 56.3077 105.308 48.5594 105.308 39C105.308 29.4406 97.5594 21.6923 88 21.6923C78.4406 21.6923 70.6923 29.4406 70.6923 39C70.6923 48.5594 78.4406 56.3077 88 56.3077Z" fill="black"/>
</g>
<path d="M64.8375 69.44V66.46H66.6575V69.44H64.8375ZM64.8375 66.48C64.8375 65.7333 64.9975 65.0667 65.3175 64.48C65.6508 63.8933 66.0908 63.4333 66.6375 63.1C67.1975 62.7533 67.8308 62.58 68.5375 62.58V64.16C67.9508 64.16 67.4908 64.36 67.1575 64.76C66.8242 65.16 66.6575 65.7333 66.6575 66.48H64.8375ZM70.3975 65.9C70.3308 65.3 70.1175 64.86 69.7575 64.58C69.4108 64.3 68.9975 64.16 68.5175 64.16V62.58C69.1442 62.58 69.7108 62.7067 70.2175 62.96C70.7242 63.2133 71.1442 63.5667 71.4775 64.02C71.8108 64.46 72.0175 64.9733 72.0975 65.56L70.3975 65.9ZM64.8375 69.42H66.6575C66.6575 70.1533 66.8242 70.7267 67.1575 71.14C67.4908 71.54 67.9508 71.74 68.5375 71.74V73.32C67.8308 73.32 67.1975 73.1533 66.6375 72.82C66.0908 72.4733 65.6508 72.0067 65.3175 71.42C64.9975 70.8333 64.8375 70.1667 64.8375 69.42ZM70.3975 70L72.0975 70.34C72.0175 70.9133 71.8108 71.4267 71.4775 71.88C71.1442 72.3333 70.7242 72.6867 70.2175 72.94C69.7108 73.1933 69.1442 73.32 68.5175 73.32V71.74C68.9975 71.74 69.4108 71.6 69.7575 71.32C70.1175 71.0267 70.3308 70.5867 70.3975 70ZM73.6922 73V62.9H75.5122V73H73.6922ZM74.6922 66.24C74.6922 65.56 74.8055 64.9533 75.0322 64.42C75.2589 63.8733 75.5655 63.4467 75.9522 63.14C76.3522 62.8333 76.7922 62.68 77.2722 62.68L77.1122 64.38C76.6455 64.38 76.2589 64.56 75.9522 64.92C75.6589 65.2667 75.5122 65.7067 75.5122 66.24H74.6922ZM78.3122 64.84C78.1522 64.7067 77.9589 64.6 77.7322 64.52C77.5189 64.4267 77.3122 64.38 77.1122 64.38L77.2722 62.68C77.5789 62.68 77.8789 62.74 78.1722 62.86C78.4655 62.9667 78.7189 63.12 78.9322 63.32L78.3122 64.84ZM79.8464 68.5V67.2H86.6664V68.5H79.8464ZM82.9464 73.32V71.74H83.0464V73.32H82.9464ZM79.2664 69.42V66.48H81.0864V69.42H79.2664ZM84.8464 67.2V66.16H86.6664V67.2H84.8464ZM86.6664 66.16H84.8464C84.8464 65.5733 84.6664 65.0933 84.3064 64.72C83.9597 64.3467 83.5064 64.16 82.9464 64.16V62.6C83.6664 62.6 84.2997 62.7533 84.8464 63.06C85.4064 63.3667 85.8464 63.7933 86.1664 64.34C86.4997 64.8733 86.6664 65.48 86.6664 66.16ZM84.9264 70L86.6264 70.34C86.5464 70.9133 86.3397 71.4267 86.0064 71.88C85.6731 72.3333 85.2531 72.6867 84.7464 72.94C84.2397 73.1933 83.6731 73.32 83.0464 73.32V71.74C83.5264 71.74 83.9397 71.6 84.2864 71.32C84.6464 71.0267 84.8597 70.5867 84.9264 70ZM79.2664 66.5C79.2664 65.74 79.4264 65.0733 79.7464 64.5C80.0797 63.9133 80.5197 63.4533 81.0664 63.12C81.6264 62.7733 82.2597 62.6 82.9664 62.6V64.16C82.3797 64.16 81.9197 64.3667 81.5864 64.78C81.2531 65.18 81.0864 65.7533 81.0864 66.5H79.2664ZM79.2664 69.42H81.0864C81.0864 70.1533 81.2531 70.7267 81.5864 71.14C81.9197 71.54 82.3797 71.74 82.9664 71.74V73.32C82.2597 73.32 81.6264 73.1533 81.0664 72.82C80.5197 72.4733 80.0797 72.0067 79.7464 71.42C79.4264 70.8333 79.2664 70.1667 79.2664 69.42ZM93.9164 73V66.12H95.7364V73H93.9164ZM91.4764 73.3L91.6164 71.8C92.0964 71.8 92.5031 71.68 92.8364 71.44C93.1831 71.2 93.4497 70.8467 93.6364 70.38C93.8231 69.9133 93.9164 69.36 93.9164 68.72L94.8164 68.68C94.8164 69.5867 94.6697 70.3867 94.3764 71.08C94.0831 71.7733 93.6831 72.32 93.1764 72.72C92.6831 73.1067 92.1164 73.3 91.4764 73.3ZM91.4764 73.3C90.8764 73.3 90.3297 73.16 89.8364 72.88C89.3431 72.6 88.9497 72.22 88.6564 71.74C88.3631 71.2467 88.2164 70.7 88.2164 70.1L89.9364 70.04C89.9364 70.5467 90.1031 70.9667 90.4364 71.3C90.7831 71.6333 91.1764 71.8 91.6164 71.8L91.4764 73.3ZM88.2164 70.1C88.2164 69.4733 88.3697 68.9267 88.6764 68.46C88.9964 67.98 89.4231 67.6 89.9564 67.32C90.4897 67.04 91.0964 66.9 91.7764 66.9L91.8764 68.3C91.3164 68.3 90.8497 68.4667 90.4764 68.8C90.1164 69.12 89.9364 69.5333 89.9364 70.04L88.2164 70.1ZM91.8764 68.3L91.7764 66.9H94.8564V68.3H91.8764ZM93.9164 68.72V66.14H94.8164V68.68L93.9164 68.72ZM95.7364 66.16H93.9164C93.9164 65.5733 93.7364 65.0933 93.3764 64.72C93.0297 64.3467 92.5764 64.16 92.0164 64.16V62.6C92.7364 62.6 93.3697 62.7533 93.9164 63.06C94.4764 63.3667 94.9164 63.7933 95.2364 64.34C95.5697 64.8733 95.7364 65.48 95.7364 66.16ZM90.1364 65.92L88.4564 65.58C88.5364 64.98 88.7364 64.46 89.0564 64.02C89.3897 63.58 89.8097 63.2333 90.3164 62.98C90.8364 62.7267 91.4097 62.6 92.0364 62.6V64.16C91.5431 64.16 91.1164 64.3067 90.7564 64.6C90.4097 64.88 90.2031 65.32 90.1364 65.92ZM98.4342 69.94V58.88L100.254 58.9V69.94H98.4342ZM97.2742 64.4V62.9H102.774V64.4H97.2742ZM98.4342 69.92H100.254C100.254 70.3067 100.308 70.6333 100.414 70.9C100.521 71.1667 100.674 71.3733 100.874 71.52C101.074 71.6533 101.314 71.72 101.594 71.72L101.434 73.3C100.501 73.3 99.7676 73.0067 99.2342 72.42C98.7009 71.82 98.4342 70.9867 98.4342 69.92ZM102.534 71.38L103.254 72.68C102.988 72.88 102.694 73.0333 102.374 73.14C102.068 73.2467 101.754 73.3 101.434 73.3L101.594 71.72C101.768 71.72 101.928 71.6933 102.074 71.64C102.234 71.5733 102.388 71.4867 102.534 71.38ZM104.534 68.5V67.2H111.354V68.5H104.534ZM107.634 73.32V71.74H107.734V73.32H107.634ZM103.954 69.42V66.48H105.774V69.42H103.954ZM109.534 67.2V66.16H111.354V67.2H109.534ZM111.354 66.16H109.534C109.534 65.5733 109.354 65.0933 108.994 64.72C108.647 64.3467 108.194 64.16 107.634 64.16V62.6C108.354 62.6 108.987 62.7533 109.534 63.06C110.094 63.3667 110.534 63.7933 110.854 64.34C111.187 64.8733 111.354 65.48 111.354 66.16ZM109.614 70L111.314 70.34C111.234 70.9133 111.027 71.4267 110.694 71.88C110.361 72.3333 109.941 72.6867 109.434 72.94C108.927 73.1933 108.361 73.32 107.734 73.32V71.74C108.214 71.74 108.627 71.6 108.974 71.32C109.334 71.0267 109.547 70.5867 109.614 70ZM103.954 66.5C103.954 65.74 104.114 65.0733 104.434 64.5C104.767 63.9133 105.207 63.4533 105.754 63.12C106.314 62.7733 106.947 62.6 107.654 62.6V64.16C107.067 64.16 106.607 64.3667 106.274 64.78C105.941 65.18 105.774 65.7533 105.774 66.5H103.954ZM103.954 69.42H105.774C105.774 70.1533 105.941 70.7267 106.274 71.14C106.607 71.54 107.067 71.74 107.654 71.74V73.32C106.947 73.32 106.314 73.1533 105.754 72.82C105.207 72.4733 104.767 72.0067 104.434 71.42C104.114 70.8333 103.954 70.1667 103.954 69.42Z" fill="black"/>
<defs>
<clipPath id="clip0_54_19">
<rect width="36" height="36" fill="white" transform="translate(70 21)"/>
</clipPath>
</defs>
</svg>
