<svg width="213" height="49" viewBox="0 0 213 49" fill="none" xmlns="http://www.w3.org/2000/svg">
<rect x="10" y="6" width="196" height="40" rx="5" fill="black"/>
<rect x="9.5" y="5.5" width="194" height="38" rx="4.5" fill="#DEBDBD" stroke="black"/>
<path d="M25.2051 26.58V19.32H27.0251V26.58H25.2051ZM25.2051 19.32C25.2051 18.5867 25.3717 17.94 25.7051 17.38C26.0384 16.8067 26.5051 16.3667 27.1051 16.06C27.7051 15.74 28.3917 15.58 29.1651 15.58V17.16C28.4984 17.16 27.9717 17.3467 27.5851 17.72C27.2117 18.0933 27.0251 18.6267 27.0251 19.32H25.2051ZM25.2051 26.56H27.0251C27.0251 27.2533 27.2117 27.7933 27.5851 28.18C27.9717 28.5533 28.4984 28.74 29.1651 28.74V30.32C28.3917 30.32 27.7051 30.16 27.1051 29.84C26.5051 29.52 26.0384 29.08 25.7051 28.52C25.3717 27.96 25.2051 27.3067 25.2051 26.56ZM31.5451 19.84C31.4651 19 31.2117 18.3467 30.7851 17.88C30.3717 17.4 29.8251 17.16 29.1451 17.16V15.58C30.2784 15.58 31.1984 15.9267 31.9051 16.62C32.6251 17.3133 33.0584 18.2733 33.2051 19.5L31.5451 19.84ZM31.5451 26.06L33.2051 26.38C33.0584 27.62 32.6251 28.5867 31.9051 29.28C31.1984 29.9733 30.2784 30.32 29.1451 30.32V28.74C29.8251 28.74 30.3717 28.5067 30.7851 28.04C31.2117 27.56 31.4651 26.9 31.5451 26.06ZM35.0145 30V19.9H36.8345V30H35.0145ZM36.0145 23.24C36.0145 22.56 36.1278 21.9533 36.3545 21.42C36.5811 20.8733 36.8878 20.4467 37.2745 20.14C37.6745 19.8333 38.1145 19.68 38.5945 19.68L38.4345 21.38C37.9678 21.38 37.5811 21.56 37.2745 21.92C36.9811 22.2667 36.8345 22.7067 36.8345 23.24H36.0145ZM39.6345 21.84C39.4745 21.7067 39.2811 21.6 39.0545 21.52C38.8411 21.4267 38.6345 21.38 38.4345 21.38L38.5945 19.68C38.9011 19.68 39.2011 19.74 39.4945 19.86C39.7878 19.9667 40.0411 20.12 40.2545 20.32L39.6345 21.84ZM41.1687 25.5V24.2H47.9887V25.5H41.1687ZM44.2687 30.32V28.74H44.3687V30.32H44.2687ZM40.5887 26.42V23.48H42.4087V26.42H40.5887ZM46.1687 24.2V23.16H47.9887V24.2H46.1687ZM47.9887 23.16H46.1687C46.1687 22.5733 45.9887 22.0933 45.6287 21.72C45.282 21.3467 44.8287 21.16 44.2687 21.16V19.6C44.9887 19.6 45.622 19.7533 46.1687 20.06C46.7287 20.3667 47.1687 20.7933 47.4887 21.34C47.822 21.8733 47.9887 22.48 47.9887 23.16ZM46.2487 27L47.9487 27.34C47.8687 27.9133 47.662 28.4267 47.3287 28.88C46.9953 29.3333 46.5753 29.6867 46.0687 29.94C45.562 30.1933 44.9953 30.32 44.3687 30.32V28.74C44.8487 28.74 45.262 28.6 45.6087 28.32C45.9687 28.0267 46.182 27.5867 46.2487 27ZM40.5887 23.5C40.5887 22.74 40.7487 22.0733 41.0687 21.5C41.402 20.9133 41.842 20.4533 42.3887 20.12C42.9487 19.7733 43.582 19.6 44.2887 19.6V21.16C43.702 21.16 43.242 21.3667 42.9087 21.78C42.5753 22.18 42.4087 22.7533 42.4087 23.5H40.5887ZM40.5887 26.42H42.4087C42.4087 27.1533 42.5753 27.7267 42.9087 28.14C43.242 28.54 43.702 28.74 44.2887 28.74V30.32C43.582 30.32 42.9487 30.1533 42.3887 29.82C41.842 29.4733 41.402 29.0067 41.0687 28.42C40.7487 27.8333 40.5887 27.1667 40.5887 26.42ZM55.2387 30V23.12H57.0587V30H55.2387ZM52.7987 30.3L52.9387 28.8C53.4187 28.8 53.8253 28.68 54.1587 28.44C54.5053 28.2 54.772 27.8467 54.9587 27.38C55.1453 26.9133 55.2387 26.36 55.2387 25.72L56.1387 25.68C56.1387 26.5867 55.992 27.3867 55.6987 28.08C55.4053 28.7733 55.0053 29.32 54.4987 29.72C54.0053 30.1067 53.4387 30.3 52.7987 30.3ZM52.7987 30.3C52.1987 30.3 51.652 30.16 51.1587 29.88C50.6653 29.6 50.272 29.22 49.9787 28.74C49.6853 28.2467 49.5387 27.7 49.5387 27.1L51.2587 27.04C51.2587 27.5467 51.4253 27.9667 51.7587 28.3C52.1053 28.6333 52.4987 28.8 52.9387 28.8L52.7987 30.3ZM49.5387 27.1C49.5387 26.4733 49.692 25.9267 49.9987 25.46C50.3187 24.98 50.7453 24.6 51.2787 24.32C51.812 24.04 52.4187 23.9 53.0987 23.9L53.1987 25.3C52.6387 25.3 52.172 25.4667 51.7987 25.8C51.4387 26.12 51.2587 26.5333 51.2587 27.04L49.5387 27.1ZM53.1987 25.3L53.0987 23.9H56.1787V25.3H53.1987ZM55.2387 25.72V23.14H56.1387V25.68L55.2387 25.72ZM57.0587 23.16H55.2387C55.2387 22.5733 55.0587 22.0933 54.6987 21.72C54.352 21.3467 53.8987 21.16 53.3387 21.16V19.6C54.0587 19.6 54.692 19.7533 55.2387 20.06C55.7987 20.3667 56.2387 20.7933 56.5587 21.34C56.892 21.8733 57.0587 22.48 57.0587 23.16ZM51.4587 22.92L49.7787 22.58C49.8587 21.98 50.0587 21.46 50.3787 21.02C50.712 20.58 51.132 20.2333 51.6387 19.98C52.1587 19.7267 52.732 19.6 53.3587 19.6V21.16C52.8653 21.16 52.4387 21.3067 52.0787 21.6C51.732 21.88 51.5253 22.32 51.4587 22.92ZM59.7565 26.94V15.88L61.5765 15.9V26.94H59.7565ZM58.5965 21.4V19.9H64.0965V21.4H58.5965ZM59.7565 26.92H61.5765C61.5765 27.3067 61.6298 27.6333 61.7365 27.9C61.8432 28.1667 61.9965 28.3733 62.1965 28.52C62.3965 28.6533 62.6365 28.72 62.9165 28.72L62.7565 30.3C61.8232 30.3 61.0898 30.0067 60.5565 29.42C60.0232 28.82 59.7565 27.9867 59.7565 26.92ZM63.8565 28.38L64.5765 29.68C64.3098 29.88 64.0165 30.0333 63.6965 30.14C63.3898 30.2467 63.0765 30.3 62.7565 30.3L62.9165 28.72C63.0898 28.72 63.2498 28.6933 63.3965 28.64C63.5565 28.5733 63.7098 28.4867 63.8565 28.38ZM65.8562 25.5V24.2H72.6762V25.5H65.8562ZM68.9562 30.32V28.74H69.0562V30.32H68.9562ZM65.2762 26.42V23.48H67.0962V26.42H65.2762ZM70.8562 24.2V23.16H72.6762V24.2H70.8562ZM72.6762 23.16H70.8562C70.8562 22.5733 70.6762 22.0933 70.3162 21.72C69.9695 21.3467 69.5162 21.16 68.9562 21.16V19.6C69.6762 19.6 70.3095 19.7533 70.8562 20.06C71.4162 20.3667 71.8562 20.7933 72.1762 21.34C72.5095 21.8733 72.6762 22.48 72.6762 23.16ZM70.9362 27L72.6362 27.34C72.5562 27.9133 72.3495 28.4267 72.0162 28.88C71.6828 29.3333 71.2628 29.6867 70.7562 29.94C70.2495 30.1933 69.6828 30.32 69.0562 30.32V28.74C69.5362 28.74 69.9495 28.6 70.2962 28.32C70.6562 28.0267 70.8695 27.5867 70.9362 27ZM65.2762 23.5C65.2762 22.74 65.4362 22.0733 65.7562 21.5C66.0895 20.9133 66.5295 20.4533 67.0762 20.12C67.6362 19.7733 68.2695 19.6 68.9762 19.6V21.16C68.3895 21.16 67.9295 21.3667 67.5962 21.78C67.2628 22.18 67.0962 22.7533 67.0962 23.5H65.2762ZM65.2762 26.42H67.0962C67.0962 27.1533 67.2628 27.7267 67.5962 28.14C67.9295 28.54 68.3895 28.74 68.9762 28.74V30.32C68.2695 30.32 67.6362 30.1533 67.0762 29.82C66.5295 29.4733 66.0895 29.0067 65.7562 28.42C65.4362 27.8333 65.2762 27.1667 65.2762 26.42ZM84.3343 30L78.6943 15.9H80.4743L86.1143 30H84.3343ZM78.3543 30V15.9H80.1743V30H78.3543ZM84.8143 30V15.9H86.6343V30H84.8143ZM89.1179 25.5V24.2H95.9379V25.5H89.1179ZM92.2179 30.32V28.74H92.3179V30.32H92.2179ZM88.5379 26.42V23.48H90.3579V26.42H88.5379ZM94.1179 24.2V23.16H95.9379V24.2H94.1179ZM95.9379 23.16H94.1179C94.1179 22.5733 93.9379 22.0933 93.5779 21.72C93.2312 21.3467 92.7779 21.16 92.2179 21.16V19.6C92.9379 19.6 93.5712 19.7533 94.1179 20.06C94.6779 20.3667 95.1179 20.7933 95.4379 21.34C95.7712 21.8733 95.9379 22.48 95.9379 23.16ZM94.1979 27L95.8979 27.34C95.8179 27.9133 95.6112 28.4267 95.2779 28.88C94.9446 29.3333 94.5246 29.6867 94.0179 29.94C93.5112 30.1933 92.9446 30.32 92.3179 30.32V28.74C92.7979 28.74 93.2112 28.6 93.5579 28.32C93.9179 28.0267 94.1312 27.5867 94.1979 27ZM88.5379 23.5C88.5379 22.74 88.6979 22.0733 89.0179 21.5C89.3512 20.9133 89.7912 20.4533 90.3379 20.12C90.8979 19.7733 91.5312 19.6 92.2379 19.6V21.16C91.6512 21.16 91.1912 21.3667 90.8579 21.78C90.5246 22.18 90.3579 22.7533 90.3579 23.5H88.5379ZM88.5379 26.42H90.3579C90.3579 27.1533 90.5246 27.7267 90.8579 28.14C91.1912 28.54 91.6512 28.74 92.2379 28.74V30.32C91.5312 30.32 90.8979 30.1533 90.3379 29.82C89.7912 29.4733 89.3512 29.0067 89.0179 28.42C88.6979 27.8333 88.5379 27.1667 88.5379 26.42ZM105.646 30L108.206 19.9H110.026L107.326 30H105.646ZM99.9465 30L97.2465 19.9H99.0665L101.626 30H99.9465ZM100.226 30L102.826 19.9H104.426L101.786 30H100.226ZM105.506 30L102.846 19.9H104.446L107.046 30H105.506ZM115.4 26.58V19.32H117.22V26.58H115.4ZM115.4 19.32C115.4 18.5867 115.567 17.94 115.9 17.38C116.234 16.8067 116.7 16.3667 117.3 16.06C117.9 15.74 118.587 15.58 119.36 15.58V17.16C118.694 17.16 118.167 17.3467 117.78 17.72C117.407 18.0933 117.22 18.6267 117.22 19.32H115.4ZM115.4 26.56H117.22C117.22 27.2533 117.407 27.7933 117.78 28.18C118.167 28.5533 118.694 28.74 119.36 28.74V30.32C118.587 30.32 117.9 30.16 117.3 29.84C116.7 29.52 116.234 29.08 115.9 28.52C115.567 27.96 115.4 27.3067 115.4 26.56ZM121.74 19.84C121.66 19 121.407 18.3467 120.98 17.88C120.567 17.4 120.02 17.16 119.34 17.16V15.58C120.474 15.58 121.394 15.9267 122.1 16.62C122.82 17.3133 123.254 18.2733 123.4 19.5L121.74 19.84ZM121.74 26.06L123.4 26.38C123.254 27.62 122.82 28.5867 122.1 29.28C121.394 29.9733 120.474 30.32 119.34 30.32V28.74C120.02 28.74 120.567 28.5067 120.98 28.04C121.407 27.56 121.66 26.9 121.74 26.06ZM125.21 30V19.9H127.03V30H125.21ZM130.83 30V23.12H132.65V30H130.83ZM130.83 23.12C130.83 22.56 130.656 22.1067 130.31 21.76C129.963 21.4 129.516 21.22 128.97 21.22L129.43 19.6C130.043 19.6 130.59 19.7533 131.07 20.06C131.563 20.3667 131.95 20.7867 132.23 21.32C132.51 21.8533 132.65 22.4533 132.65 23.12H130.83ZM126.23 23.16C126.23 22.48 126.37 21.8733 126.65 21.34C126.93 20.7933 127.31 20.3667 127.79 20.06C128.27 19.7533 128.816 19.6 129.43 19.6L128.97 21.22C128.396 21.22 127.93 21.4 127.57 21.76C127.21 22.12 127.03 22.5867 127.03 23.16H126.23ZM125.21 30V15.6H127.03V30H125.21ZM140.082 30V23.12H141.902V30H140.082ZM137.642 30.3L137.782 28.8C138.262 28.8 138.669 28.68 139.002 28.44C139.349 28.2 139.616 27.8467 139.802 27.38C139.989 26.9133 140.082 26.36 140.082 25.72L140.982 25.68C140.982 26.5867 140.836 27.3867 140.542 28.08C140.249 28.7733 139.849 29.32 139.342 29.72C138.849 30.1067 138.282 30.3 137.642 30.3ZM137.642 30.3C137.042 30.3 136.496 30.16 136.002 29.88C135.509 29.6 135.116 29.22 134.822 28.74C134.529 28.2467 134.382 27.7 134.382 27.1L136.102 27.04C136.102 27.5467 136.269 27.9667 136.602 28.3C136.949 28.6333 137.342 28.8 137.782 28.8L137.642 30.3ZM134.382 27.1C134.382 26.4733 134.536 25.9267 134.842 25.46C135.162 24.98 135.589 24.6 136.122 24.32C136.656 24.04 137.262 23.9 137.942 23.9L138.042 25.3C137.482 25.3 137.016 25.4667 136.642 25.8C136.282 26.12 136.102 26.5333 136.102 27.04L134.382 27.1ZM138.042 25.3L137.942 23.9H141.022V25.3H138.042ZM140.082 25.72V23.14H140.982V25.68L140.082 25.72ZM141.902 23.16H140.082C140.082 22.5733 139.902 22.0933 139.542 21.72C139.196 21.3467 138.742 21.16 138.182 21.16V19.6C138.902 19.6 139.536 19.7533 140.082 20.06C140.642 20.3667 141.082 20.7933 141.402 21.34C141.736 21.8733 141.902 22.48 141.902 23.16ZM136.302 22.92L134.622 22.58C134.702 21.98 134.902 21.46 135.222 21.02C135.556 20.58 135.976 20.2333 136.482 19.98C137.002 19.7267 137.576 19.6 138.202 19.6V21.16C137.709 21.16 137.282 21.3067 136.922 21.6C136.576 21.88 136.369 22.32 136.302 22.92ZM143.94 30V19.9H145.76V30H143.94ZM144.94 23.24C144.94 22.56 145.054 21.9533 145.28 21.42C145.507 20.8733 145.814 20.4467 146.2 20.14C146.6 19.8333 147.04 19.68 147.52 19.68L147.36 21.38C146.894 21.38 146.507 21.56 146.2 21.92C145.907 22.2667 145.76 22.7067 145.76 23.24H144.94ZM148.56 21.84C148.4 21.7067 148.207 21.6 147.98 21.52C147.767 21.4267 147.56 21.38 147.36 21.38L147.52 19.68C147.827 19.68 148.127 19.74 148.42 19.86C148.714 19.9667 148.967 20.12 149.18 20.32L148.56 21.84ZM155.414 30V23.12H157.234V30H155.414ZM152.974 30.3L153.114 28.8C153.594 28.8 154.001 28.68 154.334 28.44C154.681 28.2 154.948 27.8467 155.134 27.38C155.321 26.9133 155.414 26.36 155.414 25.72L156.314 25.68C156.314 26.5867 156.168 27.3867 155.874 28.08C155.581 28.7733 155.181 29.32 154.674 29.72C154.181 30.1067 153.614 30.3 152.974 30.3ZM152.974 30.3C152.374 30.3 151.828 30.16 151.334 29.88C150.841 29.6 150.448 29.22 150.154 28.74C149.861 28.2467 149.714 27.7 149.714 27.1L151.434 27.04C151.434 27.5467 151.601 27.9667 151.934 28.3C152.281 28.6333 152.674 28.8 153.114 28.8L152.974 30.3ZM149.714 27.1C149.714 26.4733 149.868 25.9267 150.174 25.46C150.494 24.98 150.921 24.6 151.454 24.32C151.988 24.04 152.594 23.9 153.274 23.9L153.374 25.3C152.814 25.3 152.348 25.4667 151.974 25.8C151.614 26.12 151.434 26.5333 151.434 27.04L149.714 27.1ZM153.374 25.3L153.274 23.9H156.354V25.3H153.374ZM155.414 25.72V23.14H156.314V25.68L155.414 25.72ZM157.234 23.16H155.414C155.414 22.5733 155.234 22.0933 154.874 21.72C154.528 21.3467 154.074 21.16 153.514 21.16V19.6C154.234 19.6 154.868 19.7533 155.414 20.06C155.974 20.3667 156.414 20.7933 156.734 21.34C157.068 21.8733 157.234 22.48 157.234 23.16ZM151.634 22.92L149.954 22.58C150.034 21.98 150.234 21.46 150.554 21.02C150.888 20.58 151.308 20.2333 151.814 19.98C152.334 19.7267 152.908 19.6 153.534 19.6V21.16C153.041 21.16 152.614 21.3067 152.254 21.6C151.908 21.88 151.701 22.32 151.634 22.92ZM158.972 26.44V23.46H160.792V26.44H158.972ZM158.972 23.48C158.972 22.7333 159.132 22.0667 159.452 21.48C159.786 20.8933 160.226 20.4333 160.772 20.1C161.332 19.7533 161.966 19.58 162.672 19.58V21.16C162.086 21.16 161.626 21.36 161.292 21.76C160.959 22.16 160.792 22.7333 160.792 23.48H158.972ZM164.532 22.9C164.466 22.3 164.252 21.86 163.892 21.58C163.546 21.3 163.132 21.16 162.652 21.16V19.58C163.279 19.58 163.846 19.7067 164.352 19.96C164.859 20.2133 165.279 20.5667 165.612 21.02C165.946 21.46 166.152 21.9733 166.232 22.56L164.532 22.9ZM158.972 26.42H160.792C160.792 27.1533 160.959 27.7267 161.292 28.14C161.626 28.54 162.086 28.74 162.672 28.74V30.32C161.966 30.32 161.332 30.1533 160.772 29.82C160.226 29.4733 159.786 29.0067 159.452 28.42C159.132 27.8333 158.972 27.1667 158.972 26.42ZM164.532 27L166.232 27.34C166.152 27.9133 165.946 28.4267 165.612 28.88C165.279 29.3333 164.859 29.6867 164.352 29.94C163.846 30.1933 163.279 30.32 162.652 30.32V28.74C163.132 28.74 163.546 28.6 163.892 28.32C164.252 28.0267 164.466 27.5867 164.532 27ZM168.487 26.94V15.88L170.307 15.9V26.94H168.487ZM167.327 21.4V19.9H172.827V21.4H167.327ZM168.487 26.92H170.307C170.307 27.3067 170.36 27.6333 170.467 27.9C170.574 28.1667 170.727 28.3733 170.927 28.52C171.127 28.6533 171.367 28.72 171.647 28.72L171.487 30.3C170.554 30.3 169.82 30.0067 169.287 29.42C168.754 28.82 168.487 27.9867 168.487 26.92ZM172.587 28.38L173.307 29.68C173.04 29.88 172.747 30.0333 172.427 30.14C172.12 30.2467 171.807 30.3 171.487 30.3L171.647 28.72C171.82 28.72 171.98 28.6933 172.127 28.64C172.287 28.5733 172.44 28.4867 172.587 28.38ZM174.587 25.5V24.2H181.407V25.5H174.587ZM177.687 30.32V28.74H177.787V30.32H177.687ZM174.007 26.42V23.48H175.827V26.42H174.007ZM179.587 24.2V23.16H181.407V24.2H179.587ZM181.407 23.16H179.587C179.587 22.5733 179.407 22.0933 179.047 21.72C178.7 21.3467 178.247 21.16 177.687 21.16V19.6C178.407 19.6 179.04 19.7533 179.587 20.06C180.147 20.3667 180.587 20.7933 180.907 21.34C181.24 21.8733 181.407 22.48 181.407 23.16ZM179.667 27L181.367 27.34C181.287 27.9133 181.08 28.4267 180.747 28.88C180.413 29.3333 179.993 29.6867 179.487 29.94C178.98 30.1933 178.413 30.32 177.787 30.32V28.74C178.267 28.74 178.68 28.6 179.027 28.32C179.387 28.0267 179.6 27.5867 179.667 27ZM174.007 23.5C174.007 22.74 174.167 22.0733 174.487 21.5C174.82 20.9133 175.26 20.4533 175.807 20.12C176.367 19.7733 177 19.6 177.707 19.6V21.16C177.12 21.16 176.66 21.3667 176.327 21.78C175.993 22.18 175.827 22.7533 175.827 23.5H174.007ZM174.007 26.42H175.827C175.827 27.1533 175.993 27.7267 176.327 28.14C176.66 28.54 177.12 28.74 177.707 28.74V30.32C177 30.32 176.367 30.1533 175.807 29.82C175.26 29.4733 174.82 29.0067 174.487 28.42C174.167 27.8333 174.007 27.1667 174.007 26.42ZM183.257 30V19.9H185.077V30H183.257ZM184.257 23.24C184.257 22.56 184.37 21.9533 184.597 21.42C184.823 20.8733 185.13 20.4467 185.517 20.14C185.917 19.8333 186.357 19.68 186.837 19.68L186.677 21.38C186.21 21.38 185.823 21.56 185.517 21.92C185.223 22.2667 185.077 22.7067 185.077 23.24H184.257ZM187.877 21.84C187.717 21.7067 187.523 21.6 187.297 21.52C187.083 21.4267 186.877 21.38 186.677 21.38L186.837 19.68C187.143 19.68 187.443 19.74 187.737 19.86C188.03 19.9667 188.283 20.12 188.497 20.32L187.877 21.84Z" fill="black"/>
</svg>
