<svg width="91" height="34" viewBox="0 0 91 34" fill="none" xmlns="http://www.w3.org/2000/svg">
<rect x="8" y="8" width="77" height="21" rx="10.5" fill="black"/>
<rect x="8.5" y="7.5" width="75" height="19" rx="9.5" fill="#DEBDBD" stroke="black"/>
<path d="M45.6183 14.44H44.2533V11.425H45.6183V14.44ZM44.2533 22V14.425H45.6183V22H44.2533ZM40.0383 19.585V16.84H41.4033V19.585H40.0383ZM41.4033 16.84H40.0383C40.0383 16.34 40.1433 15.89 40.3533 15.49C40.5633 15.09 40.8483 14.775 41.2083 14.545C41.5783 14.315 41.9983 14.2 42.4683 14.2L42.8133 15.415C42.4033 15.415 42.0633 15.55 41.7933 15.82C41.5333 16.08 41.4033 16.42 41.4033 16.84ZM44.8533 16.87H44.2533C44.2533 16.44 44.1183 16.09 43.8483 15.82C43.5783 15.55 43.2333 15.415 42.8133 15.415L42.4683 14.2C42.9183 14.2 43.3233 14.315 43.6833 14.545C44.0533 14.775 44.3383 15.095 44.5383 15.505C44.7483 15.905 44.8533 16.36 44.8533 16.87ZM41.4033 19.585C41.4033 20.005 41.5333 20.35 41.7933 20.62C42.0633 20.88 42.4033 21.01 42.8133 21.01L42.4683 22.225C41.9983 22.225 41.5783 22.11 41.2083 21.88C40.8483 21.65 40.5633 21.335 40.3533 20.935C40.1433 20.535 40.0383 20.085 40.0383 19.585H41.4033ZM44.8533 19.54C44.8533 20.05 44.7483 20.51 44.5383 20.92C44.3383 21.32 44.0533 21.64 43.6833 21.88C43.3233 22.11 42.9183 22.225 42.4683 22.225L42.8133 21.01C43.2333 21.01 43.5783 20.875 43.8483 20.605C44.1183 20.335 44.2533 19.98 44.2533 19.54H44.8533ZM47.4278 18.625V17.65H52.5428V18.625H47.4278ZM49.7528 22.24V21.055H49.8278V22.24H49.7528ZM46.9928 19.315V17.11H48.3578V19.315H46.9928ZM51.1778 17.65V16.87H52.5428V17.65H51.1778ZM52.5428 16.87H51.1778C51.1778 16.43 51.0428 16.07 50.7728 15.79C50.5128 15.51 50.1728 15.37 49.7528 15.37V14.2C50.2928 14.2 50.7678 14.315 51.1778 14.545C51.5978 14.775 51.9278 15.095 52.1678 15.505C52.4178 15.905 52.5428 16.36 52.5428 16.87ZM51.2378 19.75L52.5128 20.005C52.4528 20.435 52.2978 20.82 52.0478 21.16C51.7978 21.5 51.4828 21.765 51.1028 21.955C50.7228 22.145 50.2978 22.24 49.8278 22.24V21.055C50.1878 21.055 50.4978 20.95 50.7578 20.74C51.0278 20.52 51.1878 20.19 51.2378 19.75ZM46.9928 17.125C46.9928 16.555 47.1128 16.055 47.3528 15.625C47.6028 15.185 47.9328 14.84 48.3428 14.59C48.7628 14.33 49.2378 14.2 49.7678 14.2V15.37C49.3278 15.37 48.9828 15.525 48.7328 15.835C48.4828 16.135 48.3578 16.565 48.3578 17.125H46.9928ZM46.9928 19.315H48.3578C48.3578 19.865 48.4828 20.295 48.7328 20.605C48.9828 20.905 49.3278 21.055 49.7678 21.055V22.24C49.2378 22.24 48.7628 22.115 48.3428 21.865C47.9328 21.605 47.6028 21.255 47.3528 20.815C47.1128 20.375 46.9928 19.875 46.9928 19.315ZM54.0803 22V11.2H55.4453V22H54.0803ZM57.418 18.625V17.65H62.533V18.625H57.418ZM59.743 22.24V21.055H59.818V22.24H59.743ZM56.983 19.315V17.11H58.348V19.315H56.983ZM61.168 17.65V16.87H62.533V17.65H61.168ZM62.533 16.87H61.168C61.168 16.43 61.033 16.07 60.763 15.79C60.503 15.51 60.163 15.37 59.743 15.37V14.2C60.283 14.2 60.758 14.315 61.168 14.545C61.588 14.775 61.918 15.095 62.158 15.505C62.408 15.905 62.533 16.36 62.533 16.87ZM61.228 19.75L62.503 20.005C62.443 20.435 62.288 20.82 62.038 21.16C61.788 21.5 61.473 21.765 61.093 21.955C60.713 22.145 60.288 22.24 59.818 22.24V21.055C60.178 21.055 60.488 20.95 60.748 20.74C61.018 20.52 61.178 20.19 61.228 19.75ZM56.983 17.125C56.983 16.555 57.103 16.055 57.343 15.625C57.593 15.185 57.923 14.84 58.333 14.59C58.753 14.33 59.228 14.2 59.758 14.2V15.37C59.318 15.37 58.973 15.525 58.723 15.835C58.473 16.135 58.348 16.565 58.348 17.125H56.983ZM56.983 19.315H58.348C58.348 19.865 58.473 20.295 58.723 20.605C58.973 20.905 59.318 21.055 59.758 21.055V22.24C59.228 22.24 58.753 22.115 58.333 21.865C57.923 21.605 57.593 21.255 57.343 20.815C57.103 20.375 56.983 19.875 56.983 19.315ZM64.4155 19.705V11.41L65.7805 11.425V19.705H64.4155ZM63.5455 15.55V14.425H67.6705V15.55H63.5455ZM64.4155 19.69H65.7805C65.7805 19.98 65.8205 20.225 65.9005 20.425C65.9805 20.625 66.0955 20.78 66.2455 20.89C66.3955 20.99 66.5755 21.04 66.7855 21.04L66.6655 22.225C65.9655 22.225 65.4155 22.005 65.0155 21.565C64.6155 21.115 64.4155 20.49 64.4155 19.69ZM67.4905 20.785L68.0305 21.76C67.8305 21.91 67.6105 22.025 67.3705 22.105C67.1405 22.185 66.9055 22.225 66.6655 22.225L66.7855 21.04C66.9155 21.04 67.0355 21.02 67.1455 20.98C67.2655 20.93 67.3805 20.865 67.4905 20.785ZM68.9903 18.625V17.65H74.1053V18.625H68.9903ZM71.3153 22.24V21.055H71.3903V22.24H71.3153ZM68.5553 19.315V17.11H69.9203V19.315H68.5553ZM72.7403 17.65V16.87H74.1053V17.65H72.7403ZM74.1053 16.87H72.7403C72.7403 16.43 72.6053 16.07 72.3353 15.79C72.0753 15.51 71.7353 15.37 71.3153 15.37V14.2C71.8553 14.2 72.3303 14.315 72.7403 14.545C73.1603 14.775 73.4903 15.095 73.7303 15.505C73.9803 15.905 74.1053 16.36 74.1053 16.87ZM72.8003 19.75L74.0753 20.005C74.0153 20.435 73.8603 20.82 73.6103 21.16C73.3603 21.5 73.0453 21.765 72.6653 21.955C72.2853 22.145 71.8603 22.24 71.3903 22.24V21.055C71.7503 21.055 72.0603 20.95 72.3203 20.74C72.5903 20.52 72.7503 20.19 72.8003 19.75ZM68.5553 17.125C68.5553 16.555 68.6753 16.055 68.9153 15.625C69.1653 15.185 69.4953 14.84 69.9053 14.59C70.3253 14.33 70.8003 14.2 71.3303 14.2V15.37C70.8903 15.37 70.5453 15.525 70.2953 15.835C70.0453 16.135 69.9203 16.565 69.9203 17.125H68.5553ZM68.5553 19.315H69.9203C69.9203 19.865 70.0453 20.295 70.2953 20.605C70.5453 20.905 70.8903 21.055 71.3303 21.055V22.24C70.8003 22.24 70.3253 22.115 69.9053 21.865C69.4953 21.605 69.1653 21.255 68.9153 20.815C68.6753 20.375 68.5553 19.875 68.5553 19.315Z" fill="black"/>
<g clip-path="url(#clip0_56_36)">
<path opacity="0.2" d="M37 18C37 21.3135 34.3135 24 31 24C27.6865 24 25 21.3135 25 18C25 14.6865 27.6865 12 31 12C34.3135 12 37 14.6865 37 18Z" fill="black"/>
<path d="M29.75 19.9995C29.75 20.0658 29.7237 20.1294 29.6768 20.1763C29.6299 20.2232 29.5663 20.2495 29.5 20.2495C29.4337 20.2495 29.3701 20.2232 29.3232 20.1763C29.2763 20.1294 29.25 20.0658 29.25 19.9995V16.9995C29.25 16.9332 29.2763 16.8696 29.3232 16.8227C29.3701 16.7758 29.4337 16.7495 29.5 16.7495C29.5663 16.7495 29.6299 16.7758 29.6768 16.8227C29.7237 16.8696 29.75 16.9332 29.75 16.9995V19.9995ZM30.75 19.9995C30.75 20.0658 30.7237 20.1294 30.6768 20.1763C30.6299 20.2232 30.5663 20.2495 30.5 20.2495C30.4337 20.2495 30.3701 20.2232 30.3232 20.1763C30.2763 20.1294 30.25 20.0658 30.25 19.9995V16.9995C30.25 16.9332 30.2763 16.8696 30.3232 16.8227C30.3701 16.7758 30.4337 16.7495 30.5 16.7495C30.5663 16.7495 30.6299 16.7758 30.6768 16.8227C30.7237 16.8696 30.75 16.9332 30.75 16.9995V19.9995ZM31.75 19.9995C31.75 20.0658 31.7237 20.1294 31.6768 20.1763C31.6299 20.2232 31.5663 20.2495 31.5 20.2495C31.4337 20.2495 31.3701 20.2232 31.3232 20.1763C31.2763 20.1294 31.25 20.0658 31.25 19.9995V16.9995C31.25 16.9332 31.2763 16.8696 31.3232 16.8227C31.3701 16.7758 31.4337 16.7495 31.5 16.7495C31.5663 16.7495 31.6299 16.7758 31.6768 16.8227C31.7237 16.8696 31.75 16.9332 31.75 16.9995V19.9995ZM31.25 14.7495H29.75C29.757 14.5553 29.8391 14.3714 29.9789 14.2365C30.1188 14.1016 30.3055 14.0262 30.4998 14.0261C30.6941 14.0261 30.8808 14.1014 31.0207 14.2362C31.1607 14.371 31.2428 14.5553 31.25 14.7495Z" fill="black"/>
<path d="M27.75 14.9995C27.6837 14.9995 27.6201 14.9732 27.5732 14.9263C27.5263 14.8794 27.5 14.8158 27.5 14.7495C27.5 14.6832 27.5263 14.6196 27.5732 14.5727C27.6201 14.5258 27.6837 14.4995 27.75 14.4995H33.25C33.3163 14.4995 33.3799 14.5258 33.4268 14.5727C33.4737 14.6196 33.5 14.6832 33.5 14.7495C33.5 14.8158 33.4737 14.8794 33.4268 14.9263C33.3799 14.9732 33.3163 14.9995 33.25 14.9995H27.75Z" fill="black"/>
<path fill-rule="evenodd" clip-rule="evenodd" d="M32.75 15.25H28.25C28.1837 15.25 28.1201 15.2763 28.0732 15.3232C28.0263 15.3701 28 15.4337 28 15.5V21C28 21.0663 28.0263 21.1299 28.0732 21.1768C28.1201 21.2237 28.1837 21.25 28.25 21.25H32.75C32.8163 21.25 32.8799 21.2237 32.9268 21.1768C32.9737 21.1299 33 21.0663 33 21V15.5C33 15.4337 32.9737 15.3701 32.9268 15.3232C32.8799 15.2763 32.8163 15.25 32.75 15.25ZM28.5 20.75V15.75H32.5V20.75H28.5Z" fill="black"/>
<path fill-rule="evenodd" clip-rule="evenodd" d="M30.5 23.25C33.6755 23.25 36.25 20.6755 36.25 17.5C36.25 14.3245 33.6755 11.75 30.5 11.75C27.3245 11.75 24.75 14.3245 24.75 17.5C24.75 20.6755 27.3245 23.25 30.5 23.25ZM30.5 23.75C33.952 23.75 36.75 20.952 36.75 17.5C36.75 14.048 33.952 11.25 30.5 11.25C27.048 11.25 24.25 14.048 24.25 17.5C24.25 20.952 27.048 23.75 30.5 23.75Z" fill="black"/>
</g>
<defs>
<clipPath id="clip0_56_36">
<rect width="13" height="13" fill="white" transform="translate(24 11)"/>
</clipPath>
</defs>
</svg>
