<svg width="254" height="45" viewBox="0 0 254 45" fill="none" xmlns="http://www.w3.org/2000/svg">
<path d="M50.6266 32V28.72H51.6266V19.72H50.6266V16.44H64.1266V22.48H59.6466V19.72H57.2266V22.88H58.9866V25.16H57.2266V28.72H59.6466V25.56H64.1266V32H50.6266ZM68.7844 32.28C67.4244 32.28 66.3977 31.7733 65.7044 30.76C65.0244 29.7467 64.6844 28.3067 64.6844 26.44C64.6844 24.5733 65.0244 23.1333 65.7044 22.12C66.3977 21.1067 67.4244 20.6 68.7844 20.6C69.4644 20.6 70.0644 20.7667 70.5844 21.1C71.1177 21.4333 71.551 21.8133 71.8844 22.24V19.72H70.7044V16.44H76.4844V28.72H77.3644V32H71.8844V30.64C71.551 31.0667 71.1177 31.4467 70.5844 31.78C70.0644 32.1133 69.4644 32.28 68.7844 32.28ZM70.7244 28.72C71.111 28.72 71.3977 28.62 71.5844 28.42C71.7844 28.2067 71.8844 27.88 71.8844 27.44V25.44C71.8844 25 71.7844 24.68 71.5844 24.48C71.3977 24.2667 71.111 24.16 70.7244 24.16C70.3377 24.16 70.0444 24.2667 69.8444 24.48C69.6577 24.68 69.5644 25 69.5644 25.44V27.44C69.5644 27.88 69.6577 28.2067 69.8444 28.42C70.0444 28.62 70.3377 28.72 70.7244 28.72ZM78.9684 19.78V16.44H83.0484V19.78H78.9684ZM78.0084 32V28.72H78.8884V24.16H78.0084V20.88H83.4884V28.72H84.3684V32H78.0084ZM89.8625 32.28C88.4492 32.28 87.3825 31.94 86.6625 31.26C85.9558 30.5667 85.6025 29.4067 85.6025 27.78V24.16H84.7225V20.88C85.2292 20.88 85.6092 20.7533 85.8625 20.5C86.1158 20.2333 86.2425 19.8733 86.2425 19.42V18.52H90.4825V20.88H93.1825V24.16H90.4825V27.44C90.4825 27.88 90.5758 28.2067 90.7625 28.42C90.9625 28.62 91.2558 28.72 91.6425 28.72C92.1492 28.72 92.7025 28.66 93.3025 28.54V31.68C92.9292 31.8267 92.4225 31.96 91.7825 32.08C91.1558 32.2133 90.5158 32.28 89.8625 32.28ZM107.742 32.28C105.222 32.28 103.275 31.64 101.902 30.36C100.542 29.08 99.862 27.0333 99.862 24.22C99.862 18.8467 102.475 16.16 107.702 16.16C108.969 16.16 110.142 16.3133 111.222 16.62C112.315 16.9267 113.129 17.2667 113.662 17.64V22.64H108.862V21.2C108.862 20.6933 108.749 20.32 108.522 20.08C108.295 19.84 107.955 19.72 107.502 19.72C107.049 19.72 106.709 19.84 106.482 20.08C106.255 20.32 106.142 20.6933 106.142 21.2V27.24C106.142 27.7467 106.255 28.12 106.482 28.36C106.709 28.6 107.049 28.72 107.502 28.72C107.955 28.72 108.295 28.6 108.522 28.36C108.749 28.12 108.862 27.7467 108.862 27.24V25.62H113.662V30.8C113.115 31.1733 112.302 31.5133 111.222 31.82C110.155 32.1267 108.995 32.28 107.742 32.28ZM127.656 28.72V32H121.336V28.72H122.176V25.44C122.176 25 122.082 24.68 121.896 24.48C121.709 24.2667 121.429 24.16 121.056 24.16C120.256 24.16 119.856 24.5867 119.856 25.44V28.72H120.696V32H114.376V28.72H115.256V19.72H114.376V16.44H119.856V22.44C120.349 21.8267 120.882 21.3667 121.456 21.06C122.029 20.7533 122.696 20.6 123.456 20.6C124.562 20.6 125.389 20.9467 125.936 21.64C126.496 22.3333 126.776 23.2867 126.776 24.5V28.72H127.656ZM139.961 28.72V32H134.681V30.64C134.388 31.0667 133.975 31.4467 133.441 31.78C132.921 32.1133 132.281 32.28 131.521 32.28C130.521 32.28 129.735 32.0133 129.161 31.48C128.588 30.9467 128.301 30.1933 128.301 29.22C128.301 26.7 130.441 25.4067 134.721 25.34C134.681 24.8867 134.508 24.58 134.201 24.42C133.895 24.2467 133.375 24.16 132.641 24.16C132.041 24.16 131.395 24.2267 130.701 24.36C130.021 24.48 129.395 24.6467 128.821 24.86V21.18C129.528 21.0067 130.295 20.8667 131.121 20.76C131.948 20.6533 132.755 20.6 133.541 20.6C135.528 20.6 136.948 20.96 137.801 21.68C138.655 22.4 139.081 23.5133 139.081 25.02V28.72H139.961ZM134.681 27.32C134.081 27.32 133.615 27.4 133.281 27.56C132.961 27.72 132.801 27.9867 132.801 28.36C132.801 28.5867 132.868 28.7733 133.001 28.92C133.148 29.0533 133.348 29.12 133.601 29.12C133.948 29.12 134.215 28.9733 134.401 28.68C134.588 28.3867 134.681 27.9733 134.681 27.44V27.32ZM149.146 20.6C149.413 20.6 149.666 20.6267 149.906 20.68C150.146 20.7333 150.346 20.8 150.506 20.88V24.7C149.959 24.4733 149.373 24.36 148.746 24.36C147.906 24.36 147.259 24.58 146.806 25.02C146.353 25.46 146.126 26.1133 146.126 26.98V28.72H147.926V32H140.646V28.72H141.526V24.16H140.646V20.88H146.126V22.34C146.499 21.78 146.926 21.3533 147.406 21.06C147.886 20.7533 148.466 20.6 149.146 20.6ZM162.813 28.72V32H157.533V30.64C157.24 31.0667 156.826 31.4467 156.293 31.78C155.773 32.1133 155.133 32.28 154.373 32.28C153.373 32.28 152.586 32.0133 152.013 31.48C151.44 30.9467 151.153 30.1933 151.153 29.22C151.153 26.7 153.293 25.4067 157.573 25.34C157.533 24.8867 157.36 24.58 157.053 24.42C156.746 24.2467 156.226 24.16 155.493 24.16C154.893 24.16 154.246 24.2267 153.553 24.36C152.873 24.48 152.246 24.6467 151.673 24.86V21.18C152.38 21.0067 153.146 20.8667 153.973 20.76C154.8 20.6533 155.606 20.6 156.393 20.6C158.38 20.6 159.8 20.96 160.653 21.68C161.506 22.4 161.933 23.5133 161.933 25.02V28.72H162.813ZM157.533 27.32C156.933 27.32 156.466 27.4 156.133 27.56C155.813 27.72 155.653 27.9867 155.653 28.36C155.653 28.5867 155.72 28.7733 155.853 28.92C156 29.0533 156.2 29.12 156.453 29.12C156.8 29.12 157.066 28.9733 157.253 28.68C157.44 28.3867 157.533 27.9733 157.533 27.44V27.32ZM169.438 32.28C167.531 32.28 166.044 31.7867 164.978 30.8C163.911 29.8 163.378 28.3467 163.378 26.44C163.378 24.5333 163.911 23.0867 164.978 22.1C166.044 21.1 167.524 20.6 169.418 20.6C170.338 20.6 171.218 20.7267 172.058 20.98C172.898 21.2333 173.551 21.52 174.018 21.84V25.8H170.578V25.44C170.578 25 170.484 24.68 170.298 24.48C170.111 24.2667 169.818 24.16 169.418 24.16C168.644 24.16 168.258 24.5867 168.258 25.44V27.16C168.258 28.2 168.851 28.72 170.038 28.72C171.144 28.72 172.431 28.6 173.898 28.36V31.5C173.444 31.7 172.804 31.88 171.978 32.04C171.164 32.2 170.318 32.28 169.438 32.28ZM179.628 32.28C178.215 32.28 177.148 31.94 176.428 31.26C175.721 30.5667 175.368 29.4067 175.368 27.78V24.16H174.488V20.88C174.995 20.88 175.375 20.7533 175.628 20.5C175.881 20.2333 176.008 19.8733 176.008 19.42V18.52H180.248V20.88H182.948V24.16H180.248V27.44C180.248 27.88 180.341 28.2067 180.528 28.42C180.728 28.62 181.021 28.72 181.408 28.72C181.915 28.72 182.468 28.66 183.068 28.54V31.68C182.695 31.8267 182.188 31.96 181.548 32.08C180.921 32.2133 180.281 32.28 179.628 32.28ZM189.672 32.28C187.778 32.28 186.298 31.7867 185.232 30.8C184.165 29.8 183.632 28.3467 183.632 26.44C183.632 24.5333 184.165 23.0867 185.232 22.1C186.298 21.1 187.778 20.6 189.672 20.6C191.552 20.6 192.905 21.0933 193.732 22.08C194.572 23.0533 194.992 24.2667 194.992 25.72V27.16H188.512V27.28C188.512 27.7733 188.658 28.14 188.952 28.38C189.245 28.6067 189.732 28.72 190.412 28.72C191.225 28.72 191.998 28.66 192.732 28.54C193.465 28.42 194.105 28.2667 194.652 28.08V31.28C194.185 31.5333 193.498 31.7667 192.592 31.98C191.698 32.18 190.725 32.28 189.672 32.28ZM190.832 24.96V24.72C190.832 24.2667 190.732 23.94 190.532 23.74C190.345 23.54 190.058 23.44 189.672 23.44C189.285 23.44 188.992 23.5467 188.792 23.76C188.605 23.96 188.512 24.28 188.512 24.72V24.96H190.832ZM204.127 20.6C204.393 20.6 204.647 20.6267 204.887 20.68C205.127 20.7333 205.327 20.8 205.487 20.88V24.7C204.94 24.4733 204.353 24.36 203.727 24.36C202.887 24.36 202.24 24.58 201.787 25.02C201.333 25.46 201.107 26.1133 201.107 26.98V28.72H202.907V32H195.627V28.72H196.507V24.16H195.627V20.88H201.107V22.34C201.48 21.78 201.907 21.3533 202.387 21.06C202.867 20.7533 203.447 20.6 204.127 20.6Z" fill="black"/>
<path d="M49.6266 30V26.72H50.6266V17.72H49.6266V14.44H63.1266V20.48H58.6466V17.72H56.2266V20.88H57.9866V23.16H56.2266V26.72H58.6466V23.56H63.1266V30H49.6266ZM67.7844 30.28C66.4244 30.28 65.3977 29.7733 64.7044 28.76C64.0244 27.7467 63.6844 26.3067 63.6844 24.44C63.6844 22.5733 64.0244 21.1333 64.7044 20.12C65.3977 19.1067 66.4244 18.6 67.7844 18.6C68.4644 18.6 69.0644 18.7667 69.5844 19.1C70.1177 19.4333 70.551 19.8133 70.8844 20.24V17.72H69.7044V14.44H75.4844V26.72H76.3644V30H70.8844V28.64C70.551 29.0667 70.1177 29.4467 69.5844 29.78C69.0644 30.1133 68.4644 30.28 67.7844 30.28ZM69.7244 26.72C70.111 26.72 70.3977 26.62 70.5844 26.42C70.7844 26.2067 70.8844 25.88 70.8844 25.44V23.44C70.8844 23 70.7844 22.68 70.5844 22.48C70.3977 22.2667 70.111 22.16 69.7244 22.16C69.3377 22.16 69.0444 22.2667 68.8444 22.48C68.6577 22.68 68.5644 23 68.5644 23.44V25.44C68.5644 25.88 68.6577 26.2067 68.8444 26.42C69.0444 26.62 69.3377 26.72 69.7244 26.72ZM77.9684 17.78V14.44H82.0484V17.78H77.9684ZM77.0084 30V26.72H77.8884V22.16H77.0084V18.88H82.4884V26.72H83.3684V30H77.0084ZM88.8625 30.28C87.4492 30.28 86.3825 29.94 85.6625 29.26C84.9558 28.5667 84.6025 27.4067 84.6025 25.78V22.16H83.7225V18.88C84.2292 18.88 84.6092 18.7533 84.8625 18.5C85.1158 18.2333 85.2425 17.8733 85.2425 17.42V16.52H89.4825V18.88H92.1825V22.16H89.4825V25.44C89.4825 25.88 89.5758 26.2067 89.7625 26.42C89.9625 26.62 90.2558 26.72 90.6425 26.72C91.1492 26.72 91.7025 26.66 92.3025 26.54V29.68C91.9292 29.8267 91.4225 29.96 90.7825 30.08C90.1558 30.2133 89.5158 30.28 88.8625 30.28ZM106.742 30.28C104.222 30.28 102.275 29.64 100.902 28.36C99.542 27.08 98.862 25.0333 98.862 22.22C98.862 16.8467 101.475 14.16 106.702 14.16C107.969 14.16 109.142 14.3133 110.222 14.62C111.315 14.9267 112.129 15.2667 112.662 15.64V20.64H107.862V19.2C107.862 18.6933 107.749 18.32 107.522 18.08C107.295 17.84 106.955 17.72 106.502 17.72C106.049 17.72 105.709 17.84 105.482 18.08C105.255 18.32 105.142 18.6933 105.142 19.2V25.24C105.142 25.7467 105.255 26.12 105.482 26.36C105.709 26.6 106.049 26.72 106.502 26.72C106.955 26.72 107.295 26.6 107.522 26.36C107.749 26.12 107.862 25.7467 107.862 25.24V23.62H112.662V28.8C112.115 29.1733 111.302 29.5133 110.222 29.82C109.155 30.1267 107.995 30.28 106.742 30.28ZM126.656 26.72V30H120.336V26.72H121.176V23.44C121.176 23 121.082 22.68 120.896 22.48C120.709 22.2667 120.429 22.16 120.056 22.16C119.256 22.16 118.856 22.5867 118.856 23.44V26.72H119.696V30H113.376V26.72H114.256V17.72H113.376V14.44H118.856V20.44C119.349 19.8267 119.882 19.3667 120.456 19.06C121.029 18.7533 121.696 18.6 122.456 18.6C123.562 18.6 124.389 18.9467 124.936 19.64C125.496 20.3333 125.776 21.2867 125.776 22.5V26.72H126.656ZM138.961 26.72V30H133.681V28.64C133.388 29.0667 132.975 29.4467 132.441 29.78C131.921 30.1133 131.281 30.28 130.521 30.28C129.521 30.28 128.735 30.0133 128.161 29.48C127.588 28.9467 127.301 28.1933 127.301 27.22C127.301 24.7 129.441 23.4067 133.721 23.34C133.681 22.8867 133.508 22.58 133.201 22.42C132.895 22.2467 132.375 22.16 131.641 22.16C131.041 22.16 130.395 22.2267 129.701 22.36C129.021 22.48 128.395 22.6467 127.821 22.86V19.18C128.528 19.0067 129.295 18.8667 130.121 18.76C130.948 18.6533 131.755 18.6 132.541 18.6C134.528 18.6 135.948 18.96 136.801 19.68C137.655 20.4 138.081 21.5133 138.081 23.02V26.72H138.961ZM133.681 25.32C133.081 25.32 132.615 25.4 132.281 25.56C131.961 25.72 131.801 25.9867 131.801 26.36C131.801 26.5867 131.868 26.7733 132.001 26.92C132.148 27.0533 132.348 27.12 132.601 27.12C132.948 27.12 133.215 26.9733 133.401 26.68C133.588 26.3867 133.681 25.9733 133.681 25.44V25.32ZM148.146 18.6C148.413 18.6 148.666 18.6267 148.906 18.68C149.146 18.7333 149.346 18.8 149.506 18.88V22.7C148.959 22.4733 148.373 22.36 147.746 22.36C146.906 22.36 146.259 22.58 145.806 23.02C145.353 23.46 145.126 24.1133 145.126 24.98V26.72H146.926V30H139.646V26.72H140.526V22.16H139.646V18.88H145.126V20.34C145.499 19.78 145.926 19.3533 146.406 19.06C146.886 18.7533 147.466 18.6 148.146 18.6ZM161.813 26.72V30H156.533V28.64C156.24 29.0667 155.826 29.4467 155.293 29.78C154.773 30.1133 154.133 30.28 153.373 30.28C152.373 30.28 151.586 30.0133 151.013 29.48C150.44 28.9467 150.153 28.1933 150.153 27.22C150.153 24.7 152.293 23.4067 156.573 23.34C156.533 22.8867 156.36 22.58 156.053 22.42C155.746 22.2467 155.226 22.16 154.493 22.16C153.893 22.16 153.246 22.2267 152.553 22.36C151.873 22.48 151.246 22.6467 150.673 22.86V19.18C151.38 19.0067 152.146 18.8667 152.973 18.76C153.8 18.6533 154.606 18.6 155.393 18.6C157.38 18.6 158.8 18.96 159.653 19.68C160.506 20.4 160.933 21.5133 160.933 23.02V26.72H161.813ZM156.533 25.32C155.933 25.32 155.466 25.4 155.133 25.56C154.813 25.72 154.653 25.9867 154.653 26.36C154.653 26.5867 154.72 26.7733 154.853 26.92C155 27.0533 155.2 27.12 155.453 27.12C155.8 27.12 156.066 26.9733 156.253 26.68C156.44 26.3867 156.533 25.9733 156.533 25.44V25.32ZM168.438 30.28C166.531 30.28 165.044 29.7867 163.978 28.8C162.911 27.8 162.378 26.3467 162.378 24.44C162.378 22.5333 162.911 21.0867 163.978 20.1C165.044 19.1 166.524 18.6 168.418 18.6C169.338 18.6 170.218 18.7267 171.058 18.98C171.898 19.2333 172.551 19.52 173.018 19.84V23.8H169.578V23.44C169.578 23 169.484 22.68 169.298 22.48C169.111 22.2667 168.818 22.16 168.418 22.16C167.644 22.16 167.258 22.5867 167.258 23.44V25.16C167.258 26.2 167.851 26.72 169.038 26.72C170.144 26.72 171.431 26.6 172.898 26.36V29.5C172.444 29.7 171.804 29.88 170.978 30.04C170.164 30.2 169.318 30.28 168.438 30.28ZM178.628 30.28C177.215 30.28 176.148 29.94 175.428 29.26C174.721 28.5667 174.368 27.4067 174.368 25.78V22.16H173.488V18.88C173.995 18.88 174.375 18.7533 174.628 18.5C174.881 18.2333 175.008 17.8733 175.008 17.42V16.52H179.248V18.88H181.948V22.16H179.248V25.44C179.248 25.88 179.341 26.2067 179.528 26.42C179.728 26.62 180.021 26.72 180.408 26.72C180.915 26.72 181.468 26.66 182.068 26.54V29.68C181.695 29.8267 181.188 29.96 180.548 30.08C179.921 30.2133 179.281 30.28 178.628 30.28ZM188.672 30.28C186.778 30.28 185.298 29.7867 184.232 28.8C183.165 27.8 182.632 26.3467 182.632 24.44C182.632 22.5333 183.165 21.0867 184.232 20.1C185.298 19.1 186.778 18.6 188.672 18.6C190.552 18.6 191.905 19.0933 192.732 20.08C193.572 21.0533 193.992 22.2667 193.992 23.72V25.16H187.512V25.28C187.512 25.7733 187.658 26.14 187.952 26.38C188.245 26.6067 188.732 26.72 189.412 26.72C190.225 26.72 190.998 26.66 191.732 26.54C192.465 26.42 193.105 26.2667 193.652 26.08V29.28C193.185 29.5333 192.498 29.7667 191.592 29.98C190.698 30.18 189.725 30.28 188.672 30.28ZM189.832 22.96V22.72C189.832 22.2667 189.732 21.94 189.532 21.74C189.345 21.54 189.058 21.44 188.672 21.44C188.285 21.44 187.992 21.5467 187.792 21.76C187.605 21.96 187.512 22.28 187.512 22.72V22.96H189.832ZM203.127 18.6C203.393 18.6 203.647 18.6267 203.887 18.68C204.127 18.7333 204.327 18.8 204.487 18.88V22.7C203.94 22.4733 203.353 22.36 202.727 22.36C201.887 22.36 201.24 22.58 200.787 23.02C200.333 23.46 200.107 24.1133 200.107 24.98V26.72H201.907V30H194.627V26.72H195.507V22.16H194.627V18.88H200.107V20.34C200.48 19.78 200.907 19.3533 201.387 19.06C201.867 18.7533 202.447 18.6 203.127 18.6Z" fill="#FADCD5"/>
</svg>
