<svg width="91" height="34" viewBox="0 0 91 34" fill="none" xmlns="http://www.w3.org/2000/svg">
<rect x="8" y="8" width="77" height="21" rx="10.5" fill="black"/>
<rect x="8.5" y="7.5" width="75" height="19" rx="9.5" fill="#DEBDBD" stroke="black"/>
<path d="M43.7173 18.625V17.65H48.8323V18.625H43.7173ZM46.0423 22.24V21.055H46.1173V22.24H46.0423ZM43.2823 19.315V17.11H44.6473V19.315H43.2823ZM47.4673 17.65V16.87H48.8323V17.65H47.4673ZM48.8323 16.87H47.4673C47.4673 16.43 47.3323 16.07 47.0623 15.79C46.8023 15.51 46.4623 15.37 46.0423 15.37V14.2C46.5823 14.2 47.0573 14.315 47.4673 14.545C47.8873 14.775 48.2173 15.095 48.4573 15.505C48.7073 15.905 48.8323 16.36 48.8323 16.87ZM47.5273 19.75L48.8023 20.005C48.7423 20.435 48.5873 20.82 48.3373 21.16C48.0873 21.5 47.7723 21.765 47.3923 21.955C47.0123 22.145 46.5873 22.24 46.1173 22.24V21.055C46.4773 21.055 46.7873 20.95 47.0473 20.74C47.3173 20.52 47.4773 20.19 47.5273 19.75ZM43.2823 17.125C43.2823 16.555 43.4023 16.055 43.6423 15.625C43.8923 15.185 44.2223 14.84 44.6323 14.59C45.0523 14.33 45.5273 14.2 46.0573 14.2V15.37C45.6173 15.37 45.2723 15.525 45.0223 15.835C44.7723 16.135 44.6473 16.565 44.6473 17.125H43.2823ZM43.2823 19.315H44.6473C44.6473 19.865 44.7723 20.295 45.0223 20.605C45.2723 20.905 45.6173 21.055 46.0573 21.055V22.24C45.5273 22.24 45.0523 22.115 44.6323 21.865C44.2223 21.605 43.8923 21.255 43.6423 20.815C43.4023 20.375 43.2823 19.875 43.2823 19.315ZM55.5748 14.44H54.2098V11.425H55.5748V14.44ZM54.2098 22V14.425H55.5748V22H54.2098ZM49.9948 19.585V16.84H51.3598V19.585H49.9948ZM51.3598 16.84H49.9948C49.9948 16.34 50.0998 15.89 50.3098 15.49C50.5198 15.09 50.8048 14.775 51.1648 14.545C51.5348 14.315 51.9548 14.2 52.4248 14.2L52.7698 15.415C52.3598 15.415 52.0198 15.55 51.7498 15.82C51.4898 16.08 51.3598 16.42 51.3598 16.84ZM54.8098 16.87H54.2098C54.2098 16.44 54.0748 16.09 53.8048 15.82C53.5348 15.55 53.1898 15.415 52.7698 15.415L52.4248 14.2C52.8748 14.2 53.2798 14.315 53.6398 14.545C54.0098 14.775 54.2948 15.095 54.4948 15.505C54.7048 15.905 54.8098 16.36 54.8098 16.87ZM51.3598 19.585C51.3598 20.005 51.4898 20.35 51.7498 20.62C52.0198 20.88 52.3598 21.01 52.7698 21.01L52.4248 22.225C51.9548 22.225 51.5348 22.11 51.1648 21.88C50.8048 21.65 50.5198 21.335 50.3098 20.935C50.0998 20.535 49.9948 20.085 49.9948 19.585H51.3598ZM54.8098 19.54C54.8098 20.05 54.7048 20.51 54.4948 20.92C54.2948 21.32 54.0098 21.64 53.6398 21.88C53.2798 22.11 52.8748 22.225 52.4248 22.225L52.7698 21.01C53.1898 21.01 53.5348 20.875 53.8048 20.605C54.0748 20.335 54.2098 19.98 54.2098 19.54H54.8098ZM57.5183 22V14.425H58.8833V22H57.5183ZM58.1933 13.42C57.9433 13.42 57.7333 13.335 57.5633 13.165C57.3933 12.995 57.3083 12.785 57.3083 12.535C57.3083 12.285 57.3933 12.075 57.5633 11.905C57.7333 11.725 57.9433 11.635 58.1933 11.635C58.4433 11.635 58.6533 11.725 58.8233 11.905C59.0033 12.075 59.0933 12.285 59.0933 12.535C59.0933 12.785 59.0033 12.995 58.8233 13.165C58.6533 13.335 58.4433 13.42 58.1933 13.42ZM61.3349 19.705V11.41L62.6999 11.425V19.705H61.3349ZM60.4649 15.55V14.425H64.5899V15.55H60.4649ZM61.3349 19.69H62.6999C62.6999 19.98 62.7399 20.225 62.8199 20.425C62.8999 20.625 63.0149 20.78 63.1649 20.89C63.3149 20.99 63.4949 21.04 63.7049 21.04L63.5849 22.225C62.8849 22.225 62.3349 22.005 61.9349 21.565C61.5349 21.115 61.3349 20.49 61.3349 19.69ZM64.4099 20.785L64.9499 21.76C64.7499 21.91 64.5299 22.025 64.2899 22.105C64.0599 22.185 63.8249 22.225 63.5849 22.225L63.7049 21.04C63.8349 21.04 63.9549 21.02 64.0649 20.98C64.1849 20.93 64.2999 20.865 64.4099 20.785Z" fill="black"/>
<g clip-path="url(#clip0_56_36)">
<path opacity="0.2" d="M37 18C37 21.3135 34.3135 24 31 24C27.6865 24 25 21.3135 25 18C25 14.6865 27.6865 12 31 12C34.3135 12 37 14.6865 37 18Z" fill="black"/>
<path fill-rule="evenodd" clip-rule="evenodd" d="M27.472 18.395C27.4802 18.3425 27.5049 18.294 27.5425 18.2565L32.5815 13.2175C32.6284 13.1706 32.6919 13.1443 32.7582 13.1443C32.8245 13.1443 32.8881 13.1706 32.935 13.2175L34.88 15.1625C34.9267 15.2094 34.9529 15.2728 34.9529 15.339C34.9529 15.4052 34.9267 15.4686 34.88 15.5155L29.84 20.555C29.8024 20.5924 29.7539 20.6169 29.7015 20.625L27.404 20.978C27.3652 20.9839 27.3255 20.9807 27.2882 20.9685C27.251 20.9562 27.2171 20.9354 27.1893 20.9077C27.1616 20.8799 27.1407 20.846 27.1285 20.8087C27.1163 20.7714 27.113 20.7318 27.119 20.693L27.472 18.395ZM27.954 18.552L27.6655 20.432L29.545 20.143L34.3495 15.339L32.758 13.748L27.954 18.552Z" fill="black"/>
<path fill-rule="evenodd" clip-rule="evenodd" d="M33.236 16.5865L31.4675 14.8215L31.821 14.4675L33.589 16.2325L33.236 16.5865Z" fill="black"/>
<path fill-rule="evenodd" clip-rule="evenodd" d="M30.5 23.25C33.6755 23.25 36.25 20.6755 36.25 17.5C36.25 14.3245 33.6755 11.75 30.5 11.75C27.3245 11.75 24.75 14.3245 24.75 17.5C24.75 20.6755 27.3245 23.25 30.5 23.25ZM30.5 23.75C33.952 23.75 36.75 20.952 36.75 17.5C36.75 14.048 33.952 11.25 30.5 11.25C27.048 11.25 24.25 14.048 24.25 17.5C24.25 20.952 27.048 23.75 30.5 23.75Z" fill="black"/>
</g>
<defs>
<clipPath id="clip0_56_36">
<rect width="13" height="13" fill="white" transform="translate(24 11)"/>
</clipPath>
</defs>
</svg>
