<svg width="175" height="45" viewBox="0 0 175 45" fill="none" xmlns="http://www.w3.org/2000/svg">
<path d="M27.5836 32V28.72H28.5836V19.72H27.5836V16.44H41.0836V22.48H36.6036V19.72H34.1836V22.88H35.9436V25.16H34.1836V28.72H36.6036V25.56H41.0836V32H27.5836ZM45.0014 32L42.4814 24.16H41.6414V20.88H47.8214V24.16H46.9814L48.0414 28.12H48.2414L49.3014 24.16H48.4614V20.88H54.2614V24.16H53.4214L50.9614 32H45.0014ZM55.7887 19.78V16.44H59.8688V19.78H55.7887ZM54.8288 32V28.72H55.7088V24.16H54.8288V20.88H60.3088V28.72H61.1888V32H54.8288ZM61.7428 32.02V28.72H62.6228V19.72H61.7428V16.44H67.2228V28.72H68.1028V32.02H61.7428ZM91.8711 16.44H98.2711V19.72H97.4711L94.4911 32H88.5111L86.6911 23.36H86.4911L84.5711 32H78.5911L75.4111 19.72H74.6111V16.44H82.0111V19.72H81.2511L82.0311 24.82H82.2311L84.1311 16.44H89.8911L91.6511 24.82H91.8511L92.6311 19.72H91.8711V16.44ZM103.425 32.28C101.532 32.28 100.052 31.7867 98.9855 30.8C97.9188 29.8 97.3855 28.3467 97.3855 26.44C97.3855 24.5333 97.9188 23.0867 98.9855 22.1C100.052 21.1 101.532 20.6 103.425 20.6C105.345 20.6 106.832 21.1067 107.885 22.12C108.939 23.12 109.465 24.56 109.465 26.44C109.465 28.3467 108.932 29.8 107.865 30.8C106.799 31.7867 105.319 32.28 103.425 32.28ZM103.425 28.72C103.812 28.72 104.099 28.62 104.285 28.42C104.485 28.2067 104.585 27.88 104.585 27.44V25.44C104.585 25 104.485 24.68 104.285 24.48C104.099 24.2667 103.812 24.16 103.425 24.16C103.039 24.16 102.745 24.2667 102.545 24.48C102.359 24.68 102.265 25 102.265 25.44V27.44C102.265 27.88 102.359 28.2067 102.545 28.42C102.745 28.62 103.039 28.72 103.425 28.72ZM118.642 20.6C118.909 20.6 119.162 20.6267 119.402 20.68C119.642 20.7333 119.842 20.8 120.002 20.88V24.7C119.456 24.4733 118.869 24.36 118.242 24.36C117.402 24.36 116.756 24.58 116.302 25.02C115.849 25.46 115.622 26.1133 115.622 26.98V28.72H117.422V32H110.142V28.72H111.022V24.16H110.142V20.88H115.622V22.34C115.996 21.78 116.422 21.3533 116.902 21.06C117.382 20.7533 117.962 20.6 118.642 20.6ZM120.649 32.02V28.72H121.529V19.72H120.649V16.44H126.129V28.72H127.009V32.02H120.649ZM131.581 32.28C130.221 32.28 129.195 31.7733 128.501 30.76C127.821 29.7467 127.481 28.3067 127.481 26.44C127.481 24.5733 127.821 23.1333 128.501 22.12C129.195 21.1067 130.221 20.6 131.581 20.6C132.261 20.6 132.861 20.7667 133.381 21.1C133.915 21.4333 134.348 21.8133 134.681 22.24V19.72H133.501V16.44H139.281V28.72H140.161V32H134.681V30.64C134.348 31.0667 133.915 31.4467 133.381 31.78C132.861 32.1133 132.261 32.28 131.581 32.28ZM133.521 28.72C133.908 28.72 134.195 28.62 134.381 28.42C134.581 28.2067 134.681 27.88 134.681 27.44V25.44C134.681 25 134.581 24.68 134.381 24.48C134.195 24.2667 133.908 24.16 133.521 24.16C133.135 24.16 132.841 24.2667 132.641 24.48C132.455 24.68 132.361 25 132.361 25.44V27.44C132.361 27.88 132.455 28.2067 132.641 28.42C132.841 28.62 133.135 28.72 133.521 28.72ZM145.665 32.28C143.985 32.28 142.365 32.0133 140.805 31.48V28.52H144.045V28.72C144.045 29.36 144.452 29.68 145.265 29.68C145.985 29.68 146.345 29.4333 146.345 28.94C146.345 28.6733 146.239 28.4733 146.025 28.34C145.825 28.2067 145.465 28.0933 144.945 28L143.945 27.82C141.852 27.4467 140.805 26.26 140.805 24.26C140.805 23.1 141.245 22.2 142.125 21.56C143.005 20.92 144.192 20.6 145.685 20.6C147.352 20.6 148.759 20.88 149.905 21.44V24.22H146.865V24.02C146.865 23.7533 146.772 23.5533 146.585 23.42C146.412 23.2733 146.152 23.2 145.805 23.2C145.139 23.2 144.805 23.4133 144.805 23.84C144.805 24.0667 144.899 24.24 145.085 24.36C145.272 24.48 145.612 24.5933 146.105 24.7L147.245 24.92C148.432 25.1467 149.279 25.5667 149.785 26.18C150.292 26.7933 150.545 27.58 150.545 28.54C150.545 29.7533 150.119 30.68 149.265 31.32C148.425 31.96 147.225 32.28 145.665 32.28Z" fill="black"/>
<path d="M26.5836 33V29.72H27.5836V20.72H26.5836V17.44H40.0836V23.48H35.6036V20.72H33.1836V23.88H34.9436V26.16H33.1836V29.72H35.6036V26.56H40.0836V33H26.5836ZM44.0014 33L41.4814 25.16H40.6414V21.88H46.8214V25.16H45.9814L47.0414 29.12H47.2414L48.3014 25.16H47.4614V21.88H53.2614V25.16H52.4214L49.9614 33H44.0014ZM54.7887 20.78V17.44H58.8688V20.78H54.7887ZM53.8288 33V29.72H54.7088V25.16H53.8288V21.88H59.3088V29.72H60.1888V33H53.8288ZM60.7428 33.02V29.72H61.6228V20.72H60.7428V17.44H66.2228V29.72H67.1028V33.02H60.7428ZM90.8711 17.44H97.2711V20.72H96.4711L93.4911 33H87.5111L85.6911 24.36H85.4911L83.5711 33H77.5911L74.4111 20.72H73.6111V17.44H81.0111V20.72H80.2511L81.0311 25.82H81.2311L83.1311 17.44H88.8911L90.6511 25.82H90.8511L91.6311 20.72H90.8711V17.44ZM102.425 33.28C100.532 33.28 99.0521 32.7867 97.9855 31.8C96.9188 30.8 96.3855 29.3467 96.3855 27.44C96.3855 25.5333 96.9188 24.0867 97.9855 23.1C99.0521 22.1 100.532 21.6 102.425 21.6C104.345 21.6 105.832 22.1067 106.885 23.12C107.939 24.12 108.465 25.56 108.465 27.44C108.465 29.3467 107.932 30.8 106.865 31.8C105.799 32.7867 104.319 33.28 102.425 33.28ZM102.425 29.72C102.812 29.72 103.099 29.62 103.285 29.42C103.485 29.2067 103.585 28.88 103.585 28.44V26.44C103.585 26 103.485 25.68 103.285 25.48C103.099 25.2667 102.812 25.16 102.425 25.16C102.039 25.16 101.745 25.2667 101.545 25.48C101.359 25.68 101.265 26 101.265 26.44V28.44C101.265 28.88 101.359 29.2067 101.545 29.42C101.745 29.62 102.039 29.72 102.425 29.72ZM117.642 21.6C117.909 21.6 118.162 21.6267 118.402 21.68C118.642 21.7333 118.842 21.8 119.002 21.88V25.7C118.456 25.4733 117.869 25.36 117.242 25.36C116.402 25.36 115.756 25.58 115.302 26.02C114.849 26.46 114.622 27.1133 114.622 27.98V29.72H116.422V33H109.142V29.72H110.022V25.16H109.142V21.88H114.622V23.34C114.996 22.78 115.422 22.3533 115.902 22.06C116.382 21.7533 116.962 21.6 117.642 21.6ZM119.649 33.02V29.72H120.529V20.72H119.649V17.44H125.129V29.72H126.009V33.02H119.649ZM130.581 33.28C129.221 33.28 128.195 32.7733 127.501 31.76C126.821 30.7467 126.481 29.3067 126.481 27.44C126.481 25.5733 126.821 24.1333 127.501 23.12C128.195 22.1067 129.221 21.6 130.581 21.6C131.261 21.6 131.861 21.7667 132.381 22.1C132.915 22.4333 133.348 22.8133 133.681 23.24V20.72H132.501V17.44H138.281V29.72H139.161V33H133.681V31.64C133.348 32.0667 132.915 32.4467 132.381 32.78C131.861 33.1133 131.261 33.28 130.581 33.28ZM132.521 29.72C132.908 29.72 133.195 29.62 133.381 29.42C133.581 29.2067 133.681 28.88 133.681 28.44V26.44C133.681 26 133.581 25.68 133.381 25.48C133.195 25.2667 132.908 25.16 132.521 25.16C132.135 25.16 131.841 25.2667 131.641 25.48C131.455 25.68 131.361 26 131.361 26.44V28.44C131.361 28.88 131.455 29.2067 131.641 29.42C131.841 29.62 132.135 29.72 132.521 29.72ZM144.665 33.28C142.985 33.28 141.365 33.0133 139.805 32.48V29.52H143.045V29.72C143.045 30.36 143.452 30.68 144.265 30.68C144.985 30.68 145.345 30.4333 145.345 29.94C145.345 29.6733 145.239 29.4733 145.025 29.34C144.825 29.2067 144.465 29.0933 143.945 29L142.945 28.82C140.852 28.4467 139.805 27.26 139.805 25.26C139.805 24.1 140.245 23.2 141.125 22.56C142.005 21.92 143.192 21.6 144.685 21.6C146.352 21.6 147.759 21.88 148.905 22.44V25.22H145.865V25.02C145.865 24.7533 145.772 24.5533 145.585 24.42C145.412 24.2733 145.152 24.2 144.805 24.2C144.139 24.2 143.805 24.4133 143.805 24.84C143.805 25.0667 143.899 25.24 144.085 25.36C144.272 25.48 144.612 25.5933 145.105 25.7L146.245 25.92C147.432 26.1467 148.279 26.5667 148.785 27.18C149.292 27.7933 149.545 28.58 149.545 29.54C149.545 30.7533 149.119 31.68 148.265 32.32C147.425 32.96 146.225 33.28 144.665 33.28Z" fill="#FADCD5"/>
</svg>
