<svg width="171" height="86" viewBox="0 0 171 86" fill="none" xmlns="http://www.w3.org/2000/svg">
<rect x="24.5" y="18.5" width="131" height="61" rx="24.5" fill="black" stroke="black"/>
<rect x="22.5" y="16.5" width="130" height="60" rx="24.5" fill="#DEBDBD" stroke="black"/>
<path d="M55.759 36.08V34.5H59.839V36.08H55.759ZM58.019 38.58V34.56H59.839V38.58H58.019ZM51.959 38.58V31.32H53.779V38.58H51.959ZM51.959 31.32C51.959 30.5867 52.1257 29.94 52.459 29.38C52.7923 28.8067 53.259 28.3667 53.859 28.06C54.459 27.74 55.1457 27.58 55.919 27.58V29.16C55.2523 29.16 54.7257 29.3467 54.339 29.72C53.9657 30.0933 53.779 30.6267 53.779 31.32H51.959ZM51.959 38.56H53.779C53.779 39.2533 53.9657 39.7933 54.339 40.18C54.7257 40.5533 55.2523 40.74 55.919 40.74V42.32C55.1457 42.32 54.459 42.16 53.859 41.84C53.259 41.52 52.7923 41.08 52.459 40.52C52.1257 39.96 51.959 39.3067 51.959 38.56ZM58.299 31.84C58.219 31 57.9657 30.3467 57.539 29.88C57.1257 29.4 56.579 29.16 55.899 29.16V27.58C57.0323 27.58 57.9523 27.9267 58.659 28.62C59.379 29.3133 59.8123 30.2733 59.959 31.5L58.299 31.84ZM59.839 38.56C59.839 39.3067 59.6723 39.96 59.339 40.52C59.0057 41.08 58.539 41.52 57.939 41.84C57.3523 42.16 56.6723 42.32 55.899 42.32V40.74C56.5657 40.74 57.0857 40.5533 57.459 40.18C57.8323 39.7933 58.019 39.2533 58.019 38.56H59.839ZM63.2766 42V40.42H68.8166V42H63.2766ZM63.5766 35.78V34.16H67.6166V35.78H63.5766ZM62.2566 27.9H64.0766V42H62.2566V27.9ZM63.4766 27.9H68.6166V29.48H63.4766V27.9ZM76.7913 42L71.1513 27.9H72.9313L78.5713 42H76.7913ZM70.8113 42V27.9H72.6313V42H70.8113ZM77.2713 42V27.9H79.0913V42H77.2713ZM82.6516 42V40.42H88.1916V42H82.6516ZM82.9516 35.78V34.16H86.9916V35.78H82.9516ZM81.6316 27.9H83.4516V42H81.6316V27.9ZM82.8516 27.9H87.9916V29.48H82.8516V27.9ZM95.5663 42L93.0063 35.12H94.8663L97.4263 42H95.5663ZM91.3663 36.02V34.46H93.4063V36.02H91.3663ZM91.3663 29.48V27.9H93.4063V29.48H91.3663ZM95.5263 32.3V31.62H97.3463V32.3H95.5263ZM97.3463 31.64H95.5263C95.5263 30.9467 95.333 30.4133 94.9463 30.04C94.573 29.6667 94.053 29.48 93.3863 29.48V27.9C94.173 27.9 94.8597 28.06 95.4463 28.38C96.0463 28.6867 96.513 29.1267 96.8463 29.7C97.1797 30.26 97.3463 30.9067 97.3463 31.64ZM97.3463 32.28C97.3463 33.0133 97.1797 33.6667 96.8463 34.24C96.513 34.8 96.0463 35.24 95.4463 35.56C94.8597 35.8667 94.173 36.02 93.3863 36.02V34.46C94.053 34.46 94.573 34.2667 94.9463 33.88C95.333 33.4933 95.5263 32.96 95.5263 32.28H97.3463ZM90.1863 42V27.9H92.0063V42H90.1863ZM100.747 39.18V37.62H105.867V39.18H100.747ZM103.967 27.9L100.527 42H98.727L102.167 27.9H103.967ZM104.007 27.9L107.447 42H105.667L102.207 27.9H104.007ZM107.785 29.48V27.9H116.085V29.48H107.785ZM111.025 42V27.9H112.845V42H111.025ZM118.706 42V40.42H124.246V42H118.706ZM119.006 35.78V34.16H123.046V35.78H119.006ZM117.686 27.9H119.506V42H117.686V27.9ZM118.906 27.9H124.046V29.48H118.906V27.9Z" fill="black"/>
<path d="M46.5293 58.58V51.32H48.3493V58.58H46.5293ZM46.5293 51.32C46.5293 50.5867 46.696 49.94 47.0293 49.38C47.3626 48.8067 47.8293 48.3667 48.4293 48.06C49.0293 47.74 49.716 47.58 50.4893 47.58V49.16C49.8226 49.16 49.296 49.3467 48.9093 49.72C48.536 50.0933 48.3493 50.6267 48.3493 51.32H46.5293ZM46.5293 58.56H48.3493C48.3493 59.2533 48.536 59.7933 48.9093 60.18C49.296 60.5533 49.8226 60.74 50.4893 60.74V62.32C49.716 62.32 49.0293 62.16 48.4293 61.84C47.8293 61.52 47.3626 61.08 47.0293 60.52C46.696 59.96 46.5293 59.3067 46.5293 58.56ZM52.8693 51.84C52.7893 51 52.536 50.3467 52.1093 49.88C51.696 49.4 51.1493 49.16 50.4693 49.16V47.58C51.6026 47.58 52.5226 47.9267 53.2293 48.62C53.9493 49.3133 54.3826 50.2733 54.5293 51.5L52.8693 51.84ZM52.8693 58.06L54.5293 58.38C54.3826 59.62 53.9493 60.5867 53.2293 61.28C52.5226 61.9733 51.6026 62.32 50.4693 62.32V60.74C51.1493 60.74 51.696 60.5067 52.1093 60.04C52.536 59.56 52.7893 58.9 52.8693 58.06ZM56.9387 55.74V54.18H63.0587V55.74H56.9387ZM62.4587 62V47.9H64.2787V62H62.4587ZM56.3387 62V47.9H58.1587V62H56.3387ZM68.0907 59.18V57.62H73.2107V59.18H68.0907ZM71.3107 47.9L67.8707 62H66.0707L69.5107 47.9H71.3107ZM71.3507 47.9L74.7907 62H73.0107L69.5507 47.9H71.3507ZM81.8749 62L79.3149 55.12H81.1749L83.7349 62H81.8749ZM77.6749 56.02V54.46H79.7149V56.02H77.6749ZM77.6749 49.48V47.9H79.7149V49.48H77.6749ZM81.8349 52.3V51.62H83.6549V52.3H81.8349ZM83.6549 51.64H81.8349C81.8349 50.9467 81.6416 50.4133 81.2549 50.04C80.8816 49.6667 80.3616 49.48 79.6949 49.48V47.9C80.4816 47.9 81.1683 48.06 81.7549 48.38C82.3549 48.6867 82.8216 49.1267 83.1549 49.7C83.4883 50.26 83.6549 50.9067 83.6549 51.64ZM83.6549 52.28C83.6549 53.0133 83.4883 53.6667 83.1549 54.24C82.8216 54.8 82.3549 55.24 81.7549 55.56C81.1683 55.8667 80.4816 56.02 79.6949 56.02V54.46C80.3616 54.46 80.8816 54.2667 81.2549 53.88C81.6416 53.4933 81.8349 52.96 81.8349 52.28H83.6549ZM76.4949 62V47.9H78.3149V62H76.4949ZM87.0555 59.18V57.62H92.1755V59.18H87.0555ZM90.2755 47.9L86.8355 62H85.0355L88.4755 47.9H90.2755ZM90.3155 47.9L93.7555 62H91.9755L88.5155 47.9H90.3155ZM95.2988 58.58V51.32H97.1188V58.58H95.2988ZM95.2988 51.32C95.2988 50.5867 95.4655 49.94 95.7988 49.38C96.1322 48.8067 96.5988 48.3667 97.1988 48.06C97.7988 47.74 98.4855 47.58 99.2588 47.58V49.16C98.5922 49.16 98.0655 49.3467 97.6788 49.72C97.3055 50.0933 97.1188 50.6267 97.1188 51.32H95.2988ZM95.2988 58.56H97.1188C97.1188 59.2533 97.3055 59.7933 97.6788 60.18C98.0655 60.5533 98.5922 60.74 99.2588 60.74V62.32C98.4855 62.32 97.7988 62.16 97.1988 61.84C96.5988 61.52 96.1322 61.08 95.7988 60.52C95.4655 59.96 95.2988 59.3067 95.2988 58.56ZM101.639 51.84C101.559 51 101.305 50.3467 100.879 49.88C100.465 49.4 99.9188 49.16 99.2388 49.16V47.58C100.372 47.58 101.292 47.9267 101.999 48.62C102.719 49.3133 103.152 50.2733 103.299 51.5L101.639 51.84ZM101.639 58.06L103.299 58.38C103.152 59.62 102.719 60.5867 101.999 61.28C101.292 61.9733 100.372 62.32 99.2388 62.32V60.74C99.9188 60.74 100.465 60.5067 100.879 60.04C101.305 59.56 101.559 58.9 101.639 58.06ZM103.976 49.48V47.9H112.276V49.48H103.976ZM107.216 62V47.9H109.036V62H107.216ZM114.898 62V60.42H120.438V62H114.898ZM115.198 55.78V54.16H119.238V55.78H115.198ZM113.878 47.9H115.698V62H113.878V47.9ZM115.098 47.9H120.238V49.48H115.098V47.9ZM127.812 62L125.252 55.12H127.112L129.672 62H127.812ZM123.612 56.02V54.46H125.652V56.02H123.612ZM123.612 49.48V47.9H125.652V49.48H123.612ZM127.772 52.3V51.62H129.592V52.3H127.772ZM129.592 51.64H127.772C127.772 50.9467 127.579 50.4133 127.192 50.04C126.819 49.6667 126.299 49.48 125.632 49.48V47.9C126.419 47.9 127.106 48.06 127.692 48.38C128.292 48.6867 128.759 49.1267 129.092 49.7C129.426 50.26 129.592 50.9067 129.592 51.64ZM129.592 52.28C129.592 53.0133 129.426 53.6667 129.092 54.24C128.759 54.8 128.292 55.24 127.692 55.56C127.106 55.8667 126.419 56.02 125.632 56.02V54.46C126.299 54.46 126.819 54.2667 127.192 53.88C127.579 53.4933 127.772 52.96 127.772 52.28H129.592ZM122.432 62V47.9H124.252V62H122.432Z" fill="black"/>
</svg>
