<svg width="175" height="45" viewBox="0 0 175 45" fill="none" xmlns="http://www.w3.org/2000/svg">
<path d="M36.7183 27H35.7183V31C35.1316 31.3333 34.2716 31.6333 33.1383 31.9C32.0183 32.1533 30.8049 32.28 29.4983 32.28C27.0049 32.28 25.0516 31.6267 23.6383 30.32C22.2249 29 21.5183 26.9667 21.5183 24.22C21.5183 21.4067 22.2183 19.36 23.6183 18.08C25.0316 16.8 27.0449 16.16 29.6583 16.16C30.9249 16.16 32.1116 16.2933 33.2183 16.56C34.3249 16.8267 35.1583 17.1267 35.7183 17.46V22.24H30.7183V21.3C30.7183 20.74 30.5983 20.34 30.3583 20.1C30.1316 19.8467 29.7649 19.72 29.2583 19.72C28.7516 19.72 28.3783 19.8467 28.1383 20.1C27.9116 20.34 27.7983 20.74 27.7983 21.3V27.14C27.7983 27.7 27.9116 28.1067 28.1383 28.36C28.3783 28.6 28.7516 28.72 29.2583 28.72C29.7649 28.72 30.1316 28.6 30.3583 28.36C30.5983 28.1067 30.7183 27.7 30.7183 27.14V27H29.6383V24.02H36.7183V27ZM43.2028 32.28C41.3095 32.28 39.8295 31.7867 38.7628 30.8C37.6961 29.8 37.1628 28.3467 37.1628 26.44C37.1628 24.5333 37.6961 23.0867 38.7628 22.1C39.8295 21.1 41.3095 20.6 43.2028 20.6C45.1228 20.6 46.6095 21.1067 47.6628 22.12C48.7161 23.12 49.2428 24.56 49.2428 26.44C49.2428 28.3467 48.7095 29.8 47.6428 30.8C46.5761 31.7867 45.0961 32.28 43.2028 32.28ZM43.2028 28.72C43.5895 28.72 43.8761 28.62 44.0628 28.42C44.2628 28.2067 44.3628 27.88 44.3628 27.44V25.44C44.3628 25 44.2628 24.68 44.0628 24.48C43.8761 24.2667 43.5895 24.16 43.2028 24.16C42.8161 24.16 42.5228 24.2667 42.3228 24.48C42.1361 24.68 42.0428 25 42.0428 25.44V27.44C42.0428 27.88 42.1361 28.2067 42.3228 28.42C42.5228 28.62 42.8161 28.72 43.2028 28.72ZM55.8395 32.28C53.9462 32.28 52.4662 31.7867 51.3995 30.8C50.3329 29.8 49.7995 28.3467 49.7995 26.44C49.7995 24.5333 50.3329 23.0867 51.3995 22.1C52.4662 21.1 53.9462 20.6 55.8395 20.6C57.7595 20.6 59.2462 21.1067 60.2995 22.12C61.3529 23.12 61.8795 24.56 61.8795 26.44C61.8795 28.3467 61.3462 29.8 60.2795 30.8C59.2129 31.7867 57.7329 32.28 55.8395 32.28ZM55.8395 28.72C56.2262 28.72 56.5129 28.62 56.6995 28.42C56.8995 28.2067 56.9995 27.88 56.9995 27.44V25.44C56.9995 25 56.8995 24.68 56.6995 24.48C56.5129 24.2667 56.2262 24.16 55.8395 24.16C55.4529 24.16 55.1595 24.2667 54.9595 24.48C54.7729 24.68 54.6795 25 54.6795 25.44V27.44C54.6795 27.88 54.7729 28.2067 54.9595 28.42C55.1595 28.62 55.4529 28.72 55.8395 28.72ZM66.4563 32.28C65.0963 32.28 64.0696 31.7733 63.3763 30.76C62.6963 29.7467 62.3563 28.3067 62.3563 26.44C62.3563 24.5733 62.6963 23.1333 63.3763 22.12C64.0696 21.1067 65.0963 20.6 66.4563 20.6C67.1363 20.6 67.7363 20.7667 68.2563 21.1C68.7896 21.4333 69.2229 21.8133 69.5563 22.24V19.72H68.3763V16.44H74.1563V28.72H75.0363V32H69.5563V30.64C69.2229 31.0667 68.7896 31.4467 68.2563 31.78C67.7363 32.1133 67.1363 32.28 66.4563 32.28ZM68.3963 28.72C68.7829 28.72 69.0696 28.62 69.2563 28.42C69.4563 28.2067 69.5563 27.88 69.5563 27.44V25.44C69.5563 25 69.4563 24.68 69.2563 24.48C69.0696 24.2667 68.7829 24.16 68.3963 24.16C68.0096 24.16 67.7163 24.2667 67.5163 24.48C67.3296 24.68 67.2363 25 67.2363 25.44V27.44C67.2363 27.88 67.3296 28.2067 67.5163 28.42C67.7163 28.62 68.0096 28.72 68.3963 28.72ZM98.8164 16.44H105.216V19.72H104.416L101.436 32H95.4564L93.6364 23.36H93.4364L91.5164 32H85.5364L82.3564 19.72H81.5564V16.44H88.9564V19.72H88.1964L88.9764 24.82H89.1764L91.0764 16.44H96.8364L98.5964 24.82H98.7964L99.5764 19.72H98.8164V16.44ZM110.371 32.28C108.477 32.28 106.997 31.7867 105.931 30.8C104.864 29.8 104.331 28.3467 104.331 26.44C104.331 24.5333 104.864 23.0867 105.931 22.1C106.997 21.1 108.477 20.6 110.371 20.6C112.291 20.6 113.777 21.1067 114.831 22.12C115.884 23.12 116.411 24.56 116.411 26.44C116.411 28.3467 115.877 29.8 114.811 30.8C113.744 31.7867 112.264 32.28 110.371 32.28ZM110.371 28.72C110.757 28.72 111.044 28.62 111.231 28.42C111.431 28.2067 111.531 27.88 111.531 27.44V25.44C111.531 25 111.431 24.68 111.231 24.48C111.044 24.2667 110.757 24.16 110.371 24.16C109.984 24.16 109.691 24.2667 109.491 24.48C109.304 24.68 109.211 25 109.211 25.44V27.44C109.211 27.88 109.304 28.2067 109.491 28.42C109.691 28.62 109.984 28.72 110.371 28.72ZM125.588 20.6C125.854 20.6 126.108 20.6267 126.348 20.68C126.588 20.7333 126.788 20.8 126.948 20.88V24.7C126.401 24.4733 125.814 24.36 125.188 24.36C124.348 24.36 123.701 24.58 123.248 25.02C122.794 25.46 122.567 26.1133 122.567 26.98V28.72H124.368V32H117.088V28.72H117.968V24.16H117.088V20.88H122.567V22.34C122.941 21.78 123.368 21.3533 123.848 21.06C124.328 20.7533 124.908 20.6 125.588 20.6ZM127.594 32.02V28.72H128.474V19.72H127.594V16.44H133.074V28.72H133.954V32.02H127.594ZM138.527 32.28C137.167 32.28 136.14 31.7733 135.447 30.76C134.767 29.7467 134.427 28.3067 134.427 26.44C134.427 24.5733 134.767 23.1333 135.447 22.12C136.14 21.1067 137.167 20.6 138.527 20.6C139.207 20.6 139.807 20.7667 140.327 21.1C140.86 21.4333 141.293 21.8133 141.627 22.24V19.72H140.447V16.44H146.227V28.72H147.107V32H141.627V30.64C141.293 31.0667 140.86 31.4467 140.327 31.78C139.807 32.1133 139.207 32.28 138.527 32.28ZM140.467 28.72C140.853 28.72 141.14 28.62 141.327 28.42C141.527 28.2067 141.627 27.88 141.627 27.44V25.44C141.627 25 141.527 24.68 141.327 24.48C141.14 24.2667 140.853 24.16 140.467 24.16C140.08 24.16 139.787 24.2667 139.587 24.48C139.4 24.68 139.307 25 139.307 25.44V27.44C139.307 27.88 139.4 28.2067 139.587 28.42C139.787 28.62 140.08 28.72 140.467 28.72ZM152.611 32.28C150.931 32.28 149.311 32.0133 147.751 31.48V28.52H150.991V28.72C150.991 29.36 151.397 29.68 152.211 29.68C152.931 29.68 153.291 29.4333 153.291 28.94C153.291 28.6733 153.184 28.4733 152.971 28.34C152.771 28.2067 152.411 28.0933 151.891 28L150.891 27.82C148.797 27.4467 147.751 26.26 147.751 24.26C147.751 23.1 148.191 22.2 149.071 21.56C149.951 20.92 151.137 20.6 152.631 20.6C154.297 20.6 155.704 20.88 156.851 21.44V24.22H153.811V24.02C153.811 23.7533 153.717 23.5533 153.531 23.42C153.357 23.2733 153.097 23.2 152.751 23.2C152.084 23.2 151.751 23.4133 151.751 23.84C151.751 24.0667 151.844 24.24 152.031 24.36C152.217 24.48 152.557 24.5933 153.051 24.7L154.191 24.92C155.377 25.1467 156.224 25.5667 156.731 26.18C157.237 26.7933 157.491 27.58 157.491 28.54C157.491 29.7533 157.064 30.68 156.211 31.32C155.371 31.96 154.171 32.28 152.611 32.28Z" fill="black"/>
<path d="M35.7183 28H34.7183V32C34.1316 32.3333 33.2716 32.6333 32.1383 32.9C31.0183 33.1533 29.8049 33.28 28.4983 33.28C26.0049 33.28 24.0516 32.6267 22.6383 31.32C21.2249 30 20.5183 27.9667 20.5183 25.22C20.5183 22.4067 21.2183 20.36 22.6183 19.08C24.0316 17.8 26.0449 17.16 28.6583 17.16C29.9249 17.16 31.1116 17.2933 32.2183 17.56C33.3249 17.8267 34.1583 18.1267 34.7183 18.46V23.24H29.7183V22.3C29.7183 21.74 29.5983 21.34 29.3583 21.1C29.1316 20.8467 28.7649 20.72 28.2583 20.72C27.7516 20.72 27.3783 20.8467 27.1383 21.1C26.9116 21.34 26.7983 21.74 26.7983 22.3V28.14C26.7983 28.7 26.9116 29.1067 27.1383 29.36C27.3783 29.6 27.7516 29.72 28.2583 29.72C28.7649 29.72 29.1316 29.6 29.3583 29.36C29.5983 29.1067 29.7183 28.7 29.7183 28.14V28H28.6383V25.02H35.7183V28ZM42.2028 33.28C40.3095 33.28 38.8295 32.7867 37.7628 31.8C36.6961 30.8 36.1628 29.3467 36.1628 27.44C36.1628 25.5333 36.6961 24.0867 37.7628 23.1C38.8295 22.1 40.3095 21.6 42.2028 21.6C44.1228 21.6 45.6095 22.1067 46.6628 23.12C47.7161 24.12 48.2428 25.56 48.2428 27.44C48.2428 29.3467 47.7095 30.8 46.6428 31.8C45.5761 32.7867 44.0961 33.28 42.2028 33.28ZM42.2028 29.72C42.5895 29.72 42.8761 29.62 43.0628 29.42C43.2628 29.2067 43.3628 28.88 43.3628 28.44V26.44C43.3628 26 43.2628 25.68 43.0628 25.48C42.8761 25.2667 42.5895 25.16 42.2028 25.16C41.8161 25.16 41.5228 25.2667 41.3228 25.48C41.1361 25.68 41.0428 26 41.0428 26.44V28.44C41.0428 28.88 41.1361 29.2067 41.3228 29.42C41.5228 29.62 41.8161 29.72 42.2028 29.72ZM54.8395 33.28C52.9462 33.28 51.4662 32.7867 50.3995 31.8C49.3329 30.8 48.7995 29.3467 48.7995 27.44C48.7995 25.5333 49.3329 24.0867 50.3995 23.1C51.4662 22.1 52.9462 21.6 54.8395 21.6C56.7595 21.6 58.2462 22.1067 59.2995 23.12C60.3529 24.12 60.8795 25.56 60.8795 27.44C60.8795 29.3467 60.3462 30.8 59.2795 31.8C58.2129 32.7867 56.7329 33.28 54.8395 33.28ZM54.8395 29.72C55.2262 29.72 55.5129 29.62 55.6995 29.42C55.8995 29.2067 55.9995 28.88 55.9995 28.44V26.44C55.9995 26 55.8995 25.68 55.6995 25.48C55.5129 25.2667 55.2262 25.16 54.8395 25.16C54.4529 25.16 54.1595 25.2667 53.9595 25.48C53.7729 25.68 53.6795 26 53.6795 26.44V28.44C53.6795 28.88 53.7729 29.2067 53.9595 29.42C54.1595 29.62 54.4529 29.72 54.8395 29.72ZM65.4563 33.28C64.0963 33.28 63.0696 32.7733 62.3763 31.76C61.6963 30.7467 61.3563 29.3067 61.3563 27.44C61.3563 25.5733 61.6963 24.1333 62.3763 23.12C63.0696 22.1067 64.0963 21.6 65.4563 21.6C66.1363 21.6 66.7363 21.7667 67.2563 22.1C67.7896 22.4333 68.2229 22.8133 68.5563 23.24V20.72H67.3763V17.44H73.1563V29.72H74.0363V33H68.5563V31.64C68.2229 32.0667 67.7896 32.4467 67.2563 32.78C66.7363 33.1133 66.1363 33.28 65.4563 33.28ZM67.3963 29.72C67.7829 29.72 68.0696 29.62 68.2563 29.42C68.4563 29.2067 68.5563 28.88 68.5563 28.44V26.44C68.5563 26 68.4563 25.68 68.2563 25.48C68.0696 25.2667 67.7829 25.16 67.3963 25.16C67.0096 25.16 66.7163 25.2667 66.5163 25.48C66.3296 25.68 66.2363 26 66.2363 26.44V28.44C66.2363 28.88 66.3296 29.2067 66.5163 29.42C66.7163 29.62 67.0096 29.72 67.3963 29.72ZM97.8164 17.44H104.216V20.72H103.416L100.436 33H94.4564L92.6364 24.36H92.4364L90.5164 33H84.5364L81.3564 20.72H80.5564V17.44H87.9564V20.72H87.1964L87.9764 25.82H88.1764L90.0764 17.44H95.8364L97.5964 25.82H97.7964L98.5764 20.72H97.8164V17.44ZM109.371 33.28C107.477 33.28 105.997 32.7867 104.931 31.8C103.864 30.8 103.331 29.3467 103.331 27.44C103.331 25.5333 103.864 24.0867 104.931 23.1C105.997 22.1 107.477 21.6 109.371 21.6C111.291 21.6 112.777 22.1067 113.831 23.12C114.884 24.12 115.411 25.56 115.411 27.44C115.411 29.3467 114.877 30.8 113.811 31.8C112.744 32.7867 111.264 33.28 109.371 33.28ZM109.371 29.72C109.757 29.72 110.044 29.62 110.231 29.42C110.431 29.2067 110.531 28.88 110.531 28.44V26.44C110.531 26 110.431 25.68 110.231 25.48C110.044 25.2667 109.757 25.16 109.371 25.16C108.984 25.16 108.691 25.2667 108.491 25.48C108.304 25.68 108.211 26 108.211 26.44V28.44C108.211 28.88 108.304 29.2067 108.491 29.42C108.691 29.62 108.984 29.72 109.371 29.72ZM124.588 21.6C124.854 21.6 125.108 21.6267 125.348 21.68C125.588 21.7333 125.788 21.8 125.948 21.88V25.7C125.401 25.4733 124.814 25.36 124.188 25.36C123.348 25.36 122.701 25.58 122.248 26.02C121.794 26.46 121.567 27.1133 121.567 27.98V29.72H123.368V33H116.088V29.72H116.968V25.16H116.088V21.88H121.567V23.34C121.941 22.78 122.368 22.3533 122.848 22.06C123.328 21.7533 123.908 21.6 124.588 21.6ZM126.594 33.02V29.72H127.474V20.72H126.594V17.44H132.074V29.72H132.954V33.02H126.594ZM137.527 33.28C136.167 33.28 135.14 32.7733 134.447 31.76C133.767 30.7467 133.427 29.3067 133.427 27.44C133.427 25.5733 133.767 24.1333 134.447 23.12C135.14 22.1067 136.167 21.6 137.527 21.6C138.207 21.6 138.807 21.7667 139.327 22.1C139.86 22.4333 140.293 22.8133 140.627 23.24V20.72H139.447V17.44H145.227V29.72H146.107V33H140.627V31.64C140.293 32.0667 139.86 32.4467 139.327 32.78C138.807 33.1133 138.207 33.28 137.527 33.28ZM139.467 29.72C139.853 29.72 140.14 29.62 140.327 29.42C140.527 29.2067 140.627 28.88 140.627 28.44V26.44C140.627 26 140.527 25.68 140.327 25.48C140.14 25.2667 139.853 25.16 139.467 25.16C139.08 25.16 138.787 25.2667 138.587 25.48C138.4 25.68 138.307 26 138.307 26.44V28.44C138.307 28.88 138.4 29.2067 138.587 29.42C138.787 29.62 139.08 29.72 139.467 29.72ZM151.611 33.28C149.931 33.28 148.311 33.0133 146.751 32.48V29.52H149.991V29.72C149.991 30.36 150.397 30.68 151.211 30.68C151.931 30.68 152.291 30.4333 152.291 29.94C152.291 29.6733 152.184 29.4733 151.971 29.34C151.771 29.2067 151.411 29.0933 150.891 29L149.891 28.82C147.797 28.4467 146.751 27.26 146.751 25.26C146.751 24.1 147.191 23.2 148.071 22.56C148.951 21.92 150.137 21.6 151.631 21.6C153.297 21.6 154.704 21.88 155.851 22.44V25.22H152.811V25.02C152.811 24.7533 152.717 24.5533 152.531 24.42C152.357 24.2733 152.097 24.2 151.751 24.2C151.084 24.2 150.751 24.4133 150.751 24.84C150.751 25.0667 150.844 25.24 151.031 25.36C151.217 25.48 151.557 25.5933 152.051 25.7L153.191 25.92C154.377 26.1467 155.224 26.5667 155.731 27.18C156.237 27.7933 156.491 28.58 156.491 29.54C156.491 30.7533 156.064 31.68 155.211 32.32C154.371 32.96 153.171 33.28 151.611 33.28Z" fill="#FADCD5"/>
</svg>
