<svg width="100" height="29" viewBox="0 0 100 29" fill="none" xmlns="http://www.w3.org/2000/svg">
<g clip-path="url(#clip0_33_13)">
<path d="M21.5855 24V20.72H22.5855V11.72H21.5855V8.44H30.0255V11.72H28.1855V20.72H29.9855V18.88H33.9655V24H21.5855ZM40.572 24.28C38.6786 24.28 37.1986 23.7867 36.132 22.8C35.0653 21.8 34.532 20.3467 34.532 18.44C34.532 16.5333 35.0653 15.0867 36.132 14.1C37.1986 13.1 38.6786 12.6 40.572 12.6C42.492 12.6 43.9786 13.1067 45.032 14.12C46.0853 15.12 46.612 16.56 46.612 18.44C46.612 20.3467 46.0786 21.8 45.012 22.8C43.9453 23.7867 42.4653 24.28 40.572 24.28ZM40.572 20.72C40.9586 20.72 41.2453 20.62 41.432 20.42C41.632 20.2067 41.732 19.88 41.732 19.44V17.44C41.732 17 41.632 16.68 41.432 16.48C41.2453 16.2667 40.9586 16.16 40.572 16.16C40.1853 16.16 39.892 16.2667 39.692 16.48C39.5053 16.68 39.412 17 39.412 17.44V19.44C39.412 19.88 39.5053 20.2067 39.692 20.42C39.892 20.62 40.1853 20.72 40.572 20.72ZM53.1087 28.72C52.1487 28.72 51.2287 28.6533 50.3487 28.52C49.482 28.3867 48.8087 28.2333 48.3287 28.06V24.78C49.742 25.0333 51.0087 25.16 52.1287 25.16C52.8887 25.16 53.4353 25.04 53.7687 24.8C54.1153 24.5733 54.2887 24.14 54.2887 23.5V22.64C53.9553 23.0667 53.522 23.4467 52.9887 23.78C52.4687 24.1133 51.8687 24.28 51.1887 24.28C49.8287 24.28 48.802 23.7733 48.1087 22.76C47.4287 21.7467 47.0887 20.3067 47.0887 18.44C47.0887 16.5733 47.4287 15.1333 48.1087 14.12C48.802 13.1067 49.8287 12.6 51.1887 12.6C51.8687 12.6 52.4687 12.7667 52.9887 13.1C53.522 13.4333 53.9553 13.8133 54.2887 14.24V12.88H59.7687V16.16H58.8887V23.2C58.8887 25.1333 58.4087 26.5333 57.4487 27.4C56.4887 28.28 55.042 28.72 53.1087 28.72ZM53.1287 20.72C53.5153 20.72 53.802 20.62 53.9887 20.42C54.1887 20.2067 54.2887 19.88 54.2887 19.44V17.44C54.2887 17 54.1887 16.68 53.9887 16.48C53.802 16.2667 53.5153 16.16 53.1287 16.16C52.742 16.16 52.4487 16.2667 52.2487 16.48C52.062 16.68 51.9687 17 51.9687 17.44V19.44C51.9687 19.88 52.062 20.2067 52.2487 20.42C52.4487 20.62 52.742 20.72 53.1287 20.72ZM61.2946 11.78V8.44H65.3746V11.78H61.2946ZM60.3346 24V20.72H61.2146V16.16H60.3346V12.88H65.8146V20.72H66.6946V24H60.3346ZM80.5287 20.72V24H74.2087V20.72H75.0487V17.44C75.0487 17 74.9553 16.68 74.7687 16.48C74.582 16.2667 74.302 16.16 73.9287 16.16C73.1287 16.16 72.7287 16.5867 72.7287 17.44V20.72H73.5687V24H67.2487V20.72H68.1287V16.16H67.2487V12.88H72.7287V14.44C73.6887 13.2133 74.8887 12.6 76.3287 12.6C77.4353 12.6 78.262 12.9467 78.8087 13.64C79.3687 14.3333 79.6487 15.2867 79.6487 16.5V20.72H80.5287Z" fill="black"/>
<path d="M20.5855 22V18.72H21.5855V9.72H20.5855V6.44H29.0255V9.72H27.1855V18.72H28.9855V16.88H32.9655V22H20.5855ZM39.572 22.28C37.6786 22.28 36.1986 21.7867 35.132 20.8C34.0653 19.8 33.532 18.3467 33.532 16.44C33.532 14.5333 34.0653 13.0867 35.132 12.1C36.1986 11.1 37.6786 10.6 39.572 10.6C41.492 10.6 42.9786 11.1067 44.032 12.12C45.0853 13.12 45.612 14.56 45.612 16.44C45.612 18.3467 45.0786 19.8 44.012 20.8C42.9453 21.7867 41.4653 22.28 39.572 22.28ZM39.572 18.72C39.9586 18.72 40.2453 18.62 40.432 18.42C40.632 18.2067 40.732 17.88 40.732 17.44V15.44C40.732 15 40.632 14.68 40.432 14.48C40.2453 14.2667 39.9586 14.16 39.572 14.16C39.1853 14.16 38.892 14.2667 38.692 14.48C38.5053 14.68 38.412 15 38.412 15.44V17.44C38.412 17.88 38.5053 18.2067 38.692 18.42C38.892 18.62 39.1853 18.72 39.572 18.72ZM52.1087 26.72C51.1487 26.72 50.2287 26.6533 49.3487 26.52C48.482 26.3867 47.8087 26.2333 47.3287 26.06V22.78C48.742 23.0333 50.0087 23.16 51.1287 23.16C51.8887 23.16 52.4353 23.04 52.7687 22.8C53.1153 22.5733 53.2887 22.14 53.2887 21.5V20.64C52.9553 21.0667 52.522 21.4467 51.9887 21.78C51.4687 22.1133 50.8687 22.28 50.1887 22.28C48.8287 22.28 47.802 21.7733 47.1087 20.76C46.4287 19.7467 46.0887 18.3067 46.0887 16.44C46.0887 14.5733 46.4287 13.1333 47.1087 12.12C47.802 11.1067 48.8287 10.6 50.1887 10.6C50.8687 10.6 51.4687 10.7667 51.9887 11.1C52.522 11.4333 52.9553 11.8133 53.2887 12.24V10.88H58.7687V14.16H57.8887V21.2C57.8887 23.1333 57.4087 24.5333 56.4487 25.4C55.4887 26.28 54.042 26.72 52.1087 26.72ZM52.1287 18.72C52.5153 18.72 52.802 18.62 52.9887 18.42C53.1887 18.2067 53.2887 17.88 53.2887 17.44V15.44C53.2887 15 53.1887 14.68 52.9887 14.48C52.802 14.2667 52.5153 14.16 52.1287 14.16C51.742 14.16 51.4487 14.2667 51.2487 14.48C51.062 14.68 50.9687 15 50.9687 15.44V17.44C50.9687 17.88 51.062 18.2067 51.2487 18.42C51.4487 18.62 51.742 18.72 52.1287 18.72ZM60.2946 9.78V6.44H64.3746V9.78H60.2946ZM59.3346 22V18.72H60.2146V14.16H59.3346V10.88H64.8146V18.72H65.6946V22H59.3346ZM79.5287 18.72V22H73.2087V18.72H74.0487V15.44C74.0487 15 73.9553 14.68 73.7687 14.48C73.582 14.2667 73.302 14.16 72.9287 14.16C72.1287 14.16 71.7287 14.5867 71.7287 15.44V18.72H72.5687V22H66.2487V18.72H67.1287V14.16H66.2487V10.88H71.7287V12.44C72.6887 11.2133 73.8887 10.6 75.3287 10.6C76.4353 10.6 77.262 10.9467 77.8087 11.64C78.3687 12.3333 78.6487 13.2867 78.6487 14.5V18.72H79.5287Z" fill="#FADCD5"/>
</g>
<defs>
<clipPath id="clip0_33_13">
<rect width="100" height="29" fill="white"/>
</clipPath>
</defs>
</svg>
