<svg width="178" height="47" viewBox="0 0 178 47" fill="none" xmlns="http://www.w3.org/2000/svg">
<rect x="8" y="6" width="163" height="38" rx="5" fill="black"/>
<rect x="8.5" y="5.5" width="161" height="36" rx="4.5" fill="#DEBDBD" stroke="black"/>
<path d="M63.3559 33V11.4H66.0859V33H63.3559ZM77.5913 27.63V23.22H80.3213V27.63H77.5913ZM69.1613 27.63V23.22H71.8913V27.63H69.1613ZM74.6513 19.77V17.4H74.8313V19.77H74.6513ZM74.6513 33.45V31.08H74.8313V33.45H74.6513ZM69.1613 23.25C69.1613 22.13 69.4013 21.13 69.8813 20.25C70.3813 19.37 71.0413 18.68 71.8613 18.18C72.7013 17.66 73.6513 17.4 74.7113 17.4V19.77C73.8313 19.77 73.1413 20.07 72.6413 20.67C72.1413 21.27 71.8913 22.13 71.8913 23.25H69.1613ZM80.3213 23.25H77.5913C77.5913 22.13 77.3413 21.27 76.8413 20.67C76.3613 20.07 75.6713 19.77 74.7713 19.77V17.4C75.8313 17.4 76.7713 17.66 77.5913 18.18C78.4313 18.68 79.0913 19.37 79.5713 20.25C80.0713 21.13 80.3213 22.13 80.3213 23.25ZM69.1613 27.6H71.8913C71.8913 28.7 72.1413 29.56 72.6413 30.18C73.1413 30.78 73.8313 31.08 74.7113 31.08V33.45C73.6513 33.45 72.7013 33.2 71.8613 32.7C71.0413 32.18 70.3813 31.48 69.8813 30.6C69.4013 29.72 69.1613 28.72 69.1613 27.6ZM80.3213 27.6C80.3213 28.72 80.0713 29.72 79.5713 30.6C79.0913 31.48 78.4313 32.18 77.5913 32.7C76.7713 33.2 75.8313 33.45 74.7713 33.45V31.08C75.6713 31.08 76.3613 30.78 76.8413 30.18C77.3413 29.56 77.5913 28.7 77.5913 27.6H80.3213ZM91.0749 33.54V17.85H93.8049V33.54H91.0749ZM82.6449 27.78V22.68H85.3749V27.78H82.6449ZM85.3749 22.68H82.6449C82.6449 21.68 82.8549 20.78 83.2749 19.98C83.6949 19.18 84.2649 18.55 84.9849 18.09C85.7249 17.63 86.5649 17.4 87.5049 17.4L88.1949 19.83C87.3749 19.83 86.6949 20.1 86.1549 20.64C85.6349 21.16 85.3749 21.84 85.3749 22.68ZM92.2749 22.74H91.0749C91.0749 21.88 90.8049 21.18 90.2649 20.64C89.7249 20.1 89.0349 19.83 88.1949 19.83L87.5049 17.4C88.4049 17.4 89.2149 17.63 89.9349 18.09C90.6749 18.55 91.2449 19.19 91.6449 20.01C92.0649 20.81 92.2749 21.72 92.2749 22.74ZM85.3749 27.78C85.3749 28.62 85.6349 29.31 86.1549 29.85C86.6949 30.37 87.3749 30.63 88.1949 30.63L87.5049 33.06C86.5649 33.06 85.7249 32.83 84.9849 32.37C84.2649 31.91 83.6949 31.28 83.2749 30.48C82.8549 29.68 82.6449 28.78 82.6449 27.78H85.3749ZM92.2749 27.69C92.2749 28.71 92.0649 29.63 91.6449 30.45C91.2449 31.25 90.6749 31.89 89.9349 32.37C89.2149 32.83 88.4049 33.06 87.5049 33.06L88.1949 30.63C89.0349 30.63 89.7249 30.36 90.2649 29.82C90.8049 29.28 91.0749 28.57 91.0749 27.69H92.2749ZM93.8049 33.45C93.8049 34.47 93.5649 35.38 93.0849 36.18C92.6049 37 91.9449 37.64 91.1049 38.1C90.2649 38.58 89.3149 38.82 88.2549 38.82V36.45C89.0749 36.45 89.7449 36.16 90.2649 35.58C90.8049 35.02 91.0749 34.31 91.0749 33.45H93.8049ZM85.4049 33.84C85.5049 34.72 85.8249 35.37 86.3649 35.79C86.9049 36.23 87.5349 36.45 88.2549 36.45V38.82C87.3349 38.82 86.4849 38.63 85.7049 38.25C84.9249 37.87 84.2849 37.34 83.7849 36.66C83.3049 35.98 83.0049 35.21 82.8849 34.35L85.4049 33.84ZM97.6039 33V17.85H100.334V33H97.6039ZM98.9539 15.84C98.4539 15.84 98.0339 15.67 97.6939 15.33C97.3539 14.99 97.1839 14.57 97.1839 14.07C97.1839 13.57 97.3539 13.15 97.6939 12.81C98.0339 12.45 98.4539 12.27 98.9539 12.27C99.4539 12.27 99.8739 12.45 100.214 12.81C100.574 13.15 100.754 13.57 100.754 14.07C100.754 14.57 100.574 14.99 100.214 15.33C99.8739 15.67 99.4539 15.84 98.9539 15.84ZM104.247 33V17.85H106.977V33H104.247ZM112.677 33V22.68H115.407V33H112.677ZM112.677 22.68C112.677 21.84 112.417 21.16 111.897 20.64C111.377 20.1 110.707 19.83 109.887 19.83L110.577 17.4C111.497 17.4 112.317 17.63 113.037 18.09C113.777 18.55 114.357 19.18 114.777 19.98C115.197 20.78 115.407 21.68 115.407 22.68H112.677ZM105.777 22.74C105.777 21.72 105.987 20.81 106.407 20.01C106.827 19.19 107.397 18.55 108.117 18.09C108.837 17.63 109.657 17.4 110.577 17.4L109.887 19.83C109.027 19.83 108.327 20.1 107.787 20.64C107.247 21.18 106.977 21.88 106.977 22.74H105.777Z" fill="black"/>
</svg>
