<svg width="200" height="50" viewBox="0 0 200 50" fill="none" xmlns="http://www.w3.org/2000/svg">
<g clip-path="url(#clip0_44_2)">
<g clip-path="url(#clip1_44_2)">
<g opacity="0.2">
<path d="M27.7685 16.7688C35.9385 18.9575 40.8943 27.0286 38.8088 34.8181C36.4567 43.5901 25.2681 50.6077 19.7125 44.6221C17.943 42.7172 17.4872 40.6231 17.799 37.8281C17.8527 37.3443 17.8979 37.0283 18.0419 36.121C18.3902 33.9022 18.3859 33.025 17.9258 32.2768C17.4808 31.5544 16.6831 31.3673 14.3181 31.3394L14.0859 31.3351C10.7577 31.2878 9.14091 30.7331 8.31961 28.4046C5.58911 20.6883 18.5945 14.3092 27.7685 16.7688Z" fill="#C3468A"/>
<path fill-rule="evenodd" clip-rule="evenodd" d="M34.7625 13.5245C33.6617 13.4815 32.6512 12.7978 31.9546 11.4906C30.757 9.2374 30.4947 5.97155 32.1932 5.06855C33.8917 4.16555 36.4502 6.20805 37.6499 8.4634C38.2949 9.67815 38.3422 10.8198 37.88 11.7271C38.299 11.9386 38.6373 12.2814 38.8432 12.7032L47.6431 30.7632C47.79 31.0878 47.8078 31.4562 47.6929 31.7935C47.5779 32.1308 47.3388 32.4116 47.0242 32.5789C46.7096 32.7462 46.3431 32.7874 45.9992 32.6942C45.6552 32.6009 45.3598 32.3802 45.1728 32.0769L35.0506 14.7263C34.839 14.3626 34.7388 13.9447 34.7625 13.5245Z" fill="#C3468A"/>
</g>
<path fill-rule="evenodd" clip-rule="evenodd" d="M36.6588 32.6681C38.7443 24.8787 33.7864 16.8076 25.6185 14.6189C16.4445 12.1593 3.44126 18.5383 6.16961 26.2525C6.99306 28.5831 8.60771 29.1357 11.9359 29.183L12.1681 29.1873C14.5331 29.2152 15.3308 29.4023 15.7758 30.1247C16.2359 30.8729 16.2402 31.7501 15.8919 33.9689C15.7479 34.8762 15.7027 35.1922 15.649 35.676C15.3372 38.471 15.793 40.5651 17.5625 42.47C23.1181 48.4556 34.3067 41.4401 36.6588 32.6681ZM8.19491 25.5366C6.24271 20.0111 17.2615 14.606 25.0617 16.6958C32.1072 18.5835 36.3535 25.4957 34.5819 32.1113C32.5953 39.5202 23.2148 45.4026 19.1384 41.0123C17.8613 39.6363 17.5367 38.1463 17.7839 35.9168C17.8355 35.476 17.8785 35.1772 18.0161 34.3043C18.4461 31.563 18.4397 30.3569 17.6076 29.0002C16.6079 27.3748 15.3308 27.0781 12.1961 27.0394L11.966 27.0351C9.47416 27.0007 8.60771 26.704 8.19491 25.5366Z" fill="black"/>
<path d="M15.2125 24.425C14.4998 24.425 13.8162 24.1419 13.3122 23.6378C12.8082 23.1338 12.525 22.4503 12.525 21.7375C12.525 21.0247 12.8082 20.3412 13.3122 19.8371C13.8162 19.3331 14.4998 19.05 15.2125 19.05C15.9253 19.05 16.6089 19.3331 17.1129 19.8371C17.6169 20.3412 17.9 21.0247 17.9 21.7375C17.9 22.4503 17.6169 23.1338 17.1129 23.6378C16.6089 24.1419 15.9253 24.425 15.2125 24.425ZM23.8125 24.425C23.0998 24.425 22.4162 24.1419 21.9122 23.6378C21.4082 23.1338 21.125 22.4503 21.125 21.7375C21.125 21.0247 21.4082 20.3412 21.9122 19.8371C22.4162 19.3331 23.0998 19.05 23.8125 19.05C24.5253 19.05 25.2089 19.3331 25.7129 19.8371C26.2169 20.3412 26.5 21.0247 26.5 21.7375C26.5 22.4503 26.2169 23.1338 25.7129 23.6378C25.2089 24.1419 24.5253 24.425 23.8125 24.425ZM29.1875 30.875C28.4748 30.875 27.7912 30.5919 27.2872 30.0878C26.7832 29.5838 26.5 28.9003 26.5 28.1875C26.5 27.4747 26.7832 26.7912 27.2872 26.2871C27.7912 25.7831 28.4748 25.5 29.1875 25.5C29.9003 25.5 30.5839 25.7831 31.0879 26.2871C31.5919 26.7912 31.875 27.4747 31.875 28.1875C31.875 28.9003 31.5919 29.5838 31.0879 30.0878C30.5839 30.5919 29.9003 30.875 29.1875 30.875ZM25.9625 38.4C25.2498 38.4 24.5662 38.1169 24.0622 37.6128C23.5582 37.1088 23.275 36.4253 23.275 35.7125C23.275 34.9997 23.5582 34.3162 24.0622 33.8122C24.5662 33.3081 25.2498 33.025 25.9625 33.025C26.6753 33.025 27.3589 33.3081 27.8629 33.8122C28.3669 34.3162 28.65 34.9997 28.65 35.7125C28.65 36.4253 28.3669 37.1088 27.8629 37.6128C27.3589 38.1169 26.6753 38.4 25.9625 38.4ZM33.7455 11.7507C34.0005 11.6142 34.2803 11.5304 34.5684 11.5045C34.8564 11.4786 35.1467 11.5111 35.4219 11.6C35.6971 11.689 35.9516 11.8325 36.17 12.0221C36.3884 12.2116 36.5664 12.4433 36.6932 12.7032L45.4931 30.7632C45.6401 31.0878 45.6578 31.4562 45.5429 31.7935C45.4279 32.1308 45.1888 32.4116 44.8742 32.5789C44.5596 32.7462 44.1931 32.7874 43.8492 32.6942C43.5053 32.6009 43.2098 32.3802 43.0228 32.0768L32.9006 14.7263C32.7557 14.4766 32.6626 14.2002 32.6268 13.9137C32.591 13.6272 32.6133 13.3364 32.6924 13.0587C32.7715 12.781 32.9056 12.5221 33.0869 12.2973C33.2682 12.0726 33.493 11.8867 33.7477 11.7507" fill="black"/>
<path fill-rule="evenodd" clip-rule="evenodd" d="M29.8067 11.4906C30.8516 13.4579 32.6125 14.0083 34.3153 13.1031C36.0159 12.2001 36.547 10.4307 35.4999 8.46341C34.3045 6.21021 31.7417 4.16771 30.0432 5.06856C28.3447 5.96941 28.607 9.23741 29.8067 11.4906ZM31.703 10.4801C31.324 9.71501 31.0907 8.88604 31.015 8.03556C30.9836 7.67986 30.9966 7.32164 31.0537 6.96916L31.0924 6.98851C31.1999 7.04011 31.5331 7.19491 31.9588 7.53461C32.6081 8.05276 33.2532 8.81601 33.6015 9.47176C34.0938 10.3963 33.9541 10.8607 33.3048 11.2068C32.6598 11.5508 32.1954 11.4046 31.703 10.4823" fill="#C3468A"/>
</g>
<path d="M50.8691 22.9072V23.1855C50.8496 24.0059 50.7617 24.8555 50.6055 25.7344C50.459 26.6133 50.249 27.4922 49.9756 28.3711C49.7021 29.25 49.375 30.1191 48.9941 30.9785C48.6133 31.8379 48.1836 32.6582 47.7051 33.4395C47.2363 34.2305 46.7285 34.9678 46.1816 35.6514C45.6348 36.3447 45.0586 36.9551 44.4531 37.4824L42.2705 36.2227C42.6123 35.6465 42.9199 35.0166 43.1934 34.333C43.4766 33.6592 43.7305 32.9512 43.9551 32.209C44.1797 31.4668 44.3701 30.7051 44.5264 29.9238C44.6924 29.1426 44.8291 28.3662 44.9365 27.5947C45.0439 26.8232 45.1221 26.0664 45.1709 25.3242C45.2295 24.5723 45.2588 23.8594 45.2588 23.1855C45.2588 22.6582 45.2539 22.0625 45.2441 21.3984C45.2441 20.7246 45.2051 20.041 45.127 19.3477C45.0586 18.6543 44.9414 17.9805 44.7754 17.3262C44.6094 16.6621 44.3604 16.0713 44.0283 15.5537C43.7061 15.0361 43.2861 14.6211 42.7686 14.3086C42.2607 13.9961 41.626 13.8398 40.8643 13.8398C40.1904 13.8398 39.6094 13.957 39.1211 14.1914C38.6426 14.416 38.2324 14.7236 37.8906 15.1143C37.5586 15.4951 37.29 15.9395 37.085 16.4473C36.8896 16.9551 36.7334 17.4922 36.6162 18.0586C36.5088 18.6152 36.4355 19.1816 36.3965 19.7578C36.3672 20.3242 36.3525 20.8613 36.3525 21.3691V25.4561H42.666V27.873H36.3525V33H30.5371V22.2773C30.5371 20.7441 30.7812 19.3184 31.2695 18C31.7578 16.6816 32.4463 15.5391 33.335 14.5723C34.2334 13.5957 35.3076 12.834 36.5576 12.2871C37.8174 11.7305 39.2188 11.4521 40.7617 11.4521C41.8066 11.4521 42.7832 11.6035 43.6914 11.9062C44.6094 12.1992 45.4443 12.6094 46.1963 13.1367C46.9482 13.6543 47.6172 14.2744 48.2031 14.9971C48.7988 15.71 49.292 16.4912 49.6826 17.3408C50.083 18.1904 50.3857 19.0889 50.5908 20.0361C50.7959 20.9834 50.8887 21.9404 50.8691 22.9072ZM62.8076 33H58.3545L52.2021 16.0811H57.1533L61.665 29.5576L66.0449 16.0811H69.4727L62.8076 33ZM88.3105 33H83.3594V30.9785C82.7734 31.7793 82.0654 32.375 81.2354 32.7656C80.415 33.1465 79.5117 33.3369 78.5254 33.3369C77.2363 33.3369 76.084 33.1074 75.0684 32.6484C74.0527 32.1895 73.1934 31.5645 72.4902 30.7734C71.7871 29.9727 71.25 29.0352 70.8789 27.9609C70.5078 26.8867 70.3223 25.7344 70.3223 24.5039C70.3223 23.2734 70.5078 22.1211 70.8789 21.0469C71.25 19.9727 71.7871 19.04 72.4902 18.249C73.1934 17.4482 74.0527 16.8184 75.0684 16.3594C76.084 15.9004 77.2363 15.6709 78.5254 15.6709C79.1797 15.6709 79.7998 15.7686 80.3857 15.9639C80.9814 16.1592 81.5234 16.4375 82.0117 16.7988C82.5098 17.1504 82.9443 17.5801 83.3154 18.0879C83.6963 18.5859 83.9941 19.1426 84.209 19.7578L86.4062 16.0811H88.3105V33ZM83.3301 24.5039C83.3301 24.0645 83.3057 23.6006 83.2568 23.1123C83.2178 22.624 83.1445 22.1406 83.0371 21.6621C82.9297 21.1836 82.7783 20.7295 82.583 20.2998C82.3975 19.8604 82.1533 19.4746 81.8506 19.1426C81.5576 18.8008 81.2012 18.5322 80.7812 18.3369C80.3613 18.1416 79.873 18.0439 79.3164 18.0439C78.7598 18.0439 78.2764 18.1465 77.8662 18.3516C77.4561 18.5469 77.1045 18.8154 76.8115 19.1572C76.5186 19.4893 76.2744 19.875 76.0791 20.3145C75.8936 20.7539 75.7471 21.2129 75.6396 21.6914C75.5322 22.1699 75.4541 22.6533 75.4053 23.1416C75.3662 23.6201 75.3467 24.0742 75.3467 24.5039C75.3467 24.9336 75.3662 25.3926 75.4053 25.8809C75.4541 26.3691 75.5322 26.8525 75.6396 27.3311C75.7471 27.8096 75.8936 28.2686 76.0791 28.708C76.2744 29.1475 76.5186 29.5381 76.8115 29.8799C77.1045 30.2119 77.4561 30.4805 77.8662 30.6855C78.2764 30.8809 78.7598 30.9785 79.3164 30.9785C79.8242 30.9785 80.2734 30.876 80.6641 30.6709C81.0645 30.4561 81.4111 30.1729 81.7041 29.8213C82.0068 29.4697 82.2607 29.0693 82.4658 28.6201C82.6709 28.1709 82.8369 27.707 82.9639 27.2285C83.0908 26.75 83.1836 26.2764 83.2422 25.8076C83.3008 25.3291 83.3301 24.8945 83.3301 24.5039ZM98.8281 33H93.8623V18.0439H90.7861V16.0811H93.8623V9.85547H98.8281V16.0811H103.955V18.0439H98.8281V33ZM122.734 33H117.783V30.9785C117.197 31.7793 116.489 32.375 115.659 32.7656C114.839 33.1465 113.936 33.3369 112.949 33.3369C111.66 33.3369 110.508 33.1074 109.492 32.6484C108.477 32.1895 107.617 31.5645 106.914 30.7734C106.211 29.9727 105.674 29.0352 105.303 27.9609C104.932 26.8867 104.746 25.7344 104.746 24.5039C104.746 23.2734 104.932 22.1211 105.303 21.0469C105.674 19.9727 106.211 19.04 106.914 18.249C107.617 17.4482 108.477 16.8184 109.492 16.3594C110.508 15.9004 111.66 15.6709 112.949 15.6709C113.604 15.6709 114.224 15.7686 114.81 15.9639C115.405 16.1592 115.947 16.4375 116.436 16.7988C116.934 17.1504 117.368 17.5801 117.739 18.0879C118.12 18.5859 118.418 19.1426 118.633 19.7578L120.83 16.0811H122.734V33ZM117.754 24.5039C117.754 24.0645 117.729 23.6006 117.681 23.1123C117.642 22.624 117.568 22.1406 117.461 21.6621C117.354 21.1836 117.202 20.7295 117.007 20.2998C116.821 19.8604 116.577 19.4746 116.274 19.1426C115.981 18.8008 115.625 18.5322 115.205 18.3369C114.785 18.1416 114.297 18.0439 113.74 18.0439C113.184 18.0439 112.7 18.1465 112.29 18.3516C111.88 18.5469 111.528 18.8154 111.235 19.1572C110.942 19.4893 110.698 19.875 110.503 20.3145C110.317 20.7539 110.171 21.2129 110.063 21.6914C109.956 22.1699 109.878 22.6533 109.829 23.1416C109.79 23.6201 109.771 24.0742 109.771 24.5039C109.771 24.9336 109.79 25.3926 109.829 25.8809C109.878 26.3691 109.956 26.8525 110.063 27.3311C110.171 27.8096 110.317 28.2686 110.503 28.708C110.698 29.1475 110.942 29.5381 111.235 29.8799C111.528 30.2119 111.88 30.4805 112.29 30.6855C112.7 30.8809 113.184 30.9785 113.74 30.9785C114.248 30.9785 114.697 30.876 115.088 30.6709C115.488 30.4561 115.835 30.1729 116.128 29.8213C116.431 29.4697 116.685 29.0693 116.89 28.6201C117.095 28.1709 117.261 27.707 117.388 27.2285C117.515 26.75 117.607 26.2764 117.666 25.8076C117.725 25.3291 117.754 24.8945 117.754 24.5039ZM141.265 17.5752L138.481 22.1895C138.364 21.7988 138.213 21.3594 138.027 20.8711C137.842 20.3828 137.612 19.9287 137.339 19.5088C137.065 19.0791 136.738 18.7227 136.357 18.4395C135.977 18.1465 135.537 18 135.039 18C134.58 18 134.18 18.1172 133.838 18.3516C133.506 18.5859 133.223 18.8936 132.988 19.2744C132.754 19.6455 132.559 20.0703 132.402 20.5488C132.256 21.0176 132.139 21.4961 132.051 21.9844C131.973 22.4629 131.919 22.9268 131.89 23.376C131.86 23.8154 131.846 24.1963 131.846 24.5186V33H126.88V16.0811H128.784L130.791 20.0215C131.064 19.3867 131.377 18.8057 131.729 18.2783C132.08 17.7412 132.485 17.2822 132.944 16.9014C133.403 16.5107 133.921 16.208 134.497 15.9932C135.083 15.7783 135.742 15.6709 136.475 15.6709C136.855 15.6709 137.28 15.7051 137.749 15.7734C138.218 15.832 138.677 15.9395 139.126 16.0957C139.575 16.2422 139.99 16.4375 140.371 16.6816C140.752 16.9258 141.05 17.2236 141.265 17.5752ZM148.545 11.9941C148.545 12.3652 148.472 12.7168 148.325 13.0488C148.188 13.3809 147.998 13.6689 147.754 13.9131C147.51 14.1572 147.222 14.3525 146.89 14.499C146.558 14.6357 146.206 14.7041 145.835 14.7041C145.464 14.7041 145.112 14.6357 144.78 14.499C144.458 14.3525 144.175 14.1572 143.931 13.9131C143.687 13.6689 143.491 13.3809 143.345 13.0488C143.208 12.7168 143.14 12.3652 143.14 11.9941C143.14 11.623 143.208 11.2764 143.345 10.9541C143.491 10.6221 143.687 10.334 143.931 10.0898C144.175 9.8457 144.458 9.65527 144.78 9.51855C145.112 9.37207 145.464 9.29883 145.835 9.29883C146.206 9.29883 146.558 9.37207 146.89 9.51855C147.222 9.65527 147.51 9.8457 147.754 10.0898C147.998 10.334 148.188 10.6221 148.325 10.9541C148.472 11.2764 148.545 11.623 148.545 11.9941ZM148.325 33H143.359V16.0957H148.325V33ZM169.521 33H164.57V30.9785C163.984 31.7793 163.276 32.375 162.446 32.7656C161.626 33.1465 160.723 33.3369 159.736 33.3369C158.447 33.3369 157.295 33.1074 156.279 32.6484C155.264 32.1895 154.404 31.5645 153.701 30.7734C152.998 29.9727 152.461 29.0352 152.09 27.9609C151.719 26.8867 151.533 25.7344 151.533 24.5039C151.533 23.2734 151.719 22.1211 152.09 21.0469C152.461 19.9727 152.998 19.04 153.701 18.249C154.404 17.4482 155.264 16.8184 156.279 16.3594C157.295 15.9004 158.447 15.6709 159.736 15.6709C160.391 15.6709 161.011 15.7686 161.597 15.9639C162.192 16.1592 162.734 16.4375 163.223 16.7988C163.721 17.1504 164.155 17.5801 164.526 18.0879C164.907 18.5859 165.205 19.1426 165.42 19.7578L167.617 16.0811H169.521V33ZM164.541 24.5039C164.541 24.0645 164.517 23.6006 164.468 23.1123C164.429 22.624 164.355 22.1406 164.248 21.6621C164.141 21.1836 163.989 20.7295 163.794 20.2998C163.608 19.8604 163.364 19.4746 163.062 19.1426C162.769 18.8008 162.412 18.5322 161.992 18.3369C161.572 18.1416 161.084 18.0439 160.527 18.0439C159.971 18.0439 159.487 18.1465 159.077 18.3516C158.667 18.5469 158.315 18.8154 158.022 19.1572C157.729 19.4893 157.485 19.875 157.29 20.3145C157.104 20.7539 156.958 21.2129 156.851 21.6914C156.743 22.1699 156.665 22.6533 156.616 23.1416C156.577 23.6201 156.558 24.0742 156.558 24.5039C156.558 24.9336 156.577 25.3926 156.616 25.8809C156.665 26.3691 156.743 26.8525 156.851 27.3311C156.958 27.8096 157.104 28.2686 157.29 28.708C157.485 29.1475 157.729 29.5381 158.022 29.8799C158.315 30.2119 158.667 30.4805 159.077 30.6855C159.487 30.8809 159.971 30.9785 160.527 30.9785C161.035 30.9785 161.484 30.876 161.875 30.6709C162.275 30.4561 162.622 30.1729 162.915 29.8213C163.218 29.4697 163.472 29.0693 163.677 28.6201C163.882 28.1709 164.048 27.707 164.175 27.2285C164.302 26.75 164.395 26.2764 164.453 25.8076C164.512 25.3291 164.541 24.8945 164.541 24.5039Z" fill="#FADCD5"/>
</g>
<defs>
<clipPath id="clip0_44_2">
<rect width="200" height="50" fill="white"/>
</clipPath>
<clipPath id="clip1_44_2">
<rect width="43" height="43" fill="white" transform="translate(5 4)"/>
</clipPath>
</defs>
</svg>
