<svg width="178" height="47" viewBox="0 0 178 47" fill="none" xmlns="http://www.w3.org/2000/svg">
<rect x="9" y="6" width="163" height="38" rx="5" fill="black"/>
<rect x="8.5" y="5.5" width="161" height="36" rx="4.5" fill="#DEBDBD" stroke="black"/>
<path d="M55.433 33V11.4H58.163V33H55.433ZM69.6685 27.63V23.22H72.3985V27.63H69.6685ZM61.2385 27.63V23.22H63.9685V27.63H61.2385ZM66.7285 19.77V17.4H66.9085V19.77H66.7285ZM66.7285 33.45V31.08H66.9085V33.45H66.7285ZM61.2385 23.25C61.2385 22.13 61.4785 21.13 61.9585 20.25C62.4585 19.37 63.1185 18.68 63.9385 18.18C64.7785 17.66 65.7285 17.4 66.7885 17.4V19.77C65.9085 19.77 65.2185 20.07 64.7185 20.67C64.2185 21.27 63.9685 22.13 63.9685 23.25H61.2385ZM72.3985 23.25H69.6685C69.6685 22.13 69.4185 21.27 68.9185 20.67C68.4385 20.07 67.7485 19.77 66.8485 19.77V17.4C67.9085 17.4 68.8485 17.66 69.6685 18.18C70.5085 18.68 71.1685 19.37 71.6485 20.25C72.1485 21.13 72.3985 22.13 72.3985 23.25ZM61.2385 27.6H63.9685C63.9685 28.7 64.2185 29.56 64.7185 30.18C65.2185 30.78 65.9085 31.08 66.7885 31.08V33.45C65.7285 33.45 64.7785 33.2 63.9385 32.7C63.1185 32.18 62.4585 31.48 61.9585 30.6C61.4785 29.72 61.2385 28.72 61.2385 27.6ZM72.3985 27.6C72.3985 28.72 72.1485 29.72 71.6485 30.6C71.1685 31.48 70.5085 32.18 69.6685 32.7C68.8485 33.2 67.9085 33.45 66.8485 33.45V31.08C67.7485 31.08 68.4385 30.78 68.9185 30.18C69.4185 29.56 69.6685 28.7 69.6685 27.6H72.3985ZM83.1521 33.54V17.85H85.8821V33.54H83.1521ZM74.7221 27.78V22.68H77.4521V27.78H74.7221ZM77.4521 22.68H74.7221C74.7221 21.68 74.9321 20.78 75.3521 19.98C75.7721 19.18 76.3421 18.55 77.0621 18.09C77.8021 17.63 78.6421 17.4 79.5821 17.4L80.2721 19.83C79.4521 19.83 78.7721 20.1 78.2321 20.64C77.7121 21.16 77.4521 21.84 77.4521 22.68ZM84.3521 22.74H83.1521C83.1521 21.88 82.8821 21.18 82.3421 20.64C81.8021 20.1 81.1121 19.83 80.2721 19.83L79.5821 17.4C80.4821 17.4 81.2921 17.63 82.0121 18.09C82.7521 18.55 83.3221 19.19 83.7221 20.01C84.1421 20.81 84.3521 21.72 84.3521 22.74ZM77.4521 27.78C77.4521 28.62 77.7121 29.31 78.2321 29.85C78.7721 30.37 79.4521 30.63 80.2721 30.63L79.5821 33.06C78.6421 33.06 77.8021 32.83 77.0621 32.37C76.3421 31.91 75.7721 31.28 75.3521 30.48C74.9321 29.68 74.7221 28.78 74.7221 27.78H77.4521ZM84.3521 27.69C84.3521 28.71 84.1421 29.63 83.7221 30.45C83.3221 31.25 82.7521 31.89 82.0121 32.37C81.2921 32.83 80.4821 33.06 79.5821 33.06L80.2721 30.63C81.1121 30.63 81.8021 30.36 82.3421 29.82C82.8821 29.28 83.1521 28.57 83.1521 27.69H84.3521ZM85.8821 33.45C85.8821 34.47 85.6421 35.38 85.1621 36.18C84.6821 37 84.0221 37.64 83.1821 38.1C82.3421 38.58 81.3921 38.82 80.3321 38.82V36.45C81.1521 36.45 81.8221 36.16 82.3421 35.58C82.8821 35.02 83.1521 34.31 83.1521 33.45H85.8821ZM77.4821 33.84C77.5821 34.72 77.9021 35.37 78.4421 35.79C78.9821 36.23 79.6121 36.45 80.3321 36.45V38.82C79.4121 38.82 78.5621 38.63 77.7821 38.25C77.0021 37.87 76.3621 37.34 75.8621 36.66C75.3821 35.98 75.0821 35.21 74.9621 34.35L77.4821 33.84ZM97.0611 27.63V23.22H99.7911V27.63H97.0611ZM88.6311 27.63V23.22H91.3611V27.63H88.6311ZM94.1211 19.77V17.4H94.3011V19.77H94.1211ZM94.1211 33.45V31.08H94.3011V33.45H94.1211ZM88.6311 23.25C88.6311 22.13 88.8711 21.13 89.3511 20.25C89.8511 19.37 90.5111 18.68 91.3311 18.18C92.1711 17.66 93.1211 17.4 94.1811 17.4V19.77C93.3011 19.77 92.6111 20.07 92.1111 20.67C91.6111 21.27 91.3611 22.13 91.3611 23.25H88.6311ZM99.7911 23.25H97.0611C97.0611 22.13 96.8111 21.27 96.3111 20.67C95.8311 20.07 95.1411 19.77 94.2411 19.77V17.4C95.3011 17.4 96.2411 17.66 97.0611 18.18C97.9011 18.68 98.5611 19.37 99.0411 20.25C99.5411 21.13 99.7911 22.13 99.7911 23.25ZM88.6311 27.6H91.3611C91.3611 28.7 91.6111 29.56 92.1111 30.18C92.6111 30.78 93.3011 31.08 94.1811 31.08V33.45C93.1211 33.45 92.1711 33.2 91.3311 32.7C90.5111 32.18 89.8511 31.48 89.3511 30.6C88.8711 29.72 88.6311 28.72 88.6311 27.6ZM99.7911 27.6C99.7911 28.72 99.5411 29.72 99.0411 30.6C98.5611 31.48 97.9011 32.18 97.0611 32.7C96.2411 33.2 95.3011 33.45 94.2411 33.45V31.08C95.1411 31.08 95.8311 30.78 96.3111 30.18C96.8111 29.56 97.0611 28.7 97.0611 27.6H99.7911ZM113.275 17.85V33H110.545V17.85H113.275ZM104.845 17.85V28.17H102.115V17.85H104.845ZM104.845 28.17C104.845 29.01 105.105 29.7 105.625 30.24C106.165 30.76 106.845 31.02 107.665 31.02L106.975 33.45C106.035 33.45 105.195 33.22 104.455 32.76C103.735 32.3 103.165 31.67 102.745 30.87C102.325 30.07 102.115 29.17 102.115 28.17H104.845ZM111.745 28.08C111.745 29.1 111.535 30.02 111.115 30.84C110.715 31.64 110.145 32.28 109.405 32.76C108.685 33.22 107.875 33.45 106.975 33.45L107.665 31.02C108.505 31.02 109.195 30.75 109.735 30.21C110.275 29.67 110.545 28.96 110.545 28.08H111.745ZM117.852 28.41V11.82L120.582 11.85V28.41H117.852ZM116.112 20.1V17.85H124.362V20.1H116.112ZM117.852 28.38H120.582C120.582 28.96 120.662 29.45 120.822 29.85C120.982 30.25 121.212 30.56 121.512 30.78C121.812 30.98 122.172 31.08 122.592 31.08L122.352 33.45C120.952 33.45 119.852 33.01 119.052 32.13C118.252 31.23 117.852 29.98 117.852 28.38ZM124.002 30.57L125.082 32.52C124.682 32.82 124.242 33.05 123.762 33.21C123.302 33.37 122.832 33.45 122.352 33.45L122.592 31.08C122.852 31.08 123.092 31.04 123.312 30.96C123.552 30.86 123.782 30.73 124.002 30.57Z" fill="black"/>
</svg>
