<svg width="169" height="35" viewBox="0 0 169 35" fill="none" xmlns="http://www.w3.org/2000/svg">
<path d="M29.9366 13.72H28.9366V22.72H29.9366V26H22.3766V22.72H23.3366V15.72L19.9366 26H16.9766L13.4766 15.82V22.72H14.4366V26H7.87656V22.72H8.87656V13.72H7.87656V10.44H17.0366L19.1166 16.68L21.1166 10.44H29.9366V13.72ZM42.7281 14.88V18.16H41.9681L39.3481 25.1C38.6948 26.8467 37.9481 28.1533 37.1081 29.02C36.2681 29.9 35.1615 30.34 33.7881 30.34C33.2281 30.34 32.6615 30.28 32.0881 30.16C31.5148 30.0533 30.9948 29.9 30.5281 29.7V26.08H33.2881V26.28C33.2881 26.6133 33.4615 26.78 33.8081 26.78C34.1148 26.78 34.3481 26.6333 34.5081 26.34L31.3481 18.16H30.5881V14.88H36.5281V18.16H35.8481L36.8881 21.28L37.8481 18.16H37.1681V14.88H42.7281ZM57.1209 26.28C54.6009 26.28 52.6543 25.64 51.2809 24.36C49.9209 23.08 49.2409 21.0333 49.2409 18.22C49.2409 12.8467 51.8543 10.16 57.0809 10.16C58.3476 10.16 59.5209 10.3133 60.6009 10.62C61.6943 10.9267 62.5076 11.2667 63.0409 11.64V16.64H58.2409V15.2C58.2409 14.6933 58.1276 14.32 57.9009 14.08C57.6743 13.84 57.3343 13.72 56.8809 13.72C56.4276 13.72 56.0876 13.84 55.8609 14.08C55.6343 14.32 55.5209 14.6933 55.5209 15.2V21.24C55.5209 21.7467 55.6343 22.12 55.8609 22.36C56.0876 22.6 56.4276 22.72 56.8809 22.72C57.3343 22.72 57.6743 22.6 57.9009 22.36C58.1276 22.12 58.2409 21.7467 58.2409 21.24V19.62H63.0409V24.8C62.4943 25.1733 61.6809 25.5133 60.6009 25.82C59.5343 26.1267 58.3743 26.28 57.1209 26.28ZM77.0345 22.72V26H70.7145V22.72H71.5545V19.44C71.5545 19 71.4612 18.68 71.2745 18.48C71.0879 18.2667 70.8079 18.16 70.4345 18.16C69.6345 18.16 69.2345 18.5867 69.2345 19.44V22.72H70.0745V26H63.7545V22.72H64.6345V13.72H63.7545V10.44H69.2345V16.44C69.7279 15.8267 70.2612 15.3667 70.8345 15.06C71.4079 14.7533 72.0745 14.6 72.8345 14.6C73.9412 14.6 74.7679 14.9467 75.3145 15.64C75.8745 16.3333 76.1545 17.2867 76.1545 18.5V22.72H77.0345ZM89.3403 22.72V26H84.0603V24.64C83.767 25.0667 83.3536 25.4467 82.8203 25.78C82.3003 26.1133 81.6603 26.28 80.9003 26.28C79.9003 26.28 79.1136 26.0133 78.5403 25.48C77.967 24.9467 77.6803 24.1933 77.6803 23.22C77.6803 20.7 79.8203 19.4067 84.1003 19.34C84.0603 18.8867 83.887 18.58 83.5803 18.42C83.2736 18.2467 82.7536 18.16 82.0203 18.16C81.4203 18.16 80.7736 18.2267 80.0803 18.36C79.4003 18.48 78.7736 18.6467 78.2003 18.86V15.18C78.907 15.0067 79.6736 14.8667 80.5003 14.76C81.327 14.6533 82.1336 14.6 82.9203 14.6C84.907 14.6 86.327 14.96 87.1803 15.68C88.0336 16.4 88.4603 17.5133 88.4603 19.02V22.72H89.3403ZM84.0603 21.32C83.4603 21.32 82.9936 21.4 82.6603 21.56C82.3403 21.72 82.1803 21.9867 82.1803 22.36C82.1803 22.5867 82.247 22.7733 82.3803 22.92C82.527 23.0533 82.727 23.12 82.9803 23.12C83.327 23.12 83.5936 22.9733 83.7803 22.68C83.967 22.3867 84.0603 21.9733 84.0603 21.44V21.32ZM98.525 14.6C98.7917 14.6 99.045 14.6267 99.285 14.68C99.525 14.7333 99.725 14.8 99.885 14.88V18.7C99.3383 18.4733 98.7517 18.36 98.125 18.36C97.285 18.36 96.6383 18.58 96.185 19.02C95.7317 19.46 95.505 20.1133 95.505 20.98V22.72H97.305V26H90.025V22.72H90.905V18.16H90.025V14.88H95.505V16.34C95.8783 15.78 96.305 15.3533 96.785 15.06C97.265 14.7533 97.845 14.6 98.525 14.6ZM112.192 22.72V26H106.912V24.64C106.619 25.0667 106.205 25.4467 105.672 25.78C105.152 26.1133 104.512 26.28 103.752 26.28C102.752 26.28 101.965 26.0133 101.392 25.48C100.819 24.9467 100.532 24.1933 100.532 23.22C100.532 20.7 102.672 19.4067 106.952 19.34C106.912 18.8867 106.739 18.58 106.432 18.42C106.125 18.2467 105.605 18.16 104.872 18.16C104.272 18.16 103.625 18.2267 102.932 18.36C102.252 18.48 101.625 18.6467 101.052 18.86V15.18C101.759 15.0067 102.525 14.8667 103.352 14.76C104.179 14.6533 104.985 14.6 105.772 14.6C107.759 14.6 109.179 14.96 110.032 15.68C110.885 16.4 111.312 17.5133 111.312 19.02V22.72H112.192ZM106.912 21.32C106.312 21.32 105.845 21.4 105.512 21.56C105.192 21.72 105.032 21.9867 105.032 22.36C105.032 22.5867 105.099 22.7733 105.232 22.92C105.379 23.0533 105.579 23.12 105.832 23.12C106.179 23.12 106.445 22.9733 106.632 22.68C106.819 22.3867 106.912 21.9733 106.912 21.44V21.32ZM118.817 26.28C116.91 26.28 115.423 25.7867 114.357 24.8C113.29 23.8 112.757 22.3467 112.757 20.44C112.757 18.5333 113.29 17.0867 114.357 16.1C115.423 15.1 116.903 14.6 118.797 14.6C119.717 14.6 120.597 14.7267 121.437 14.98C122.277 15.2333 122.93 15.52 123.397 15.84V19.8H119.957V19.44C119.957 19 119.863 18.68 119.677 18.48C119.49 18.2667 119.197 18.16 118.797 18.16C118.023 18.16 117.637 18.5867 117.637 19.44V21.16C117.637 22.2 118.23 22.72 119.417 22.72C120.523 22.72 121.81 22.6 123.277 22.36V25.5C122.823 25.7 122.183 25.88 121.357 26.04C120.543 26.2 119.697 26.28 118.817 26.28ZM129.007 26.28C127.594 26.28 126.527 25.94 125.807 25.26C125.1 24.5667 124.747 23.4067 124.747 21.78V18.16H123.867V14.88C124.374 14.88 124.754 14.7533 125.007 14.5C125.26 14.2333 125.387 13.8733 125.387 13.42V12.52H129.627V14.88H132.327V18.16H129.627V21.44C129.627 21.88 129.72 22.2067 129.907 22.42C130.107 22.62 130.4 22.72 130.787 22.72C131.294 22.72 131.847 22.66 132.447 22.54V25.68C132.074 25.8267 131.567 25.96 130.927 26.08C130.3 26.2133 129.66 26.28 129.007 26.28ZM139.05 26.28C137.157 26.28 135.677 25.7867 134.61 24.8C133.544 23.8 133.01 22.3467 133.01 20.44C133.01 18.5333 133.544 17.0867 134.61 16.1C135.677 15.1 137.157 14.6 139.05 14.6C140.93 14.6 142.284 15.0933 143.11 16.08C143.95 17.0533 144.37 18.2667 144.37 19.72V21.16H137.89V21.28C137.89 21.7733 138.037 22.14 138.33 22.38C138.624 22.6067 139.11 22.72 139.79 22.72C140.604 22.72 141.377 22.66 142.11 22.54C142.844 22.42 143.484 22.2667 144.03 22.08V25.28C143.564 25.5333 142.877 25.7667 141.97 25.98C141.077 26.18 140.104 26.28 139.05 26.28ZM140.21 18.96V18.72C140.21 18.2667 140.11 17.94 139.91 17.74C139.724 17.54 139.437 17.44 139.05 17.44C138.664 17.44 138.37 17.5467 138.17 17.76C137.984 17.96 137.89 18.28 137.89 18.72V18.96H140.21ZM153.505 14.6C153.772 14.6 154.025 14.6267 154.265 14.68C154.505 14.7333 154.705 14.8 154.865 14.88V18.7C154.319 18.4733 153.732 18.36 153.105 18.36C152.265 18.36 151.619 18.58 151.165 19.02C150.712 19.46 150.485 20.1133 150.485 20.98V22.72H152.285V26H145.005V22.72H145.885V18.16H145.005V14.88H150.485V16.34C150.859 15.78 151.285 15.3533 151.765 15.06C152.245 14.7533 152.825 14.6 153.505 14.6ZM160.372 26.28C158.692 26.28 157.072 26.0133 155.512 25.48V22.52H158.752V22.72C158.752 23.36 159.159 23.68 159.972 23.68C160.692 23.68 161.052 23.4333 161.052 22.94C161.052 22.6733 160.946 22.4733 160.732 22.34C160.532 22.2067 160.172 22.0933 159.652 22L158.652 21.82C156.559 21.4467 155.512 20.26 155.512 18.26C155.512 17.1 155.952 16.2 156.832 15.56C157.712 14.92 158.899 14.6 160.392 14.6C162.059 14.6 163.466 14.88 164.612 15.44V18.22H161.572V18.02C161.572 17.7533 161.479 17.5533 161.292 17.42C161.119 17.2733 160.859 17.2 160.512 17.2C159.846 17.2 159.512 17.4133 159.512 17.84C159.512 18.0667 159.606 18.24 159.792 18.36C159.979 18.48 160.319 18.5933 160.812 18.7L161.952 18.92C163.139 19.1467 163.986 19.5667 164.492 20.18C164.999 20.7933 165.252 21.58 165.252 22.54C165.252 23.7533 164.826 24.68 163.972 25.32C163.132 25.96 161.932 26.28 160.372 26.28Z" fill="black"/>
<path d="M28.9366 12.72H27.9366V21.72H28.9366V25H21.3766V21.72H22.3366V14.72L18.9366 25H15.9766L12.4766 14.82V21.72H13.4366V25H6.87656V21.72H7.87656V12.72H6.87656V9.44H16.0366L18.1166 15.68L20.1166 9.44H28.9366V12.72ZM41.7281 13.88V17.16H40.9681L38.3481 24.1C37.6948 25.8467 36.9481 27.1533 36.1081 28.02C35.2681 28.9 34.1615 29.34 32.7881 29.34C32.2281 29.34 31.6615 29.28 31.0881 29.16C30.5148 29.0533 29.9948 28.9 29.5281 28.7V25.08H32.2881V25.28C32.2881 25.6133 32.4615 25.78 32.8081 25.78C33.1148 25.78 33.3481 25.6333 33.5081 25.34L30.3481 17.16H29.5881V13.88H35.5281V17.16H34.8481L35.8881 20.28L36.8481 17.16H36.1681V13.88H41.7281ZM56.1209 25.28C53.6009 25.28 51.6543 24.64 50.2809 23.36C48.9209 22.08 48.2409 20.0333 48.2409 17.22C48.2409 11.8467 50.8543 9.16 56.0809 9.16C57.3476 9.16 58.5209 9.31333 59.6009 9.62C60.6943 9.92667 61.5076 10.2667 62.0409 10.64V15.64H57.2409V14.2C57.2409 13.6933 57.1276 13.32 56.9009 13.08C56.6743 12.84 56.3343 12.72 55.8809 12.72C55.4276 12.72 55.0876 12.84 54.8609 13.08C54.6343 13.32 54.5209 13.6933 54.5209 14.2V20.24C54.5209 20.7467 54.6343 21.12 54.8609 21.36C55.0876 21.6 55.4276 21.72 55.8809 21.72C56.3343 21.72 56.6743 21.6 56.9009 21.36C57.1276 21.12 57.2409 20.7467 57.2409 20.24V18.62H62.0409V23.8C61.4943 24.1733 60.6809 24.5133 59.6009 24.82C58.5343 25.1267 57.3743 25.28 56.1209 25.28ZM76.0345 21.72V25H69.7145V21.72H70.5545V18.44C70.5545 18 70.4612 17.68 70.2745 17.48C70.0879 17.2667 69.8079 17.16 69.4345 17.16C68.6345 17.16 68.2345 17.5867 68.2345 18.44V21.72H69.0745V25H62.7545V21.72H63.6345V12.72H62.7545V9.44H68.2345V15.44C68.7279 14.8267 69.2612 14.3667 69.8345 14.06C70.4079 13.7533 71.0745 13.6 71.8345 13.6C72.9412 13.6 73.7679 13.9467 74.3145 14.64C74.8745 15.3333 75.1545 16.2867 75.1545 17.5V21.72H76.0345ZM88.3403 21.72V25H83.0603V23.64C82.767 24.0667 82.3536 24.4467 81.8203 24.78C81.3003 25.1133 80.6603 25.28 79.9003 25.28C78.9003 25.28 78.1136 25.0133 77.5403 24.48C76.967 23.9467 76.6803 23.1933 76.6803 22.22C76.6803 19.7 78.8203 18.4067 83.1003 18.34C83.0603 17.8867 82.887 17.58 82.5803 17.42C82.2736 17.2467 81.7536 17.16 81.0203 17.16C80.4203 17.16 79.7736 17.2267 79.0803 17.36C78.4003 17.48 77.7736 17.6467 77.2003 17.86V14.18C77.907 14.0067 78.6736 13.8667 79.5003 13.76C80.327 13.6533 81.1336 13.6 81.9203 13.6C83.907 13.6 85.327 13.96 86.1803 14.68C87.0336 15.4 87.4603 16.5133 87.4603 18.02V21.72H88.3403ZM83.0603 20.32C82.4603 20.32 81.9936 20.4 81.6603 20.56C81.3403 20.72 81.1803 20.9867 81.1803 21.36C81.1803 21.5867 81.247 21.7733 81.3803 21.92C81.527 22.0533 81.727 22.12 81.9803 22.12C82.327 22.12 82.5936 21.9733 82.7803 21.68C82.967 21.3867 83.0603 20.9733 83.0603 20.44V20.32ZM97.525 13.6C97.7917 13.6 98.045 13.6267 98.285 13.68C98.525 13.7333 98.725 13.8 98.885 13.88V17.7C98.3383 17.4733 97.7517 17.36 97.125 17.36C96.285 17.36 95.6383 17.58 95.185 18.02C94.7317 18.46 94.505 19.1133 94.505 19.98V21.72H96.305V25H89.025V21.72H89.905V17.16H89.025V13.88H94.505V15.34C94.8783 14.78 95.305 14.3533 95.785 14.06C96.265 13.7533 96.845 13.6 97.525 13.6ZM111.192 21.72V25H105.912V23.64C105.619 24.0667 105.205 24.4467 104.672 24.78C104.152 25.1133 103.512 25.28 102.752 25.28C101.752 25.28 100.965 25.0133 100.392 24.48C99.8185 23.9467 99.5319 23.1933 99.5319 22.22C99.5319 19.7 101.672 18.4067 105.952 18.34C105.912 17.8867 105.739 17.58 105.432 17.42C105.125 17.2467 104.605 17.16 103.872 17.16C103.272 17.16 102.625 17.2267 101.932 17.36C101.252 17.48 100.625 17.6467 100.052 17.86V14.18C100.759 14.0067 101.525 13.8667 102.352 13.76C103.179 13.6533 103.985 13.6 104.772 13.6C106.759 13.6 108.179 13.96 109.032 14.68C109.885 15.4 110.312 16.5133 110.312 18.02V21.72H111.192ZM105.912 20.32C105.312 20.32 104.845 20.4 104.512 20.56C104.192 20.72 104.032 20.9867 104.032 21.36C104.032 21.5867 104.099 21.7733 104.232 21.92C104.379 22.0533 104.579 22.12 104.832 22.12C105.179 22.12 105.445 21.9733 105.632 21.68C105.819 21.3867 105.912 20.9733 105.912 20.44V20.32ZM117.817 25.28C115.91 25.28 114.423 24.7867 113.357 23.8C112.29 22.8 111.757 21.3467 111.757 19.44C111.757 17.5333 112.29 16.0867 113.357 15.1C114.423 14.1 115.903 13.6 117.797 13.6C118.717 13.6 119.597 13.7267 120.437 13.98C121.277 14.2333 121.93 14.52 122.397 14.84V18.8H118.957V18.44C118.957 18 118.863 17.68 118.677 17.48C118.49 17.2667 118.197 17.16 117.797 17.16C117.023 17.16 116.637 17.5867 116.637 18.44V20.16C116.637 21.2 117.23 21.72 118.417 21.72C119.523 21.72 120.81 21.6 122.277 21.36V24.5C121.823 24.7 121.183 24.88 120.357 25.04C119.543 25.2 118.697 25.28 117.817 25.28ZM128.007 25.28C126.594 25.28 125.527 24.94 124.807 24.26C124.1 23.5667 123.747 22.4067 123.747 20.78V17.16H122.867V13.88C123.374 13.88 123.754 13.7533 124.007 13.5C124.26 13.2333 124.387 12.8733 124.387 12.42V11.52H128.627V13.88H131.327V17.16H128.627V20.44C128.627 20.88 128.72 21.2067 128.907 21.42C129.107 21.62 129.4 21.72 129.787 21.72C130.294 21.72 130.847 21.66 131.447 21.54V24.68C131.074 24.8267 130.567 24.96 129.927 25.08C129.3 25.2133 128.66 25.28 128.007 25.28ZM138.05 25.28C136.157 25.28 134.677 24.7867 133.61 23.8C132.544 22.8 132.01 21.3467 132.01 19.44C132.01 17.5333 132.544 16.0867 133.61 15.1C134.677 14.1 136.157 13.6 138.05 13.6C139.93 13.6 141.284 14.0933 142.11 15.08C142.95 16.0533 143.37 17.2667 143.37 18.72V20.16H136.89V20.28C136.89 20.7733 137.037 21.14 137.33 21.38C137.624 21.6067 138.11 21.72 138.79 21.72C139.604 21.72 140.377 21.66 141.11 21.54C141.844 21.42 142.484 21.2667 143.03 21.08V24.28C142.564 24.5333 141.877 24.7667 140.97 24.98C140.077 25.18 139.104 25.28 138.05 25.28ZM139.21 17.96V17.72C139.21 17.2667 139.11 16.94 138.91 16.74C138.724 16.54 138.437 16.44 138.05 16.44C137.664 16.44 137.37 16.5467 137.17 16.76C136.984 16.96 136.89 17.28 136.89 17.72V17.96H139.21ZM152.505 13.6C152.772 13.6 153.025 13.6267 153.265 13.68C153.505 13.7333 153.705 13.8 153.865 13.88V17.7C153.319 17.4733 152.732 17.36 152.105 17.36C151.265 17.36 150.619 17.58 150.165 18.02C149.712 18.46 149.485 19.1133 149.485 19.98V21.72H151.285V25H144.005V21.72H144.885V17.16H144.005V13.88H149.485V15.34C149.859 14.78 150.285 14.3533 150.765 14.06C151.245 13.7533 151.825 13.6 152.505 13.6ZM159.372 25.28C157.692 25.28 156.072 25.0133 154.512 24.48V21.52H157.752V21.72C157.752 22.36 158.159 22.68 158.972 22.68C159.692 22.68 160.052 22.4333 160.052 21.94C160.052 21.6733 159.946 21.4733 159.732 21.34C159.532 21.2067 159.172 21.0933 158.652 21L157.652 20.82C155.559 20.4467 154.512 19.26 154.512 17.26C154.512 16.1 154.952 15.2 155.832 14.56C156.712 13.92 157.899 13.6 159.392 13.6C161.059 13.6 162.466 13.88 163.612 14.44V17.22H160.572V17.02C160.572 16.7533 160.479 16.5533 160.292 16.42C160.119 16.2733 159.859 16.2 159.512 16.2C158.846 16.2 158.512 16.4133 158.512 16.84C158.512 17.0667 158.606 17.24 158.792 17.36C158.979 17.48 159.319 17.5933 159.812 17.7L160.952 17.92C162.139 18.1467 162.986 18.5667 163.492 19.18C163.999 19.7933 164.252 20.58 164.252 21.54C164.252 22.7533 163.826 23.68 162.972 24.32C162.132 24.96 160.932 25.28 159.372 25.28Z" fill="#FADCD5"/>
</svg>
