<svg width="254" height="45" viewBox="0 0 254 45" fill="none" xmlns="http://www.w3.org/2000/svg">
<path d="M17.617 32.28C15.097 32.28 13.1504 31.64 11.777 30.36C10.417 29.08 9.73703 27.0333 9.73703 24.22C9.73703 18.8467 12.3504 16.16 17.577 16.16C18.8437 16.16 20.017 16.3133 21.097 16.62C22.1904 16.9267 23.0037 17.2667 23.537 17.64V22.64H18.737V21.2C18.737 20.6933 18.6237 20.32 18.397 20.08C18.1704 19.84 17.8304 19.72 17.377 19.72C16.9237 19.72 16.5837 19.84 16.357 20.08C16.1304 20.32 16.017 20.6933 16.017 21.2V27.24C16.017 27.7467 16.1304 28.12 16.357 28.36C16.5837 28.6 16.9237 28.72 17.377 28.72C17.8304 28.72 18.1704 28.6 18.397 28.36C18.6237 28.12 18.737 27.7467 18.737 27.24V25.62H23.537V30.8C22.9904 31.1733 22.177 31.5133 21.097 31.82C20.0304 32.1267 18.8704 32.28 17.617 32.28ZM32.7906 20.6C33.0573 20.6 33.3106 20.6267 33.5506 20.68C33.7906 20.7333 33.9906 20.8 34.1506 20.88V24.7C33.604 24.4733 33.0173 24.36 32.3906 24.36C31.5506 24.36 30.904 24.58 30.4506 25.02C29.9973 25.46 29.7706 26.1133 29.7706 26.98V28.72H31.5706V32H24.2906V28.72H25.1706V24.16H24.2906V20.88H29.7706V22.34C30.144 21.78 30.5706 21.3533 31.0506 21.06C31.5306 20.7533 32.1106 20.6 32.7906 20.6ZM40.7575 32.28C38.8642 32.28 37.3842 31.7867 36.3175 30.8C35.2508 29.8 34.7175 28.3467 34.7175 26.44C34.7175 24.5333 35.2508 23.0867 36.3175 22.1C37.3842 21.1 38.8642 20.6 40.7575 20.6C42.6375 20.6 43.9908 21.0933 44.8175 22.08C45.6575 23.0533 46.0775 24.2667 46.0775 25.72V27.16H39.5975V27.28C39.5975 27.7733 39.7442 28.14 40.0375 28.38C40.3308 28.6067 40.8175 28.72 41.4975 28.72C42.3108 28.72 43.0842 28.66 43.8175 28.54C44.5508 28.42 45.1908 28.2667 45.7375 28.08V31.28C45.2708 31.5333 44.5842 31.7667 43.6775 31.98C42.7842 32.18 41.8108 32.28 40.7575 32.28ZM41.9175 24.96V24.72C41.9175 24.2667 41.8175 23.94 41.6175 23.74C41.4308 23.54 41.1442 23.44 40.7575 23.44C40.3708 23.44 40.0775 23.5467 39.8775 23.76C39.6908 23.96 39.5975 24.28 39.5975 24.72V24.96H41.9175ZM58.3325 28.72V32H53.0525V30.64C52.7592 31.0667 52.3458 31.4467 51.8125 31.78C51.2925 32.1133 50.6525 32.28 49.8925 32.28C48.8925 32.28 48.1058 32.0133 47.5325 31.48C46.9592 30.9467 46.6725 30.1933 46.6725 29.22C46.6725 26.7 48.8125 25.4067 53.0925 25.34C53.0525 24.8867 52.8792 24.58 52.5725 24.42C52.2658 24.2467 51.7458 24.16 51.0125 24.16C50.4125 24.16 49.7658 24.2267 49.0725 24.36C48.3925 24.48 47.7658 24.6467 47.1925 24.86V21.18C47.8992 21.0067 48.6658 20.8667 49.4925 20.76C50.3192 20.6533 51.1258 20.6 51.9125 20.6C53.8992 20.6 55.3192 20.96 56.1725 21.68C57.0258 22.4 57.4525 23.5133 57.4525 25.02V28.72H58.3325ZM53.0525 27.32C52.4525 27.32 51.9858 27.4 51.6525 27.56C51.3325 27.72 51.1725 27.9867 51.1725 28.36C51.1725 28.5867 51.2392 28.7733 51.3725 28.92C51.5192 29.0533 51.7192 29.12 51.9725 29.12C52.3192 29.12 52.5858 28.9733 52.7725 28.68C52.9592 28.3867 53.0525 27.9733 53.0525 27.44V27.32ZM63.9172 32.28C62.5039 32.28 61.4372 31.94 60.7172 31.26C60.0105 30.5667 59.6572 29.4067 59.6572 27.78V24.16H58.7772V20.88C59.2839 20.88 59.6639 20.7533 59.9172 20.5C60.1705 20.2333 60.2972 19.8733 60.2972 19.42V18.52H64.5372V20.88H67.2372V24.16H64.5372V27.44C64.5372 27.88 64.6305 28.2067 64.8172 28.42C65.0172 28.62 65.3105 28.72 65.6972 28.72C66.2039 28.72 66.7572 28.66 67.3572 28.54V31.68C66.9839 31.8267 66.4772 31.96 65.8372 32.08C65.2105 32.2133 64.5705 32.28 63.9172 32.28ZM73.9606 32.28C72.0673 32.28 70.5873 31.7867 69.5206 30.8C68.454 29.8 67.9206 28.3467 67.9206 26.44C67.9206 24.5333 68.454 23.0867 69.5206 22.1C70.5873 21.1 72.0673 20.6 73.9606 20.6C75.8406 20.6 77.194 21.0933 78.0206 22.08C78.8606 23.0533 79.2806 24.2667 79.2806 25.72V27.16H72.8006V27.28C72.8006 27.7733 72.9473 28.14 73.2406 28.38C73.534 28.6067 74.0206 28.72 74.7006 28.72C75.514 28.72 76.2873 28.66 77.0206 28.54C77.754 28.42 78.394 28.2667 78.9406 28.08V31.28C78.474 31.5333 77.7873 31.7667 76.8806 31.98C75.9873 32.18 75.014 32.28 73.9606 32.28ZM75.1206 24.96V24.72C75.1206 24.2667 75.0206 23.94 74.8206 23.74C74.634 23.54 74.3473 23.44 73.9606 23.44C73.574 23.44 73.2806 23.5467 73.0806 23.76C72.894 23.96 72.8006 24.28 72.8006 24.72V24.96H75.1206ZM97.4317 16.44H103.992V19.72H102.992V32H97.3717L91.5117 22.98V28.72H92.4717V32H85.9117V28.72H86.9117V19.72H85.9117V16.44H93.1317L98.3917 24.46V19.72H97.4317V16.44ZM110.679 32.28C108.786 32.28 107.306 31.7867 106.239 30.8C105.173 29.8 104.639 28.3467 104.639 26.44C104.639 24.5333 105.173 23.0867 106.239 22.1C107.306 21.1 108.786 20.6 110.679 20.6C112.559 20.6 113.913 21.0933 114.739 22.08C115.579 23.0533 115.999 24.2667 115.999 25.72V27.16H109.519V27.28C109.519 27.7733 109.666 28.14 109.959 28.38C110.253 28.6067 110.739 28.72 111.419 28.72C112.233 28.72 113.006 28.66 113.739 28.54C114.473 28.42 115.113 28.2667 115.659 28.08V31.28C115.193 31.5333 114.506 31.7667 113.599 31.98C112.706 32.18 111.733 32.28 110.679 32.28ZM111.839 24.96V24.72C111.839 24.2667 111.739 23.94 111.539 23.74C111.353 23.54 111.066 23.44 110.679 23.44C110.293 23.44 109.999 23.5467 109.799 23.76C109.613 23.96 109.519 24.28 109.519 24.72V24.96H111.839ZM119.914 32L117.274 24.16H116.434V20.88H122.614V24.16H121.774L122.494 27.28H122.694L124.154 20.88H127.834L129.294 27.28H129.494L130.194 24.16H129.354V20.88H135.154V24.16H134.314L131.774 32H126.914L125.814 26.44H125.614L124.514 32H119.914ZM149.512 32.28C146.992 32.28 145.045 31.64 143.672 30.36C142.312 29.08 141.632 27.0333 141.632 24.22C141.632 18.8467 144.245 16.16 149.472 16.16C150.738 16.16 151.912 16.3133 152.992 16.62C154.085 16.9267 154.898 17.2667 155.432 17.64V22.64H150.632V21.2C150.632 20.6933 150.518 20.32 150.292 20.08C150.065 19.84 149.725 19.72 149.272 19.72C148.818 19.72 148.478 19.84 148.252 20.08C148.025 20.32 147.912 20.6933 147.912 21.2V27.24C147.912 27.7467 148.025 28.12 148.252 28.36C148.478 28.6 148.818 28.72 149.272 28.72C149.725 28.72 150.065 28.6 150.292 28.36C150.518 28.12 150.632 27.7467 150.632 27.24V25.62H155.432V30.8C154.885 31.1733 154.072 31.5133 152.992 31.82C151.925 32.1267 150.765 32.28 149.512 32.28ZM169.425 28.72V32H163.105V28.72H163.945V25.44C163.945 25 163.852 24.68 163.665 24.48C163.478 24.2667 163.198 24.16 162.825 24.16C162.025 24.16 161.625 24.5867 161.625 25.44V28.72H162.465V32H156.145V28.72H157.025V19.72H156.145V16.44H161.625V22.44C162.118 21.8267 162.652 21.3667 163.225 21.06C163.798 20.7533 164.465 20.6 165.225 20.6C166.332 20.6 167.158 20.9467 167.705 21.64C168.265 22.3333 168.545 23.2867 168.545 24.5V28.72H169.425ZM181.731 28.72V32H176.451V30.64C176.158 31.0667 175.744 31.4467 175.211 31.78C174.691 32.1133 174.051 32.28 173.291 32.28C172.291 32.28 171.504 32.0133 170.931 31.48C170.358 30.9467 170.071 30.1933 170.071 29.22C170.071 26.7 172.211 25.4067 176.491 25.34C176.451 24.8867 176.278 24.58 175.971 24.42C175.664 24.2467 175.144 24.16 174.411 24.16C173.811 24.16 173.164 24.2267 172.471 24.36C171.791 24.48 171.164 24.6467 170.591 24.86V21.18C171.298 21.0067 172.064 20.8667 172.891 20.76C173.718 20.6533 174.524 20.6 175.311 20.6C177.298 20.6 178.718 20.96 179.571 21.68C180.424 22.4 180.851 23.5133 180.851 25.02V28.72H181.731ZM176.451 27.32C175.851 27.32 175.384 27.4 175.051 27.56C174.731 27.72 174.571 27.9867 174.571 28.36C174.571 28.5867 174.638 28.7733 174.771 28.92C174.918 29.0533 175.118 29.12 175.371 29.12C175.718 29.12 175.984 28.9733 176.171 28.68C176.358 28.3867 176.451 27.9733 176.451 27.44V27.32ZM190.916 20.6C191.182 20.6 191.436 20.6267 191.676 20.68C191.916 20.7333 192.116 20.8 192.276 20.88V24.7C191.729 24.4733 191.142 24.36 190.516 24.36C189.676 24.36 189.029 24.58 188.576 25.02C188.122 25.46 187.896 26.1133 187.896 26.98V28.72H189.696V32H182.416V28.72H183.296V24.16H182.416V20.88H187.896V22.34C188.269 21.78 188.696 21.3533 189.176 21.06C189.656 20.7533 190.236 20.6 190.916 20.6ZM204.583 28.72V32H199.303V30.64C199.009 31.0667 198.596 31.4467 198.063 31.78C197.543 32.1133 196.903 32.28 196.143 32.28C195.143 32.28 194.356 32.0133 193.783 31.48C193.209 30.9467 192.923 30.1933 192.923 29.22C192.923 26.7 195.063 25.4067 199.343 25.34C199.303 24.8867 199.129 24.58 198.823 24.42C198.516 24.2467 197.996 24.16 197.263 24.16C196.663 24.16 196.016 24.2267 195.323 24.36C194.643 24.48 194.016 24.6467 193.443 24.86V21.18C194.149 21.0067 194.916 20.8667 195.743 20.76C196.569 20.6533 197.376 20.6 198.163 20.6C200.149 20.6 201.569 20.96 202.423 21.68C203.276 22.4 203.703 23.5133 203.703 25.02V28.72H204.583ZM199.303 27.32C198.703 27.32 198.236 27.4 197.903 27.56C197.583 27.72 197.423 27.9867 197.423 28.36C197.423 28.5867 197.489 28.7733 197.623 28.92C197.769 29.0533 197.969 29.12 198.223 29.12C198.569 29.12 198.836 28.9733 199.023 28.68C199.209 28.3867 199.303 27.9733 199.303 27.44V27.32ZM211.207 32.28C209.301 32.28 207.814 31.7867 206.747 30.8C205.681 29.8 205.147 28.3467 205.147 26.44C205.147 24.5333 205.681 23.0867 206.747 22.1C207.814 21.1 209.294 20.6 211.187 20.6C212.107 20.6 212.987 20.7267 213.827 20.98C214.667 21.2333 215.321 21.52 215.787 21.84V25.8H212.347V25.44C212.347 25 212.254 24.68 212.067 24.48C211.881 24.2667 211.587 24.16 211.187 24.16C210.414 24.16 210.027 24.5867 210.027 25.44V27.16C210.027 28.2 210.621 28.72 211.807 28.72C212.914 28.72 214.201 28.6 215.667 28.36V31.5C215.214 31.7 214.574 31.88 213.747 32.04C212.934 32.2 212.087 32.28 211.207 32.28ZM221.398 32.28C219.984 32.28 218.918 31.94 218.198 31.26C217.491 30.5667 217.138 29.4067 217.138 27.78V24.16H216.258V20.88C216.764 20.88 217.144 20.7533 217.398 20.5C217.651 20.2333 217.778 19.8733 217.778 19.42V18.52H222.018V20.88H224.718V24.16H222.018V27.44C222.018 27.88 222.111 28.2067 222.298 28.42C222.498 28.62 222.791 28.72 223.178 28.72C223.684 28.72 224.238 28.66 224.838 28.54V31.68C224.464 31.8267 223.958 31.96 223.318 32.08C222.691 32.2133 222.051 32.28 221.398 32.28ZM231.441 32.28C229.548 32.28 228.068 31.7867 227.001 30.8C225.934 29.8 225.401 28.3467 225.401 26.44C225.401 24.5333 225.934 23.0867 227.001 22.1C228.068 21.1 229.548 20.6 231.441 20.6C233.321 20.6 234.674 21.0933 235.501 22.08C236.341 23.0533 236.761 24.2667 236.761 25.72V27.16H230.281V27.28C230.281 27.7733 230.428 28.14 230.721 28.38C231.014 28.6067 231.501 28.72 232.181 28.72C232.994 28.72 233.768 28.66 234.501 28.54C235.234 28.42 235.874 28.2667 236.421 28.08V31.28C235.954 31.5333 235.268 31.7667 234.361 31.98C233.468 32.18 232.494 32.28 231.441 32.28ZM232.601 24.96V24.72C232.601 24.2667 232.501 23.94 232.301 23.74C232.114 23.54 231.828 23.44 231.441 23.44C231.054 23.44 230.761 23.5467 230.561 23.76C230.374 23.96 230.281 24.28 230.281 24.72V24.96H232.601ZM245.896 20.6C246.163 20.6 246.416 20.6267 246.656 20.68C246.896 20.7333 247.096 20.8 247.256 20.88V24.7C246.709 24.4733 246.123 24.36 245.496 24.36C244.656 24.36 244.009 24.58 243.556 25.02C243.103 25.46 242.876 26.1133 242.876 26.98V28.72H244.676V32H237.396V28.72H238.276V24.16H237.396V20.88H242.876V22.34C243.249 21.78 243.676 21.3533 244.156 21.06C244.636 20.7533 245.216 20.6 245.896 20.6Z" fill="black"/>
<path d="M16.617 30.28C14.097 30.28 12.1504 29.64 10.777 28.36C9.41703 27.08 8.73703 25.0333 8.73703 22.22C8.73703 16.8467 11.3504 14.16 16.577 14.16C17.8437 14.16 19.017 14.3133 20.097 14.62C21.1904 14.9267 22.0037 15.2667 22.537 15.64V20.64H17.737V19.2C17.737 18.6933 17.6237 18.32 17.397 18.08C17.1704 17.84 16.8304 17.72 16.377 17.72C15.9237 17.72 15.5837 17.84 15.357 18.08C15.1304 18.32 15.017 18.6933 15.017 19.2V25.24C15.017 25.7467 15.1304 26.12 15.357 26.36C15.5837 26.6 15.9237 26.72 16.377 26.72C16.8304 26.72 17.1704 26.6 17.397 26.36C17.6237 26.12 17.737 25.7467 17.737 25.24V23.62H22.537V28.8C21.9904 29.1733 21.177 29.5133 20.097 29.82C19.0304 30.1267 17.8704 30.28 16.617 30.28ZM31.7906 18.6C32.0573 18.6 32.3106 18.6267 32.5506 18.68C32.7906 18.7333 32.9906 18.8 33.1506 18.88V22.7C32.604 22.4733 32.0173 22.36 31.3906 22.36C30.5506 22.36 29.904 22.58 29.4506 23.02C28.9973 23.46 28.7706 24.1133 28.7706 24.98V26.72H30.5706V30H23.2906V26.72H24.1706V22.16H23.2906V18.88H28.7706V20.34C29.144 19.78 29.5706 19.3533 30.0506 19.06C30.5306 18.7533 31.1106 18.6 31.7906 18.6ZM39.7575 30.28C37.8642 30.28 36.3842 29.7867 35.3175 28.8C34.2508 27.8 33.7175 26.3467 33.7175 24.44C33.7175 22.5333 34.2508 21.0867 35.3175 20.1C36.3842 19.1 37.8642 18.6 39.7575 18.6C41.6375 18.6 42.9908 19.0933 43.8175 20.08C44.6575 21.0533 45.0775 22.2667 45.0775 23.72V25.16H38.5975V25.28C38.5975 25.7733 38.7442 26.14 39.0375 26.38C39.3308 26.6067 39.8175 26.72 40.4975 26.72C41.3108 26.72 42.0842 26.66 42.8175 26.54C43.5508 26.42 44.1908 26.2667 44.7375 26.08V29.28C44.2708 29.5333 43.5842 29.7667 42.6775 29.98C41.7842 30.18 40.8108 30.28 39.7575 30.28ZM40.9175 22.96V22.72C40.9175 22.2667 40.8175 21.94 40.6175 21.74C40.4308 21.54 40.1442 21.44 39.7575 21.44C39.3708 21.44 39.0775 21.5467 38.8775 21.76C38.6908 21.96 38.5975 22.28 38.5975 22.72V22.96H40.9175ZM57.3325 26.72V30H52.0525V28.64C51.7592 29.0667 51.3458 29.4467 50.8125 29.78C50.2925 30.1133 49.6525 30.28 48.8925 30.28C47.8925 30.28 47.1058 30.0133 46.5325 29.48C45.9592 28.9467 45.6725 28.1933 45.6725 27.22C45.6725 24.7 47.8125 23.4067 52.0925 23.34C52.0525 22.8867 51.8792 22.58 51.5725 22.42C51.2658 22.2467 50.7458 22.16 50.0125 22.16C49.4125 22.16 48.7658 22.2267 48.0725 22.36C47.3925 22.48 46.7658 22.6467 46.1925 22.86V19.18C46.8992 19.0067 47.6658 18.8667 48.4925 18.76C49.3192 18.6533 50.1258 18.6 50.9125 18.6C52.8992 18.6 54.3192 18.96 55.1725 19.68C56.0258 20.4 56.4525 21.5133 56.4525 23.02V26.72H57.3325ZM52.0525 25.32C51.4525 25.32 50.9858 25.4 50.6525 25.56C50.3325 25.72 50.1725 25.9867 50.1725 26.36C50.1725 26.5867 50.2392 26.7733 50.3725 26.92C50.5192 27.0533 50.7192 27.12 50.9725 27.12C51.3192 27.12 51.5858 26.9733 51.7725 26.68C51.9592 26.3867 52.0525 25.9733 52.0525 25.44V25.32ZM62.9172 30.28C61.5039 30.28 60.4372 29.94 59.7172 29.26C59.0105 28.5667 58.6572 27.4067 58.6572 25.78V22.16H57.7772V18.88C58.2839 18.88 58.6639 18.7533 58.9172 18.5C59.1705 18.2333 59.2972 17.8733 59.2972 17.42V16.52H63.5372V18.88H66.2372V22.16H63.5372V25.44C63.5372 25.88 63.6305 26.2067 63.8172 26.42C64.0172 26.62 64.3105 26.72 64.6972 26.72C65.2039 26.72 65.7572 26.66 66.3572 26.54V29.68C65.9839 29.8267 65.4772 29.96 64.8372 30.08C64.2105 30.2133 63.5705 30.28 62.9172 30.28ZM72.9606 30.28C71.0673 30.28 69.5873 29.7867 68.5206 28.8C67.454 27.8 66.9206 26.3467 66.9206 24.44C66.9206 22.5333 67.454 21.0867 68.5206 20.1C69.5873 19.1 71.0673 18.6 72.9606 18.6C74.8406 18.6 76.194 19.0933 77.0206 20.08C77.8606 21.0533 78.2806 22.2667 78.2806 23.72V25.16H71.8006V25.28C71.8006 25.7733 71.9473 26.14 72.2406 26.38C72.534 26.6067 73.0206 26.72 73.7006 26.72C74.514 26.72 75.2873 26.66 76.0206 26.54C76.754 26.42 77.394 26.2667 77.9406 26.08V29.28C77.474 29.5333 76.7873 29.7667 75.8806 29.98C74.9873 30.18 74.014 30.28 72.9606 30.28ZM74.1206 22.96V22.72C74.1206 22.2667 74.0206 21.94 73.8206 21.74C73.634 21.54 73.3473 21.44 72.9606 21.44C72.574 21.44 72.2806 21.5467 72.0806 21.76C71.894 21.96 71.8006 22.28 71.8006 22.72V22.96H74.1206ZM96.4317 14.44H102.992V17.72H101.992V30H96.3717L90.5117 20.98V26.72H91.4717V30H84.9117V26.72H85.9117V17.72H84.9117V14.44H92.1317L97.3917 22.46V17.72H96.4317V14.44ZM109.679 30.28C107.786 30.28 106.306 29.7867 105.239 28.8C104.173 27.8 103.639 26.3467 103.639 24.44C103.639 22.5333 104.173 21.0867 105.239 20.1C106.306 19.1 107.786 18.6 109.679 18.6C111.559 18.6 112.913 19.0933 113.739 20.08C114.579 21.0533 114.999 22.2667 114.999 23.72V25.16H108.519V25.28C108.519 25.7733 108.666 26.14 108.959 26.38C109.253 26.6067 109.739 26.72 110.419 26.72C111.233 26.72 112.006 26.66 112.739 26.54C113.473 26.42 114.113 26.2667 114.659 26.08V29.28C114.193 29.5333 113.506 29.7667 112.599 29.98C111.706 30.18 110.733 30.28 109.679 30.28ZM110.839 22.96V22.72C110.839 22.2667 110.739 21.94 110.539 21.74C110.353 21.54 110.066 21.44 109.679 21.44C109.293 21.44 108.999 21.5467 108.799 21.76C108.613 21.96 108.519 22.28 108.519 22.72V22.96H110.839ZM118.914 30L116.274 22.16H115.434V18.88H121.614V22.16H120.774L121.494 25.28H121.694L123.154 18.88H126.834L128.294 25.28H128.494L129.194 22.16H128.354V18.88H134.154V22.16H133.314L130.774 30H125.914L124.814 24.44H124.614L123.514 30H118.914ZM148.512 30.28C145.992 30.28 144.045 29.64 142.672 28.36C141.312 27.08 140.632 25.0333 140.632 22.22C140.632 16.8467 143.245 14.16 148.472 14.16C149.738 14.16 150.912 14.3133 151.992 14.62C153.085 14.9267 153.898 15.2667 154.432 15.64V20.64H149.632V19.2C149.632 18.6933 149.518 18.32 149.292 18.08C149.065 17.84 148.725 17.72 148.272 17.72C147.818 17.72 147.478 17.84 147.252 18.08C147.025 18.32 146.912 18.6933 146.912 19.2V25.24C146.912 25.7467 147.025 26.12 147.252 26.36C147.478 26.6 147.818 26.72 148.272 26.72C148.725 26.72 149.065 26.6 149.292 26.36C149.518 26.12 149.632 25.7467 149.632 25.24V23.62H154.432V28.8C153.885 29.1733 153.072 29.5133 151.992 29.82C150.925 30.1267 149.765 30.28 148.512 30.28ZM168.425 26.72V30H162.105V26.72H162.945V23.44C162.945 23 162.852 22.68 162.665 22.48C162.478 22.2667 162.198 22.16 161.825 22.16C161.025 22.16 160.625 22.5867 160.625 23.44V26.72H161.465V30H155.145V26.72H156.025V17.72H155.145V14.44H160.625V20.44C161.118 19.8267 161.652 19.3667 162.225 19.06C162.798 18.7533 163.465 18.6 164.225 18.6C165.332 18.6 166.158 18.9467 166.705 19.64C167.265 20.3333 167.545 21.2867 167.545 22.5V26.72H168.425ZM180.731 26.72V30H175.451V28.64C175.158 29.0667 174.744 29.4467 174.211 29.78C173.691 30.1133 173.051 30.28 172.291 30.28C171.291 30.28 170.504 30.0133 169.931 29.48C169.358 28.9467 169.071 28.1933 169.071 27.22C169.071 24.7 171.211 23.4067 175.491 23.34C175.451 22.8867 175.278 22.58 174.971 22.42C174.664 22.2467 174.144 22.16 173.411 22.16C172.811 22.16 172.164 22.2267 171.471 22.36C170.791 22.48 170.164 22.6467 169.591 22.86V19.18C170.298 19.0067 171.064 18.8667 171.891 18.76C172.718 18.6533 173.524 18.6 174.311 18.6C176.298 18.6 177.718 18.96 178.571 19.68C179.424 20.4 179.851 21.5133 179.851 23.02V26.72H180.731ZM175.451 25.32C174.851 25.32 174.384 25.4 174.051 25.56C173.731 25.72 173.571 25.9867 173.571 26.36C173.571 26.5867 173.638 26.7733 173.771 26.92C173.918 27.0533 174.118 27.12 174.371 27.12C174.718 27.12 174.984 26.9733 175.171 26.68C175.358 26.3867 175.451 25.9733 175.451 25.44V25.32ZM189.916 18.6C190.182 18.6 190.436 18.6267 190.676 18.68C190.916 18.7333 191.116 18.8 191.276 18.88V22.7C190.729 22.4733 190.142 22.36 189.516 22.36C188.676 22.36 188.029 22.58 187.576 23.02C187.122 23.46 186.896 24.1133 186.896 24.98V26.72H188.696V30H181.416V26.72H182.296V22.16H181.416V18.88H186.896V20.34C187.269 19.78 187.696 19.3533 188.176 19.06C188.656 18.7533 189.236 18.6 189.916 18.6ZM203.583 26.72V30H198.303V28.64C198.009 29.0667 197.596 29.4467 197.063 29.78C196.543 30.1133 195.903 30.28 195.143 30.28C194.143 30.28 193.356 30.0133 192.783 29.48C192.209 28.9467 191.923 28.1933 191.923 27.22C191.923 24.7 194.063 23.4067 198.343 23.34C198.303 22.8867 198.129 22.58 197.823 22.42C197.516 22.2467 196.996 22.16 196.263 22.16C195.663 22.16 195.016 22.2267 194.323 22.36C193.643 22.48 193.016 22.6467 192.443 22.86V19.18C193.149 19.0067 193.916 18.8667 194.743 18.76C195.569 18.6533 196.376 18.6 197.163 18.6C199.149 18.6 200.569 18.96 201.423 19.68C202.276 20.4 202.703 21.5133 202.703 23.02V26.72H203.583ZM198.303 25.32C197.703 25.32 197.236 25.4 196.903 25.56C196.583 25.72 196.423 25.9867 196.423 26.36C196.423 26.5867 196.489 26.7733 196.623 26.92C196.769 27.0533 196.969 27.12 197.223 27.12C197.569 27.12 197.836 26.9733 198.023 26.68C198.209 26.3867 198.303 25.9733 198.303 25.44V25.32ZM210.207 30.28C208.301 30.28 206.814 29.7867 205.747 28.8C204.681 27.8 204.147 26.3467 204.147 24.44C204.147 22.5333 204.681 21.0867 205.747 20.1C206.814 19.1 208.294 18.6 210.187 18.6C211.107 18.6 211.987 18.7267 212.827 18.98C213.667 19.2333 214.321 19.52 214.787 19.84V23.8H211.347V23.44C211.347 23 211.254 22.68 211.067 22.48C210.881 22.2667 210.587 22.16 210.187 22.16C209.414 22.16 209.027 22.5867 209.027 23.44V25.16C209.027 26.2 209.621 26.72 210.807 26.72C211.914 26.72 213.201 26.6 214.667 26.36V29.5C214.214 29.7 213.574 29.88 212.747 30.04C211.934 30.2 211.087 30.28 210.207 30.28ZM220.398 30.28C218.984 30.28 217.918 29.94 217.198 29.26C216.491 28.5667 216.138 27.4067 216.138 25.78V22.16H215.258V18.88C215.764 18.88 216.144 18.7533 216.398 18.5C216.651 18.2333 216.778 17.8733 216.778 17.42V16.52H221.018V18.88H223.718V22.16H221.018V25.44C221.018 25.88 221.111 26.2067 221.298 26.42C221.498 26.62 221.791 26.72 222.178 26.72C222.684 26.72 223.238 26.66 223.838 26.54V29.68C223.464 29.8267 222.958 29.96 222.318 30.08C221.691 30.2133 221.051 30.28 220.398 30.28ZM230.441 30.28C228.548 30.28 227.068 29.7867 226.001 28.8C224.934 27.8 224.401 26.3467 224.401 24.44C224.401 22.5333 224.934 21.0867 226.001 20.1C227.068 19.1 228.548 18.6 230.441 18.6C232.321 18.6 233.674 19.0933 234.501 20.08C235.341 21.0533 235.761 22.2667 235.761 23.72V25.16H229.281V25.28C229.281 25.7733 229.428 26.14 229.721 26.38C230.014 26.6067 230.501 26.72 231.181 26.72C231.994 26.72 232.768 26.66 233.501 26.54C234.234 26.42 234.874 26.2667 235.421 26.08V29.28C234.954 29.5333 234.268 29.7667 233.361 29.98C232.468 30.18 231.494 30.28 230.441 30.28ZM231.601 22.96V22.72C231.601 22.2667 231.501 21.94 231.301 21.74C231.114 21.54 230.828 21.44 230.441 21.44C230.054 21.44 229.761 21.5467 229.561 21.76C229.374 21.96 229.281 22.28 229.281 22.72V22.96H231.601ZM244.896 18.6C245.163 18.6 245.416 18.6267 245.656 18.68C245.896 18.7333 246.096 18.8 246.256 18.88V22.7C245.709 22.4733 245.123 22.36 244.496 22.36C243.656 22.36 243.009 22.58 242.556 23.02C242.103 23.46 241.876 24.1133 241.876 24.98V26.72H243.676V30H236.396V26.72H237.276V22.16H236.396V18.88H241.876V20.34C242.249 19.78 242.676 19.3533 243.156 19.06C243.636 18.7533 244.216 18.6 244.896 18.6Z" fill="#FADCD5"/>
</svg>
