<svg width="217" height="35" viewBox="0 0 217 35" fill="none" xmlns="http://www.w3.org/2000/svg">
<path d="M25.2911 11.44H31.8511V14.72H30.8511V27H25.2311L19.3711 17.98V23.72H20.3311V27H13.7711V23.72H14.7711V14.72H13.7711V11.44H20.9911L26.2511 19.46V14.72H25.2911V11.44ZM38.5388 27.28C36.6454 27.28 35.1654 26.7867 34.0988 25.8C33.0321 24.8 32.4988 23.3467 32.4988 21.44C32.4988 19.5333 33.0321 18.0867 34.0988 17.1C35.1654 16.1 36.6454 15.6 38.5388 15.6C40.4588 15.6 41.9454 16.1067 42.9988 17.12C44.0521 18.12 44.5788 19.56 44.5788 21.44C44.5788 23.3467 44.0454 24.8 42.9788 25.8C41.9121 26.7867 40.4321 27.28 38.5388 27.28ZM38.5388 23.72C38.9254 23.72 39.2121 23.62 39.3988 23.42C39.5988 23.2067 39.6988 22.88 39.6988 22.44V20.44C39.6988 20 39.5988 19.68 39.3988 19.48C39.2121 19.2667 38.9254 19.16 38.5388 19.16C38.1521 19.16 37.8588 19.2667 37.6588 19.48C37.4721 19.68 37.3788 20 37.3788 20.44V22.44C37.3788 22.88 37.4721 23.2067 37.6588 23.42C37.8588 23.62 38.1521 23.72 38.5388 23.72ZM59.0116 27.28C56.4916 27.28 54.5449 26.64 53.1716 25.36C51.8116 24.08 51.1316 22.0333 51.1316 19.22C51.1316 13.8467 53.7449 11.16 58.9716 11.16C60.2382 11.16 61.4116 11.3133 62.4916 11.62C63.5849 11.9267 64.3982 12.2667 64.9316 12.64V17.64H60.1316V16.2C60.1316 15.6933 60.0182 15.32 59.7916 15.08C59.5649 14.84 59.2249 14.72 58.7716 14.72C58.3182 14.72 57.9782 14.84 57.7516 15.08C57.5249 15.32 57.4116 15.6933 57.4116 16.2V22.24C57.4116 22.7467 57.5249 23.12 57.7516 23.36C57.9782 23.6 58.3182 23.72 58.7716 23.72C59.2249 23.72 59.5649 23.6 59.7916 23.36C60.0182 23.12 60.1316 22.7467 60.1316 22.24V20.62H64.9316V25.8C64.3849 26.1733 63.5716 26.5133 62.4916 26.82C61.4249 27.1267 60.2649 27.28 59.0116 27.28ZM78.9252 23.72V27H72.6052V23.72H73.4452V20.44C73.4452 20 73.3518 19.68 73.1652 19.48C72.9785 19.2667 72.6985 19.16 72.3252 19.16C71.5252 19.16 71.1252 19.5867 71.1252 20.44V23.72H71.9652V27H65.6452V23.72H66.5252V14.72H65.6452V11.44H71.1252V17.44C71.6185 16.8267 72.1518 16.3667 72.7252 16.06C73.2985 15.7533 73.9652 15.6 74.7252 15.6C75.8318 15.6 76.6585 15.9467 77.2052 16.64C77.7652 17.3333 78.0452 18.2867 78.0452 19.5V23.72H78.9252ZM91.2309 23.72V27H85.9509V25.64C85.6576 26.0667 85.2443 26.4467 84.7109 26.78C84.1909 27.1133 83.5509 27.28 82.7909 27.28C81.7909 27.28 81.0043 27.0133 80.4309 26.48C79.8576 25.9467 79.5709 25.1933 79.5709 24.22C79.5709 21.7 81.7109 20.4067 85.9909 20.34C85.9509 19.8867 85.7776 19.58 85.4709 19.42C85.1643 19.2467 84.6443 19.16 83.9109 19.16C83.3109 19.16 82.6643 19.2267 81.9709 19.36C81.2909 19.48 80.6643 19.6467 80.0909 19.86V16.18C80.7976 16.0067 81.5643 15.8667 82.3909 15.76C83.2176 15.6533 84.0243 15.6 84.8109 15.6C86.7976 15.6 88.2176 15.96 89.0709 16.68C89.9243 17.4 90.3509 18.5133 90.3509 20.02V23.72H91.2309ZM85.9509 22.32C85.3509 22.32 84.8843 22.4 84.5509 22.56C84.2309 22.72 84.0709 22.9867 84.0709 23.36C84.0709 23.5867 84.1376 23.7733 84.2709 23.92C84.4176 24.0533 84.6176 24.12 84.8709 24.12C85.2176 24.12 85.4843 23.9733 85.6709 23.68C85.8576 23.3867 85.9509 22.9733 85.9509 22.44V22.32ZM100.416 15.6C100.682 15.6 100.936 15.6267 101.176 15.68C101.416 15.7333 101.616 15.8 101.776 15.88V19.7C101.229 19.4733 100.642 19.36 100.016 19.36C99.1756 19.36 98.529 19.58 98.0756 20.02C97.6223 20.46 97.3956 21.1133 97.3956 21.98V23.72H99.1956V27H91.9156V23.72H92.7956V19.16H91.9156V15.88H97.3956V17.34C97.769 16.78 98.1956 16.3533 98.6756 16.06C99.1556 15.7533 99.7356 15.6 100.416 15.6ZM114.083 23.72V27H108.803V25.64C108.509 26.0667 108.096 26.4467 107.563 26.78C107.043 27.1133 106.403 27.28 105.643 27.28C104.643 27.28 103.856 27.0133 103.283 26.48C102.709 25.9467 102.423 25.1933 102.423 24.22C102.423 21.7 104.563 20.4067 108.843 20.34C108.803 19.8867 108.629 19.58 108.323 19.42C108.016 19.2467 107.496 19.16 106.763 19.16C106.163 19.16 105.516 19.2267 104.823 19.36C104.143 19.48 103.516 19.6467 102.943 19.86V16.18C103.649 16.0067 104.416 15.8667 105.243 15.76C106.069 15.6533 106.876 15.6 107.663 15.6C109.649 15.6 111.069 15.96 111.923 16.68C112.776 17.4 113.203 18.5133 113.203 20.02V23.72H114.083ZM108.803 22.32C108.203 22.32 107.736 22.4 107.403 22.56C107.083 22.72 106.923 22.9867 106.923 23.36C106.923 23.5867 106.989 23.7733 107.123 23.92C107.269 24.0533 107.469 24.12 107.723 24.12C108.069 24.12 108.336 23.9733 108.523 23.68C108.709 23.3867 108.803 22.9733 108.803 22.44V22.32ZM120.707 27.28C118.801 27.28 117.314 26.7867 116.247 25.8C115.181 24.8 114.647 23.3467 114.647 21.44C114.647 19.5333 115.181 18.0867 116.247 17.1C117.314 16.1 118.794 15.6 120.687 15.6C121.607 15.6 122.487 15.7267 123.327 15.98C124.167 16.2333 124.821 16.52 125.287 16.84V20.8H121.847V20.44C121.847 20 121.754 19.68 121.567 19.48C121.381 19.2667 121.087 19.16 120.687 19.16C119.914 19.16 119.527 19.5867 119.527 20.44V22.16C119.527 23.2 120.121 23.72 121.307 23.72C122.414 23.72 123.701 23.6 125.167 23.36V26.5C124.714 26.7 124.074 26.88 123.247 27.04C122.434 27.2 121.587 27.28 120.707 27.28ZM130.898 27.28C129.484 27.28 128.418 26.94 127.698 26.26C126.991 25.5667 126.638 24.4067 126.638 22.78V19.16H125.758V15.88C126.264 15.88 126.644 15.7533 126.898 15.5C127.151 15.2333 127.278 14.8733 127.278 14.42V13.52H131.518V15.88H134.218V19.16H131.518V22.44C131.518 22.88 131.611 23.2067 131.798 23.42C131.998 23.62 132.291 23.72 132.678 23.72C133.184 23.72 133.738 23.66 134.338 23.54V26.68C133.964 26.8267 133.458 26.96 132.818 27.08C132.191 27.2133 131.551 27.28 130.898 27.28ZM140.941 27.28C139.048 27.28 137.568 26.7867 136.501 25.8C135.434 24.8 134.901 23.3467 134.901 21.44C134.901 19.5333 135.434 18.0867 136.501 17.1C137.568 16.1 139.048 15.6 140.941 15.6C142.821 15.6 144.174 16.0933 145.001 17.08C145.841 18.0533 146.261 19.2667 146.261 20.72V22.16H139.781V22.28C139.781 22.7733 139.928 23.14 140.221 23.38C140.514 23.6067 141.001 23.72 141.681 23.72C142.494 23.72 143.268 23.66 144.001 23.54C144.734 23.42 145.374 23.2667 145.921 23.08V26.28C145.454 26.5333 144.768 26.7667 143.861 26.98C142.968 27.18 141.994 27.28 140.941 27.28ZM142.101 19.96V19.72C142.101 19.2667 142.001 18.94 141.801 18.74C141.614 18.54 141.328 18.44 140.941 18.44C140.554 18.44 140.261 18.5467 140.061 18.76C139.874 18.96 139.781 19.28 139.781 19.72V19.96H142.101ZM155.396 15.6C155.663 15.6 155.916 15.6267 156.156 15.68C156.396 15.7333 156.596 15.8 156.756 15.88V19.7C156.209 19.4733 155.623 19.36 154.996 19.36C154.156 19.36 153.509 19.58 153.056 20.02C152.603 20.46 152.376 21.1133 152.376 21.98V23.72H154.176V27H146.896V23.72H147.776V19.16H146.896V15.88H152.376V17.34C152.749 16.78 153.176 16.3533 153.656 16.06C154.136 15.7533 154.716 15.6 155.396 15.6ZM162.263 27.28C160.583 27.28 158.963 27.0133 157.403 26.48V23.52H160.643V23.72C160.643 24.36 161.05 24.68 161.863 24.68C162.583 24.68 162.943 24.4333 162.943 23.94C162.943 23.6733 162.836 23.4733 162.623 23.34C162.423 23.2067 162.063 23.0933 161.543 23L160.543 22.82C158.45 22.4467 157.403 21.26 157.403 19.26C157.403 18.1 157.843 17.2 158.723 16.56C159.603 15.92 160.79 15.6 162.283 15.6C163.95 15.6 165.356 15.88 166.503 16.44V19.22H163.463V19.02C163.463 18.7533 163.37 18.5533 163.183 18.42C163.01 18.2733 162.75 18.2 162.403 18.2C161.736 18.2 161.403 18.4133 161.403 18.84C161.403 19.0667 161.496 19.24 161.683 19.36C161.87 19.48 162.21 19.5933 162.703 19.7L163.843 19.92C165.03 20.1467 165.876 20.5667 166.383 21.18C166.89 21.7933 167.143 22.58 167.143 23.54C167.143 24.7533 166.716 25.68 165.863 26.32C165.023 26.96 163.823 27.28 162.263 27.28ZM182.55 11.44H188.69V14.72H187.89L184.03 21.64V23.72H185.03V27H177.43V23.72H178.43V21.64L174.45 14.72H173.65V11.44H181.39V14.72H180.69L181.87 17.82H182.07L183.25 14.72H182.55V11.44ZM193.05 27.28C191.157 27.28 189.677 26.7867 188.61 25.8C187.544 24.8 187.01 23.3467 187.01 21.44C187.01 19.5333 187.544 18.0867 188.61 17.1C189.677 16.1 191.157 15.6 193.05 15.6C194.93 15.6 196.284 16.0933 197.11 17.08C197.95 18.0533 198.37 19.2667 198.37 20.72V22.16H191.89V22.28C191.89 22.7733 192.037 23.14 192.33 23.38C192.624 23.6067 193.11 23.72 193.79 23.72C194.604 23.72 195.377 23.66 196.11 23.54C196.844 23.42 197.484 23.2667 198.03 23.08V26.28C197.564 26.5333 196.877 26.7667 195.97 26.98C195.077 27.18 194.104 27.28 193.05 27.28ZM194.21 19.96V19.72C194.21 19.2667 194.11 18.94 193.91 18.74C193.724 18.54 193.437 18.44 193.05 18.44C192.664 18.44 192.37 18.5467 192.17 18.76C191.984 18.96 191.89 19.28 191.89 19.72V19.96H194.21ZM203.905 27.28C202.492 27.28 201.425 26.94 200.705 26.26C199.999 25.5667 199.645 24.4067 199.645 22.78V19.16H198.765V15.88C199.272 15.88 199.652 15.7533 199.905 15.5C200.159 15.2333 200.285 14.8733 200.285 14.42V13.52H204.525V15.88H207.225V19.16H204.525V22.44C204.525 22.88 204.619 23.2067 204.805 23.42C205.005 23.62 205.299 23.72 205.685 23.72C206.192 23.72 206.745 23.66 207.345 23.54V26.68C206.972 26.8267 206.465 26.96 205.825 27.08C205.199 27.2133 204.559 27.28 203.905 27.28Z" fill="black"/>
<path d="M24.2911 9.44H30.8511V12.72H29.8511V25H24.2311L18.3711 15.98V21.72H19.3311V25H12.7711V21.72H13.7711V12.72H12.7711V9.44H19.9911L25.2511 17.46V12.72H24.2911V9.44ZM37.5388 25.28C35.6454 25.28 34.1654 24.7867 33.0988 23.8C32.0321 22.8 31.4988 21.3467 31.4988 19.44C31.4988 17.5333 32.0321 16.0867 33.0988 15.1C34.1654 14.1 35.6454 13.6 37.5388 13.6C39.4588 13.6 40.9454 14.1067 41.9988 15.12C43.0521 16.12 43.5788 17.56 43.5788 19.44C43.5788 21.3467 43.0454 22.8 41.9788 23.8C40.9121 24.7867 39.4321 25.28 37.5388 25.28ZM37.5388 21.72C37.9254 21.72 38.2121 21.62 38.3988 21.42C38.5988 21.2067 38.6988 20.88 38.6988 20.44V18.44C38.6988 18 38.5988 17.68 38.3988 17.48C38.2121 17.2667 37.9254 17.16 37.5388 17.16C37.1521 17.16 36.8588 17.2667 36.6588 17.48C36.4721 17.68 36.3788 18 36.3788 18.44V20.44C36.3788 20.88 36.4721 21.2067 36.6588 21.42C36.8588 21.62 37.1521 21.72 37.5388 21.72ZM58.0116 25.28C55.4916 25.28 53.5449 24.64 52.1716 23.36C50.8116 22.08 50.1316 20.0333 50.1316 17.22C50.1316 11.8467 52.7449 9.16 57.9716 9.16C59.2382 9.16 60.4116 9.31333 61.4916 9.62C62.5849 9.92667 63.3982 10.2667 63.9316 10.64V15.64H59.1316V14.2C59.1316 13.6933 59.0182 13.32 58.7916 13.08C58.5649 12.84 58.2249 12.72 57.7716 12.72C57.3182 12.72 56.9782 12.84 56.7516 13.08C56.5249 13.32 56.4116 13.6933 56.4116 14.2V20.24C56.4116 20.7467 56.5249 21.12 56.7516 21.36C56.9782 21.6 57.3182 21.72 57.7716 21.72C58.2249 21.72 58.5649 21.6 58.7916 21.36C59.0182 21.12 59.1316 20.7467 59.1316 20.24V18.62H63.9316V23.8C63.3849 24.1733 62.5716 24.5133 61.4916 24.82C60.4249 25.1267 59.2649 25.28 58.0116 25.28ZM77.9252 21.72V25H71.6052V21.72H72.4452V18.44C72.4452 18 72.3518 17.68 72.1652 17.48C71.9785 17.2667 71.6985 17.16 71.3252 17.16C70.5252 17.16 70.1252 17.5867 70.1252 18.44V21.72H70.9652V25H64.6452V21.72H65.5252V12.72H64.6452V9.44H70.1252V15.44C70.6185 14.8267 71.1518 14.3667 71.7252 14.06C72.2985 13.7533 72.9652 13.6 73.7252 13.6C74.8318 13.6 75.6585 13.9467 76.2052 14.64C76.7652 15.3333 77.0452 16.2867 77.0452 17.5V21.72H77.9252ZM90.2309 21.72V25H84.9509V23.64C84.6576 24.0667 84.2443 24.4467 83.7109 24.78C83.1909 25.1133 82.5509 25.28 81.7909 25.28C80.7909 25.28 80.0043 25.0133 79.4309 24.48C78.8576 23.9467 78.5709 23.1933 78.5709 22.22C78.5709 19.7 80.7109 18.4067 84.9909 18.34C84.9509 17.8867 84.7776 17.58 84.4709 17.42C84.1643 17.2467 83.6443 17.16 82.9109 17.16C82.3109 17.16 81.6643 17.2267 80.9709 17.36C80.2909 17.48 79.6643 17.6467 79.0909 17.86V14.18C79.7976 14.0067 80.5643 13.8667 81.3909 13.76C82.2176 13.6533 83.0243 13.6 83.8109 13.6C85.7976 13.6 87.2176 13.96 88.0709 14.68C88.9243 15.4 89.3509 16.5133 89.3509 18.02V21.72H90.2309ZM84.9509 20.32C84.3509 20.32 83.8843 20.4 83.5509 20.56C83.2309 20.72 83.0709 20.9867 83.0709 21.36C83.0709 21.5867 83.1376 21.7733 83.2709 21.92C83.4176 22.0533 83.6176 22.12 83.8709 22.12C84.2176 22.12 84.4843 21.9733 84.6709 21.68C84.8576 21.3867 84.9509 20.9733 84.9509 20.44V20.32ZM99.4156 13.6C99.6823 13.6 99.9356 13.6267 100.176 13.68C100.416 13.7333 100.616 13.8 100.776 13.88V17.7C100.229 17.4733 99.6423 17.36 99.0156 17.36C98.1756 17.36 97.529 17.58 97.0756 18.02C96.6223 18.46 96.3956 19.1133 96.3956 19.98V21.72H98.1956V25H90.9156V21.72H91.7956V17.16H90.9156V13.88H96.3956V15.34C96.769 14.78 97.1956 14.3533 97.6756 14.06C98.1556 13.7533 98.7356 13.6 99.4156 13.6ZM113.083 21.72V25H107.803V23.64C107.509 24.0667 107.096 24.4467 106.563 24.78C106.043 25.1133 105.403 25.28 104.643 25.28C103.643 25.28 102.856 25.0133 102.283 24.48C101.709 23.9467 101.423 23.1933 101.423 22.22C101.423 19.7 103.563 18.4067 107.843 18.34C107.803 17.8867 107.629 17.58 107.323 17.42C107.016 17.2467 106.496 17.16 105.763 17.16C105.163 17.16 104.516 17.2267 103.823 17.36C103.143 17.48 102.516 17.6467 101.943 17.86V14.18C102.649 14.0067 103.416 13.8667 104.243 13.76C105.069 13.6533 105.876 13.6 106.663 13.6C108.649 13.6 110.069 13.96 110.923 14.68C111.776 15.4 112.203 16.5133 112.203 18.02V21.72H113.083ZM107.803 20.32C107.203 20.32 106.736 20.4 106.403 20.56C106.083 20.72 105.923 20.9867 105.923 21.36C105.923 21.5867 105.989 21.7733 106.123 21.92C106.269 22.0533 106.469 22.12 106.723 22.12C107.069 22.12 107.336 21.9733 107.523 21.68C107.709 21.3867 107.803 20.9733 107.803 20.44V20.32ZM119.707 25.28C117.801 25.28 116.314 24.7867 115.247 23.8C114.181 22.8 113.647 21.3467 113.647 19.44C113.647 17.5333 114.181 16.0867 115.247 15.1C116.314 14.1 117.794 13.6 119.687 13.6C120.607 13.6 121.487 13.7267 122.327 13.98C123.167 14.2333 123.821 14.52 124.287 14.84V18.8H120.847V18.44C120.847 18 120.754 17.68 120.567 17.48C120.381 17.2667 120.087 17.16 119.687 17.16C118.914 17.16 118.527 17.5867 118.527 18.44V20.16C118.527 21.2 119.121 21.72 120.307 21.72C121.414 21.72 122.701 21.6 124.167 21.36V24.5C123.714 24.7 123.074 24.88 122.247 25.04C121.434 25.2 120.587 25.28 119.707 25.28ZM129.898 25.28C128.484 25.28 127.418 24.94 126.698 24.26C125.991 23.5667 125.638 22.4067 125.638 20.78V17.16H124.758V13.88C125.264 13.88 125.644 13.7533 125.898 13.5C126.151 13.2333 126.278 12.8733 126.278 12.42V11.52H130.518V13.88H133.218V17.16H130.518V20.44C130.518 20.88 130.611 21.2067 130.798 21.42C130.998 21.62 131.291 21.72 131.678 21.72C132.184 21.72 132.738 21.66 133.338 21.54V24.68C132.964 24.8267 132.458 24.96 131.818 25.08C131.191 25.2133 130.551 25.28 129.898 25.28ZM139.941 25.28C138.048 25.28 136.568 24.7867 135.501 23.8C134.434 22.8 133.901 21.3467 133.901 19.44C133.901 17.5333 134.434 16.0867 135.501 15.1C136.568 14.1 138.048 13.6 139.941 13.6C141.821 13.6 143.174 14.0933 144.001 15.08C144.841 16.0533 145.261 17.2667 145.261 18.72V20.16H138.781V20.28C138.781 20.7733 138.928 21.14 139.221 21.38C139.514 21.6067 140.001 21.72 140.681 21.72C141.494 21.72 142.268 21.66 143.001 21.54C143.734 21.42 144.374 21.2667 144.921 21.08V24.28C144.454 24.5333 143.768 24.7667 142.861 24.98C141.968 25.18 140.994 25.28 139.941 25.28ZM141.101 17.96V17.72C141.101 17.2667 141.001 16.94 140.801 16.74C140.614 16.54 140.328 16.44 139.941 16.44C139.554 16.44 139.261 16.5467 139.061 16.76C138.874 16.96 138.781 17.28 138.781 17.72V17.96H141.101ZM154.396 13.6C154.663 13.6 154.916 13.6267 155.156 13.68C155.396 13.7333 155.596 13.8 155.756 13.88V17.7C155.209 17.4733 154.623 17.36 153.996 17.36C153.156 17.36 152.509 17.58 152.056 18.02C151.603 18.46 151.376 19.1133 151.376 19.98V21.72H153.176V25H145.896V21.72H146.776V17.16H145.896V13.88H151.376V15.34C151.749 14.78 152.176 14.3533 152.656 14.06C153.136 13.7533 153.716 13.6 154.396 13.6ZM161.263 25.28C159.583 25.28 157.963 25.0133 156.403 24.48V21.52H159.643V21.72C159.643 22.36 160.05 22.68 160.863 22.68C161.583 22.68 161.943 22.4333 161.943 21.94C161.943 21.6733 161.836 21.4733 161.623 21.34C161.423 21.2067 161.063 21.0933 160.543 21L159.543 20.82C157.45 20.4467 156.403 19.26 156.403 17.26C156.403 16.1 156.843 15.2 157.723 14.56C158.603 13.92 159.79 13.6 161.283 13.6C162.95 13.6 164.356 13.88 165.503 14.44V17.22H162.463V17.02C162.463 16.7533 162.37 16.5533 162.183 16.42C162.01 16.2733 161.75 16.2 161.403 16.2C160.736 16.2 160.403 16.4133 160.403 16.84C160.403 17.0667 160.496 17.24 160.683 17.36C160.87 17.48 161.21 17.5933 161.703 17.7L162.843 17.92C164.03 18.1467 164.876 18.5667 165.383 19.18C165.89 19.7933 166.143 20.58 166.143 21.54C166.143 22.7533 165.716 23.68 164.863 24.32C164.023 24.96 162.823 25.28 161.263 25.28ZM181.55 9.44H187.69V12.72H186.89L183.03 19.64V21.72H184.03V25H176.43V21.72H177.43V19.64L173.45 12.72H172.65V9.44H180.39V12.72H179.69L180.87 15.82H181.07L182.25 12.72H181.55V9.44ZM192.05 25.28C190.157 25.28 188.677 24.7867 187.61 23.8C186.544 22.8 186.01 21.3467 186.01 19.44C186.01 17.5333 186.544 16.0867 187.61 15.1C188.677 14.1 190.157 13.6 192.05 13.6C193.93 13.6 195.284 14.0933 196.11 15.08C196.95 16.0533 197.37 17.2667 197.37 18.72V20.16H190.89V20.28C190.89 20.7733 191.037 21.14 191.33 21.38C191.624 21.6067 192.11 21.72 192.79 21.72C193.604 21.72 194.377 21.66 195.11 21.54C195.844 21.42 196.484 21.2667 197.03 21.08V24.28C196.564 24.5333 195.877 24.7667 194.97 24.98C194.077 25.18 193.104 25.28 192.05 25.28ZM193.21 17.96V17.72C193.21 17.2667 193.11 16.94 192.91 16.74C192.724 16.54 192.437 16.44 192.05 16.44C191.664 16.44 191.37 16.5467 191.17 16.76C190.984 16.96 190.89 17.28 190.89 17.72V17.96H193.21ZM202.905 25.28C201.492 25.28 200.425 24.94 199.705 24.26C198.999 23.5667 198.645 22.4067 198.645 20.78V17.16H197.765V13.88C198.272 13.88 198.652 13.7533 198.905 13.5C199.159 13.2333 199.285 12.8733 199.285 12.42V11.52H203.525V13.88H206.225V17.16H203.525V20.44C203.525 20.88 203.619 21.2067 203.805 21.42C204.005 21.62 204.299 21.72 204.685 21.72C205.192 21.72 205.745 21.66 206.345 21.54V24.68C205.972 24.8267 205.465 24.96 204.825 25.08C204.199 25.2133 203.559 25.28 202.905 25.28Z" fill="#FADCD5"/>
</svg>
