<svg width="178" height="47" viewBox="0 0 178 47" fill="none" xmlns="http://www.w3.org/2000/svg">
<rect x="8" y="6" width="163" height="38" rx="5" fill="black"/>
<rect x="8.5" y="5.5" width="161" height="36" rx="4.5" fill="#DEBDBD" stroke="black"/>
<path d="M57.3518 29.1C57.3518 28.6 57.1718 28.19 56.8118 27.87C56.4518 27.53 55.9818 27.23 55.4018 26.97C54.8418 26.69 54.2418 26.41 53.6018 26.13C52.9818 25.85 52.3818 25.53 51.8018 25.17C51.2418 24.79 50.7818 24.32 50.4218 23.76C50.0618 23.18 49.8818 22.48 49.8818 21.66C49.8818 21.66 49.9618 21.66 50.1218 21.66C50.3018 21.66 50.5218 21.66 50.7818 21.66C51.0618 21.66 51.3318 21.66 51.5918 21.66C51.8518 21.66 52.0718 21.66 52.2518 21.66C52.4318 21.66 52.5218 21.66 52.5218 21.66C52.5218 22.16 52.7018 22.58 53.0618 22.92C53.4218 23.24 53.8818 23.53 54.4418 23.79C55.0218 24.05 55.6318 24.33 56.2718 24.63C56.9118 24.91 57.5118 25.24 58.0718 25.62C58.6318 26 59.0918 26.47 59.4518 27.03C59.8318 27.57 60.0218 28.26 60.0218 29.1C60.0218 29.1 59.9318 29.1 59.7518 29.1C59.5718 29.1 59.3418 29.1 59.0618 29.1C58.8018 29.1 58.5418 29.1 58.2818 29.1C58.0218 29.1 57.8018 29.1 57.6218 29.1C57.4418 29.1 57.3518 29.1 57.3518 29.1ZM54.8018 33.45V31.08C55.5418 31.08 56.1518 30.9 56.6318 30.54C57.1118 30.16 57.3518 29.68 57.3518 29.1H60.0218C60.0218 29.94 59.7918 30.69 59.3318 31.35C58.8918 32.01 58.2818 32.53 57.5018 32.91C56.7218 33.27 55.8218 33.45 54.8018 33.45ZM49.8818 21.66C49.8818 20.84 50.0818 20.11 50.4818 19.47C50.9018 18.81 51.4818 18.3 52.2218 17.94C52.9618 17.56 53.7818 17.37 54.6818 17.37V19.74C54.0618 19.74 53.5418 19.92 53.1218 20.28C52.7218 20.64 52.5218 21.1 52.5218 21.66H49.8818ZM51.9518 28.47C52.0518 29.35 52.3718 30.01 52.9118 30.45C53.4518 30.87 54.0818 31.08 54.8018 31.08V33.45C53.8818 33.45 53.0318 33.26 52.2518 32.88C51.4718 32.5 50.8318 31.97 50.3318 31.29C49.8518 30.61 49.5518 29.84 49.4318 28.98L51.9518 28.47ZM57.5018 22.35C57.4018 21.45 57.0818 20.79 56.5418 20.37C56.0218 19.95 55.4018 19.74 54.6818 19.74V17.37C55.6218 17.37 56.4718 17.56 57.2318 17.94C57.9918 18.32 58.6218 18.85 59.1218 19.53C59.6218 20.19 59.9318 20.96 60.0518 21.84L57.5018 22.35ZM63.1088 33V17.85H65.8388V33H63.1088ZM64.4588 15.84C63.9588 15.84 63.5388 15.67 63.1988 15.33C62.8588 14.99 62.6888 14.57 62.6888 14.07C62.6888 13.57 62.8588 13.15 63.1988 12.81C63.5388 12.45 63.9588 12.27 64.4588 12.27C64.9588 12.27 65.3788 12.45 65.7188 12.81C66.0788 13.15 66.2588 13.57 66.2588 14.07C66.2588 14.57 66.0788 14.99 65.7188 15.33C65.3788 15.67 64.9588 15.84 64.4588 15.84ZM77.6443 33.54V17.85H80.3743V33.54H77.6443ZM69.2143 27.78V22.68H71.9443V27.78H69.2143ZM71.9443 22.68H69.2143C69.2143 21.68 69.4243 20.78 69.8443 19.98C70.2643 19.18 70.8343 18.55 71.5543 18.09C72.2943 17.63 73.1343 17.4 74.0743 17.4L74.7643 19.83C73.9443 19.83 73.2643 20.1 72.7243 20.64C72.2043 21.16 71.9443 21.84 71.9443 22.68ZM78.8443 22.74H77.6443C77.6443 21.88 77.3743 21.18 76.8343 20.64C76.2943 20.1 75.6043 19.83 74.7643 19.83L74.0743 17.4C74.9743 17.4 75.7843 17.63 76.5043 18.09C77.2443 18.55 77.8143 19.19 78.2143 20.01C78.6343 20.81 78.8443 21.72 78.8443 22.74ZM71.9443 27.78C71.9443 28.62 72.2043 29.31 72.7243 29.85C73.2643 30.37 73.9443 30.63 74.7643 30.63L74.0743 33.06C73.1343 33.06 72.2943 32.83 71.5543 32.37C70.8343 31.91 70.2643 31.28 69.8443 30.48C69.4243 29.68 69.2143 28.78 69.2143 27.78H71.9443ZM78.8443 27.69C78.8443 28.71 78.6343 29.63 78.2143 30.45C77.8143 31.25 77.2443 31.89 76.5043 32.37C75.7843 32.83 74.9743 33.06 74.0743 33.06L74.7643 30.63C75.6043 30.63 76.2943 30.36 76.8343 29.82C77.3743 29.28 77.6443 28.57 77.6443 27.69H78.8443ZM80.3743 33.45C80.3743 34.47 80.1343 35.38 79.6543 36.18C79.1743 37 78.5143 37.64 77.6743 38.1C76.8343 38.58 75.8843 38.82 74.8243 38.82V36.45C75.6443 36.45 76.3143 36.16 76.8343 35.58C77.3743 35.02 77.6443 34.31 77.6443 33.45H80.3743ZM71.9743 33.84C72.0743 34.72 72.3943 35.37 72.9343 35.79C73.4743 36.23 74.1043 36.45 74.8243 36.45V38.82C73.9043 38.82 73.0543 38.63 72.2743 38.25C71.4943 37.87 70.8543 37.34 70.3543 36.66C69.8743 35.98 69.5743 35.21 69.4543 34.35L71.9743 33.84ZM83.8732 33V17.85H86.6032V33H83.8732ZM92.3032 33V22.68H95.0332V33H92.3032ZM92.3032 22.68C92.3032 21.84 92.0432 21.16 91.5232 20.64C91.0032 20.1 90.3332 19.83 89.5132 19.83L90.2032 17.4C91.1232 17.4 91.9432 17.63 92.6632 18.09C93.4032 18.55 93.9832 19.18 94.4032 19.98C94.8232 20.78 95.0332 21.68 95.0332 22.68H92.3032ZM85.4032 22.74C85.4032 21.72 85.6132 20.81 86.0332 20.01C86.4532 19.19 87.0232 18.55 87.7432 18.09C88.4632 17.63 89.2832 17.4 90.2032 17.4L89.5132 19.83C88.6532 19.83 87.9532 20.1 87.4132 20.64C86.8732 21.18 86.6032 21.88 86.6032 22.74H85.4032ZM114.534 17.85V33H111.804V17.85H114.534ZM106.104 17.85V28.17H103.374V17.85H106.104ZM106.104 28.17C106.104 29.01 106.364 29.7 106.884 30.24C107.424 30.76 108.104 31.02 108.924 31.02L108.234 33.45C107.294 33.45 106.454 33.22 105.714 32.76C104.994 32.3 104.424 31.67 104.004 30.87C103.584 30.07 103.374 29.17 103.374 28.17H106.104ZM113.004 28.08C113.004 29.1 112.794 30.02 112.374 30.84C111.974 31.64 111.404 32.28 110.664 32.76C109.944 33.22 109.134 33.45 108.234 33.45L108.924 31.02C109.764 31.02 110.454 30.75 110.994 30.21C111.534 29.67 111.804 28.96 111.804 28.08H113.004ZM118.121 32.97H120.851V39H118.121V32.97ZM120.851 17.85V33H118.121V17.85H120.851ZM129.281 22.68V28.17H126.551V22.68H129.281ZM126.551 28.17H129.281C129.281 29.17 129.071 30.07 128.651 30.87C128.231 31.67 127.651 32.3 126.911 32.76C126.191 33.22 125.371 33.45 124.451 33.45L123.761 31.02C124.581 31.02 125.251 30.76 125.771 30.24C126.291 29.7 126.551 29.01 126.551 28.17ZM119.651 28.08H120.851C120.851 28.96 121.121 29.67 121.661 30.21C122.201 30.75 122.901 31.02 123.761 31.02L124.451 33.45C123.531 33.45 122.711 33.22 121.991 32.76C121.271 32.28 120.701 31.64 120.281 30.84C119.861 30.02 119.651 29.1 119.651 28.08ZM126.551 22.68C126.551 21.84 126.291 21.16 125.771 20.64C125.251 20.1 124.581 19.83 123.761 19.83L124.451 17.4C125.371 17.4 126.191 17.63 126.911 18.09C127.651 18.55 128.231 19.18 128.651 19.98C129.071 20.78 129.281 21.68 129.281 22.68H126.551ZM119.651 22.74C119.651 21.72 119.861 20.81 120.281 20.01C120.701 19.19 121.271 18.55 121.991 18.09C122.711 17.63 123.531 17.4 124.451 17.4L123.761 19.83C122.901 19.83 122.201 20.1 121.661 20.64C121.121 21.18 120.851 21.88 120.851 22.74H119.651Z" fill="black"/>
</svg>
