<svg width="100" height="29" viewBox="0 0 100 29" fill="none" xmlns="http://www.w3.org/2000/svg">
<g clip-path="url(#clip0_33_73)">
<path d="M17.9633 24.28C16.6833 24.28 15.4699 24.1733 14.3233 23.96C13.1899 23.7333 12.3166 23.48 11.7033 23.2V19.24H16.1033C16.1033 19.6533 16.1966 19.9533 16.3833 20.14C16.5699 20.3267 16.9099 20.42 17.4033 20.42C17.8166 20.42 18.1099 20.36 18.2833 20.24C18.4699 20.1067 18.5633 19.9133 18.5633 19.66C18.5633 19.4467 18.4766 19.2667 18.3033 19.12C18.1299 18.96 17.8299 18.8 17.4033 18.64L15.6833 18.04C14.2033 17.48 13.1366 16.82 12.4833 16.06C11.8433 15.3 11.5233 14.2733 11.5233 12.98C11.5233 11.4067 12.0366 10.2133 13.0633 9.4C14.1033 8.57333 15.8299 8.16 18.2433 8.16C19.4033 8.16 20.4899 8.28 21.5033 8.52C22.5299 8.74667 23.3566 9.05333 23.9833 9.44V13.02H19.9833C19.9833 12.3533 19.5699 12.02 18.7433 12.02C18.3433 12.02 18.0566 12.0733 17.8833 12.18C17.7233 12.2733 17.6433 12.4467 17.6433 12.7C17.6433 12.9267 17.7366 13.1067 17.9233 13.24C18.1233 13.3733 18.4433 13.5133 18.8833 13.66L20.6233 14.26C22.0366 14.74 23.0633 15.3667 23.7033 16.14C24.3566 16.9 24.6833 17.9 24.6833 19.14C24.6833 20.8333 24.1099 22.1133 22.9633 22.98C21.8299 23.8467 20.1633 24.28 17.9633 24.28ZM26.1598 11.78V8.44H30.2398V11.78H26.1598ZM25.1998 24V20.72H26.0798V16.16H25.1998V12.88H30.6798V20.72H31.5598V24H25.1998ZM37.9739 28.72C37.0139 28.72 36.0939 28.6533 35.2139 28.52C34.3472 28.3867 33.6739 28.2333 33.1939 28.06V24.78C34.6072 25.0333 35.8739 25.16 36.9939 25.16C37.7539 25.16 38.3006 25.04 38.6339 24.8C38.9806 24.5733 39.1539 24.14 39.1539 23.5V22.64C38.8206 23.0667 38.3872 23.4467 37.8539 23.78C37.3339 24.1133 36.7339 24.28 36.0539 24.28C34.6939 24.28 33.6672 23.7733 32.9739 22.76C32.2939 21.7467 31.9539 20.3067 31.9539 18.44C31.9539 16.5733 32.2939 15.1333 32.9739 14.12C33.6672 13.1067 34.6939 12.6 36.0539 12.6C36.7339 12.6 37.3339 12.7667 37.8539 13.1C38.3872 13.4333 38.8206 13.8133 39.1539 14.24V12.88H44.6339V16.16H43.7539V23.2C43.7539 25.1333 43.2739 26.5333 42.3139 27.4C41.3539 28.28 39.9072 28.72 37.9739 28.72ZM37.9939 20.72C38.3806 20.72 38.6672 20.62 38.8539 20.42C39.0539 20.2067 39.1539 19.88 39.1539 19.44V17.44C39.1539 17 39.0539 16.68 38.8539 16.48C38.6672 16.2667 38.3806 16.16 37.9939 16.16C37.6072 16.16 37.3139 16.2667 37.1139 16.48C36.9272 16.68 36.8339 17 36.8339 17.44V19.44C36.8339 19.88 36.9272 20.2067 37.1139 20.42C37.3139 20.62 37.6072 20.72 37.9939 20.72ZM58.4798 20.72V24H52.1598V20.72H52.9998V17.44C52.9998 17 52.9065 16.68 52.7198 16.48C52.5332 16.2667 52.2532 16.16 51.8798 16.16C51.0798 16.16 50.6798 16.5867 50.6798 17.44V20.72H51.5198V24H45.1998V20.72H46.0798V16.16H45.1998V12.88H50.6798V14.44C51.6398 13.2133 52.8398 12.6 54.2798 12.6C55.3865 12.6 56.2132 12.9467 56.7598 13.64C57.3198 14.3333 57.5998 15.2867 57.5998 16.5V20.72H58.4798ZM78.2817 20.72V24H72.8017V22.44C71.8417 23.6667 70.6417 24.28 69.2017 24.28C68.0951 24.28 67.2617 23.9333 66.7017 23.24C66.1551 22.5467 65.8817 21.5933 65.8817 20.38V16.16H65.0017V12.88H70.4817V19.44C70.4817 19.88 70.5751 20.2067 70.7617 20.42C70.9617 20.62 71.2551 20.72 71.6417 20.72C72.0284 20.72 72.3151 20.62 72.5017 20.42C72.7017 20.2067 72.8017 19.88 72.8017 19.44V16.16H71.7217V12.88H77.4017V20.72H78.2817ZM78.7527 25.16H79.6327V16.16H78.7527V12.88H84.2327V14.24C84.566 13.8133 84.9927 13.4333 85.5127 13.1C86.046 12.7667 86.6527 12.6 87.3327 12.6C88.6927 12.6 89.7127 13.1067 90.3927 14.12C91.086 15.1333 91.4327 16.5733 91.4327 18.44C91.4327 20.3067 91.086 21.7467 90.3927 22.76C89.7127 23.7733 88.6927 24.28 87.3327 24.28C86.6527 24.28 86.046 24.1133 85.5127 23.78C84.9927 23.4467 84.566 23.0667 84.2327 22.64V25.16H85.6127V28.44H78.7527V25.16ZM85.3927 20.72C85.7793 20.72 86.066 20.62 86.2527 20.42C86.4527 20.2067 86.5527 19.88 86.5527 19.44V17.44C86.5527 17 86.4527 16.68 86.2527 16.48C86.066 16.2667 85.7793 16.16 85.3927 16.16C85.006 16.16 84.7127 16.2667 84.5127 16.48C84.326 16.68 84.2327 17 84.2327 17.44V19.44C84.2327 19.88 84.326 20.2067 84.5127 20.42C84.7127 20.62 85.006 20.72 85.3927 20.72Z" fill="black"/>
<path d="M16.9633 22.28C15.6833 22.28 14.4699 22.1733 13.3233 21.96C12.1899 21.7333 11.3166 21.48 10.7033 21.2V17.24H15.1033C15.1033 17.6533 15.1966 17.9533 15.3833 18.14C15.5699 18.3267 15.9099 18.42 16.4033 18.42C16.8166 18.42 17.1099 18.36 17.2833 18.24C17.4699 18.1067 17.5633 17.9133 17.5633 17.66C17.5633 17.4467 17.4766 17.2667 17.3033 17.12C17.1299 16.96 16.8299 16.8 16.4033 16.64L14.6833 16.04C13.2033 15.48 12.1366 14.82 11.4833 14.06C10.8433 13.3 10.5233 12.2733 10.5233 10.98C10.5233 9.40667 11.0366 8.21333 12.0633 7.4C13.1033 6.57333 14.8299 6.16 17.2433 6.16C18.4033 6.16 19.4899 6.28 20.5033 6.52C21.5299 6.74667 22.3566 7.05333 22.9833 7.44V11.02H18.9833C18.9833 10.3533 18.5699 10.02 17.7433 10.02C17.3433 10.02 17.0566 10.0733 16.8833 10.18C16.7233 10.2733 16.6433 10.4467 16.6433 10.7C16.6433 10.9267 16.7366 11.1067 16.9233 11.24C17.1233 11.3733 17.4433 11.5133 17.8833 11.66L19.6233 12.26C21.0366 12.74 22.0633 13.3667 22.7033 14.14C23.3566 14.9 23.6833 15.9 23.6833 17.14C23.6833 18.8333 23.1099 20.1133 21.9633 20.98C20.8299 21.8467 19.1633 22.28 16.9633 22.28ZM25.1598 9.78V6.44H29.2398V9.78H25.1598ZM24.1998 22V18.72H25.0798V14.16H24.1998V10.88H29.6798V18.72H30.5598V22H24.1998ZM36.9739 26.72C36.0139 26.72 35.0939 26.6533 34.2139 26.52C33.3472 26.3867 32.6739 26.2333 32.1939 26.06V22.78C33.6072 23.0333 34.8739 23.16 35.9939 23.16C36.7539 23.16 37.3006 23.04 37.6339 22.8C37.9806 22.5733 38.1539 22.14 38.1539 21.5V20.64C37.8206 21.0667 37.3872 21.4467 36.8539 21.78C36.3339 22.1133 35.7339 22.28 35.0539 22.28C33.6939 22.28 32.6672 21.7733 31.9739 20.76C31.2939 19.7467 30.9539 18.3067 30.9539 16.44C30.9539 14.5733 31.2939 13.1333 31.9739 12.12C32.6672 11.1067 33.6939 10.6 35.0539 10.6C35.7339 10.6 36.3339 10.7667 36.8539 11.1C37.3872 11.4333 37.8206 11.8133 38.1539 12.24V10.88H43.6339V14.16H42.7539V21.2C42.7539 23.1333 42.2739 24.5333 41.3139 25.4C40.3539 26.28 38.9072 26.72 36.9739 26.72ZM36.9939 18.72C37.3806 18.72 37.6672 18.62 37.8539 18.42C38.0539 18.2067 38.1539 17.88 38.1539 17.44V15.44C38.1539 15 38.0539 14.68 37.8539 14.48C37.6672 14.2667 37.3806 14.16 36.9939 14.16C36.6072 14.16 36.3139 14.2667 36.1139 14.48C35.9272 14.68 35.8339 15 35.8339 15.44V17.44C35.8339 17.88 35.9272 18.2067 36.1139 18.42C36.3139 18.62 36.6072 18.72 36.9939 18.72ZM57.4798 18.72V22H51.1598V18.72H51.9998V15.44C51.9998 15 51.9065 14.68 51.7198 14.48C51.5332 14.2667 51.2532 14.16 50.8798 14.16C50.0798 14.16 49.6798 14.5867 49.6798 15.44V18.72H50.5198V22H44.1998V18.72H45.0798V14.16H44.1998V10.88H49.6798V12.44C50.6398 11.2133 51.8398 10.6 53.2798 10.6C54.3865 10.6 55.2132 10.9467 55.7598 11.64C56.3198 12.3333 56.5998 13.2867 56.5998 14.5V18.72H57.4798ZM77.2817 18.72V22H71.8017V20.44C70.8417 21.6667 69.6417 22.28 68.2017 22.28C67.0951 22.28 66.2617 21.9333 65.7017 21.24C65.1551 20.5467 64.8817 19.5933 64.8817 18.38V14.16H64.0017V10.88H69.4817V17.44C69.4817 17.88 69.5751 18.2067 69.7617 18.42C69.9617 18.62 70.2551 18.72 70.6417 18.72C71.0284 18.72 71.3151 18.62 71.5017 18.42C71.7017 18.2067 71.8017 17.88 71.8017 17.44V14.16H70.7217V10.88H76.4017V18.72H77.2817ZM77.7527 23.16H78.6327V14.16H77.7527V10.88H83.2327V12.24C83.566 11.8133 83.9927 11.4333 84.5127 11.1C85.046 10.7667 85.6527 10.6 86.3327 10.6C87.6927 10.6 88.7127 11.1067 89.3927 12.12C90.086 13.1333 90.4327 14.5733 90.4327 16.44C90.4327 18.3067 90.086 19.7467 89.3927 20.76C88.7127 21.7733 87.6927 22.28 86.3327 22.28C85.6527 22.28 85.046 22.1133 84.5127 21.78C83.9927 21.4467 83.566 21.0667 83.2327 20.64V23.16H84.6127V26.44H77.7527V23.16ZM84.3927 18.72C84.7793 18.72 85.066 18.62 85.2527 18.42C85.4527 18.2067 85.5527 17.88 85.5527 17.44V15.44C85.5527 15 85.4527 14.68 85.2527 14.48C85.066 14.2667 84.7793 14.16 84.3927 14.16C84.006 14.16 83.7127 14.2667 83.5127 14.48C83.326 14.68 83.2327 15 83.2327 15.44V17.44C83.2327 17.88 83.326 18.2067 83.5127 18.42C83.7127 18.62 84.006 18.72 84.3927 18.72Z" fill="#FADCD5"/>
</g>
<defs>
<clipPath id="clip0_33_73">
<rect width="100" height="29" fill="white"/>
</clipPath>
</defs>
</svg>
