<svg width="100" height="40" viewBox="0 0 100 40" fill="none" xmlns="http://www.w3.org/2000/svg">
<rect x="12" y="11" width="77" height="21" rx="5" fill="black"/>
<rect x="12.5" y="10.5" width="75" height="19" rx="4.5" fill="#DEBDBD" stroke="black"/>
<path d="M26.6456 22.05C26.6456 21.8 26.5556 21.595 26.3756 21.435C26.1956 21.265 25.9606 21.115 25.6706 20.985C25.3906 20.845 25.0906 20.705 24.7706 20.565C24.4606 20.425 24.1606 20.265 23.8706 20.085C23.5906 19.895 23.3606 19.66 23.1806 19.38C23.0006 19.09 22.9106 18.74 22.9106 18.33C22.9106 18.33 22.9506 18.33 23.0306 18.33C23.1206 18.33 23.2306 18.33 23.3606 18.33C23.5006 18.33 23.6356 18.33 23.7656 18.33C23.8956 18.33 24.0056 18.33 24.0956 18.33C24.1856 18.33 24.2306 18.33 24.2306 18.33C24.2306 18.58 24.3206 18.79 24.5006 18.96C24.6806 19.12 24.9106 19.265 25.1906 19.395C25.4806 19.525 25.7856 19.665 26.1056 19.815C26.4256 19.955 26.7256 20.12 27.0056 20.31C27.2856 20.5 27.5156 20.735 27.6956 21.015C27.8856 21.285 27.9806 21.63 27.9806 22.05C27.9806 22.05 27.9356 22.05 27.8456 22.05C27.7556 22.05 27.6406 22.05 27.5006 22.05C27.3706 22.05 27.2406 22.05 27.1106 22.05C26.9806 22.05 26.8706 22.05 26.7806 22.05C26.6906 22.05 26.6456 22.05 26.6456 22.05ZM25.3706 24.225V23.04C25.7406 23.04 26.0456 22.95 26.2856 22.77C26.5256 22.58 26.6456 22.34 26.6456 22.05H27.9806C27.9806 22.47 27.8656 22.845 27.6356 23.175C27.4156 23.505 27.1106 23.765 26.7206 23.955C26.3306 24.135 25.8806 24.225 25.3706 24.225ZM22.9106 18.33C22.9106 17.92 23.0106 17.555 23.2106 17.235C23.4206 16.905 23.7106 16.65 24.0806 16.47C24.4506 16.28 24.8606 16.185 25.3106 16.185V17.37C25.0006 17.37 24.7406 17.46 24.5306 17.64C24.3306 17.82 24.2306 18.05 24.2306 18.33H22.9106ZM23.9456 21.735C23.9956 22.175 24.1556 22.505 24.4256 22.725C24.6956 22.935 25.0106 23.04 25.3706 23.04V24.225C24.9106 24.225 24.4856 24.13 24.0956 23.94C23.7056 23.75 23.3856 23.485 23.1356 23.145C22.8956 22.805 22.7456 22.42 22.6856 21.99L23.9456 21.735ZM26.7206 18.675C26.6706 18.225 26.5106 17.895 26.2406 17.685C25.9806 17.475 25.6706 17.37 25.3106 17.37V16.185C25.7806 16.185 26.2056 16.28 26.5856 16.47C26.9656 16.66 27.2806 16.925 27.5306 17.265C27.7806 17.595 27.9356 17.98 27.9956 18.42L26.7206 18.675ZM29.8691 21.705V13.41L31.2341 13.425V21.705H29.8691ZM28.9991 17.55V16.425H33.1241V17.55H28.9991ZM29.8691 21.69H31.2341C31.2341 21.98 31.2741 22.225 31.3541 22.425C31.4341 22.625 31.5491 22.78 31.6991 22.89C31.8491 22.99 32.0291 23.04 32.2391 23.04L32.1191 24.225C31.4191 24.225 30.8691 24.005 30.4691 23.565C30.0691 23.115 29.8691 22.49 29.8691 21.69ZM32.9441 22.785L33.4841 23.76C33.2841 23.91 33.0641 24.025 32.8241 24.105C32.5941 24.185 32.3591 24.225 32.1191 24.225L32.2391 23.04C32.3691 23.04 32.4891 23.02 32.5991 22.98C32.7191 22.93 32.8341 22.865 32.9441 22.785ZM38.4339 24V18.84H39.7989V24H38.4339ZM36.6039 24.225L36.7089 23.1C37.0689 23.1 37.3739 23.01 37.6239 22.83C37.8839 22.65 38.0839 22.385 38.2239 22.035C38.3639 21.685 38.4339 21.27 38.4339 20.79L39.1089 20.76C39.1089 21.44 38.9989 22.04 38.7789 22.56C38.5589 23.08 38.2589 23.49 37.8789 23.79C37.5089 24.08 37.0839 24.225 36.6039 24.225ZM36.6039 24.225C36.1539 24.225 35.7439 24.12 35.3739 23.91C35.0039 23.7 34.7089 23.415 34.4889 23.055C34.2689 22.685 34.1589 22.275 34.1589 21.825L35.4489 21.78C35.4489 22.16 35.5739 22.475 35.8239 22.725C36.0839 22.975 36.3789 23.1 36.7089 23.1L36.6039 24.225ZM34.1589 21.825C34.1589 21.355 34.2739 20.945 34.5039 20.595C34.7439 20.235 35.0639 19.95 35.4639 19.74C35.8639 19.53 36.3189 19.425 36.8289 19.425L36.9039 20.475C36.4839 20.475 36.1339 20.6 35.8539 20.85C35.5839 21.09 35.4489 21.4 35.4489 21.78L34.1589 21.825ZM36.9039 20.475L36.8289 19.425H39.1389V20.475H36.9039ZM38.4339 20.79V18.855H39.1089V20.76L38.4339 20.79ZM39.7989 18.87H38.4339C38.4339 18.43 38.2989 18.07 38.0289 17.79C37.7689 17.51 37.4289 17.37 37.0089 17.37V16.2C37.5489 16.2 38.0239 16.315 38.4339 16.545C38.8539 16.775 39.1839 17.095 39.4239 17.505C39.6739 17.905 39.7989 18.36 39.7989 18.87ZM35.5989 18.69L34.3389 18.435C34.3989 17.985 34.5489 17.595 34.7889 17.265C35.0389 16.935 35.3539 16.675 35.7339 16.485C36.1239 16.295 36.5539 16.2 37.0239 16.2V17.37C36.6539 17.37 36.3339 17.48 36.0639 17.7C35.8039 17.91 35.6489 18.24 35.5989 18.69ZM41.3272 24V16.425H42.6922V24H41.3272ZM42.0772 18.93C42.0772 18.42 42.1622 17.965 42.3322 17.565C42.5022 17.155 42.7322 16.835 43.0222 16.605C43.3222 16.375 43.6522 16.26 44.0122 16.26L43.8922 17.535C43.5422 17.535 43.2522 17.67 43.0222 17.94C42.8022 18.2 42.6922 18.53 42.6922 18.93H42.0772ZM44.7922 17.88C44.6722 17.78 44.5272 17.7 44.3572 17.64C44.1972 17.57 44.0422 17.535 43.8922 17.535L44.0122 16.26C44.2422 16.26 44.4672 16.305 44.6872 16.395C44.9072 16.475 45.0972 16.59 45.2572 16.74L44.7922 17.88ZM46.876 21.705V13.41L48.241 13.425V21.705H46.876ZM46.006 17.55V16.425H50.131V17.55H46.006ZM46.876 21.69H48.241C48.241 21.98 48.281 22.225 48.361 22.425C48.441 22.625 48.556 22.78 48.706 22.89C48.856 22.99 49.036 23.04 49.246 23.04L49.126 24.225C48.426 24.225 47.876 24.005 47.476 23.565C47.076 23.115 46.876 22.49 46.876 21.69ZM49.951 22.785L50.491 23.76C50.291 23.91 50.071 24.025 49.831 24.105C49.601 24.185 49.366 24.225 49.126 24.225L49.246 23.04C49.376 23.04 49.496 23.02 49.606 22.98C49.726 22.93 49.841 22.865 49.951 22.785ZM54.5108 24V16.425H55.8758V24H54.5108ZM58.7258 24V18.84H60.0908V24H58.7258ZM58.7258 18.84C58.7258 18.42 58.5958 18.08 58.3358 17.82C58.0758 17.55 57.7408 17.415 57.3308 17.415L57.6758 16.2C58.1358 16.2 58.5458 16.315 58.9058 16.545C59.2758 16.775 59.5658 17.09 59.7758 17.49C59.9858 17.89 60.0908 18.34 60.0908 18.84H58.7258ZM55.2758 18.87C55.2758 18.36 55.3808 17.905 55.5908 17.505C55.8008 17.095 56.0858 16.775 56.4458 16.545C56.8058 16.315 57.2158 16.2 57.6758 16.2L57.3308 17.415C56.9008 17.415 56.5508 17.55 56.2808 17.82C56.0108 18.09 55.8758 18.44 55.8758 18.87H55.2758ZM65.4553 21.315V19.11H66.8203V21.315H65.4553ZM61.2403 21.315V19.11H62.6053V21.315H61.2403ZM63.9853 17.385V16.2H64.0753V17.385H63.9853ZM63.9853 24.225V23.04H64.0753V24.225H63.9853ZM61.2403 19.125C61.2403 18.565 61.3603 18.065 61.6003 17.625C61.8503 17.185 62.1803 16.84 62.5903 16.59C63.0103 16.33 63.4853 16.2 64.0153 16.2V17.385C63.5753 17.385 63.2303 17.535 62.9803 17.835C62.7303 18.135 62.6053 18.565 62.6053 19.125H61.2403ZM66.8203 19.125H65.4553C65.4553 18.565 65.3303 18.135 65.0803 17.835C64.8403 17.535 64.4953 17.385 64.0453 17.385V16.2C64.5753 16.2 65.0453 16.33 65.4553 16.59C65.8753 16.84 66.2053 17.185 66.4453 17.625C66.6953 18.065 66.8203 18.565 66.8203 19.125ZM61.2403 21.3H62.6053C62.6053 21.85 62.7303 22.28 62.9803 22.59C63.2303 22.89 63.5753 23.04 64.0153 23.04V24.225C63.4853 24.225 63.0103 24.1 62.5903 23.85C62.1803 23.59 61.8503 23.24 61.6003 22.8C61.3603 22.36 61.2403 21.86 61.2403 21.3ZM66.8203 21.3C66.8203 21.86 66.6953 22.36 66.4453 22.8C66.2053 23.24 65.8753 23.59 65.4553 23.85C65.0453 24.1 64.5753 24.225 64.0453 24.225V23.04C64.4953 23.04 64.8403 22.89 65.0803 22.59C65.3303 22.28 65.4553 21.85 65.4553 21.3H66.8203ZM74.1011 24L76.0211 16.425H77.3861L75.3611 24H74.1011ZM69.8261 24L67.8011 16.425H69.1661L71.0861 24H69.8261ZM70.0361 24L71.9861 16.425H73.1861L71.2061 24H70.0361ZM73.9961 24L72.0011 16.425H73.2011L75.1511 24H73.9961Z" fill="black"/>
</svg>
