<svg width="258" height="85" viewBox="0 0 258 85" fill="none" xmlns="http://www.w3.org/2000/svg">
<path d="M68.3239 13.28H64.8839V11.72H63.6039V20.72H65.0039V24H56.6039V20.72H58.0039V11.72H56.7239V13.28H53.2839V8.44H68.3239V13.28ZM82.2494 20.72V24H75.9294V20.72H76.7694V17.44C76.7694 17 76.676 16.68 76.4894 16.48C76.3027 16.2667 76.0227 16.16 75.6494 16.16C74.8494 16.16 74.4494 16.5867 74.4494 17.44V20.72H75.2894V24H68.9694V20.72H69.8494V11.72H68.9694V8.44H74.4494V14.44C74.9427 13.8267 75.476 13.3667 76.0494 13.06C76.6227 12.7533 77.2894 12.6 78.0494 12.6C79.156 12.6 79.9827 12.9467 80.5294 13.64C81.0894 14.3333 81.3694 15.2867 81.3694 16.5V20.72H82.2494ZM88.8552 24.28C86.9618 24.28 85.4818 23.7867 84.4152 22.8C83.3485 21.8 82.8152 20.3467 82.8152 18.44C82.8152 16.5333 83.3485 15.0867 84.4152 14.1C85.4818 13.1 86.9618 12.6 88.8552 12.6C90.7352 12.6 92.0885 13.0933 92.9152 14.08C93.7552 15.0533 94.1752 16.2667 94.1752 17.72V19.16H87.6952V19.28C87.6952 19.7733 87.8418 20.14 88.1352 20.38C88.4285 20.6067 88.9152 20.72 89.5952 20.72C90.4085 20.72 91.1818 20.66 91.9152 20.54C92.6485 20.42 93.2885 20.2667 93.8352 20.08V23.28C93.3685 23.5333 92.6818 23.7667 91.7752 23.98C90.8818 24.18 89.9085 24.28 88.8552 24.28ZM90.0152 16.96V16.72C90.0152 16.2667 89.9152 15.94 89.7152 15.74C89.5285 15.54 89.2418 15.44 88.8552 15.44C88.4685 15.44 88.1752 15.5467 87.9752 15.76C87.7885 15.96 87.6952 16.28 87.6952 16.72V16.96H90.0152ZM100.806 20.72H101.806V11.72H100.806V8.44H109.986C111.653 8.44 112.953 8.78 113.886 9.46C114.82 10.14 115.286 11.1133 115.286 12.38C115.286 13.1667 115.1 13.8333 114.726 14.38C114.353 14.9133 113.913 15.32 113.406 15.6C112.913 15.8667 112.433 16.0467 111.966 16.14V16.34C112.913 16.4333 113.766 16.7333 114.526 17.24C115.286 17.7467 115.666 18.6533 115.666 19.96C115.666 21.36 115.14 22.3867 114.086 23.04C113.033 23.68 111.666 24 109.986 24H100.806V20.72ZM108.486 15C108.873 15 109.16 14.9 109.346 14.7C109.546 14.4867 109.646 14.16 109.646 13.72V13C109.646 12.56 109.546 12.24 109.346 12.04C109.16 11.8267 108.873 11.72 108.486 11.72H107.406V15H108.486ZM108.626 20.72C109.013 20.72 109.3 20.62 109.486 20.42C109.686 20.2067 109.786 19.88 109.786 19.44V18.56C109.786 18.12 109.686 17.8 109.486 17.6C109.3 17.3867 109.013 17.28 108.626 17.28H107.406V20.72H108.626ZM122.234 24.28C120.341 24.28 118.861 23.7867 117.794 22.8C116.727 21.8 116.194 20.3467 116.194 18.44C116.194 16.5333 116.727 15.0867 117.794 14.1C118.861 13.1 120.341 12.6 122.234 12.6C124.114 12.6 125.467 13.0933 126.294 14.08C127.134 15.0533 127.554 16.2667 127.554 17.72V19.16H121.074V19.28C121.074 19.7733 121.221 20.14 121.514 20.38C121.807 20.6067 122.294 20.72 122.974 20.72C123.787 20.72 124.561 20.66 125.294 20.54C126.027 20.42 126.667 20.2667 127.214 20.08V23.28C126.747 23.5333 126.061 23.7667 125.154 23.98C124.261 24.18 123.287 24.28 122.234 24.28ZM123.394 16.96V16.72C123.394 16.2667 123.294 15.94 123.094 15.74C122.907 15.54 122.621 15.44 122.234 15.44C121.847 15.44 121.554 15.5467 121.354 15.76C121.167 15.96 121.074 16.28 121.074 16.72V16.96H123.394ZM139.809 20.72V24H134.529V22.64C134.236 23.0667 133.822 23.4467 133.289 23.78C132.769 24.1133 132.129 24.28 131.369 24.28C130.369 24.28 129.582 24.0133 129.009 23.48C128.436 22.9467 128.149 22.1933 128.149 21.22C128.149 18.7 130.289 17.4067 134.569 17.34C134.529 16.8867 134.356 16.58 134.049 16.42C133.742 16.2467 133.222 16.16 132.489 16.16C131.889 16.16 131.242 16.2267 130.549 16.36C129.869 16.48 129.242 16.6467 128.669 16.86V13.18C129.376 13.0067 130.142 12.8667 130.969 12.76C131.796 12.6533 132.602 12.6 133.389 12.6C135.376 12.6 136.796 12.96 137.649 13.68C138.502 14.4 138.929 15.5133 138.929 17.02V20.72H139.809ZM134.529 19.32C133.929 19.32 133.462 19.4 133.129 19.56C132.809 19.72 132.649 19.9867 132.649 20.36C132.649 20.5867 132.716 20.7733 132.849 20.92C132.996 21.0533 133.196 21.12 133.449 21.12C133.796 21.12 134.062 20.9733 134.249 20.68C134.436 20.3867 134.529 19.9733 134.529 19.44V19.32ZM153.734 20.72V24H147.414V20.72H148.254V17.44C148.254 17 148.16 16.68 147.974 16.48C147.787 16.2667 147.507 16.16 147.134 16.16C146.334 16.16 145.934 16.5867 145.934 17.44V20.72H146.774V24H140.454V20.72H141.334V16.16H140.454V12.88H145.934V14.44C146.894 13.2133 148.094 12.6 149.534 12.6C150.64 12.6 151.467 12.9467 152.014 13.64C152.574 14.3333 152.854 15.2867 152.854 16.5V20.72H153.734ZM160.416 24V20.72H161.416V11.72H160.416V8.44H172.376V13.62H168.836V11.72H167.016V15.04H170.036V17.32H167.016V20.72H169.636V24H160.416ZM178.172 24.28C176.278 24.28 174.798 23.7867 173.732 22.8C172.665 21.8 172.132 20.3467 172.132 18.44C172.132 16.5333 172.665 15.0867 173.732 14.1C174.798 13.1 176.278 12.6 178.172 12.6C180.092 12.6 181.578 13.1067 182.632 14.12C183.685 15.12 184.212 16.56 184.212 18.44C184.212 20.3467 183.678 21.8 182.612 22.8C181.545 23.7867 180.065 24.28 178.172 24.28ZM178.172 20.72C178.558 20.72 178.845 20.62 179.032 20.42C179.232 20.2067 179.332 19.88 179.332 19.44V17.44C179.332 17 179.232 16.68 179.032 16.48C178.845 16.2667 178.558 16.16 178.172 16.16C177.785 16.16 177.492 16.2667 177.292 16.48C177.105 16.68 177.012 17 177.012 17.44V19.44C177.012 19.88 177.105 20.2067 177.292 20.42C177.492 20.62 177.785 20.72 178.172 20.72ZM193.388 12.6C193.655 12.6 193.908 12.6267 194.148 12.68C194.388 12.7333 194.588 12.8 194.748 12.88V16.7C194.202 16.4733 193.615 16.36 192.988 16.36C192.148 16.36 191.502 16.58 191.048 17.02C190.595 17.46 190.368 18.1133 190.368 18.98V20.72H192.168V24H184.888V20.72H185.768V16.16H184.888V12.88H190.368V14.34C190.742 13.78 191.168 13.3533 191.648 13.06C192.128 12.7533 192.708 12.6 193.388 12.6ZM201.255 28.72C200.295 28.72 199.375 28.6533 198.495 28.52C197.628 28.3867 196.955 28.2333 196.475 28.06V24.78C197.888 25.0333 199.155 25.16 200.275 25.16C201.035 25.16 201.582 25.04 201.915 24.8C202.262 24.5733 202.435 24.14 202.435 23.5V22.64C202.102 23.0667 201.668 23.4467 201.135 23.78C200.615 24.1133 200.015 24.28 199.335 24.28C197.975 24.28 196.948 23.7733 196.255 22.76C195.575 21.7467 195.235 20.3067 195.235 18.44C195.235 16.5733 195.575 15.1333 196.255 14.12C196.948 13.1067 197.975 12.6 199.335 12.6C200.015 12.6 200.615 12.7667 201.135 13.1C201.668 13.4333 202.102 13.8133 202.435 14.24V12.88H207.915V16.16H207.035V23.2C207.035 25.1333 206.555 26.5333 205.595 27.4C204.635 28.28 203.188 28.72 201.255 28.72ZM201.275 20.72C201.662 20.72 201.948 20.62 202.135 20.42C202.335 20.2067 202.435 19.88 202.435 19.44V17.44C202.435 17 202.335 16.68 202.135 16.48C201.948 16.2667 201.662 16.16 201.275 16.16C200.888 16.16 200.595 16.2667 200.395 16.48C200.208 16.68 200.115 17 200.115 17.44V19.44C200.115 19.88 200.208 20.2067 200.395 20.42C200.595 20.62 200.888 20.72 201.275 20.72ZM214.441 24.28C212.548 24.28 211.068 23.7867 210.001 22.8C208.934 21.8 208.401 20.3467 208.401 18.44C208.401 16.5333 208.934 15.0867 210.001 14.1C211.068 13.1 212.548 12.6 214.441 12.6C216.321 12.6 217.674 13.0933 218.501 14.08C219.341 15.0533 219.761 16.2667 219.761 17.72V19.16H213.281V19.28C213.281 19.7733 213.428 20.14 213.721 20.38C214.014 20.6067 214.501 20.72 215.181 20.72C215.994 20.72 216.768 20.66 217.501 20.54C218.234 20.42 218.874 20.2667 219.421 20.08V23.28C218.954 23.5333 218.268 23.7667 217.361 23.98C216.468 24.18 215.494 24.28 214.441 24.28ZM215.601 16.96V16.72C215.601 16.2667 215.501 15.94 215.301 15.74C215.114 15.54 214.828 15.44 214.441 15.44C214.054 15.44 213.761 15.5467 213.561 15.76C213.374 15.96 213.281 16.28 213.281 16.72V16.96H215.601ZM48.873 35.44H55.273V38.72H54.473L51.493 51H45.513L43.693 42.36H43.493L41.573 51H35.593L32.413 38.72H31.613V35.44H39.013V38.72H38.253L39.033 43.82H39.233L41.133 35.44H46.893L48.653 43.82H48.853L49.633 38.72H48.873V35.44ZM69.1537 47.72V51H62.8337V47.72H63.6737V44.44C63.6737 44 63.5803 43.68 63.3937 43.48C63.207 43.2667 62.927 43.16 62.5537 43.16C61.7537 43.16 61.3537 43.5867 61.3537 44.44V47.72H62.1937V51H55.8737V47.72H56.7537V38.72H55.8737V35.44H61.3537V41.44C61.847 40.8267 62.3803 40.3667 62.9537 40.06C63.527 39.7533 64.1937 39.6 64.9537 39.6C66.0603 39.6 66.887 39.9467 67.4337 40.64C67.9937 41.3333 68.2737 42.2867 68.2737 43.5V47.72H69.1537ZM75.7595 51.28C73.8661 51.28 72.3861 50.7867 71.3195 49.8C70.2528 48.8 69.7195 47.3467 69.7195 45.44C69.7195 43.5333 70.2528 42.0867 71.3195 41.1C72.3861 40.1 73.8661 39.6 75.7595 39.6C77.6395 39.6 78.9928 40.0933 79.8195 41.08C80.6595 42.0533 81.0795 43.2667 81.0795 44.72V46.16H74.5995V46.28C74.5995 46.7733 74.7461 47.14 75.0395 47.38C75.3328 47.6067 75.8195 47.72 76.4995 47.72C77.3128 47.72 78.0861 47.66 78.8195 47.54C79.5528 47.42 80.1928 47.2667 80.7395 47.08V50.28C80.2728 50.5333 79.5861 50.7667 78.6795 50.98C77.7861 51.18 76.8128 51.28 75.7595 51.28ZM76.9195 43.96V43.72C76.9195 43.2667 76.8195 42.94 76.6195 42.74C76.4328 42.54 76.1461 42.44 75.7595 42.44C75.3728 42.44 75.0795 42.5467 74.8795 42.76C74.6928 42.96 74.5995 43.28 74.5995 43.72V43.96H76.9195ZM90.2145 39.6C90.4811 39.6 90.7345 39.6267 90.9745 39.68C91.2145 39.7333 91.4145 39.8 91.5745 39.88V43.7C91.0278 43.4733 90.4411 43.36 89.8145 43.36C88.9745 43.36 88.3278 43.58 87.8745 44.02C87.4211 44.46 87.1945 45.1133 87.1945 45.98V47.72H88.9945V51H81.7145V47.72H82.5945V43.16H81.7145V39.88H87.1945V41.34C87.5678 40.78 87.9945 40.3533 88.4745 40.06C88.9545 39.7533 89.5345 39.6 90.2145 39.6ZM98.1813 51.28C96.288 51.28 94.808 50.7867 93.7413 49.8C92.6747 48.8 92.1413 47.3467 92.1413 45.44C92.1413 43.5333 92.6747 42.0867 93.7413 41.1C94.808 40.1 96.288 39.6 98.1813 39.6C100.061 39.6 101.415 40.0933 102.241 41.08C103.081 42.0533 103.501 43.2667 103.501 44.72V46.16H97.0213V46.28C97.0213 46.7733 97.168 47.14 97.4613 47.38C97.7547 47.6067 98.2413 47.72 98.9213 47.72C99.7347 47.72 100.508 47.66 101.241 47.54C101.975 47.42 102.615 47.2667 103.161 47.08V50.28C102.695 50.5333 102.008 50.7667 101.101 50.98C100.208 51.18 99.2347 51.28 98.1813 51.28ZM99.3413 43.96V43.72C99.3413 43.2667 99.2413 42.94 99.0413 42.74C98.8547 42.54 98.568 42.44 98.1813 42.44C97.7947 42.44 97.5013 42.5467 97.3013 42.76C97.1147 42.96 97.0213 43.28 97.0213 43.72V43.96H99.3413ZM110.132 51V47.72H111.132V38.72H110.132V35.44H118.572V38.72H116.732V47.72H118.532V45.88H122.512V51H110.132ZM129.119 51.28C127.225 51.28 125.745 50.7867 124.679 49.8C123.612 48.8 123.079 47.3467 123.079 45.44C123.079 43.5333 123.612 42.0867 124.679 41.1C125.745 40.1 127.225 39.6 129.119 39.6C130.999 39.6 132.352 40.0933 133.179 41.08C134.019 42.0533 134.439 43.2667 134.439 44.72V46.16H127.959V46.28C127.959 46.7733 128.105 47.14 128.399 47.38C128.692 47.6067 129.179 47.72 129.859 47.72C130.672 47.72 131.445 47.66 132.179 47.54C132.912 47.42 133.552 47.2667 134.099 47.08V50.28C133.632 50.5333 132.945 50.7667 132.039 50.98C131.145 51.18 130.172 51.28 129.119 51.28ZM130.279 43.96V43.72C130.279 43.2667 130.179 42.94 129.979 42.74C129.792 42.54 129.505 42.44 129.119 42.44C128.732 42.44 128.439 42.5467 128.239 42.76C128.052 42.96 127.959 43.28 127.959 43.72V43.96H130.279ZM140.894 55.72C139.934 55.72 139.014 55.6533 138.134 55.52C137.267 55.3867 136.594 55.2333 136.114 55.06V51.78C137.527 52.0333 138.794 52.16 139.914 52.16C140.674 52.16 141.22 52.04 141.554 51.8C141.9 51.5733 142.074 51.14 142.074 50.5V49.64C141.74 50.0667 141.307 50.4467 140.774 50.78C140.254 51.1133 139.654 51.28 138.974 51.28C137.614 51.28 136.587 50.7733 135.894 49.76C135.214 48.7467 134.874 47.3067 134.874 45.44C134.874 43.5733 135.214 42.1333 135.894 41.12C136.587 40.1067 137.614 39.6 138.974 39.6C139.654 39.6 140.254 39.7667 140.774 40.1C141.307 40.4333 141.74 40.8133 142.074 41.24V39.88H147.554V43.16H146.674V50.2C146.674 52.1333 146.194 53.5333 145.234 54.4C144.274 55.28 142.827 55.72 140.894 55.72ZM140.914 47.72C141.3 47.72 141.587 47.62 141.774 47.42C141.974 47.2067 142.074 46.88 142.074 46.44V44.44C142.074 44 141.974 43.68 141.774 43.48C141.587 43.2667 141.3 43.16 140.914 43.16C140.527 43.16 140.234 43.2667 140.034 43.48C139.847 43.68 139.754 44 139.754 44.44V46.44C139.754 46.88 139.847 47.2067 140.034 47.42C140.234 47.62 140.527 47.72 140.914 47.72ZM154.08 51.28C152.186 51.28 150.706 50.7867 149.64 49.8C148.573 48.8 148.04 47.3467 148.04 45.44C148.04 43.5333 148.573 42.0867 149.64 41.1C150.706 40.1 152.186 39.6 154.08 39.6C155.96 39.6 157.313 40.0933 158.14 41.08C158.98 42.0533 159.4 43.2667 159.4 44.72V46.16H152.92V46.28C152.92 46.7733 153.066 47.14 153.36 47.38C153.653 47.6067 154.14 47.72 154.82 47.72C155.633 47.72 156.406 47.66 157.14 47.54C157.873 47.42 158.513 47.2667 159.06 47.08V50.28C158.593 50.5333 157.906 50.7667 157 50.98C156.106 51.18 155.133 51.28 154.08 51.28ZM155.24 43.96V43.72C155.24 43.2667 155.14 42.94 154.94 42.74C154.753 42.54 154.466 42.44 154.08 42.44C153.693 42.44 153.4 42.5467 153.2 42.76C153.013 42.96 152.92 43.28 152.92 43.72V43.96H155.24ZM173.275 47.72V51H166.955V47.72H167.795V44.44C167.795 44 167.701 43.68 167.515 43.48C167.328 43.2667 167.048 43.16 166.675 43.16C165.875 43.16 165.475 43.5867 165.475 44.44V47.72H166.315V51H159.995V47.72H160.875V43.16H159.995V39.88H165.475V41.44C166.435 40.2133 167.635 39.6 169.075 39.6C170.181 39.6 171.008 39.9467 171.555 40.64C172.115 41.3333 172.395 42.2867 172.395 43.5V47.72H173.275ZM177.861 51.28C176.501 51.28 175.474 50.7733 174.781 49.76C174.101 48.7467 173.761 47.3067 173.761 45.44C173.761 43.5733 174.101 42.1333 174.781 41.12C175.474 40.1067 176.501 39.6 177.861 39.6C178.541 39.6 179.141 39.7667 179.661 40.1C180.194 40.4333 180.627 40.8133 180.961 41.24V38.72H179.781V35.44H185.561V47.72H186.441V51H180.961V49.64C180.627 50.0667 180.194 50.4467 179.661 50.78C179.141 51.1133 178.541 51.28 177.861 51.28ZM179.801 47.72C180.187 47.72 180.474 47.62 180.661 47.42C180.861 47.2067 180.961 46.88 180.961 46.44V44.44C180.961 44 180.861 43.68 180.661 43.48C180.474 43.2667 180.187 43.16 179.801 43.16C179.414 43.16 179.121 43.2667 178.921 43.48C178.734 43.68 178.641 44 178.641 44.44V46.44C178.641 46.88 178.734 47.2067 178.921 47.42C179.121 47.62 179.414 47.72 179.801 47.72ZM191.945 51.28C190.265 51.28 188.645 51.0133 187.085 50.48V47.52H190.325V47.72C190.325 48.36 190.731 48.68 191.545 48.68C192.265 48.68 192.625 48.4333 192.625 47.94C192.625 47.6733 192.518 47.4733 192.305 47.34C192.105 47.2067 191.745 47.0933 191.225 47L190.225 46.82C188.131 46.4467 187.085 45.26 187.085 43.26C187.085 42.1 187.525 41.2 188.405 40.56C189.285 39.92 190.471 39.6 191.965 39.6C193.631 39.6 195.038 39.88 196.185 40.44V43.22H193.145V43.02C193.145 42.7533 193.051 42.5533 192.865 42.42C192.691 42.2733 192.431 42.2 192.085 42.2C191.418 42.2 191.085 42.4133 191.085 42.84C191.085 43.0667 191.178 43.24 191.365 43.36C191.551 43.48 191.891 43.5933 192.385 43.7L193.525 43.92C194.711 44.1467 195.558 44.5667 196.065 45.18C196.571 45.7933 196.825 46.58 196.825 47.54C196.825 48.7533 196.398 49.68 195.545 50.32C194.705 50.96 193.505 51.28 191.945 51.28ZM218.172 47.72H218.972V51H211.132V47.72H212.332L212.012 46.12H209.292L208.972 47.72H210.172V51H203.332V47.72H204.132L207.512 35.44H214.792L218.172 47.72ZM209.732 44H211.572L210.752 40.02H210.552L209.732 44ZM228.105 39.6C228.372 39.6 228.625 39.6267 228.865 39.68C229.105 39.7333 229.305 39.8 229.465 39.88V43.7C228.918 43.4733 228.332 43.36 227.705 43.36C226.865 43.36 226.218 43.58 225.765 44.02C225.312 44.46 225.085 45.1133 225.085 45.98V47.72H226.885V51H219.605V47.72H220.485V43.16H219.605V39.88H225.085V41.34C225.458 40.78 225.885 40.3533 226.365 40.06C226.845 39.7533 227.425 39.6 228.105 39.6ZM236.072 51.28C234.179 51.28 232.699 50.7867 231.632 49.8C230.565 48.8 230.032 47.3467 230.032 45.44C230.032 43.5333 230.565 42.0867 231.632 41.1C232.699 40.1 234.179 39.6 236.072 39.6C237.952 39.6 239.305 40.0933 240.132 41.08C240.972 42.0533 241.392 43.2667 241.392 44.72V46.16H234.912V46.28C234.912 46.7733 235.059 47.14 235.352 47.38C235.645 47.6067 236.132 47.72 236.812 47.72C237.625 47.72 238.399 47.66 239.132 47.54C239.865 47.42 240.505 47.2667 241.052 47.08V50.28C240.585 50.5333 239.899 50.7667 238.992 50.98C238.099 51.18 237.125 51.28 236.072 51.28ZM237.232 43.96V43.72C237.232 43.2667 237.132 42.94 236.932 42.74C236.745 42.54 236.459 42.44 236.072 42.44C235.685 42.44 235.392 42.5467 235.192 42.76C235.005 42.96 234.912 43.28 234.912 43.72V43.96H237.232ZM110.591 74.72H111.591V65.72H110.591V62.44H119.771C121.438 62.44 122.738 62.78 123.671 63.46C124.605 64.14 125.071 65.1133 125.071 66.38C125.071 67.1667 124.885 67.8333 124.511 68.38C124.138 68.9133 123.698 69.32 123.191 69.6C122.698 69.8667 122.218 70.0467 121.751 70.14V70.34C122.698 70.4333 123.551 70.7333 124.311 71.24C125.071 71.7467 125.451 72.6533 125.451 73.96C125.451 75.36 124.925 76.3867 123.871 77.04C122.818 77.68 121.451 78 119.771 78H110.591V74.72ZM118.271 69C118.658 69 118.945 68.9 119.131 68.7C119.331 68.4867 119.431 68.16 119.431 67.72V67C119.431 66.56 119.331 66.24 119.131 66.04C118.945 65.8267 118.658 65.72 118.271 65.72H117.191V69H118.271ZM118.411 74.72C118.798 74.72 119.085 74.62 119.271 74.42C119.471 74.2067 119.571 73.88 119.571 73.44V72.56C119.571 72.12 119.471 71.8 119.271 71.6C119.085 71.3867 118.798 71.28 118.411 71.28H117.191V74.72H118.411ZM132.019 78.28C130.126 78.28 128.646 77.7867 127.579 76.8C126.513 75.8 125.979 74.3467 125.979 72.44C125.979 70.5333 126.513 69.0867 127.579 68.1C128.646 67.1 130.126 66.6 132.019 66.6C133.939 66.6 135.426 67.1067 136.479 68.12C137.533 69.12 138.059 70.56 138.059 72.44C138.059 74.3467 137.526 75.8 136.459 76.8C135.393 77.7867 133.913 78.28 132.019 78.28ZM132.019 74.72C132.406 74.72 132.693 74.62 132.879 74.42C133.079 74.2067 133.179 73.88 133.179 73.44V71.44C133.179 71 133.079 70.68 132.879 70.48C132.693 70.2667 132.406 70.16 132.019 70.16C131.633 70.16 131.339 70.2667 131.139 70.48C130.953 70.68 130.859 71 130.859 71.44V73.44C130.859 73.88 130.953 74.2067 131.139 74.42C131.339 74.62 131.633 74.72 132.019 74.72ZM147.236 66.6C147.503 66.6 147.756 66.6267 147.996 66.68C148.236 66.7333 148.436 66.8 148.596 66.88V70.7C148.049 70.4733 147.463 70.36 146.836 70.36C145.996 70.36 145.349 70.58 144.896 71.02C144.443 71.46 144.216 72.1133 144.216 72.98V74.72H146.016V78H138.736V74.72H139.616V70.16H138.736V66.88H144.216V68.34C144.589 67.78 145.016 67.3533 145.496 67.06C145.976 66.7533 146.556 66.6 147.236 66.6ZM162.523 74.72V78H156.203V74.72H157.043V71.44C157.043 71 156.949 70.68 156.763 70.48C156.576 70.2667 156.296 70.16 155.923 70.16C155.123 70.16 154.723 70.5867 154.723 71.44V74.72H155.563V78H149.243V74.72H150.123V70.16H149.243V66.88H154.723V68.44C155.683 67.2133 156.883 66.6 158.323 66.6C159.429 66.6 160.256 66.9467 160.803 67.64C161.363 68.3333 161.643 69.2867 161.643 70.5V74.72H162.523Z" fill="black"/>
<path d="M67.3239 11.28H63.8839V9.72H62.6039V18.72H64.0039V22H55.6039V18.72H57.0039V9.72H55.7239V11.28H52.2839V6.44H67.3239V11.28ZM81.2494 18.72V22H74.9294V18.72H75.7694V15.44C75.7694 15 75.676 14.68 75.4894 14.48C75.3027 14.2667 75.0227 14.16 74.6494 14.16C73.8494 14.16 73.4494 14.5867 73.4494 15.44V18.72H74.2894V22H67.9694V18.72H68.8494V9.72H67.9694V6.44H73.4494V12.44C73.9427 11.8267 74.476 11.3667 75.0494 11.06C75.6227 10.7533 76.2894 10.6 77.0494 10.6C78.156 10.6 78.9827 10.9467 79.5294 11.64C80.0894 12.3333 80.3694 13.2867 80.3694 14.5V18.72H81.2494ZM87.8552 22.28C85.9618 22.28 84.4818 21.7867 83.4152 20.8C82.3485 19.8 81.8152 18.3467 81.8152 16.44C81.8152 14.5333 82.3485 13.0867 83.4152 12.1C84.4818 11.1 85.9618 10.6 87.8552 10.6C89.7352 10.6 91.0885 11.0933 91.9152 12.08C92.7552 13.0533 93.1752 14.2667 93.1752 15.72V17.16H86.6952V17.28C86.6952 17.7733 86.8418 18.14 87.1352 18.38C87.4285 18.6067 87.9152 18.72 88.5952 18.72C89.4085 18.72 90.1818 18.66 90.9152 18.54C91.6485 18.42 92.2885 18.2667 92.8352 18.08V21.28C92.3685 21.5333 91.6818 21.7667 90.7752 21.98C89.8818 22.18 88.9085 22.28 87.8552 22.28ZM89.0152 14.96V14.72C89.0152 14.2667 88.9152 13.94 88.7152 13.74C88.5285 13.54 88.2418 13.44 87.8552 13.44C87.4685 13.44 87.1752 13.5467 86.9752 13.76C86.7885 13.96 86.6952 14.28 86.6952 14.72V14.96H89.0152ZM99.8063 18.72H100.806V9.72H99.8063V6.44H108.986C110.653 6.44 111.953 6.78 112.886 7.46C113.82 8.14 114.286 9.11333 114.286 10.38C114.286 11.1667 114.1 11.8333 113.726 12.38C113.353 12.9133 112.913 13.32 112.406 13.6C111.913 13.8667 111.433 14.0467 110.966 14.14V14.34C111.913 14.4333 112.766 14.7333 113.526 15.24C114.286 15.7467 114.666 16.6533 114.666 17.96C114.666 19.36 114.14 20.3867 113.086 21.04C112.033 21.68 110.666 22 108.986 22H99.8063V18.72ZM107.486 13C107.873 13 108.16 12.9 108.346 12.7C108.546 12.4867 108.646 12.16 108.646 11.72V11C108.646 10.56 108.546 10.24 108.346 10.04C108.16 9.82667 107.873 9.72 107.486 9.72H106.406V13H107.486ZM107.626 18.72C108.013 18.72 108.3 18.62 108.486 18.42C108.686 18.2067 108.786 17.88 108.786 17.44V16.56C108.786 16.12 108.686 15.8 108.486 15.6C108.3 15.3867 108.013 15.28 107.626 15.28H106.406V18.72H107.626ZM121.234 22.28C119.341 22.28 117.861 21.7867 116.794 20.8C115.727 19.8 115.194 18.3467 115.194 16.44C115.194 14.5333 115.727 13.0867 116.794 12.1C117.861 11.1 119.341 10.6 121.234 10.6C123.114 10.6 124.467 11.0933 125.294 12.08C126.134 13.0533 126.554 14.2667 126.554 15.72V17.16H120.074V17.28C120.074 17.7733 120.221 18.14 120.514 18.38C120.807 18.6067 121.294 18.72 121.974 18.72C122.787 18.72 123.561 18.66 124.294 18.54C125.027 18.42 125.667 18.2667 126.214 18.08V21.28C125.747 21.5333 125.061 21.7667 124.154 21.98C123.261 22.18 122.287 22.28 121.234 22.28ZM122.394 14.96V14.72C122.394 14.2667 122.294 13.94 122.094 13.74C121.907 13.54 121.621 13.44 121.234 13.44C120.847 13.44 120.554 13.5467 120.354 13.76C120.167 13.96 120.074 14.28 120.074 14.72V14.96H122.394ZM138.809 18.72V22H133.529V20.64C133.236 21.0667 132.822 21.4467 132.289 21.78C131.769 22.1133 131.129 22.28 130.369 22.28C129.369 22.28 128.582 22.0133 128.009 21.48C127.436 20.9467 127.149 20.1933 127.149 19.22C127.149 16.7 129.289 15.4067 133.569 15.34C133.529 14.8867 133.356 14.58 133.049 14.42C132.742 14.2467 132.222 14.16 131.489 14.16C130.889 14.16 130.242 14.2267 129.549 14.36C128.869 14.48 128.242 14.6467 127.669 14.86V11.18C128.376 11.0067 129.142 10.8667 129.969 10.76C130.796 10.6533 131.602 10.6 132.389 10.6C134.376 10.6 135.796 10.96 136.649 11.68C137.502 12.4 137.929 13.5133 137.929 15.02V18.72H138.809ZM133.529 17.32C132.929 17.32 132.462 17.4 132.129 17.56C131.809 17.72 131.649 17.9867 131.649 18.36C131.649 18.5867 131.716 18.7733 131.849 18.92C131.996 19.0533 132.196 19.12 132.449 19.12C132.796 19.12 133.062 18.9733 133.249 18.68C133.436 18.3867 133.529 17.9733 133.529 17.44V17.32ZM152.734 18.72V22H146.414V18.72H147.254V15.44C147.254 15 147.16 14.68 146.974 14.48C146.787 14.2667 146.507 14.16 146.134 14.16C145.334 14.16 144.934 14.5867 144.934 15.44V18.72H145.774V22H139.454V18.72H140.334V14.16H139.454V10.88H144.934V12.44C145.894 11.2133 147.094 10.6 148.534 10.6C149.64 10.6 150.467 10.9467 151.014 11.64C151.574 12.3333 151.854 13.2867 151.854 14.5V18.72H152.734ZM159.416 22V18.72H160.416V9.72H159.416V6.44H171.376V11.62H167.836V9.72H166.016V13.04H169.036V15.32H166.016V18.72H168.636V22H159.416ZM177.172 22.28C175.278 22.28 173.798 21.7867 172.732 20.8C171.665 19.8 171.132 18.3467 171.132 16.44C171.132 14.5333 171.665 13.0867 172.732 12.1C173.798 11.1 175.278 10.6 177.172 10.6C179.092 10.6 180.578 11.1067 181.632 12.12C182.685 13.12 183.212 14.56 183.212 16.44C183.212 18.3467 182.678 19.8 181.612 20.8C180.545 21.7867 179.065 22.28 177.172 22.28ZM177.172 18.72C177.558 18.72 177.845 18.62 178.032 18.42C178.232 18.2067 178.332 17.88 178.332 17.44V15.44C178.332 15 178.232 14.68 178.032 14.48C177.845 14.2667 177.558 14.16 177.172 14.16C176.785 14.16 176.492 14.2667 176.292 14.48C176.105 14.68 176.012 15 176.012 15.44V17.44C176.012 17.88 176.105 18.2067 176.292 18.42C176.492 18.62 176.785 18.72 177.172 18.72ZM192.388 10.6C192.655 10.6 192.908 10.6267 193.148 10.68C193.388 10.7333 193.588 10.8 193.748 10.88V14.7C193.202 14.4733 192.615 14.36 191.988 14.36C191.148 14.36 190.502 14.58 190.048 15.02C189.595 15.46 189.368 16.1133 189.368 16.98V18.72H191.168V22H183.888V18.72H184.768V14.16H183.888V10.88H189.368V12.34C189.742 11.78 190.168 11.3533 190.648 11.06C191.128 10.7533 191.708 10.6 192.388 10.6ZM200.255 26.72C199.295 26.72 198.375 26.6533 197.495 26.52C196.628 26.3867 195.955 26.2333 195.475 26.06V22.78C196.888 23.0333 198.155 23.16 199.275 23.16C200.035 23.16 200.582 23.04 200.915 22.8C201.262 22.5733 201.435 22.14 201.435 21.5V20.64C201.102 21.0667 200.668 21.4467 200.135 21.78C199.615 22.1133 199.015 22.28 198.335 22.28C196.975 22.28 195.948 21.7733 195.255 20.76C194.575 19.7467 194.235 18.3067 194.235 16.44C194.235 14.5733 194.575 13.1333 195.255 12.12C195.948 11.1067 196.975 10.6 198.335 10.6C199.015 10.6 199.615 10.7667 200.135 11.1C200.668 11.4333 201.102 11.8133 201.435 12.24V10.88H206.915V14.16H206.035V21.2C206.035 23.1333 205.555 24.5333 204.595 25.4C203.635 26.28 202.188 26.72 200.255 26.72ZM200.275 18.72C200.662 18.72 200.948 18.62 201.135 18.42C201.335 18.2067 201.435 17.88 201.435 17.44V15.44C201.435 15 201.335 14.68 201.135 14.48C200.948 14.2667 200.662 14.16 200.275 14.16C199.888 14.16 199.595 14.2667 199.395 14.48C199.208 14.68 199.115 15 199.115 15.44V17.44C199.115 17.88 199.208 18.2067 199.395 18.42C199.595 18.62 199.888 18.72 200.275 18.72ZM213.441 22.28C211.548 22.28 210.068 21.7867 209.001 20.8C207.934 19.8 207.401 18.3467 207.401 16.44C207.401 14.5333 207.934 13.0867 209.001 12.1C210.068 11.1 211.548 10.6 213.441 10.6C215.321 10.6 216.674 11.0933 217.501 12.08C218.341 13.0533 218.761 14.2667 218.761 15.72V17.16H212.281V17.28C212.281 17.7733 212.428 18.14 212.721 18.38C213.014 18.6067 213.501 18.72 214.181 18.72C214.994 18.72 215.768 18.66 216.501 18.54C217.234 18.42 217.874 18.2667 218.421 18.08V21.28C217.954 21.5333 217.268 21.7667 216.361 21.98C215.468 22.18 214.494 22.28 213.441 22.28ZM214.601 14.96V14.72C214.601 14.2667 214.501 13.94 214.301 13.74C214.114 13.54 213.828 13.44 213.441 13.44C213.054 13.44 212.761 13.5467 212.561 13.76C212.374 13.96 212.281 14.28 212.281 14.72V14.96H214.601ZM47.873 33.44H54.273V36.72H53.473L50.493 49H44.513L42.693 40.36H42.493L40.573 49H34.593L31.413 36.72H30.613V33.44H38.013V36.72H37.253L38.033 41.82H38.233L40.133 33.44H45.893L47.653 41.82H47.853L48.633 36.72H47.873V33.44ZM68.1537 45.72V49H61.8337V45.72H62.6737V42.44C62.6737 42 62.5803 41.68 62.3937 41.48C62.207 41.2667 61.927 41.16 61.5537 41.16C60.7537 41.16 60.3537 41.5867 60.3537 42.44V45.72H61.1937V49H54.8737V45.72H55.7537V36.72H54.8737V33.44H60.3537V39.44C60.847 38.8267 61.3803 38.3667 61.9537 38.06C62.527 37.7533 63.1937 37.6 63.9537 37.6C65.0603 37.6 65.887 37.9467 66.4337 38.64C66.9937 39.3333 67.2737 40.2867 67.2737 41.5V45.72H68.1537ZM74.7595 49.28C72.8661 49.28 71.3861 48.7867 70.3195 47.8C69.2528 46.8 68.7195 45.3467 68.7195 43.44C68.7195 41.5333 69.2528 40.0867 70.3195 39.1C71.3861 38.1 72.8661 37.6 74.7595 37.6C76.6395 37.6 77.9928 38.0933 78.8195 39.08C79.6595 40.0533 80.0795 41.2667 80.0795 42.72V44.16H73.5995V44.28C73.5995 44.7733 73.7461 45.14 74.0395 45.38C74.3328 45.6067 74.8195 45.72 75.4995 45.72C76.3128 45.72 77.0861 45.66 77.8195 45.54C78.5528 45.42 79.1928 45.2667 79.7395 45.08V48.28C79.2728 48.5333 78.5861 48.7667 77.6795 48.98C76.7861 49.18 75.8128 49.28 74.7595 49.28ZM75.9195 41.96V41.72C75.9195 41.2667 75.8195 40.94 75.6195 40.74C75.4328 40.54 75.1461 40.44 74.7595 40.44C74.3728 40.44 74.0795 40.5467 73.8795 40.76C73.6928 40.96 73.5995 41.28 73.5995 41.72V41.96H75.9195ZM89.2145 37.6C89.4811 37.6 89.7345 37.6267 89.9745 37.68C90.2145 37.7333 90.4145 37.8 90.5745 37.88V41.7C90.0278 41.4733 89.4411 41.36 88.8145 41.36C87.9745 41.36 87.3278 41.58 86.8745 42.02C86.4211 42.46 86.1945 43.1133 86.1945 43.98V45.72H87.9945V49H80.7145V45.72H81.5945V41.16H80.7145V37.88H86.1945V39.34C86.5678 38.78 86.9945 38.3533 87.4745 38.06C87.9545 37.7533 88.5345 37.6 89.2145 37.6ZM97.1813 49.28C95.288 49.28 93.808 48.7867 92.7413 47.8C91.6747 46.8 91.1413 45.3467 91.1413 43.44C91.1413 41.5333 91.6747 40.0867 92.7413 39.1C93.808 38.1 95.288 37.6 97.1813 37.6C99.0613 37.6 100.415 38.0933 101.241 39.08C102.081 40.0533 102.501 41.2667 102.501 42.72V44.16H96.0213V44.28C96.0213 44.7733 96.168 45.14 96.4613 45.38C96.7547 45.6067 97.2413 45.72 97.9213 45.72C98.7347 45.72 99.508 45.66 100.241 45.54C100.975 45.42 101.615 45.2667 102.161 45.08V48.28C101.695 48.5333 101.008 48.7667 100.101 48.98C99.208 49.18 98.2347 49.28 97.1813 49.28ZM98.3413 41.96V41.72C98.3413 41.2667 98.2413 40.94 98.0413 40.74C97.8547 40.54 97.568 40.44 97.1813 40.44C96.7947 40.44 96.5013 40.5467 96.3013 40.76C96.1147 40.96 96.0213 41.28 96.0213 41.72V41.96H98.3413ZM109.132 49V45.72H110.132V36.72H109.132V33.44H117.572V36.72H115.732V45.72H117.532V43.88H121.512V49H109.132ZM128.119 49.28C126.225 49.28 124.745 48.7867 123.679 47.8C122.612 46.8 122.079 45.3467 122.079 43.44C122.079 41.5333 122.612 40.0867 123.679 39.1C124.745 38.1 126.225 37.6 128.119 37.6C129.999 37.6 131.352 38.0933 132.179 39.08C133.019 40.0533 133.439 41.2667 133.439 42.72V44.16H126.959V44.28C126.959 44.7733 127.105 45.14 127.399 45.38C127.692 45.6067 128.179 45.72 128.859 45.72C129.672 45.72 130.445 45.66 131.179 45.54C131.912 45.42 132.552 45.2667 133.099 45.08V48.28C132.632 48.5333 131.945 48.7667 131.039 48.98C130.145 49.18 129.172 49.28 128.119 49.28ZM129.279 41.96V41.72C129.279 41.2667 129.179 40.94 128.979 40.74C128.792 40.54 128.505 40.44 128.119 40.44C127.732 40.44 127.439 40.5467 127.239 40.76C127.052 40.96 126.959 41.28 126.959 41.72V41.96H129.279ZM139.894 53.72C138.934 53.72 138.014 53.6533 137.134 53.52C136.267 53.3867 135.594 53.2333 135.114 53.06V49.78C136.527 50.0333 137.794 50.16 138.914 50.16C139.674 50.16 140.22 50.04 140.554 49.8C140.9 49.5733 141.074 49.14 141.074 48.5V47.64C140.74 48.0667 140.307 48.4467 139.774 48.78C139.254 49.1133 138.654 49.28 137.974 49.28C136.614 49.28 135.587 48.7733 134.894 47.76C134.214 46.7467 133.874 45.3067 133.874 43.44C133.874 41.5733 134.214 40.1333 134.894 39.12C135.587 38.1067 136.614 37.6 137.974 37.6C138.654 37.6 139.254 37.7667 139.774 38.1C140.307 38.4333 140.74 38.8133 141.074 39.24V37.88H146.554V41.16H145.674V48.2C145.674 50.1333 145.194 51.5333 144.234 52.4C143.274 53.28 141.827 53.72 139.894 53.72ZM139.914 45.72C140.3 45.72 140.587 45.62 140.774 45.42C140.974 45.2067 141.074 44.88 141.074 44.44V42.44C141.074 42 140.974 41.68 140.774 41.48C140.587 41.2667 140.3 41.16 139.914 41.16C139.527 41.16 139.234 41.2667 139.034 41.48C138.847 41.68 138.754 42 138.754 42.44V44.44C138.754 44.88 138.847 45.2067 139.034 45.42C139.234 45.62 139.527 45.72 139.914 45.72ZM153.08 49.28C151.186 49.28 149.706 48.7867 148.64 47.8C147.573 46.8 147.04 45.3467 147.04 43.44C147.04 41.5333 147.573 40.0867 148.64 39.1C149.706 38.1 151.186 37.6 153.08 37.6C154.96 37.6 156.313 38.0933 157.14 39.08C157.98 40.0533 158.4 41.2667 158.4 42.72V44.16H151.92V44.28C151.92 44.7733 152.066 45.14 152.36 45.38C152.653 45.6067 153.14 45.72 153.82 45.72C154.633 45.72 155.406 45.66 156.14 45.54C156.873 45.42 157.513 45.2667 158.06 45.08V48.28C157.593 48.5333 156.906 48.7667 156 48.98C155.106 49.18 154.133 49.28 153.08 49.28ZM154.24 41.96V41.72C154.24 41.2667 154.14 40.94 153.94 40.74C153.753 40.54 153.466 40.44 153.08 40.44C152.693 40.44 152.4 40.5467 152.2 40.76C152.013 40.96 151.92 41.28 151.92 41.72V41.96H154.24ZM172.275 45.72V49H165.955V45.72H166.795V42.44C166.795 42 166.701 41.68 166.515 41.48C166.328 41.2667 166.048 41.16 165.675 41.16C164.875 41.16 164.475 41.5867 164.475 42.44V45.72H165.315V49H158.995V45.72H159.875V41.16H158.995V37.88H164.475V39.44C165.435 38.2133 166.635 37.6 168.075 37.6C169.181 37.6 170.008 37.9467 170.555 38.64C171.115 39.3333 171.395 40.2867 171.395 41.5V45.72H172.275ZM176.861 49.28C175.501 49.28 174.474 48.7733 173.781 47.76C173.101 46.7467 172.761 45.3067 172.761 43.44C172.761 41.5733 173.101 40.1333 173.781 39.12C174.474 38.1067 175.501 37.6 176.861 37.6C177.541 37.6 178.141 37.7667 178.661 38.1C179.194 38.4333 179.627 38.8133 179.961 39.24V36.72H178.781V33.44H184.561V45.72H185.441V49H179.961V47.64C179.627 48.0667 179.194 48.4467 178.661 48.78C178.141 49.1133 177.541 49.28 176.861 49.28ZM178.801 45.72C179.187 45.72 179.474 45.62 179.661 45.42C179.861 45.2067 179.961 44.88 179.961 44.44V42.44C179.961 42 179.861 41.68 179.661 41.48C179.474 41.2667 179.187 41.16 178.801 41.16C178.414 41.16 178.121 41.2667 177.921 41.48C177.734 41.68 177.641 42 177.641 42.44V44.44C177.641 44.88 177.734 45.2067 177.921 45.42C178.121 45.62 178.414 45.72 178.801 45.72ZM190.945 49.28C189.265 49.28 187.645 49.0133 186.085 48.48V45.52H189.325V45.72C189.325 46.36 189.731 46.68 190.545 46.68C191.265 46.68 191.625 46.4333 191.625 45.94C191.625 45.6733 191.518 45.4733 191.305 45.34C191.105 45.2067 190.745 45.0933 190.225 45L189.225 44.82C187.131 44.4467 186.085 43.26 186.085 41.26C186.085 40.1 186.525 39.2 187.405 38.56C188.285 37.92 189.471 37.6 190.965 37.6C192.631 37.6 194.038 37.88 195.185 38.44V41.22H192.145V41.02C192.145 40.7533 192.051 40.5533 191.865 40.42C191.691 40.2733 191.431 40.2 191.085 40.2C190.418 40.2 190.085 40.4133 190.085 40.84C190.085 41.0667 190.178 41.24 190.365 41.36C190.551 41.48 190.891 41.5933 191.385 41.7L192.525 41.92C193.711 42.1467 194.558 42.5667 195.065 43.18C195.571 43.7933 195.825 44.58 195.825 45.54C195.825 46.7533 195.398 47.68 194.545 48.32C193.705 48.96 192.505 49.28 190.945 49.28ZM217.172 45.72H217.972V49H210.132V45.72H211.332L211.012 44.12H208.292L207.972 45.72H209.172V49H202.332V45.72H203.132L206.512 33.44H213.792L217.172 45.72ZM208.732 42H210.572L209.752 38.02H209.552L208.732 42ZM227.105 37.6C227.372 37.6 227.625 37.6267 227.865 37.68C228.105 37.7333 228.305 37.8 228.465 37.88V41.7C227.918 41.4733 227.332 41.36 226.705 41.36C225.865 41.36 225.218 41.58 224.765 42.02C224.312 42.46 224.085 43.1133 224.085 43.98V45.72H225.885V49H218.605V45.72H219.485V41.16H218.605V37.88H224.085V39.34C224.458 38.78 224.885 38.3533 225.365 38.06C225.845 37.7533 226.425 37.6 227.105 37.6ZM235.072 49.28C233.179 49.28 231.699 48.7867 230.632 47.8C229.565 46.8 229.032 45.3467 229.032 43.44C229.032 41.5333 229.565 40.0867 230.632 39.1C231.699 38.1 233.179 37.6 235.072 37.6C236.952 37.6 238.305 38.0933 239.132 39.08C239.972 40.0533 240.392 41.2667 240.392 42.72V44.16H233.912V44.28C233.912 44.7733 234.059 45.14 234.352 45.38C234.645 45.6067 235.132 45.72 235.812 45.72C236.625 45.72 237.399 45.66 238.132 45.54C238.865 45.42 239.505 45.2667 240.052 45.08V48.28C239.585 48.5333 238.899 48.7667 237.992 48.98C237.099 49.18 236.125 49.28 235.072 49.28ZM236.232 41.96V41.72C236.232 41.2667 236.132 40.94 235.932 40.74C235.745 40.54 235.459 40.44 235.072 40.44C234.685 40.44 234.392 40.5467 234.192 40.76C234.005 40.96 233.912 41.28 233.912 41.72V41.96H236.232ZM109.591 72.72H110.591V63.72H109.591V60.44H118.771C120.438 60.44 121.738 60.78 122.671 61.46C123.605 62.14 124.071 63.1133 124.071 64.38C124.071 65.1667 123.885 65.8333 123.511 66.38C123.138 66.9133 122.698 67.32 122.191 67.6C121.698 67.8667 121.218 68.0467 120.751 68.14V68.34C121.698 68.4333 122.551 68.7333 123.311 69.24C124.071 69.7467 124.451 70.6533 124.451 71.96C124.451 73.36 123.925 74.3867 122.871 75.04C121.818 75.68 120.451 76 118.771 76H109.591V72.72ZM117.271 67C117.658 67 117.945 66.9 118.131 66.7C118.331 66.4867 118.431 66.16 118.431 65.72V65C118.431 64.56 118.331 64.24 118.131 64.04C117.945 63.8267 117.658 63.72 117.271 63.72H116.191V67H117.271ZM117.411 72.72C117.798 72.72 118.085 72.62 118.271 72.42C118.471 72.2067 118.571 71.88 118.571 71.44V70.56C118.571 70.12 118.471 69.8 118.271 69.6C118.085 69.3867 117.798 69.28 117.411 69.28H116.191V72.72H117.411ZM131.019 76.28C129.126 76.28 127.646 75.7867 126.579 74.8C125.513 73.8 124.979 72.3467 124.979 70.44C124.979 68.5333 125.513 67.0867 126.579 66.1C127.646 65.1 129.126 64.6 131.019 64.6C132.939 64.6 134.426 65.1067 135.479 66.12C136.533 67.12 137.059 68.56 137.059 70.44C137.059 72.3467 136.526 73.8 135.459 74.8C134.393 75.7867 132.913 76.28 131.019 76.28ZM131.019 72.72C131.406 72.72 131.693 72.62 131.879 72.42C132.079 72.2067 132.179 71.88 132.179 71.44V69.44C132.179 69 132.079 68.68 131.879 68.48C131.693 68.2667 131.406 68.16 131.019 68.16C130.633 68.16 130.339 68.2667 130.139 68.48C129.953 68.68 129.859 69 129.859 69.44V71.44C129.859 71.88 129.953 72.2067 130.139 72.42C130.339 72.62 130.633 72.72 131.019 72.72ZM146.236 64.6C146.503 64.6 146.756 64.6267 146.996 64.68C147.236 64.7333 147.436 64.8 147.596 64.88V68.7C147.049 68.4733 146.463 68.36 145.836 68.36C144.996 68.36 144.349 68.58 143.896 69.02C143.443 69.46 143.216 70.1133 143.216 70.98V72.72H145.016V76H137.736V72.72H138.616V68.16H137.736V64.88H143.216V66.34C143.589 65.78 144.016 65.3533 144.496 65.06C144.976 64.7533 145.556 64.6 146.236 64.6ZM161.523 72.72V76H155.203V72.72H156.043V69.44C156.043 69 155.949 68.68 155.763 68.48C155.576 68.2667 155.296 68.16 154.923 68.16C154.123 68.16 153.723 68.5867 153.723 69.44V72.72H154.563V76H148.243V72.72H149.123V68.16H148.243V64.88H153.723V66.44C154.683 65.2133 155.883 64.6 157.323 64.6C158.429 64.6 159.256 64.9467 159.803 65.64C160.363 66.3333 160.643 67.2867 160.643 68.5V72.72H161.523Z" fill="#FADCD5"/>
</svg>
