<svg width="93" height="45" viewBox="0 0 93 45" fill="none" xmlns="http://www.w3.org/2000/svg">
<path d="M15.764 32L13.124 24.16H12.284V20.88H18.464V24.16H17.624L18.344 27.28H18.544L20.004 20.88H23.684L25.144 27.28H25.344L26.044 24.16H25.204V20.88H31.004V24.16H30.164L27.624 32H22.764L21.664 26.44H21.464L20.364 32H15.764ZM37.5251 32.28C35.6317 32.28 34.1517 31.7867 33.0851 30.8C32.0184 29.8 31.4851 28.3467 31.4851 26.44C31.4851 24.5333 32.0184 23.0867 33.0851 22.1C34.1517 21.1 35.6317 20.6 37.5251 20.6C39.4451 20.6 40.9317 21.1067 41.9851 22.12C43.0384 23.12 43.5651 24.56 43.5651 26.44C43.5651 28.3467 43.0317 29.8 41.9651 30.8C40.8984 31.7867 39.4184 32.28 37.5251 32.28ZM37.5251 28.72C37.9117 28.72 38.1984 28.62 38.3851 28.42C38.5851 28.2067 38.6851 27.88 38.6851 27.44V25.44C38.6851 25 38.5851 24.68 38.3851 24.48C38.1984 24.2667 37.9117 24.16 37.5251 24.16C37.1384 24.16 36.8451 24.2667 36.6451 24.48C36.4584 24.68 36.3651 25 36.3651 25.44V27.44C36.3651 27.88 36.4584 28.2067 36.6451 28.42C36.8451 28.62 37.1384 28.72 37.5251 28.72ZM52.7418 20.6C53.0085 20.6 53.2618 20.6267 53.5018 20.68C53.7418 20.7333 53.9418 20.8 54.1018 20.88V24.7C53.5551 24.4733 52.9685 24.36 52.3418 24.36C51.5018 24.36 50.8551 24.58 50.4018 25.02C49.9485 25.46 49.7218 26.1133 49.7218 26.98V28.72H51.5218V32H44.2418V28.72H45.1218V24.16H44.2418V20.88H49.7218V22.34C50.0951 21.78 50.5218 21.3533 51.0018 21.06C51.4818 20.7533 52.0618 20.6 52.7418 20.6ZM54.7487 32.02V28.72H55.6287V19.72H54.7487V16.44H60.2287V28.72H61.1087V32.02H54.7487ZM65.6809 32.28C64.3209 32.28 63.2942 31.7733 62.6009 30.76C61.9209 29.7467 61.5809 28.3067 61.5809 26.44C61.5809 24.5733 61.9209 23.1333 62.6009 22.12C63.2942 21.1067 64.3209 20.6 65.6809 20.6C66.3609 20.6 66.9609 20.7667 67.4809 21.1C68.0142 21.4333 68.4475 21.8133 68.7809 22.24V19.72H67.6009V16.44H73.3809V28.72H74.2609V32H68.7809V30.64C68.4475 31.0667 68.0142 31.4467 67.4809 31.78C66.9609 32.1133 66.3609 32.28 65.6809 32.28ZM67.6209 28.72C68.0075 28.72 68.2942 28.62 68.4809 28.42C68.6809 28.2067 68.7809 27.88 68.7809 27.44V25.44C68.7809 25 68.6809 24.68 68.4809 24.48C68.2942 24.2667 68.0075 24.16 67.6209 24.16C67.2342 24.16 66.9409 24.2667 66.7409 24.48C66.5542 24.68 66.4609 25 66.4609 25.44V27.44C66.4609 27.88 66.5542 28.2067 66.7409 28.42C66.9409 28.62 67.2342 28.72 67.6209 28.72ZM79.7649 32.28C78.0849 32.28 76.4649 32.0133 74.9049 31.48V28.52H78.1449V28.72C78.1449 29.36 78.5516 29.68 79.3649 29.68C80.0849 29.68 80.4449 29.4333 80.4449 28.94C80.4449 28.6733 80.3383 28.4733 80.1249 28.34C79.9249 28.2067 79.5649 28.0933 79.0449 28L78.0449 27.82C75.9516 27.4467 74.9049 26.26 74.9049 24.26C74.9049 23.1 75.3449 22.2 76.2249 21.56C77.1049 20.92 78.2916 20.6 79.7849 20.6C81.4516 20.6 82.8583 20.88 84.0049 21.44V24.22H80.9649V24.02C80.9649 23.7533 80.8716 23.5533 80.6849 23.42C80.5116 23.2733 80.2516 23.2 79.9049 23.2C79.2383 23.2 78.9049 23.4133 78.9049 23.84C78.9049 24.0667 78.9983 24.24 79.1849 24.36C79.3716 24.48 79.7116 24.5933 80.2049 24.7L81.3449 24.92C82.5316 25.1467 83.3783 25.5667 83.8849 26.18C84.3916 26.7933 84.6449 27.58 84.6449 28.54C84.6449 29.7533 84.2183 30.68 83.3649 31.32C82.5249 31.96 81.3249 32.28 79.7649 32.28Z" fill="black"/>
<path d="M26.7773 14.44H33.1773V17.72H32.3773L29.3973 30H23.4173L21.5973 21.36H21.3973L19.4773 30H13.4973L10.3173 17.72H9.51734V14.44H16.9173V17.72H16.1573L16.9373 22.82H17.1373L19.0373 14.44H24.7973L26.5573 22.82H26.7573L27.5373 17.72H26.7773V14.44ZM38.3317 30.28C36.4384 30.28 34.9584 29.7867 33.8917 28.8C32.8251 27.8 32.2917 26.3467 32.2917 24.44C32.2917 22.5333 32.8251 21.0867 33.8917 20.1C34.9584 19.1 36.4384 18.6 38.3317 18.6C40.2517 18.6 41.7384 19.1067 42.7917 20.12C43.8451 21.12 44.3717 22.56 44.3717 24.44C44.3717 26.3467 43.8384 27.8 42.7717 28.8C41.7051 29.7867 40.2251 30.28 38.3317 30.28ZM38.3317 26.72C38.7184 26.72 39.0051 26.62 39.1917 26.42C39.3917 26.2067 39.4917 25.88 39.4917 25.44V23.44C39.4917 23 39.3917 22.68 39.1917 22.48C39.0051 22.2667 38.7184 22.16 38.3317 22.16C37.9451 22.16 37.6517 22.2667 37.4517 22.48C37.2651 22.68 37.1717 23 37.1717 23.44V25.44C37.1717 25.88 37.2651 26.2067 37.4517 26.42C37.6517 26.62 37.9451 26.72 38.3317 26.72ZM53.5484 18.6C53.8151 18.6 54.0684 18.6267 54.3084 18.68C54.5484 18.7333 54.7484 18.8 54.9084 18.88V22.7C54.3618 22.4733 53.7751 22.36 53.1484 22.36C52.3084 22.36 51.6618 22.58 51.2084 23.02C50.7551 23.46 50.5284 24.1133 50.5284 24.98V26.72H52.3284V30H45.0484V26.72H45.9284V22.16H45.0484V18.88H50.5284V20.34C50.9018 19.78 51.3284 19.3533 51.8084 19.06C52.2884 18.7533 52.8684 18.6 53.5484 18.6ZM55.5553 30.02V26.72H56.4353V17.72H55.5553V14.44H61.0353V26.72H61.9153V30.02H55.5553ZM66.4875 30.28C65.1275 30.28 64.1008 29.7733 63.4075 28.76C62.7275 27.7467 62.3875 26.3067 62.3875 24.44C62.3875 22.5733 62.7275 21.1333 63.4075 20.12C64.1008 19.1067 65.1275 18.6 66.4875 18.6C67.1675 18.6 67.7675 18.7667 68.2875 19.1C68.8208 19.4333 69.2542 19.8133 69.5875 20.24V17.72H68.4075V14.44H74.1875V26.72H75.0675V30H69.5875V28.64C69.2542 29.0667 68.8208 29.4467 68.2875 29.78C67.7675 30.1133 67.1675 30.28 66.4875 30.28ZM68.4275 26.72C68.8142 26.72 69.1008 26.62 69.2875 26.42C69.4875 26.2067 69.5875 25.88 69.5875 25.44V23.44C69.5875 23 69.4875 22.68 69.2875 22.48C69.1008 22.2667 68.8142 22.16 68.4275 22.16C68.0408 22.16 67.7475 22.2667 67.5475 22.48C67.3608 22.68 67.2675 23 67.2675 23.44V25.44C67.2675 25.88 67.3608 26.2067 67.5475 26.42C67.7475 26.62 68.0408 26.72 68.4275 26.72ZM80.5716 30.28C78.8916 30.28 77.2716 30.0133 75.7116 29.48V26.52H78.9516V26.72C78.9516 27.36 79.3582 27.68 80.1716 27.68C80.8916 27.68 81.2516 27.4333 81.2516 26.94C81.2516 26.6733 81.1449 26.4733 80.9316 26.34C80.7316 26.2067 80.3716 26.0933 79.8516 26L78.8516 25.82C76.7582 25.4467 75.7116 24.26 75.7116 22.26C75.7116 21.1 76.1516 20.2 77.0316 19.56C77.9116 18.92 79.0982 18.6 80.5916 18.6C82.2582 18.6 83.6649 18.88 84.8116 19.44V22.22H81.7716V22.02C81.7716 21.7533 81.6782 21.5533 81.4916 21.42C81.3182 21.2733 81.0582 21.2 80.7116 21.2C80.0449 21.2 79.7116 21.4133 79.7116 21.84C79.7116 22.0667 79.8049 22.24 79.9916 22.36C80.1782 22.48 80.5182 22.5933 81.0116 22.7L82.1516 22.92C83.3382 23.1467 84.1849 23.5667 84.6916 24.18C85.1982 24.7933 85.4516 25.58 85.4516 26.54C85.4516 27.7533 85.0249 28.68 84.1716 29.32C83.3316 29.96 82.1316 30.28 80.5716 30.28Z" fill="#FADCD5"/>
</svg>
